<svg width="17" height="15" viewBox="0 0 17 15" fill="none" xmlns="http://www.w3.org/2000/svg">
<path d="M6 7C7.65685 7 9 5.65685 9 4C9 2.34315 7.65685 1 6 1C4.34315 1 3 2.34315 3 4C3 5.65685 4.34315 7 6 7Z" stroke="#262626" stroke-linecap="round" stroke-linejoin="round"/>
<path d="M13 6C14.1046 6 15 5.10457 15 4C15 2.89543 14.1046 2 13 2C11.8954 2 11 2.89543 11 4C11 5.10457 11.8954 6 13 6Z" stroke="#262626" stroke-linecap="round" stroke-linejoin="round"/>
<path d="M6 9C4.67392 9 3.40215 9.52678 2.46447 10.4645C1.52678 11.4021 1 12.6739 1 14H11C11 12.6739 10.4732 11.4021 9.53553 10.4645C8.59785 9.52678 7.32608 9 6 9V9Z" stroke="#262626" stroke-linecap="round" stroke-linejoin="round"/>
<path d="M11.3411 8.5C11.8325 8.17303 12.4098 7.99903 13.0001 8C13.7957 8 14.5588 8.31607 15.1214 8.87868C15.684 9.44129 16.0001 10.2044 16.0001 11V12H13.0001" stroke="#262626" stroke-linecap="round" stroke-linejoin="round"/>
</svg>
