<svg width="20" height="21" viewBox="0 0 20 21" fill="none" xmlns="http://www.w3.org/2000/svg">
<path d="M5.34483 19.6207C6.37322 19.6207 7.2069 18.787 7.2069 17.7586C7.2069 16.7302 6.37322 15.8965 5.34483 15.8965C4.31643 15.8965 3.48276 16.7302 3.48276 17.7586C3.48276 18.787 4.31643 19.6207 5.34483 19.6207Z" stroke="#404040" stroke-miterlimit="10" stroke-linecap="round" stroke-linejoin="round"/>
<path d="M17.1379 19.6207C18.1663 19.6207 19 18.787 19 17.7586C19 16.7302 18.1663 15.8965 17.1379 15.8965C16.1095 15.8965 15.2758 16.7302 15.2758 17.7586C15.2758 18.787 16.1095 19.6207 17.1379 19.6207Z" stroke="#404040" stroke-miterlimit="10" stroke-linecap="round" stroke-linejoin="round"/>
<path d="M6.58621 4.72414H19L17.1379 13.4138H4.72414L3.48276 1H1" stroke="#404040" stroke-miterlimit="10" stroke-linecap="round" stroke-linejoin="round"/>
<path d="M3.92099 4.72414H7.82761" stroke="#404040" stroke-miterlimit="10" stroke-linecap="round" stroke-linejoin="round"/>
</svg>
