<svg xmlns="http://www.w3.org/2000/svg" width="60" height="60" viewBox="0 0 60 60">
    <g fill="none" fill-rule="evenodd">
        <g>
            <g>
                <g fill-rule="nonzero">
                    <path fill="#00394C" d="M37.462 22.4H21.538c-.297 0-.538-.224-.538-.5s.24-.5.538-.5h15.924c.297 0 .538.224.538.5s-.24.5-.538.5zM37.462 26.4H21.538c-.297 0-.538-.224-.538-.5s.24-.5.538-.5h15.924c.297 0 .538.224.538.5s-.24.5-.538.5z" transform="translate(-288 -1167) translate(288 1167) translate(8 12.6)"/>
                    <g>
                        <path fill="#00394C" d="M38.412 31.481H5.588c-2.942-.003-5.326-2.394-5.33-5.346V5.865C.263 2.913 2.647.522 5.588.519h32.824c2.942.003 5.326 2.394 5.33 5.346v20.27c-.004 2.952-2.388 5.343-5.33 5.346zM5.588 2.008c-2.126 0-3.85 1.73-3.85 3.862v20.265c0 2.133 1.724 3.862 3.85 3.862h32.824c2.126 0 3.85-1.729 3.85-3.862V5.865c0-2.133-1.724-3.862-3.85-3.862l-32.824.005z" transform="translate(-288 -1167) translate(288 1167) translate(8 12.6) translate(0 .4)"/>
                        <path fill="#00394C" d="M4.268 26.847v-3.713c.02-.61.282-1.185.727-1.6.445-.414 1.037-.632 1.643-.607h8.85c1.019.048 1.807.914 1.76 1.936v3.962M10.758 13.319c-1.616 0-2.926 1.314-2.926 2.935v1.103c0 1.621 1.31 2.935 2.926 2.935s2.926-1.314 2.926-2.935v-1.103c0-1.621-1.31-2.935-2.926-2.935" transform="translate(-288 -1167) translate(288 1167) translate(8 12.6) translate(0 .4)"/>
                        <path fill="#E95317" d="M13.453 10.196H8.057c-.878-.003-1.589-.719-1.589-1.6V6.218c.003-.88.713-1.592 1.59-1.595h5.395c.878 0 1.59.714 1.59 1.595v2.378c.001.424-.166.83-.464 1.13-.298.301-.703.47-1.126.47zM8.057 5.45c-.422 0-.764.343-.764.767v2.378c-.003.206.076.404.22.551.143.147.34.23.544.232h5.396c.423-.003.764-.348.764-.772v-2.39c0-.423-.342-.766-.764-.766H8.057z" transform="translate(-288 -1167) translate(288 1167) translate(8 12.6) translate(0 .4)"/>
                    </g>
                    <path fill="#00394C" d="M24.988 5.897L31.477 5.886 31.467 12.376 24.978 12.386z" transform="translate(-288 -1167) translate(288 1167) translate(8 12.6) rotate(-45 28.228 9.136)"/>
                    <path fill="#E95317" d="M33.5 18.4c-1.416 0-2.693-.853-3.234-2.162-.541-1.308-.241-2.814.761-3.815 1.002-1 2.509-1.298 3.816-.755 1.308.544 2.16 1.821 2.157 3.238 0 .927-.369 1.817-1.025 2.472-.657.656-1.547 1.023-2.475 1.022" transform="translate(-288 -1167) translate(288 1167) translate(8 12.6)"/>
                </g>
                <path d="M0 0H60V60H0z" transform="translate(-288 -1167) translate(288 1167)"/>
            </g>
        </g>
    </g>
</svg>
