<svg xmlns="http://www.w3.org/2000/svg" width="60" height="60"><g fill="none" fill-rule="evenodd"><g fill-rule="nonzero"><path fill="#E95317" d="M33.528 30.942a3.72 3.72 0 11.001-7.441 3.72 3.72 0 01-.001 7.441"/><path fill="#00394C" d="M22.63 21.208l4.872-4.87 4.87 4.872-4.872 4.87z"/><path fill="#E95317" d="M35.82 45.372H24.63c-1.27 0-2.3-1.028-2.304-2.298V38.91a2.31 2.31 0 012.304-2.31h11.19a2.31 2.31 0 012.304 2.304v4.164c0 .611-.243 1.197-.675 1.63a2.307 2.307 0 01-1.629.674zM24.63 37.8c-.61 0-1.104.494-1.104 1.104v4.164a1.1 1.1 0 001.104 1.098h11.19a1.098 1.098 0 001.104-1.098V38.91a1.105 1.105 0 00-1.104-1.11H24.63z"/><path fill="#E85319" d="M22.854 40.392h5.862v1.2h-5.862z"/><path fill="#E95317" d="M32.262 40.392h5.862v1.2h-5.862z"/><path fill="#E85319" d="M30.228 43.2a2.19 2.19 0 11-.036-4.38 2.19 2.19 0 01.036 4.38zm0-3.174a.992.992 0 00-.93.604.992.992 0 001.304 1.295.991.991 0 00.598-.933.99.99 0 00-.972-.99v.024z"/><path fill="#00394C" d="M32.364 49.038h-4.2a.6.6 0 000 1.2h4.2a.6.6 0 000-1.2z"/><path fill="#00394C" d="M46.23 10.452L44.85 6.93a3.134 3.134 0 00-3.246-1.89L12.678 9.138a.751.751 0 00-.6.534h-.036V54.99H43.8a4.157 4.157 0 002.963-1.203A4.159 4.159 0 0048 50.838V13.8a4.146 4.146 0 00-1.77-3.348zm-4.416-3.93a1.67 1.67 0 011.638.954l.876 2.232a3.633 3.633 0 00-.51-.036H19.614l22.2-3.15zm4.656 44.316a2.66 2.66 0 01-2.67 2.652H13.53V11.172H43.8a2.657 2.657 0 012.67 2.628v37.038z"/></g><path d="M0 0h60v60H0z"/></g></svg>