<svg width="60" height="60" fill="none" xmlns="http://www.w3.org/2000/svg"><path d="M25.986 59.03v-8.922h1.026v6.438L30 53.558l2.988 2.988v-6.438h1.026v8.922L30 55.01l-4.014 4.02z" fill="#E95317"/><path d="M43.944 49.436h-6.48a.696.696 0 110-1.386h6.48a.56.56 0 00.54-.6V10.034a.653.653 0 00-.648-.648h-27.81a.598.598 0 00-.54.6v37.476c-.002.31.232.57.54.6H22.2a.696.696 0 110 1.386h-6.174a1.951 1.951 0 01-1.926-1.974v-37.5A1.953 1.953 0 0116.026 8h27.84a2.018 2.018 0 011.44.6c.384.383.6.904.6 1.446v37.416a1.955 1.955 0 01-.567 1.399c-.369.37-.872.578-1.395.575z" fill="#00394C"/><path d="M39 30.74H20.826a.516.516 0 110-1.032H39a.516.516 0 110 1.032zm0 3.87H20.826a.516.516 0 110-1.026H39a.516.516 0 110 1.026z" fill="#00394C"/><path d="M33.162 25.52a3.6 3.6 0 110-7.2 3.6 3.6 0 010 7.2z" fill="#E95317"/><path d="M22.67 16.151l4.683-4.684 4.684 4.684-4.684 4.684-4.684-4.684z" fill="#00394C"/><path d="M29.892 51.896a6.966 6.966 0 11-.012-13.932 6.966 6.966 0 01.012 13.932zm0-12.816a5.857 5.857 0 105.85 5.832 5.862 5.862 0 00-5.85-5.832z" fill="#E95317"/><path d="M29.892 47.912a3 3 0 110-6 3 3 0 010 6" fill="#E95317"/></svg>