<svg width="60" height="60" fill="none" xmlns="http://www.w3.org/2000/svg"><path d="M44.472 51.008H15.498a2.028 2.028 0 01-1.998-2.052V10.052A2.035 2.035 0 0115.498 8h6.51a.726.726 0 010 1.446h-6.51a.6.6 0 00-.558.6v38.91a.6.6 0 00.558.6h28.974a.6.6 0 00.558-.6V10.118a.663.663 0 00-.672-.672h-6.036a.726.726 0 010-1.446H44.4a2.118 2.118 0 012.112 2.118v38.838a2.022 2.022 0 01-2.04 2.052z" fill="#00394C"/><path d="M39.348 25.468h-18.87a.535.535 0 010-1.068h18.87a.535.535 0 010 1.068zm0 4.02h-18.87a.535.535 0 010-1.068h18.87a.535.535 0 010 1.068z" fill="#00394C"/><path d="M30.126 16.216l-1.764-2.13-2.706.6-.168-2.754-2.55-1.104 1.488-2.316-1.422-2.4L25.59 5.11l.252-2.748 2.694.702L30.336 1 32.1 3.136l2.706-.6.168 2.754 2.55 1.098-1.458 2.37 1.416 2.4-2.58.996-.258 2.748-2.688-.744-1.83 2.058zm-1.404-3.174l1.434 1.716 1.482-1.674 2.172.57.204-2.226 2.088-.804-1.146-1.926 1.2-1.878-2.058-.882-.138-2.232-2.16.486-1.464-1.734-1.482 1.674-2.172-.564-.204 2.22-2.088.81 1.146 1.926-1.2 1.878 2.064.888.138 2.232 2.184-.48z" fill="#E95317"/><path d="M32.118 14.872l-1.992 2.34-1.878-2.34-1.188.228v6.906l2.94-2.94 2.94 2.94v-6.894l-.822-.24z" fill="#E95317"/><path d="M22.7 37.564l4.863-4.862 4.862 4.862-4.862 4.862-4.862-4.862z" fill="#00394C"/><path d="M33.6 47.29a3.714 3.714 0 11-.023-7.429 3.714 3.714 0 01.023 7.429" fill="#E95317"/></svg>