<svg width="24" height="24" viewBox="0 0 24 24" fill="none" xmlns="http://www.w3.org/2000/svg">
<path fill-rule="evenodd" clip-rule="evenodd" d="M23.7665 0.238867C23.4476 -0.0796224 22.931 -0.0796224 22.6122 0.238867L21.1583 1.69272C21.0217 1.65464 20.8808 1.63451 20.739 1.63282H12.4788C12.0457 1.6332 11.6305 1.80556 11.3244 2.11199L0.477733 12.9533C-0.159244 13.591 -0.159244 14.6242 0.477733 15.262L8.73799 23.5223C9.37576 24.1592 10.4089 24.1592 11.0467 23.5223L21.888 12.681C22.1924 12.3741 22.3627 11.9589 22.3617 11.5266V3.26636C22.36 3.1246 22.3399 2.98365 22.3018 2.84709L23.7556 1.39324C24.0772 1.07736 24.082 0.56075 23.7665 0.238867ZM20.3023 11.676L9.8273 22.154L1.84607 14.1705L12.3264 3.69246H19.1922L16.7826 6.10277C16.4116 5.90506 15.9982 5.80032 15.5778 5.79754C14.125 5.79754 12.9472 6.97563 12.9472 8.42889C12.9472 9.88214 14.125 11.0602 15.5778 11.0602C17.0306 11.0602 18.2084 9.88214 18.2084 8.42889C18.204 8.00795 18.0975 7.59438 17.898 7.22373L20.3076 4.81341L20.3023 11.676ZM16.6107 8.30745C16.6107 8.81725 16.1984 9.23052 15.6899 9.23052C15.1813 9.23052 14.7691 8.81725 14.7691 8.30745C14.7691 7.79765 15.1813 7.38438 15.6899 7.38438C15.9349 7.38315 16.1703 7.47986 16.3439 7.6531C16.5176 7.82635 16.6153 8.06184 16.6153 8.30745H16.6107Z" fill="#00394D"/>
<mask id="mask0" mask-type="alpha" maskUnits="userSpaceOnUse" x="0" y="0" width="24" height="24">
<path fill-rule="evenodd" clip-rule="evenodd" d="M23.7665 0.238867C23.4476 -0.0796224 22.931 -0.0796224 22.6122 0.238867L21.1583 1.69272C21.0217 1.65464 20.8808 1.63451 20.739 1.63282H12.4788C12.0457 1.6332 11.6305 1.80556 11.3244 2.11199L0.477733 12.9533C-0.159244 13.591 -0.159244 14.6242 0.477733 15.262L8.73799 23.5223C9.37576 24.1592 10.4089 24.1592 11.0467 23.5223L21.888 12.681C22.1924 12.3741 22.3627 11.9589 22.3617 11.5266V3.26636C22.36 3.1246 22.3399 2.98365 22.3018 2.84709L23.7556 1.39324C24.0772 1.07736 24.082 0.56075 23.7665 0.238867ZM20.3023 11.676L9.8273 22.154L1.84607 14.1705L12.3264 3.69246H19.1922L16.7826 6.10277C16.4116 5.90506 15.9982 5.80032 15.5778 5.79754C14.125 5.79754 12.9472 6.97563 12.9472 8.42889C12.9472 9.88214 14.125 11.0602 15.5778 11.0602C17.0306 11.0602 18.2084 9.88214 18.2084 8.42889C18.204 8.00795 18.0975 7.59438 17.898 7.22373L20.3076 4.81341L20.3023 11.676ZM16.6107 8.30745C16.6107 8.81725 16.1984 9.23052 15.6899 9.23052C15.1813 9.23052 14.7691 8.81725 14.7691 8.30745C14.7691 7.79765 15.1813 7.38438 15.6899 7.38438C15.9349 7.38315 16.1703 7.47986 16.3439 7.6531C16.5176 7.82635 16.6153 8.06184 16.6153 8.30745H16.6107Z" fill="white"/>
</mask>
<g mask="url(#mask0)">
</g>
</svg>
