<svg width="27" height="24" viewBox="0 0 27 24" fill="none" xmlns="http://www.w3.org/2000/svg">
<path d="M2.41311 15.739C2.39201 15.1471 2.61789 14.6614 2.99209 14.2448C3.24763 13.9604 3.50889 13.6815 3.77755 13.4117C3.90533 13.2831 3.92757 13.1994 3.79181 13.0472C3.4199 12.6312 3.21911 12.131 3.20828 11.5476C3.202 11.1808 3.07138 10.8733 2.81697 10.6083C2.03778 9.79699 1.27056 8.9723 0.499929 8.15125C-0.160616 7.44723 -0.168602 6.67469 0.48795 5.97432C2.04804 4.30978 3.61042 2.64828 5.17679 0.990415C5.85445 0.273665 6.56348 0.281548 7.23942 0.997692C7.75679 1.54587 8.2656 2.10314 8.79153 2.64222C9.29692 3.16068 9.91183 3.39232 10.5935 3.1819C11.4942 2.90357 12.3555 2.9915 13.206 3.35412C13.5494 3.50025 13.8529 3.51602 14.1997 3.32016C14.7187 3.02727 15.3034 2.95511 15.8847 2.96118C16.6918 2.96967 17.3558 2.65859 17.9274 2.06493C18.463 1.50827 19.0186 0.973437 19.5656 0.4289C20.1503 -0.153232 20.9038 -0.145955 21.4651 0.470135C22.2631 1.34637 23.0491 2.23594 23.8403 3.12005C24.5203 3.87985 25.2008 4.63905 25.8807 5.39825C26.5755 6.17442 26.5732 6.86146 25.8733 7.63885C25.2835 8.29436 24.6982 8.95532 24.1027 9.60537C23.7023 10.0426 23.5283 10.5695 23.5186 11.165C23.5095 11.7392 23.4867 12.3123 23.4085 12.8811C23.356 13.2643 23.2334 13.6245 23.0463 13.9556C22.9653 14.0993 22.9516 14.2091 23.0349 14.3679C23.7644 15.7614 23.1142 17.2653 21.6391 17.5933C21.4417 17.637 21.3721 17.7061 21.3316 17.9268C21.1622 18.8443 20.6386 19.4325 19.7761 19.6465C19.5781 19.6957 19.484 19.7593 19.4452 19.9952C19.2832 20.9776 18.7448 21.6021 17.811 21.8071C17.6484 21.8429 17.5651 21.9332 17.5446 22.1079C17.4391 22.995 16.9816 23.605 16.1921 23.8791C15.3707 24.1641 14.6423 23.938 14.0365 23.2764C13.765 22.9799 13.4781 22.6997 13.2157 22.3953C13.0583 22.2128 12.9527 22.2352 12.8033 22.4026C12.5032 22.7391 12.1986 23.0732 11.8752 23.3837C10.7349 24.477 8.97749 24.0271 8.56165 22.5129C8.45156 22.1115 8.31523 21.9387 7.91651 21.8405C7.14131 21.65 6.67072 21.0643 6.49788 20.2372C6.45111 20.0134 6.37467 19.9322 6.14935 19.9164C5.33765 19.8594 4.64174 19.1657 4.44608 18.2191C4.39817 17.9863 4.29777 17.9105 4.09813 17.8729C3.06282 17.6788 2.41026 16.8456 2.41311 15.739ZM22.0606 15.4431C22.0794 15.1853 21.9186 14.9901 21.7406 14.7997C20.3493 13.3128 18.953 11.8308 17.5726 10.3324C17.021 9.73392 16.3598 9.37433 15.608 9.1815C15.203 9.07781 14.8209 9.14148 14.4706 9.40465C14.1654 9.63447 13.9281 9.93767 13.6578 10.2057C13.0891 10.7684 12.4291 11.1462 11.6653 11.3063C10.7971 11.4882 9.76866 10.9467 9.33742 10.0905C8.91132 9.24396 9.06362 8.21189 9.72873 7.50363C10.2313 6.96819 10.7418 6.44124 11.25 5.91186C11.6294 5.51649 12.0076 5.11992 12.3937 4.73243C12.542 4.58326 12.5192 4.52444 12.3293 4.4638C11.9174 4.33283 11.5084 4.32737 11.0966 4.44743C9.84167 4.81248 8.75617 4.48988 7.83209 3.53179C7.35693 3.03879 6.88405 2.54277 6.42658 2.03098C6.2526 1.83633 6.15106 1.8436 5.97481 2.0328C4.47917 3.6373 2.97783 5.23574 1.46622 6.82326C1.27684 7.02276 1.30935 7.11978 1.4782 7.29503C2.24427 8.09182 2.9995 8.90074 3.75474 9.70906C4.18597 10.1699 4.44152 10.7144 4.44722 11.3791C4.44951 11.6459 4.52537 11.8921 4.68224 12.1097C4.77921 12.2444 4.85907 12.2662 4.97657 12.134C5.17223 11.9145 5.37016 11.6962 5.58236 11.4949C6.16875 10.9382 6.85097 10.7775 7.59308 11.0358C8.33976 11.296 8.7921 11.8666 8.93071 12.6895C8.96836 12.9138 9.07788 12.9611 9.25186 12.9896C10.0927 13.1273 10.7515 13.7585 10.9158 14.6269C10.9643 14.8828 11.0818 14.9543 11.29 14.9846C12.1616 15.1126 12.8181 15.7748 12.979 16.6989C13.0138 16.8972 13.0885 17.0106 13.2784 17.0336C13.7935 17.0961 14.1997 17.3744 14.5573 17.757C15.2926 18.5441 16.0313 19.3276 16.7711 20.1098C16.8647 20.2087 16.9616 20.3105 17.0729 20.3839C17.3187 20.5452 17.5788 20.5458 17.8287 20.3924C18.0682 20.245 18.1852 20.0177 18.1915 19.7181C18.1972 19.4404 18.07 19.2427 17.896 19.0583C17.1362 18.2543 16.3787 17.4484 15.6223 16.6413C15.5156 16.5273 15.4072 16.4109 15.3194 16.2811C15.1323 16.004 15.1762 15.6219 15.4067 15.4018C15.636 15.1835 15.9674 15.172 16.2155 15.3812C16.2971 15.4497 16.3684 15.5322 16.442 15.6104C17.1938 16.4084 17.9445 17.2077 18.6963 18.0057C18.9028 18.2252 19.1326 18.4077 19.4464 18.3537C19.7379 18.3034 19.9518 18.1336 20.0533 17.8274C20.1628 17.4957 20.079 17.2119 19.8531 16.9712C19.0899 16.1568 18.3238 15.3454 17.5611 14.5304C17.4545 14.4164 17.3467 14.2994 17.2628 14.1666C17.0991 13.9077 17.1333 13.5784 17.3278 13.3583C17.5269 13.1333 17.8561 13.0818 18.1093 13.2498C18.2046 13.3128 18.2867 13.4007 18.3671 13.4856C19.1195 14.283 19.8696 15.0829 20.6226 15.8797C20.7161 15.9785 20.8142 16.078 20.9249 16.1525C21.169 16.3169 21.4326 16.3157 21.6824 16.1738C21.9363 16.0276 22.0663 15.7905 22.0606 15.4431ZM10.3659 9.0293C10.3716 9.52593 10.7526 9.931 11.1981 9.96617C11.7931 10.0129 12.2557 9.69451 12.6846 9.31976C12.9915 9.05173 13.2533 8.72489 13.5608 8.45747C14.2738 7.83714 15.0747 7.64006 15.9834 7.89111C17.0443 8.18339 17.9205 8.76309 18.6763 9.60415C19.7042 10.7484 20.772 11.8526 21.8142 12.9829C22.0104 13.1958 22.0589 13.0957 22.1142 12.8859C22.2334 12.4336 22.2306 11.9697 22.2323 11.507C22.2374 10.3318 22.5363 9.29368 23.3754 8.4599C23.9356 7.90324 24.4393 7.2823 24.976 6.69895C25.1061 6.55706 25.0958 6.46974 24.9697 6.32966C23.5408 4.74153 22.1154 3.14976 20.6979 1.55011C20.5376 1.36941 20.4418 1.38639 20.2889 1.54344C19.7635 2.08252 19.229 2.61129 18.6957 3.14127C17.9211 3.91139 17.0067 4.33101 15.9417 4.30736C15.0958 4.28856 14.3719 4.5869 13.7724 5.1945C12.708 6.27205 11.6659 7.37386 10.6146 8.46657C10.452 8.63636 10.3699 8.84496 10.3659 9.0293ZM7.71059 13.0575C7.69291 12.7483 7.56399 12.4924 7.28277 12.345C6.98958 12.1916 6.65703 12.2565 6.39806 12.5294C5.57095 13.4014 4.74669 14.2764 3.927 15.1562C3.58247 15.5261 3.56764 15.9749 3.87053 16.3108C4.17856 16.6522 4.63204 16.6558 4.98171 16.2896C5.81167 15.4206 6.63193 14.5408 7.45447 13.6639C7.60677 13.5026 7.70032 13.3086 7.71059 13.0575ZM5.68161 17.7752C5.6799 18.1318 5.81167 18.3713 6.08318 18.5181C6.39292 18.686 6.69068 18.6254 6.92455 18.3822C7.79273 17.4805 8.6552 16.5709 9.5017 15.6462C9.80916 15.3103 9.77436 14.8349 9.4766 14.5317C9.16972 14.2188 8.75274 14.2079 8.4316 14.5438C7.57198 15.4412 6.72548 16.3526 5.87384 17.2586C5.73067 17.4108 5.67248 17.597 5.68161 17.7752ZM11.011 16.2956C10.776 16.2914 10.5929 16.409 10.4332 16.5776C10.1235 16.9045 9.81543 17.2331 9.50684 17.5612C8.98376 18.1178 8.45156 18.6648 7.94104 19.2348C7.50182 19.7254 7.72485 20.4524 8.34603 20.584C8.65634 20.6495 8.89364 20.4797 9.10241 20.2584C9.87419 19.4386 10.6465 18.6187 11.416 17.7965C11.5022 17.7043 11.586 17.6036 11.6488 17.492C11.9425 16.9712 11.5826 16.3011 11.011 16.2956ZM12.9168 18.3549C12.7702 18.3568 12.5803 18.4768 12.4131 18.6545C11.6026 19.518 10.7886 20.3772 9.98085 21.2438C9.65229 21.5961 9.63518 22.0879 9.92381 22.4062C10.2221 22.7349 10.6739 22.7494 11.0162 22.3941C11.8644 21.5136 12.6966 20.6168 13.5311 19.7223C13.6024 19.6459 13.6572 19.5435 13.696 19.4428C13.8939 18.9249 13.5328 18.3543 12.9168 18.3549ZM16.3074 21.855C16.3005 21.6452 16.2372 21.4639 16.1094 21.3232C15.7415 20.9175 15.365 20.5203 14.9903 20.1213C14.9378 20.065 14.8739 19.9879 14.8134 20.1104C14.6201 20.5009 14.3177 20.7938 14.0331 21.1031C13.9515 21.1916 13.9475 21.2759 14.0314 21.3638C14.3885 21.7386 14.7336 22.1279 15.1061 22.4844C15.3365 22.7046 15.6246 22.7167 15.9018 22.5596C16.167 22.408 16.2914 22.1594 16.3074 21.855Z" fill="#00394D"/>
</svg>
