<svg xmlns="http://www.w3.org/2000/svg" width="46" height="29" viewBox="0 0 46 29">
    <g fill="none" fill-rule="evenodd">
        <path fill="#E5E5E5" fill-rule="nonzero" d="M40.905 0H3.175c-.27 0-.57.027-.84.082-.272.055-.544.137-.815.274-.244.11-.489.301-.679.493-.19.191-.38.438-.488.684-.136.247-.217.52-.272.822-.054.273-.054.575-.081.848v22.588c0 .274.027.575.081.849.055.274.136.547.272.821.136.247.298.493.488.685.19.191.435.383.679.493.244.136.516.219.814.273.272.055.57.055.842.083h38.57c.272 0 .57-.028.842-.083.271-.054.542-.137.814-.273.244-.137.488-.302.678-.493.19-.192.38-.438.489-.685.136-.246.217-.52.271-.821.055-.274.055-.575.082-.849V3.203c0-.273-.027-.575-.082-.848-.054-.274-.135-.548-.271-.822-.136-.246-.299-.493-.489-.684-.19-.192-.434-.384-.678-.493-.244-.137-.516-.22-.814-.274-.272-.055-.57-.055-.842-.082h-.841z"/>
        <path fill="#FFF" fill-rule="nonzero" d="M40.913.967h.841c.218 0 .462.027.706.054.217.028.38.083.543.165.163.082.299.191.434.328.136.137.245.274.326.438.081.165.136.329.163.548.054.246.054.493.054.712V25.8c0 .219-.027.465-.054.711-.027.192-.082.384-.163.548-.081.164-.19.301-.326.438-.135.137-.271.246-.434.329-.163.082-.326.137-.543.164-.244.055-.488.055-.706.055H3.184c-.19 0-.461-.028-.706-.055-.19-.027-.38-.082-.543-.192-.162-.082-.298-.191-.434-.328s-.244-.274-.326-.438c-.081-.165-.135-.329-.162-.548-.055-.246-.055-.493-.055-.712V3.212c0-.22.027-.466.055-.712.027-.192.081-.383.162-.548.082-.164.19-.3.326-.438.136-.137.272-.246.434-.328.163-.082.326-.137.543-.165.245-.054.489-.054.706-.054h37.729"/>
        <g>
            <path fill="#FFF" d="M9.371 6.952v-.46l-.219.46h-1.89l-.236-.494v.494H3.493l-.418-.997h-.707l-.441.997H.094V3.944L1.437.879h2.57l.362.868V.885h3.144l.692 1.462L8.88.88h9.926s.52-.007.862.236l-.001-.236h2.5v.332s.45-.332 1.114-.332h4.413l.387.881V.88h2.828l.513.881V.88h2.703v6.078H31.35l-.652-1.06v1.055h-3.452l-.486-1.086h-.676l-.456 1.086H23.54s-.78-.01-1.363-.432v.432h-4.16V5.534c0-.206-.156-.192-.156-.192h-.152v1.61H9.371M7.296 8.268h5.465l.788.9.807-.9h4.202s.394.01.77.212v-.212h3.74c.475 0 .874.24.874.24v-.24h4.81v.22s.342-.22.802-.22h3.134v.22s.394-.22.811-.22h2.46v5.728s-.323.37-.992.37h-3.244v-.183s-.308.182-.778.182H22.33v-1.48c0-.146-.064-.172-.192-.172h-.119v1.652h-2.692v-1.642s-.299.162-.797.162h-.97v1.48h-3.318l-.755-.929-.807.93H7.296V8.267" transform="translate(4.792 7.733)"/>
            <path fill="#0078A9" d="M24.52 9.182L27.949 9.182 27.949 10.11 25.569 10.11 25.569 10.919 27.882 10.919 27.882 11.736 25.569 11.736 25.569 12.587 27.949 12.587 27.949 13.492 24.52 13.492 24.52 9.182M34.574 10.861c1.289.067 1.396.716 1.396 1.41 0 .806-.658 1.24-1.344 1.24h-2.204v-.924h1.717c.291 0 .725 0 .725-.414 0-.196-.076-.321-.386-.354-.138-.02-.648-.05-.725-.05-1.165-.031-1.436-.616-1.436-1.327 0-.808.563-1.25 1.25-1.25h2.204v.924h-1.613c-.366.003-.762-.044-.762.374 0 .264.195.318.443.342.086 0 .658.03.735.03M30.624 10.861c1.29.067 1.397.716 1.397 1.41 0 .806-.658 1.24-1.344 1.24h-2.203v-.924h1.717c.29 0 .724 0 .724-.414 0-.196-.076-.321-.386-.354-.138-.02-.649-.05-.725-.05-1.165-.031-1.435-.616-1.435-1.327 0-.808.562-1.25 1.25-1.25h2.203v.924H30.21c-.368.003-.763-.044-.763.374 0 .264.195.318.443.342.086 0 .659.03.734.03M17.834 11.15h-1.307v-1.034h1.31c.44 0 .578.284.578.496 0 .289-.152.539-.581.539zm-2.365 1.938l-1.507-1.8 1.507-1.683v3.483zm-4.01-.501H9.04v-.85h2.312v-.818H9.041v-.81l2.55.007 1.022 1.173-1.155 1.298zm6.727-3.396h-3.68l-1.203 1.338-1.162-1.347H8.006v4.31h4.001l1.259-1.424 1.23 1.434h2.012V12.04h1.412c.544 0 1.536-.019 1.536-1.53 0-1.077-.754-1.318-1.27-1.318zM22.348 11.093h-1.306v-.977h1.31c.44 0 .578.284.578.496 0 .288-.153.48-.582.48zm.906.446c.572-.288.725-.673.725-1.193 0-.923-.744-1.154-1.26-1.154h-2.726v4.31h1.049v-1.52h1.373c.362 0 .505.365.515.73l.028.79h1.02l-.037-.885c0-.694-.19-1.02-.687-1.078zM20.413 6.057L21.462 6.057 21.462 1.742 20.413 1.742zM11.825 1.747L15.254 1.747 15.254 2.675 12.875 2.675 12.875 3.484 15.187 3.484 15.187 4.301 12.875 4.301 12.875 5.152 15.254 5.152 15.254 6.057 11.825 6.057 11.825 1.747M18.232 3.648h-1.306v-.976h1.311c.439 0 .577.283.577.495 0 .289-.152.481-.582.481zm.907.446c.572-.287.724-.673.724-1.193 0-.924-.743-1.154-1.26-1.154h-2.726v4.31h1.049v-1.52h1.373c.363 0 .506.365.515.73l.03.79h1.02l-.039-.886c0-.692-.19-1.019-.686-1.077zM2.015 4.165l.626-1.506.652 1.506H2.015zm7.391-2.418L8.12 4.638l-1.283-2.89H5.191v4.15L3.36 1.748H1.972L.102 6.056H1.21l.41-.962h2.094l.415.962H6.24V2.858l1.402 3.199h.954L10.03 2.91v3.146h1.05v-4.31H9.405zM25.843 4.167l.625-1.506.658 1.506h-1.283zm6.444-2.422v2.984l-1.769-2.984h-1.55v4.048L27.18 1.747h-1.388l-1.445 3.339s-.61 0-.672-.016c-.253-.052-.648-.232-.653-.992v-.313c0-1.01.544-1.084 1.24-1.084h.649v-.936h-1.37c-.477 0-1.514.367-1.55 2.138-.023 1.193.492 2.176 1.655 2.176h1.383l.41-.962h2.093l.415.962h2.07V2.903l1.888 3.156h1.43V1.745h-1.048z" transform="translate(4.792 7.733)"/>
        </g>
    </g>
</svg>
