<svg width="22" height="22" viewBox="0 0 22 22" fill="none" xmlns="http://www.w3.org/2000/svg">
    <path d="M17.0345 11.5309H19.6124V17.7038H17.0345V11.5309ZM12.1518 11.5309H14.7297V17.7038H12.1518V11.5309ZM7.27039 11.5309H9.84826V17.7038H7.27039V11.5309ZM2.38769 11.5309H4.96557V17.7038H2.38769V11.5309ZM20.4716 9.59748V8.95301H1.52711V9.59748C1.52711 9.95336 1.81569 10.2419 2.17157 10.2419H19.8259C20.1818 10.2419 20.4704 9.95336 20.4704 9.59748H20.4716ZM21.3555 18.9927H0.645814C0.288638 18.9927 0.00134449 19.2813 0.00134449 19.6372V21.3558C0.00134449 21.7117 0.288638 22.0003 0.645814 22.0003H21.3555C21.7114 22.0003 22 21.7117 22 21.3558V19.6372C22 19.2813 21.7114 18.9927 21.3555 18.9927ZM0.644519 7.66407H21.3555C21.6441 7.66407 21.8965 7.47254 21.9767 7.19431C22.0543 6.91736 21.9379 6.62101 21.6933 6.4696L11.3378 0.096088C11.1307 -0.0320293 10.8693 -0.0320293 10.6623 0.096088L0.306756 6.4696C0.0608738 6.62101 -0.0543024 6.91736 0.0246386 7.19431C0.102285 7.47254 0.355932 7.66407 0.644519 7.66407V7.66407ZM10.5613 3.79078H11.4387C11.7946 3.79078 12.0832 4.07937 12.0832 4.43525C12.0832 4.79243 11.7946 5.07972 11.4387 5.07972H10.56C10.2041 5.07972 9.91556 4.79243 9.91556 4.43525C9.91556 4.07937 10.2041 3.79078 10.56 3.79078H10.5613Z" fill="black"/>
</svg>
