<svg xmlns="http://www.w3.org/2000/svg" width="46" height="29" viewBox="0 0 46 29">
    <g fill="none" fill-rule="evenodd">
        <rect width="45" height="28" x=".5" y=".5" fill="#FFF" stroke="#D9D9D9" rx="3"/>
        <g fill="#000" fill-rule="nonzero">
            <path d="M2.644 18.959L2.646 18.963 2.646 18.962z" transform="translate(11 4)"/>
            <path d="M2.74 17.656c-.123 0-.241-.01-.361-.011v.056h.047c.081 0 .243.036.243.263l-.004 1.006-.005.005-.009.01-1.184-1.34c-.08 0-.156.011-.238.011-.096 0-.196-.01-.293-.01v.056h.022c.126 0 .254.095.254.251v1.122c0 .212-.06.35-.25.35H.935v.056c.115 0 .233-.011.35-.011.111 0 .222.01.332.011v-.056h-.033c-.21-.001-.262-.092-.262-.324v-1.127l1.382 1.546h.088c-.012-.081-.014-.168-.014-.257v-1.212c0-.318.134-.35.249-.35h.027v-.056c-.104 0-.21.011-.316.011z" transform="translate(11 4)"/>
            <path d="M3.067 17.624c-.11-.002-.22.008-.328.008-.124 0-.247-.01-.372-.01h-.012v.102h.07c.078.002.22.028.22.24v.978l-1.17-1.316c-.09-.004-.166.006-.246.006-.099 0-.203-.01-.305-.01H.912v.102h.046c.115 0 .23.086.23.229v1.121c0 .211-.051.325-.227.326H.912v.102h.012c.12 0 .243-.01.362-.01.113 0 .228.01.343.01h.012V19.403h-.057c-.2-.004-.236-.07-.24-.3v-1.067l1.352 1.506.11.004h.013l-.002-.014c-.012-.08-.015-.173-.015-.266v-1.211c.002-.316.115-.324.225-.327h.05v-.102h-.01zm.001.09h-.04c-.112 0-.237.022-.237.34v1.21c0 .094.002.187.015.27h-.101l-1.371-1.529v1.098c0 .232.045.311.25.311h.045v.08c-.114 0-.228-.01-.343-.01-.12 0-.242.01-.362.01v-.08h.037c.184 0 .24-.125.24-.337v-1.122c0-.15-.123-.24-.242-.24H.925v-.08c.1 0 .204.012.306.012.08 0 .157-.011.237-.011l1.185 1.333.005-.005v-.998c0-.219-.152-.251-.231-.251h-.06v-.08c.126 0 .248.011.374.011.109 0 .218-.01.327-.01v.078zM6.525 19.063c-.08.3-.234.326-.55.324-.167 0-.335 0-.335-.185v-.632h.33c.186-.002.205.11.218.262l.058-.013c-.005-.097-.008-.196-.008-.294 0-.1.003-.2.008-.3h-.058c-.014.138-.057.236-.22.234H5.64v-.72h.381c.277-.002.324.14.335.307l.058-.014c-.006-.075-.008-.173-.008-.26 0-.046 0-.09.002-.127-.18 0-.45.011-.669.011-.219 0-.487-.01-.651-.01v.055h.026c.094 0 .208.017.208.164v1.395c0 .147-.114.163-.208.164h-.026v.055c.155 0 .463-.01.696-.01.235 0 .536.01.708.01.022-.134.053-.268.085-.404l-.052-.012zM4.93 17.542l-.013-.004-.001.011c-.004.07-.059.072-.133.073H3.397c-.068-.001-.117-.003-.135-.07l-.001-.008H3.176v.011c0 .077-.005.151-.017.225-.007.077-.02.152-.032.226v.015h.102l.001-.01c.044-.197.04-.23.236-.233h.426v1.41c-.004.207-.063.209-.209.212h-.062v.102h.011c.104 0 .291-.01.45-.01.143 0 .33.01.434.01h.011V19.4h-.062c-.127-.003-.207-.016-.21-.217v-1.405h.426c.168 0 .178.145.186.245v.015l.095-.034.007-.003v-.008c0-.072 0-.144.005-.214.008-.072.018-.143.03-.215v-.01l-.075-.012zm.032.236c-.005.073-.005.144-.005.215l-.08.03c-.006-.098-.019-.255-.197-.255h-.436v1.416c0 .206.093.23.22.23h.051v.08c-.103 0-.29-.012-.433-.012-.16 0-.347.011-.45.011v-.08h.05c.146 0 .22-.012.22-.223v-1.422h-.436c-.2 0-.208.048-.248.243h-.08c.011-.076.025-.15.033-.228.01-.075.015-.149.015-.227h.065c.022.08.088.077.16.077h1.373c.072 0 .139-.002.144-.082l.064.011c-.011.073-.021.143-.03.216z" transform="translate(11 4)"/>
            <path d="M4.937 17.565c-.012.077-.086.081-.153.08H3.398c-.063 0-.132-.002-.155-.076h-.044c-.001.073-.006.145-.016.215-.008.072-.02.142-.03.213h.057c.035-.185.058-.245.256-.242h.449v1.434c0 .214-.087.236-.232.236h-.04v.055c.105 0 .285-.01.439-.01.139 0 .316.01.422.01v-.055h-.04c-.128 0-.232-.033-.232-.241v-1.429h.448c.18 0 .202.153.208.252l.057-.021c0-.069 0-.139.006-.209.007-.069.017-.136.027-.205l-.041-.007zM.986 17.622c-.151 0-.342.01-.5.01-.156 0-.347-.01-.473-.01H0v.102h.058c.115 0 .221.01.222.141v1.394c0 .131-.107.14-.222.141H0v.102h.013c.126 0 .314-.01.469-.01.16 0 .35.01.504.01H1V19.4H.941c-.116-.002-.222-.01-.222-.14v-1.395c0-.13.106-.14.222-.14H1v-.103H.986zm-.001.092H.94c-.115 0-.237.012-.237.152v1.394c0 .14.122.152.237.152h.044v.08c-.153 0-.344-.01-.504-.01-.156 0-.344.01-.468.01v-.08h.044c.115 0 .236-.011.236-.152v-1.394c0-.14-.121-.152-.236-.152H.013v-.079c.124 0 .315.01.472.01.159 0 .35-.01.5-.01v.08zM12.806.434h-2.687C6.961.433 4.361 2.788 4.361 6.194c0 3.115 2.6 5.676 5.758 5.66h2.687c3.121.015 5.97-2.546 5.97-5.66 0-3.407-2.85-5.761-5.97-5.76zm-2.674 10.929C7.246 11.36 4.906 9.02 4.906 6.134c0-2.888 2.34-5.228 5.226-5.228 2.887 0 5.227 2.34 5.227 5.228 0 2.887-2.34 5.227-5.227 5.229zM17.969 16.44c-.137 0-.245 0-.245-.163v-3.38c0-.04-.009-.07-.04-.07-.015 0-.054.026-.108.055-.102.06-.307.148-.503.21v.078c.186.054.26.064.26.382v2.725c0 .163-.098.163-.236.163h-.094v.126c.182-.004.358-.01.534-.01.177 0 .349.01.514.01v-.125h-.082z" transform="translate(11 4)"/>
            <path d="M11.317 3.041v6.186c1.244-.479 2.126-1.68 2.128-3.093-.001-1.412-.884-2.616-2.128-3.093zM21.847 14.33c-.269 0-.533.187-.728.353v-1.787c0-.04-.011-.07-.04-.07-.015 0-.054.025-.107.055-.103.06-.308.148-.505.21v.079c.187.056.26.064.26.383v2.104c0 .298-.024.581-.069.871l.103.054.146-.113c.127.055.318.172.68.172.7 0 1.17-.642 1.17-1.283 0-.533-.342-1.027-.91-1.027zm-.224 2.184c-.328 0-.504-.313-.504-.499v-1.19c.132-.113.284-.23.465-.23.382 0 .782.441.782.97 0 .434-.22.95-.743.95zM20.282 16.393c-.082 0-.137-.005-.137-.093v-1.807c0-.055 0-.088-.039-.088-.048 0-.322.039-.762.068v.089c.175.05.41.102.41.201v1.317c-.205.169-.426.296-.591.296-.426 0-.426-.421-.427-.568v-1.26c0-.109 0-.142-.054-.142-.064 0-.456.03-.631.033v.094c.274.023.293.146.293.274v1.252c0 .41.274.582.538.582.349 0 .573-.172.866-.41v.397l.025.014c.094-.03.495-.133.706-.152v-.102c-.064 0-.137.005-.197.005zM11.274 14.81c0-.209.185-.322.38-.322.315 0 .486.176.535.484h.114l-.034-.498c-.192-.099-.402-.143-.558-.143-.538 0-.758.352-.758.626 0 .787 1.065.6 1.065 1.179 0 .172-.109.348-.397.35-.358 0-.553-.275-.617-.598l-.088.025.054.563c.171.097.4.166.597.166.582 0 .842-.344.842-.667 0-.768-1.135-.591-1.135-1.165zM1.44 13.151c-.362 0-.641.011-.847.011-.19 0-.386 0-.577-.01v.126c.22.005.45-.025.45.415v2.375c-.014.333-.157.34-.45.372v.125c.22-.004.436-.01.656-.01.23.003.46.01.71.01 1.732 0 2.015-1.217 2.015-1.701 0-.867-.69-1.713-1.957-1.713zm.015 3.258c-.24 0-.51-.044-.51-.42v-2.661c.089-.007.181-.02.382-.02.945 0 1.532.66 1.532 1.576 0 .73-.347 1.525-1.404 1.525zM.786 17.702h.026v-.057c-.123 0-.277.011-.406.011-.127 0-.28-.01-.383-.01v.056h.025c.095 0 .209.016.209.164v1.393c0 .149-.114.165-.209.165H.023v.056c.103 0 .253-.011.38-.011.13 0 .283.01.409.011v-.056H.786c-.095 0-.21-.017-.21-.165v-1.393c0-.148.115-.164.21-.164zM4.533 16.442c-.137 0-.245 0-.245-.163v-1.877c0-.04-.01-.07-.034-.07-.025 0-.055.005-.09.025-.018.015-.292.106-.522.176v.078c.18.096.255.126.255.342v1.326c0 .163-.1.163-.235.163h-.094v.126c.181-.005.358-.01.534-.01.176 0 .347.007.514.01v-.126h-.083zM10.512 14.332c-.298 0-.504.313-.626.503h-.01v-.44c0-.05-.015-.063-.044-.063-.044 0-.24.126-.597.278v.074c.073.038.254.069.254.22v1.373c0 .164-.098.164-.234.164h-.132v.126c.176-.004.38-.01.582-.01.21 0 .415.006.684.01v-.125h-.274c-.137 0-.234 0-.234-.164v-1.15c0-.294.273-.406.357-.405.171 0 .171.118.324.118.136 0 .23-.119.23-.25 0-.177-.158-.26-.28-.26zM4.092 13.098c-.123 0-.24.113-.24.235 0 .128.113.245.24.246.132 0 .24-.114.24-.246s-.113-.235-.24-.235zM8.964 16.018c-.18.18-.39.327-.66.327-.39 0-.69-.38-.719-.846-.01-.165-.01-.239 0-.283H8.96l.044-.03c.004-.029.004-.058.004-.088-.004-.518-.43-.768-.826-.768-.343 0-.989.284-.989 1.243 0 .312.157 1.066.935 1.066.401 0 .68-.254.905-.553l-.069-.068zm-.802-1.53c.274 0 .426.2.426.45 0 .057-.014.121-.136.121H7.6c.059-.352.264-.571.562-.571zM6.82 6.134c.002 1.41.883 2.613 2.126 3.091V3.041C7.703 3.52 6.823 4.723 6.82 6.134zM19.117 17.656c-.122 0-.24-.01-.358-.01v.055h.047c.081.001.243.037.243.263l-.002 1.007-.006.005-.01.01-1.184-1.34c-.08 0-.158.01-.238.01-.097 0-.197-.01-.295-.01v.055h.024c.124 0 .253.096.253.252v1.122c0 .212-.06.35-.252.35h-.026v.055c.115 0 .233-.01.351-.01.111 0 .221.01.331.01v-.055h-.033c-.209 0-.262-.092-.262-.324v-1.127l1.382 1.546h.087c-.01-.081-.012-.168-.012-.257v-1.212c0-.32.134-.35.248-.35h.029v-.056c-.106 0-.211.011-.317.011zM6.52 19.036h-.012v.002l-.002.01c-.08.3-.21.315-.53.317-.173 0-.313 0-.313-.162v-.61h.308c.177.002.178.091.196.253l.001.012.093-.017.01-.004-.001-.01c-.005-.1-.008-.202-.008-.303 0-.103.003-.208.008-.31v-.012h-.102v.01c-.019.143-.046.223-.2.225h-.305v-.674h.359c.274.003.297.127.313.3v.013l.094-.024.009-.003v-.01c-.006-.077-.009-.176-.009-.269 0-.051.002-.098.003-.138v-.011h-.011c-.182 0-.457.01-.682.01-.222 0-.5-.01-.662-.01h-.011v.102h.049c.097.002.184.01.184.142v1.393c0 .13-.087.14-.184.141h-.049v.102h.011c.152 0 .469-.01.708-.01.24 0 .546.01.716.01h.01l.002-.01c.024-.14.055-.281.09-.422l.002-.011-.085-.022zm-.019.457c-.171 0-.477-.011-.716-.011-.24 0-.557.01-.708.01v-.078h.037c.097 0 .197-.013.197-.152v-1.395c0-.14-.1-.152-.197-.152h-.037v-.08c.162 0 .44.01.663.01.224 0 .5-.01.68-.01-.004.115-.002.29.007.407l-.08.021c-.014-.172-.045-.311-.325-.311h-.37v.697h.317c.159 0 .194-.09.21-.235h.08c-.006.105-.008.209-.008.313 0 .1.002.202.007.304l-.08.015c-.015-.16-.023-.263-.207-.263h-.319v.62c0 .173.154.173.325.173.32 0 .46-.022.54-.324l.075.017c-.035.142-.067.282-.09.424z" transform="translate(11 4)"/>
            <path d="M19.446 17.624c-.111 0-.22.01-.33.01-.122 0-.245-.01-.371-.01h-.012v.102h.07c.079.002.22.028.222.24v.978l-1.171-1.317c-.09-.004-.167.006-.247.006-.1 0-.204-.01-.305-.01h-.013v.102h.047c.114 0 .23.087.23.228v1.122c-.002.212-.053.325-.229.326h-.048v.102h.012c.12 0 .243-.01.362-.01.113 0 .228.01.342.01h.011v-.102h-.056c-.2-.003-.235-.068-.238-.3v-1.066l1.35 1.506.11.003h.012l-.002-.011c-.013-.082-.015-.175-.015-.268v-1.212c.002-.314.116-.324.225-.327h.055v-.102h-.011zm.003.09h-.04c-.115 0-.241.021-.241.338v1.212c0 .093.002.186.016.269h-.101l-1.37-1.529v1.098c0 .232.044.312.25.312h.045v.08c-.114 0-.23-.012-.342-.012-.12 0-.242.011-.362.011v-.08h.037c.184 0 .239-.124.239-.337v-1.122c0-.15-.12-.24-.242-.24h-.034v-.08c.1 0 .205.011.305.011.081 0 .158-.01.237-.01l1.186 1.333.003-.003.002-.002v-.998c0-.219-.15-.25-.231-.25h-.057v-.08c.125 0 .247.011.373.011.109 0 .217-.01.327-.01v.079zM16.21 17.711c-.466 0-.604.416-.604.772 0 .476.218.932.65.932.516 0 .606-.456.606-.844 0-.388-.209-.86-.653-.86zm.046 1.693c-.422 0-.638-.447-.639-.921.002-.355.137-.76.592-.76.434 0 .643.462.643.848-.001.388-.089.833-.596.833z" transform="translate(11 4)"/>
            <path d="M16.216 17.605c-.548 0-.972.425-.972.973.001.565.428.944.986.944.56 0 .994-.404.996-1.009-.001-.56-.448-.907-1.01-.908zm.04 1.822c-.442 0-.66-.464-.661-.944 0-.359.141-.782.614-.782.454 0 .664.48.665.87 0 .388-.091.856-.618.856zM20.488 17.932h-.008l-.002.002-.47.998h.947l-.467-1zm-.005.038l.438.944h-.883l.445-.944z" transform="translate(11 4)"/>
            <path d="M16.216 17.583c-.559 0-.993.434-.994.995 0 .579.437.965 1.007.967.572-.002 1.018-.413 1.018-1.032 0-.575-.46-.93-1.03-.93zm.013 1.95c-.565 0-.996-.384-.996-.956 0-.554.428-.982.982-.982.567 0 1.02.351 1.02.918 0 .613-.438 1.02-1.006 1.02zM22.811 19.03l-.008-.002-.003.01c-.014.057-.038.132-.079.188-.046.063-.14.126-.249.138-.068.009-.136.011-.201.011-.053 0-.1-.002-.147-.005-.083-.012-.148-.038-.15-.138v-1.373c.003-.135.068-.13.17-.133h.078v-.102h-.01c-.138 0-.271.01-.406.01-.142 0-.28-.01-.422-.01h-.011v.102h.048c.098 0 .188.01.189.14v1.37c-.001.158-.093.165-.189.166h-.047v.102h.01c.234 0 .47-.01.703-.01.235 0 .47.01.702.01h.01l.002-.01c.033-.15.07-.298.1-.451l.002-.014h-.092zm-.022.463c-.232 0-.467-.011-.7-.011-.235 0-.47.01-.704.01v-.078h.036c.097 0 .202-.013.202-.18v-1.368c0-.14-.105-.152-.202-.152h-.036v-.08c.142 0 .28.01.421.01.136 0 .269-.01.406-.01v.08h-.068c-.1 0-.18.002-.18.143v1.373c0 .107.074.139.16.15.108.007.229.007.35-.006.113-.013.209-.077.255-.143.043-.058.066-.134.082-.192h.077c-.028.153-.065.302-.099.454zM21.276 19.425c-.09 0-.154-.036-.187-.114-.033-.081-.066-.18-.098-.274l-.49-1.393c-.01-.02-.016-.046-.023-.063-.003-.004-.002-.004-.005-.004h-.004c-.006 0-.01.002-.015.004-.052.033-.159.086-.237.107-.016.1-.065.233-.1.332l-.426 1.222c-.04.116-.133.182-.242.182h-.005v.055c.092-.005.184-.01.277-.01.102 0 .208.005.31.01v-.055h-.018c-.087-.001-.208-.01-.21-.106 0-.052.033-.12.058-.21l.087-.286h.621l.108.318c.03.086.055.156.055.195-.005.081-.117.088-.177.09h-.018v.055c.132-.005.262-.011.388-.011.123 0 .24.006.356.011v-.055h-.005zm-1.283-.728l.254-.776h.025l.252.776h-.531zM23.079 17.559c-.288 0-.502.218-.502.502 0 .281.216.498.502.498.285 0 .498-.217.498-.498 0-.282-.216-.502-.498-.502zm0 .909c-.226 0-.4-.192-.4-.41 0-.215.174-.408.4-.408.225 0 .395.192.395.409 0 .217-.173.409-.395.409z" transform="translate(11 4)"/>
            <path d="M23.137 18.11l-.091-.12c.072-.02.125-.08.125-.16 0-.097-.084-.141-.18-.141h-.271v.026c.068-.004.076.017.076.07v.395c0 .04-.014.039-.078.05v.024h.258v-.024c-.066-.011-.08-.01-.08-.042v-.18h.06c.1.143.145.246.192.246h.104v-.017c-.03-.02-.076-.07-.115-.126zm-.177-.135h-.064v-.252h.06c.059 0 .106.03.106.117-.001.086-.033.135-.102.135zM21.276 19.398c-.084.001-.134-.028-.165-.097-.034-.079-.066-.177-.099-.272l-.49-1.392-.024-.068c-.009-.013-.022-.015-.03-.015-.01 0-.019.004-.024.007-.053.032-.16.085-.243.115-.024.105-.072.237-.104.337l-.428 1.222c-.038.107-.121.164-.22.164H19.422v.102h.01c.098-.005.192-.01.288-.01.105 0 .215.005.32.01h.012V19.4h-.04c-.089 0-.187-.016-.187-.082 0-.042.03-.112.057-.204l.082-.27h.588l.1.302c.03.085.055.157.054.187 0 .051-.092.065-.154.065h-.039v.104h.012c.135-.005.269-.011.4-.011.127 0 .246.006.365.01l.012.002v-.104h-.027zm.017.095c-.12-.006-.24-.011-.368-.011-.13 0-.263.005-.399.01v-.078h.03c.06 0 .165-.011.165-.078 0-.034-.025-.105-.055-.19l-.104-.31h-.603l-.086.278c-.026.09-.058.16-.058.207 0 .08.112.093.2.093h.03v.08c-.107-.005-.216-.01-.322-.01-.096 0-.19.004-.287.01v-.08h.015c.104 0 .192-.061.232-.173l.426-1.221c.034-.099.083-.23.098-.331.086-.03.192-.082.243-.115.01-.002.013-.005.022-.005.008 0 .012 0 .018.008l.025.066.49 1.393c.031.093.063.19.099.272.032.076.087.106.174.106h.016v.079zM22.82 19.052c-.016.057-.04.13-.082.187-.05.067-.148.133-.262.148-.071.008-.14.011-.205.011-.052 0-.101-.003-.15-.006-.086-.01-.17-.047-.17-.16v-1.374c0-.147.094-.156.193-.156h.055v-.056c-.132 0-.261.01-.393.01-.137 0-.272-.01-.41-.01v.056h.027c.093 0 .21.017.21.164v1.37c0 .17-.115.189-.21.189h-.027v.056c.231 0 .46-.011.692-.011.232 0 .462.011.693.011.03-.144.066-.286.094-.43h-.054zM15.273 19.4c-.117-.002-.221-.01-.223-.14v-1.395c0-.13.106-.14.223-.14H15.33v-.103h-.013c-.15 0-.342.01-.5.01-.156 0-.348-.01-.473-.01h-.013v.102h.06c.115.001.22.011.222.142v1.394c-.001.13-.107.14-.223.14h-.059v.102h.013c.125 0 .314-.01.471-.01.159 0 .349.01.503.01h.013V19.4h-.058zm.044.092c-.153 0-.344-.01-.503-.01-.156 0-.345.01-.47.01v-.08h.044c.116 0 .236-.012.236-.153v-1.393c0-.14-.12-.152-.236-.152h-.044v-.08c.125 0 .316.011.472.011.162 0 .354-.01.502-.01v.079h-.044c-.116 0-.237.012-.237.152v1.393c0 .14.121.153.237.153h.043v.08zM10.754 17.623c-.11 0-.218.011-.327.011-.124 0-.247-.01-.373-.01h-.011v.102h.07c.077 0 .22.028.22.24v.978l-1.17-1.318c-.09-.003-.167.007-.245.007-.1 0-.204-.01-.306-.01H8.6v.102h.046c.115 0 .23.087.23.228v1.121c-.001.213-.052.327-.227.327H8.6v.102h.012c.12 0 .243-.01.362-.01.114 0 .228.01.343.01h.011v-.102h-.055c-.201-.003-.237-.068-.24-.3v-1.066l1.351 1.506.11.004h.013l-.002-.012c-.014-.082-.016-.175-.016-.268v-1.211c.003-.315.116-.324.226-.327h.05v-.104h-.01zm.001.09h-.04c-.112.001-.237.022-.237.34v1.211c0 .093.002.186.015.269h-.101l-1.37-1.53v1.098c0 .232.044.313.25.313h.044v.079c-.113 0-.228-.011-.342-.011-.12 0-.243.01-.362.01v-.078h.036c.185 0 .24-.126.24-.339v-1.122c0-.149-.122-.24-.242-.24h-.034v-.079c.1 0 .205.01.306.01.079 0 .157-.01.237-.01l1.184 1.334h.001l.002-.004.002-.001v-.998c0-.22-.151-.251-.231-.251h-.058v-.08c.125 0 .247.011.372.011.11 0 .218-.01.328-.01v.079z" transform="translate(11 4)"/>
            <path d="M10.427 17.656c-.122 0-.24-.01-.361-.01v.055h.047c.082 0 .243.036.243.263l-.003 1.006-.005.005-.009.01-1.184-1.34c-.08 0-.157.011-.237.011-.099 0-.198-.01-.295-.01v.055h.023c.126 0 .253.095.253.252v1.12c0 .213-.06.35-.25.352h-.027v.054c.115 0 .234-.01.351-.01.112 0 .222.01.332.01v-.055h-.032c-.21 0-.262-.092-.264-.324v-1.126l1.383 1.546h.088c-.012-.081-.014-.168-.014-.257v-1.212c0-.318.134-.35.249-.35h.028v-.056c-.106 0-.21.011-.316.011zM8.264 19.26l-.463-.694.013-.005c.208-.081.362-.224.362-.458 0-.37-.287-.456-.622-.457-.14 0-.268.01-.428.01-.157 0-.315-.01-.402-.01v.057h.037c.083 0 .2.013.2.213v1.352c0 .107-.1.157-.2.157h-.037v.054c.128 0 .25-.01.374-.01.15 0 .3.01.447.01v-.054h-.036c-.121 0-.23-.015-.23-.227v-.581h.194l.002.006c.174.306.35.594.546.858.08 0 .165-.012.248-.012.086 0 .167.01.25.012v-.058c-.124-.016-.182-.053-.255-.163zm-.842-.715H7.279v-.816h.011c.036-.004.072-.011.153-.011.242 0 .4.158.4.4 0 .32-.154.427-.421.427z" transform="translate(11 4)"/>
            <path d="M8.533 19.398c-.13-.014-.176-.04-.25-.152l-.447-.669c.205-.084.364-.234.364-.474 0-.387-.31-.479-.646-.48-.142 0-.27.011-.428.011-.162 0-.327-.01-.413-.01h-.011v.102h.059c.083.002.175.001.177.19v1.352c0 .09-.08.132-.177.132h-.059v.102h.011c.133 0 .258-.01.385-.01.151 0 .307.01.458.01h.012V19.4h-.06c-.122-.004-.203-.001-.206-.202v-.559h.157c.173.305.347.59.552.859.092.004.177-.007.258-.007.088 0 .173.011.262.011h.011V19.4l-.01-.002zm-.001.095c-.088 0-.174-.011-.26-.011-.084 0-.17.01-.252.01-.205-.27-.381-.557-.554-.864h-.175v.57c0 .207.095.214.218.214h.048v.08c-.152 0-.306-.011-.458-.011-.127 0-.253.01-.385.01v-.079h.047c.1 0 .19-.045.19-.143v-1.353c0-.192-.107-.202-.19-.202h-.047v-.079c.085 0 .25.01.412.01.16 0 .288-.01.429-.01.335 0 .634.09.634.47 0 .238-.16.384-.37.468l.454.68c.075.114.128.145.259.161v.079zM15.117 17.702h.025v-.057c-.123 0-.277.011-.406.011-.128 0-.28-.01-.382-.01v.056h.025c.095 0 .208.016.208.164v1.393c0 .148-.112.165-.208.165h-.025v.055c.102-.001.252-.01.38-.01s.282.01.408.01v-.055h-.025c-.096 0-.209-.018-.209-.165v-1.393c0-.148.111-.164.209-.164zM7.214 16.44h-.088c-.138 0-.244 0-.244-.163v-1.262c0-.381-.147-.684-.563-.684-.328 0-.568.166-.847.366v-.318c0-.039-.015-.049-.029-.049-.236.103-.436.166-.646.235v.093c.23.092.284.14.284.323v1.296c0 .163-.098.163-.235.163h-.088v.126c.176-.005.353-.01.528-.01.177 0 .348.01.52.01v-.126h-.089c-.136 0-.245 0-.245-.163v-1.449c.162-.106.412-.235.567-.235.28 0 .45.139.45.418v1.266c0 .164-.097.164-.234.164h-.088v.125c.175-.004.352-.01.528-.01.177 0 .347.01.52.01v-.125z" transform="translate(11 4)"/>
            <path d="M7.572 17.729c-.147 0-.212.011-.28.014v.986h.24c.494 0 .76-.125.76-.516-.002-.296-.282-.484-.72-.484zm-.04.986h-.22v-.96c.064-.004.126-.013.26-.013.429.003.697.181.7.47-.004.385-.252.498-.74.503zM14.183 17.542l-.014-.004-.001.011c-.004.07-.057.072-.132.073h-1.385c-.07-.001-.118-.003-.136-.07l-.003-.008H12.428v.011c0 .077-.006.151-.016.225-.009.077-.021.152-.033.227v.013h.102l.002-.01c.044-.197.04-.23.236-.233h.426v1.41c-.004.208-.062.21-.209.212h-.062v.103h.012c.103 0 .29-.01.45-.01.142 0 .328.01.433.01h.01V19.4h-.063c-.126-.003-.207-.016-.208-.217v-1.405h.426c.167 0 .179.145.185.245l.002.015.093-.034.008-.003v-.008c0-.071 0-.144.005-.214.009-.072.019-.143.03-.215l.002-.01-.076-.012zm.031.236c-.005.073-.005.144-.005.215l-.08.03c-.005-.098-.018-.255-.196-.255h-.438v1.416c0 .206.094.23.221.23h.05v.08c-.102 0-.29-.012-.433-.012-.16 0-.346.011-.45.011v-.08h.051c.147 0 .222-.012.222-.223v-1.422h-.437c-.2 0-.208.048-.248.243h-.08c.011-.076.025-.15.033-.228.01-.075.015-.149.015-.227h.065c.02.08.088.077.16.077h1.373c.072 0 .138-.002.143-.082l.064.011-.03.216z" transform="translate(11 4)"/>
            <path d="M14.19 17.565c-.012.077-.088.082-.156.082h-1.387c-.062 0-.13-.003-.155-.077h-.043c-.001.073-.005.145-.016.215-.007.072-.02.144-.03.213h.056c.035-.185.058-.245.257-.242h.447v1.435c0 .213-.086.234-.232.234h-.039v.056c.105-.002.285-.012.44-.012.139 0 .316.01.42.012v-.056h-.038c-.127 0-.23-.033-.23-.241v-1.429h.448c.179 0 .202.153.206.252l.059-.021c0-.07 0-.14.005-.209.008-.069.017-.136.029-.205l-.042-.007zM16.72 15.639c-.097.513-.499.846-.982.846-.753 0-1.459-.71-1.459-1.699 0-1.174.817-1.55 1.38-1.55.548 0 .953.228 1.046.802h.121l-.048-.7c-.377-.132-.76-.26-1.155-.26-.96 0-1.854.72-1.854 1.722 0 1.102.725 1.84 1.869 1.84.324.001.877-.131 1.083-.258l.112-.714-.112-.03zM12.584 19.398c-.083.003-.132-.027-.163-.096-.034-.079-.066-.177-.098-.271l-.491-1.393c-.01-.023-.016-.046-.024-.068-.01-.013-.023-.015-.03-.015-.01 0-.017.004-.025.007-.052.032-.16.086-.242.114-.023.106-.071.238-.106.338l-.427 1.222c-.039.109-.12.164-.22.164h-.026v.102h.012c.095-.005.19-.01.287-.01.106 0 .215.005.321.01h.012V19.4h-.04c-.09 0-.188-.016-.19-.081 0-.043.033-.114.06-.205l.082-.27h.587l.101.302c.03.084.055.157.053.187 0 .051-.09.065-.153.065H11.823v.104h.011c.137-.006.269-.012.4-.012.125 0 .247.006.365.011l.012.001v-.104h-.027zm.017.095c-.12-.006-.239-.011-.366-.011-.13 0-.264.005-.4.01v-.078h.03c.061 0 .164-.011.164-.078 0-.034-.024-.105-.053-.19l-.104-.31h-.604l-.085.278c-.027.09-.059.16-.059.207 0 .08.112.093.2.093h.03v.08c-.108-.005-.216-.01-.323-.01-.096 0-.192.004-.287.01v-.08h.015c.104 0 .193-.061.232-.173l.426-1.221c.035-.099.083-.23.099-.331.085-.03.19-.082.24-.115.01-.002.013-.005.022-.005s.014 0 .02.008c.007.022.015.046.024.066l.49 1.393c.032.093.063.19.1.272.031.076.086.106.175.106h.014v.079z" transform="translate(11 4)"/>
            <path d="M12.586 19.425c-.091 0-.154-.036-.187-.114-.034-.081-.066-.18-.098-.274l-.49-1.393c-.01-.02-.016-.046-.024-.064-.001-.003-.001-.003-.004-.003h-.004c-.006 0-.01.002-.015.004-.051.033-.159.086-.237.107-.017.1-.065.233-.1.332l-.425 1.222c-.04.116-.134.182-.243.182h-.004v.055c.091-.005.183-.01.277-.01.103 0 .207.005.31.01v-.055h-.018c-.087-.001-.208-.01-.211-.105 0-.053.033-.122.06-.211l.086-.286h.62l.108.318c.03.086.055.156.055.195-.004.081-.117.088-.177.09h-.018v.055c.132-.005.261-.011.388-.011.123 0 .24.006.356.011v-.055h-.005zm-1.284-.728l.255-.776h.022l.254.776h-.53z" transform="translate(11 4)"/>
            <path d="M11.799 17.932h-.011v.002l-.47.998h.946l-.465-1zm-.006.038l.439.944h-.884l.445-.944z" transform="translate(11 4)"/>
        </g>
    </g>
</svg>
