<svg width="97" height="62" viewBox="0 0 97 62" fill="none" xmlns="http://www.w3.org/2000/svg">
    <path d="M89.7803 0.637695H6.99823C3.48136 0.637695 0.630371 3.52258 0.630371 7.08127V54.3341C0.630371 57.8928 3.48136 60.7777 6.99823 60.7777H89.7803C93.2972 60.7777 96.1482 57.8928 96.1482 54.3341V7.08127C96.1482 3.52258 93.2972 0.637695 89.7803 0.637695Z" fill="white" stroke="#D9D9D9"/>
    <path fill-rule="evenodd" clip-rule="evenodd" d="M61.0991 48.5711L62.0564 48.5453L63.001 48.4766L63.9265 48.3563L64.8456 48.1909L65.7392 47.9826L66.6222 47.7291L67.484 47.4306L68.3309 47.0955L69.1545 46.7175L69.9568 46.3051L70.7316 45.8498L71.4894 45.3622L72.2153 44.8381L72.9136 44.2797L73.5907 43.6912L74.2339 43.0661L74.8537 42.4132L75.4353 41.728L75.9851 41.0214L76.5051 40.2868L76.9869 39.52L77.4348 38.7339L77.8424 37.9242L78.2181 37.0908L78.5492 36.236L78.8421 35.3618L79.0947 34.4704L79.3006 33.5662L79.4619 32.634L79.5808 31.6975L79.6508 30.7417L79.6742 29.7731L79.6508 28.8108L79.5808 27.8615L79.4619 26.925L79.3006 26.0079L79.0947 25.1036L78.8421 24.2166L78.5492 23.3445L78.2181 22.4961L77.8424 21.6671L77.4348 20.8552L76.9869 20.0776L76.5051 19.313L75.9851 18.5784L75.4353 17.8761L74.8537 17.1931L74.2339 16.5401L73.5907 15.9194L72.9136 15.3309L72.2153 14.7746L71.4894 14.2484L70.7316 13.7608L69.9568 13.314L69.1545 12.9016L68.3309 12.5215L67.484 12.1864L66.6222 11.8879L65.7392 11.6344L64.8456 11.4261L63.9265 11.2628L63.001 11.1426L62.0564 11.0717L61.0991 11.0459L60.1482 11.0717L59.2036 11.1426L58.2782 11.2628L57.3655 11.4261L56.4718 11.6344L55.591 11.8879L54.7334 12.1864L53.8865 12.5215L53.0672 12.9016L52.2733 13.314L51.4985 13.7608L50.7493 14.2484L50.0233 14.7746L49.3229 15.3309L48.6521 15.9194L48.009 16.5401L47.3955 17.1931L46.8139 17.8761L46.2642 18.5784L45.7505 19.313L45.2687 20.0776L44.825 20.8552L44.4111 21.6671L44.0439 22.4961L43.7107 23.3445L43.4241 24.2166L43.1736 25.1036L42.9677 26.0079L42.8043 26.925L42.6876 27.8615L42.6175 28.8108L42.592 29.7731L42.6175 30.7417L42.6876 31.6975L42.8043 32.634L42.9677 33.5662L43.1736 34.4704L43.4241 35.3618L43.7107 36.236L44.0439 37.0908L44.4111 37.9242L44.825 38.7339L45.2687 39.52L45.7505 40.2868L46.2642 41.0214L46.8139 41.728L47.3955 42.4132L48.009 43.0661L48.6521 43.6912L49.3229 44.2797L50.0233 44.8381L50.7493 45.3622L51.4985 45.8498L52.2733 46.3051L53.0672 46.7175L53.8865 47.0955L54.7334 47.4306L55.591 47.7291L56.4718 47.9826L57.3655 48.1909L58.2782 48.3563L59.2036 48.4766L60.1482 48.5453L61.0991 48.5711Z" fill="#FBB231"/>
    <path fill-rule="evenodd" clip-rule="evenodd" d="M36.2944 48.5721L37.2432 48.5463L38.1899 48.4776L39.1154 48.3573L40.0281 48.1919L40.9217 47.9836L41.8048 47.7301L42.6623 47.4316L43.505 47.0965L44.3243 46.7185L45.1203 46.3061L45.895 45.8508L46.6443 45.3632L47.3703 44.8391L48.0707 44.2807L48.7393 43.6922L49.3846 43.0671L49.9981 42.4142L50.5797 41.729L51.1294 41.0224L51.641 40.2878L52.1249 39.521L52.5686 38.7349L52.9803 37.9252L53.3497 37.0918L53.6829 36.2369L53.9695 35.3628L54.2199 34.4714L54.4258 33.5672L54.5893 32.635L54.706 31.6985L54.7761 30.7427L54.8015 29.774L54.7761 28.8118L54.706 27.8624L54.5893 26.926L54.4258 26.0088L54.2199 25.1046L53.9695 24.2175L53.6829 23.3455L53.3497 22.4971L52.9803 21.668L52.5686 20.8561L52.1249 20.0786L51.641 19.314L51.1294 18.5794L50.5797 17.8771L49.9981 17.194L49.3846 16.5411L48.7393 15.9204L48.0707 15.3318L47.3703 14.7756L46.6443 14.2493L45.895 13.7618L45.1203 13.315L44.3243 12.9026L43.505 12.5225L42.6623 12.1874L41.8048 11.8888L40.9217 11.6354L40.0281 11.427L39.1154 11.2638L38.1899 11.1435L37.2432 11.0726L36.2944 11.0469L35.3371 11.0726L34.3926 11.1435L33.4671 11.2638L32.5459 11.427L31.6523 11.6354L30.7714 11.8888L29.9075 12.1874L29.0627 12.5225L28.237 12.9026L27.4368 13.315L26.662 13.7618L25.9042 14.2493L25.1783 14.7756L24.4799 15.3318L23.8028 15.9204L23.1597 16.5411L22.5399 17.194L21.9583 17.8771L21.4085 18.5794L20.8885 19.314L20.4066 20.0786L19.9566 20.8561L19.5512 21.668L19.1755 22.4971L18.8444 23.3455L18.5515 24.2175L18.301 25.1046L18.093 26.0088L17.9317 26.926L17.8107 27.8624L17.7428 28.8118L17.7173 29.774L17.7428 30.7427L17.8107 31.6985L17.9317 32.635L18.093 33.5672L18.301 34.4714L18.5515 35.3628L18.8444 36.2369L19.1755 37.0918L19.5512 37.9252L19.9566 38.7349L20.4066 39.521L20.8885 40.2878L21.4085 41.0224L21.9583 41.729L22.5399 42.4142L23.1597 43.0671L23.8028 43.6922L24.4799 44.2807L25.1783 44.8391L25.9042 45.3632L26.662 45.8508L27.4368 46.3061L28.237 46.7185L29.0627 47.0965L29.9075 47.4316L30.7714 47.7301L31.6523 47.9836L32.5459 48.1919L33.4671 48.3573L34.3926 48.4776L35.3371 48.5463L36.2944 48.5721Z" fill="#EC1C2E"/>
    <path fill-rule="evenodd" clip-rule="evenodd" d="M46.5276 18.2419H56.3765V17.2217H47.3766L46.5276 18.2419ZM45.0502 20.5079H56.3765V19.4877H45.6446L45.0502 20.5079ZM43.9507 22.7674H56.3765V21.7472H44.388L43.9507 22.7674ZM43.1929 25.0313H56.3765V24.0132H43.505L43.1929 25.0313ZM43.6302 35.9811H56.4084V34.963H43.3182L43.6302 35.9811ZM44.5748 38.2471H56.4084V37.229H44.1057L44.5748 38.2471ZM45.8993 40.5066H56.4084V39.4885H45.2689L45.8993 40.5066ZM47.7268 42.7726H56.4084V41.7459H46.846L47.7268 42.7726ZM42.7493 27.2908H56.3765V26.2727H42.9425L42.7493 27.2908ZM51.0551 33.7215H56.2513V32.7034H51.2419L51.0551 33.7215ZM51.469 31.462H56.2513V30.4374H51.6558L51.469 31.462ZM42.4033 30.4374H43.7575V31.462H42.467L42.4033 30.4374Z" fill="#FBB231"/>
    <path fill-rule="evenodd" clip-rule="evenodd" d="M39.8839 29.2023L39.7968 29.1959L39.7098 29.183L39.627 29.1722L39.5464 29.1593L39.4721 29.1465L39.3914 29.1336L39.3086 29.1207L39.2216 29.1078L39.1346 29.0949L39.0327 29.0885L38.9202 29.082L38.8034 29.0756H38.6718L38.5275 29.082L38.3641 29.0949L38.1836 29.1078L38.0584 29.1271L37.9395 29.1465L37.8313 29.183L37.74 29.2216L37.6509 29.2646L37.5702 29.3161L37.5065 29.3806L37.4492 29.4364L37.4131 29.5073L37.3813 29.576L37.3685 29.6512V29.7285L37.3877 29.8101L37.4131 29.8918L37.4641 29.9755L37.5256 30.0572L37.6509 30.1774L37.8016 30.2719L37.9756 30.3536L38.1645 30.4244L38.3641 30.4889L38.5699 30.5576L38.7758 30.6328L38.9775 30.7165L39.1643 30.8239L39.3405 30.955L39.4954 31.1139L39.627 31.3115L39.7268 31.5499L39.7905 31.8356L39.8138 32.1771L39.7905 32.5766L39.748 32.8751L39.6716 33.1329L39.5718 33.3734L39.4466 33.5818L39.3023 33.7665L39.1388 33.9233L38.9648 34.0629L38.7716 34.1832L38.5699 34.2798L38.3641 34.3615L38.1518 34.4237L37.9332 34.4753L37.7188 34.514L37.515 34.5311L37.3091 34.544L37.1138 34.5505H36.8443L36.5938 34.544H36.3752L36.1693 34.5397L35.9804 34.5311L35.8127 34.5182L35.662 34.5075L35.5176 34.4882L35.386 34.4753L35.2693 34.4495L35.1504 34.4302L35.0422 34.4001L34.936 34.3722L34.8363 34.3357L34.7365 34.2992L34.6304 34.2605L34.9106 32.8601L34.9679 32.8751L35.0358 32.8923L35.1228 32.9181L35.2311 32.9439L35.3436 32.9675L35.4688 32.9933L35.6068 33.0255L35.7554 33.0513L35.9124 33.0749L36.0759 33.1007L36.2436 33.12L36.4197 33.1393L36.6002 33.1458L36.7827 33.1522H36.9631L37.1436 33.1458L37.3261 33.1071L37.4704 33.0577L37.5808 32.9868L37.67 32.8988L37.7315 32.8107L37.7825 32.7076L37.8143 32.6088L37.8398 32.5121L37.8525 32.3296L37.7952 32.1706L37.6891 32.0439L37.532 31.9365L37.3452 31.842L37.1266 31.7475L36.8825 31.6573L36.6384 31.5564L36.3879 31.4425L36.1502 31.3115L35.9315 31.1461L35.732 30.9507L35.5749 30.7079L35.4624 30.4244L35.4051 30.0829L35.4115 29.6791L35.4433 29.43L35.4879 29.1959L35.5495 28.9811L35.6238 28.7792L35.7235 28.5902L35.8381 28.4248L35.9697 28.2658L36.1268 28.1284L36.3072 28.0081L36.5068 27.905L36.7318 27.8105L36.9822 27.7418L37.2645 27.6838L37.5702 27.6387L37.9077 27.6129L38.277 27.6064H38.5084L38.7207 27.6129L38.9159 27.6215L39.09 27.6279L39.2471 27.6387L39.3914 27.6516L39.5145 27.6644L39.627 27.6773L39.7331 27.6902L39.8223 27.7095L39.903 27.7224L39.9794 27.7353L40.0409 27.7461L40.0982 27.7546L40.1534 27.7654L40.2022 27.774L39.8839 29.2023Z" fill="white"/>
    <path fill-rule="evenodd" clip-rule="evenodd" d="M39.8839 29.2023L39.7968 29.1959L39.7098 29.183L39.627 29.1722L39.5464 29.1593L39.4721 29.1465L39.3914 29.1336L39.3086 29.1207L39.2216 29.1078L39.1346 29.0949L39.0327 29.0885L38.9202 29.082L38.8034 29.0756H38.6718L38.5275 29.082L38.3641 29.0949L38.1836 29.1078L38.0584 29.1271L37.9395 29.1465L37.8313 29.183L37.74 29.2216L37.6509 29.2646L37.5702 29.3161L37.5065 29.3806L37.4492 29.4364L37.4131 29.5073L37.3813 29.576L37.3685 29.6512V29.7285L37.3877 29.8101L37.4131 29.8918L37.4641 29.9755L37.5256 30.0572L37.6509 30.1774L37.8016 30.2719L37.9756 30.3536L38.1645 30.4244L38.3641 30.4889L38.5699 30.5576L38.7758 30.6328L38.9775 30.7165L39.1643 30.8239L39.3405 30.955L39.4954 31.1139L39.627 31.3115L39.7268 31.5499L39.7905 31.8356L39.8138 32.1771L39.7905 32.5766L39.748 32.8751L39.6716 33.1329L39.5718 33.3734L39.4466 33.5818L39.3023 33.7665L39.1388 33.9233L38.9648 34.0629L38.7716 34.1832L38.5699 34.2798L38.3641 34.3615L38.1518 34.4237L37.9332 34.4753L37.7188 34.514L37.515 34.5311L37.3091 34.544L37.1138 34.5505H36.8443L36.5938 34.544H36.3752L36.1693 34.5397L35.9804 34.5311L35.8127 34.5182L35.662 34.5075L35.5176 34.4882L35.386 34.4753L35.2693 34.4495L35.1504 34.4302L35.0422 34.4001L34.936 34.3722L34.8363 34.3357L34.7365 34.2992L34.6304 34.2605L34.9106 32.8601L34.9679 32.8751L35.0358 32.8923L35.1228 32.9181L35.2311 32.9439L35.3436 32.9675L35.4688 32.9933L35.6068 33.0255L35.7554 33.0513L35.9124 33.0749L36.0759 33.1007L36.2436 33.12L36.4197 33.1393L36.6002 33.1458L36.7827 33.1522H36.9631L37.1436 33.1458L37.3261 33.1071L37.4704 33.0577L37.5808 32.9868L37.67 32.8988L37.7315 32.8107L37.7825 32.7076L37.8143 32.6088L37.8398 32.5121L37.8525 32.3296L37.7952 32.1706L37.6891 32.0439L37.532 31.9365L37.3452 31.842L37.1266 31.7475L36.8825 31.6573L36.6384 31.5564L36.3879 31.4425L36.1502 31.3115L35.9315 31.1461L35.732 30.9507L35.5749 30.7079L35.4624 30.4244L35.4051 30.0829L35.4115 29.6791L35.4433 29.43L35.4879 29.1959L35.5495 28.9811L35.6238 28.7792L35.7235 28.5902L35.8381 28.4248L35.9697 28.2658L36.1268 28.1284L36.3072 28.0081L36.5068 27.905L36.7318 27.8105L36.9822 27.7418L37.2645 27.6838L37.5702 27.6387L37.9077 27.6129L38.277 27.6064H38.5084L38.7207 27.6129L38.9159 27.6215L39.09 27.6279L39.2471 27.6387L39.3914 27.6516L39.5145 27.6644L39.627 27.6773L39.7331 27.6902L39.8223 27.7095L39.903 27.7224L39.9794 27.7353L40.0409 27.7461L40.0982 27.7546L40.1534 27.7654L40.2022 27.774L39.8839 29.2023Z" stroke="white" stroke-width="0.216"/>
    <path fill-rule="evenodd" clip-rule="evenodd" d="M41.3656 26.2119H43.0998L42.843 27.7433H43.8873L43.6623 29.1738L42.5607 29.1416L41.9621 32.6727L41.9557 32.7994L41.9854 32.9068L42.0491 32.9884L42.1298 33.0593L42.2423 33.1022L42.3675 33.1409L42.5034 33.1667L42.6541 33.1796L42.792 33.1731L42.9173 33.1602L43.0319 33.1409L43.1295 33.1151L43.2123 33.0893L43.2675 33.0722L43.3057 33.0593L43.3184 33.0528L43.0998 34.2299L43.0552 34.2621L43.0128 34.2857L42.9682 34.3115L42.9236 34.3373L42.8791 34.3566L42.8302 34.3738L42.7751 34.3931L42.7177 34.4124L42.6541 34.4318L42.5925 34.4446L42.5182 34.4575L42.4439 34.4704L42.3611 34.4833L42.2678 34.4962L42.1659 34.5091L42.0597 34.5198H41.5843L41.3338 34.5005L41.1152 34.4769L40.9156 34.4382L40.748 34.3931L40.6036 34.3373L40.4848 34.275L40.3786 34.1976L40.298 34.116L40.2343 34.028L40.1897 33.9206L40.16 33.811L40.1409 33.6929L40.1345 33.5576V33.4201L40.1727 33.1151L41.3656 26.2119Z" fill="white"/>
    <path d="M45.2713 31.5601L45.25 31.6675L45.2458 31.7792L45.2564 31.8994L45.2819 32.0197L45.3243 32.1421L45.3774 32.256L45.4453 32.3763L45.5196 32.4837L45.6066 32.591L45.7 32.6856L45.8019 32.7801L45.9123 32.8552L46.0269 32.9261L46.1521 32.982L46.2774 33.0249L46.4026 33.0528L46.5639 33.0765L46.721 33.0979L46.8844 33.1151L47.0458 33.128L47.2092 33.1345H47.379L47.5403 33.128L47.7101 33.1151L47.8778 33.0893L48.0476 33.0593L48.2217 33.0206L48.3915 32.9648L48.5656 32.8939L48.746 32.8166L48.9222 32.7178L49.1026 32.6104L48.8521 34.1654L48.7523 34.217L48.6526 34.2685L48.5528 34.305L48.4594 34.3437L48.366 34.3738L48.2641 34.4081L48.1644 34.4296L48.0583 34.4511L47.9458 34.4726L47.8205 34.4833L47.691 34.4962L47.5467 34.5091L47.3833 34.5155H47.2156L47.0203 34.5198H46.8144L46.5087 34.5155L46.1967 34.4833L45.8826 34.4404L45.5705 34.363L45.2628 34.2685L44.9698 34.1461L44.6875 33.9893L44.4243 33.8046L44.1802 33.5898L43.968 33.3321L43.7875 33.0399L43.6368 32.7049L43.5307 32.3312L43.4628 31.9059L43.4437 31.4376L43.4755 30.92L43.4989 30.7181L43.5371 30.4819L43.588 30.237L43.6559 29.9685L43.7493 29.7L43.8618 29.4251L44.0062 29.1459L44.1802 28.8817L44.3798 28.6283L44.6239 28.3877L44.8998 28.1729L45.2139 27.9839L45.5748 27.825L45.9823 27.7111L46.4323 27.6359L46.9418 27.608L47.1837 27.6145L47.4384 27.6402L47.6974 27.6832L47.9521 27.7476L48.2026 27.8443L48.4467 27.9581L48.6717 28.1085L48.8776 28.2867L49.0665 28.5015L49.2236 28.755L49.3467 29.0471L49.4358 29.3821L49.4868 29.7602L49.491 30.1897L49.4486 30.673L49.353 31.2057L49.3233 31.5923H44.7639L45.0505 30.3422H47.7887L47.8035 30.1854L47.795 30.0351L47.7823 29.8933L47.759 29.7688L47.7165 29.6463L47.6719 29.5389L47.6083 29.4444L47.5446 29.3564L47.4724 29.2812L47.3896 29.2168L47.2962 29.1609L47.2028 29.1094L47.1031 29.0729L47.0012 29.0471L46.8951 29.0256L46.7826 29.0149L46.6637 29.0213L46.5512 29.0385L46.4451 29.0664L46.3389 29.1029L46.2328 29.1545L46.1394 29.2103L46.0439 29.2812L45.9632 29.3564L45.8826 29.4444L45.8062 29.5389L45.7382 29.642L45.683 29.7494L45.6257 29.8633L45.5833 29.99L45.5451 30.1167L45.5196 30.2477L45.2691 31.5579M41.3656 26.2119H43.0998L42.843 27.7433H43.8873L43.6623 29.1738L42.5586 29.1416L41.9621 32.6727L41.9557 32.7994L41.9854 32.9068L42.0491 32.9884L42.1298 33.0593L42.2423 33.1022L42.3675 33.1409L42.5034 33.1667L42.6541 33.1796L42.792 33.1731L42.9173 33.1602L43.0319 33.1409L43.1295 33.1151L43.2123 33.0893L43.2675 33.0722L43.3057 33.0593L43.3184 33.0528L43.0998 34.2299L43.0574 34.2621L43.0128 34.2857L42.9682 34.3115L42.9258 34.3373L42.8791 34.3566L42.8302 34.3738L42.7751 34.3952L42.7177 34.4124L42.6541 34.4318L42.5904 34.4446L42.5182 34.4575L42.4439 34.4704L42.3611 34.4833L42.2678 34.4962L42.1659 34.5091L42.0597 34.5198H41.5843L41.3338 34.5005L41.1152 34.4769L40.9156 34.4382L40.7458 34.3952L40.6036 34.3373L40.4848 34.2728L40.3786 34.1976L40.298 34.116L40.2343 34.028L40.1897 33.9206L40.16 33.8132L40.1388 33.6929L40.1345 33.5576V33.4201L40.1727 33.1151L41.3656 26.2119V26.2119Z" stroke="white" stroke-width="0.216"/>
    <path fill-rule="evenodd" clip-rule="evenodd" d="M60.1865 28.1199L60.1037 28.077L60.0231 28.0383L59.936 27.9932L59.8426 27.9502L59.7471 27.9116L59.6431 27.8751L59.5349 27.8364L59.4245 27.7977L59.3056 27.7655L59.1846 27.7419L59.0551 27.7161L58.9235 27.6968L58.7792 27.6839L58.6349 27.671H58.1721L58.0087 27.6839L57.841 27.7032L57.6648 27.7354L57.4908 27.7848L57.3146 27.8557L57.1405 27.9438L56.9644 28.0576L56.7967 28.1972L56.6332 28.3605L56.4762 28.5645L56.3276 28.7986L56.1896 29.0757L56.058 29.3914L55.9391 29.748L55.8394 30.1518L55.8012 30.3795L55.7778 30.6007L55.7651 30.8241L55.7715 31.0389L55.7884 31.2536L55.833 31.4555L55.8903 31.6467L55.9582 31.8357L56.0516 32.0075L56.1641 32.1708L56.2957 32.3168L56.4464 32.45L56.6141 32.5638L56.8073 32.6583L57.0217 32.74L57.2594 32.7979L57.3401 32.8151L57.4356 32.8345L57.5481 32.8473L57.6733 32.8602L57.8092 32.8753H58.1085L58.2655 32.8602L58.429 32.8409L58.5903 32.8108L58.7474 32.7657L58.9044 32.7163L59.0594 32.6455L59.2037 32.5638L59.3353 32.4629L59.4606 32.349L59.1804 34.0394L59.1422 34.0695L59.104 34.1081L59.0551 34.1532L58.9978 34.1898L58.9299 34.2392L58.8408 34.2843L58.741 34.3294L58.6285 34.3659L58.4842 34.411L58.3228 34.4432L58.136 34.469L57.9153 34.4948L57.6733 34.5076L57.3889 34.5141L57.0726 34.5076L56.7203 34.4883L56.4337 34.4561L56.145 34.3917L55.8585 34.2993L55.5698 34.1704L55.296 34.0201L55.0307 33.8289L54.7823 33.6077L54.5509 33.3542L54.3429 33.0707L54.1689 32.755L54.0182 32.4006L53.9078 32.014L53.8314 31.5887L53.8059 31.1398L53.8186 30.6458L53.8866 30.1196L53.9375 29.8618L53.9927 29.6084L54.0564 29.3614L54.1201 29.1273L54.188 28.906L54.2686 28.6848L54.3514 28.4743L54.4384 28.2789L54.534 28.0834L54.6252 27.8987L54.7335 27.7226L54.8439 27.5572L54.9564 27.3982L55.0837 27.2479L55.2068 27.1083L55.3384 26.9751L55.4828 26.8484L55.6271 26.7281L55.7778 26.6207L55.9328 26.5198L56.1026 26.4253L56.2703 26.3436L56.4464 26.2663L56.6269 26.1976L56.8221 26.1331L57.0132 26.0837L57.2148 26.0386L57.4292 26L57.6394 25.9678L57.8644 25.9441L58.0915 25.9312L58.3292 25.9248L58.5309 25.9312L58.724 25.9441L58.9108 25.9635L59.0976 25.9871L59.2738 26.0129L59.4415 26.0515L59.6049 26.0837L59.7556 26.1203L59.8978 26.1589L60.0231 26.1976L60.144 26.2341L60.2417 26.2728L60.3308 26.305L60.4051 26.3308L60.4624 26.3544L60.4985 26.3694L60.1865 28.1199Z" fill="white"/>
    <path fill-rule="evenodd" clip-rule="evenodd" d="M60.1865 28.1199L60.1037 28.077L60.0231 28.0383L59.936 27.9932L59.8426 27.9502L59.7471 27.9116L59.6431 27.8751L59.5349 27.8364L59.4245 27.7977L59.3056 27.7655L59.1846 27.7419L59.0551 27.7161L58.9235 27.6968L58.7792 27.6839L58.6349 27.671H58.1721L58.0087 27.6839L57.841 27.7032L57.6648 27.7354L57.4908 27.7848L57.3146 27.8557L57.1405 27.9438L56.9644 28.0576L56.7967 28.1972L56.6332 28.3605L56.4762 28.5645L56.3276 28.7986L56.1896 29.0757L56.058 29.3914L55.9391 29.748L55.8394 30.1518L55.8012 30.3795L55.7778 30.6007L55.7651 30.8241L55.7715 31.0389L55.7884 31.2536L55.833 31.4555L55.8903 31.6467L55.9582 31.8357L56.0516 32.0075L56.1641 32.1708L56.2957 32.3168L56.4464 32.45L56.6141 32.5638L56.8073 32.6583L57.0217 32.74L57.2594 32.7979L57.3401 32.8151L57.4356 32.8345L57.5481 32.8473L57.6733 32.8602L57.8092 32.8753H58.1085L58.2655 32.8602L58.429 32.8409L58.5903 32.8108L58.7474 32.7657L58.9044 32.7163L59.0594 32.6455L59.2037 32.5638L59.3353 32.4629L59.4606 32.349L59.1804 34.0394L59.1422 34.0695L59.104 34.1081L59.0551 34.1532L58.9978 34.1898L58.9299 34.2392L58.8408 34.2843L58.741 34.3294L58.6285 34.3659L58.4842 34.411L58.3228 34.4432L58.136 34.469L57.9153 34.4948L57.6733 34.5076L57.3889 34.5141L57.0726 34.5076L56.7203 34.4883L56.4337 34.4561L56.145 34.3917L55.8585 34.2993L55.5698 34.1704L55.296 34.0201L55.0307 33.8289L54.7823 33.6077L54.5509 33.3542L54.3429 33.0707L54.1689 32.755L54.0182 32.4006L53.9078 32.014L53.8314 31.5887L53.8059 31.1398L53.8186 30.6458L53.8866 30.1196L53.9375 29.8618L53.9927 29.6084L54.0564 29.3614L54.1201 29.1273L54.188 28.906L54.2686 28.6848L54.3514 28.4743L54.4384 28.2789L54.534 28.0834L54.6252 27.8987L54.7335 27.7226L54.8439 27.5572L54.9564 27.3982L55.0837 27.2479L55.2068 27.1083L55.3384 26.9751L55.4828 26.8484L55.6271 26.7281L55.7778 26.6207L55.9328 26.5198L56.1026 26.4253L56.2703 26.3436L56.4464 26.2663L56.6269 26.1976L56.8221 26.1331L57.0132 26.0837L57.2148 26.0386L57.4292 26L57.6394 25.9678L57.8644 25.9441L58.0915 25.9312L58.3292 25.9248L58.5309 25.9312L58.724 25.9441L58.9108 25.9635L59.0976 25.9871L59.2738 26.0129L59.4415 26.0515L59.6049 26.0837L59.7556 26.1203L59.8978 26.1589L60.0231 26.1976L60.144 26.2341L60.2417 26.2728L60.3308 26.305L60.4051 26.3308L60.4624 26.3544L60.4985 26.3694L60.1865 28.1199Z" stroke="white" stroke-width="0.216"/>
    <path fill-rule="evenodd" clip-rule="evenodd" d="M75.584 34.5191H73.8519L73.9772 33.8189V33.7544L73.8774 33.8811L73.7713 33.9928L73.6652 34.0959L73.5527 34.184L73.4402 34.2678L73.3277 34.3365L73.2152 34.3923L73.0963 34.4503L72.9774 34.4954L72.8586 34.5276L72.7397 34.5577L72.6145 34.5749L72.4892 34.5964L72.3704 34.6093L72.2451 34.6157H72.1199L71.7951 34.5899L71.4937 34.5191L71.2199 34.4117L70.9694 34.2678L70.7444 34.083L70.5428 33.8683L70.3687 33.6341L70.218 33.3678L70.0949 33.0821L69.993 32.7857L69.9251 32.4764L69.8742 32.1521L69.8572 31.8299L69.8614 31.5013L69.8933 31.1791L69.9506 30.857L70.044 30.4811L70.1565 30.1267L70.2881 29.8045L70.443 29.5017L70.6065 29.216L70.7933 28.9625L70.9864 28.737L71.1944 28.5265L71.4131 28.3418L71.6444 28.185L71.8822 28.0454L72.1199 27.938L72.3704 27.85L72.6208 27.792L72.8692 27.7555L73.126 27.7426L73.3086 27.7469L73.4826 27.7662L73.6461 27.7984L73.7968 27.8435L73.9411 27.8929L74.0663 27.9509L74.1916 28.0196L74.3041 28.0905L74.4038 28.1657L74.4972 28.2473L74.5779 28.3311L74.6522 28.4127L74.7158 28.4943L74.7732 28.5759L74.822 28.6533L74.8581 28.7284L75.2974 26.2412H76.9977L75.584 34.5191Z" fill="white"/>
    <path fill-rule="evenodd" clip-rule="evenodd" d="M75.584 34.5191H73.8519L73.9772 33.8189V33.7544L73.8774 33.8811L73.7713 33.9928L73.6652 34.0959L73.5527 34.184L73.4402 34.2678L73.3277 34.3365L73.2152 34.3923L73.0963 34.4503L72.9774 34.4954L72.8586 34.5276L72.7397 34.5577L72.6145 34.5749L72.4892 34.5964L72.3704 34.6093L72.2451 34.6157H72.1199L71.7951 34.5899L71.4937 34.5191L71.2199 34.4117L70.9694 34.2678L70.7444 34.083L70.5428 33.8683L70.3687 33.6341L70.218 33.3678L70.0949 33.0821L69.993 32.7857L69.9251 32.4764L69.8742 32.1521L69.8572 31.8299L69.8614 31.5013L69.8933 31.1791L69.9506 30.857L70.044 30.4811L70.1565 30.1267L70.2881 29.8045L70.443 29.5017L70.6065 29.216L70.7933 28.9625L70.9864 28.737L71.1944 28.5265L71.4131 28.3418L71.6444 28.185L71.8822 28.0454L72.1199 27.938L72.3704 27.85L72.6208 27.792L72.8692 27.7555L73.126 27.7426L73.3086 27.7469L73.4826 27.7662L73.6461 27.7984L73.7968 27.8435L73.9411 27.8929L74.0663 27.9509L74.1916 28.0196L74.3041 28.0905L74.4038 28.1657L74.4972 28.2473L74.5779 28.3311L74.6522 28.4127L74.7158 28.4943L74.7732 28.5759L74.822 28.6533L74.8581 28.7284L75.2974 26.2412H76.9977L75.584 34.5191Z" stroke="white" stroke-width="0.216"/>
    <path fill-rule="evenodd" clip-rule="evenodd" d="M72.75 32.9888L72.9262 32.976L73.0896 32.9394L73.2403 32.8943L73.3826 32.8256L73.5142 32.7504L73.6394 32.6538L73.7583 32.5485L73.8644 32.4325L73.9578 32.3058L74.0469 32.1662L74.1276 32.0202L74.1976 31.8698L74.2592 31.7109L74.308 31.5455L74.3526 31.3758L74.3844 31.2061L74.4142 31.0278L74.4333 30.8453V30.6734L74.429 30.4973L74.4099 30.3319L74.3844 30.173L74.3399 30.0205L74.2889 29.8744L74.2274 29.7499L74.1531 29.6296L74.0724 29.5265L73.9769 29.4384L73.8708 29.3633L73.7583 29.3117L73.6394 29.2816L73.5078 29.2666L73.3401 29.2816L73.183 29.3053L73.0387 29.3568L72.8944 29.4191L72.7713 29.5029L72.6439 29.6038L72.5399 29.7112L72.4316 29.8315L72.3382 29.969L72.2512 30.1172L72.1684 30.2675L72.1005 30.4329L72.0389 30.6026L71.988 30.7744L71.9392 30.957L71.901 31.1417L71.8691 31.4209L71.8819 31.7238L71.9243 32.033L72.0092 32.3316L72.1323 32.5915L72.2958 32.7998L72.5017 32.9394L72.75 32.9888Z" fill="#FBB231"/>
    <path fill-rule="evenodd" clip-rule="evenodd" d="M34.3435 33.1167L34.0909 34.5214H32.5159L32.5584 34.2636L32.5924 34.0295L32.6157 33.8513L32.6412 33.7568L32.5541 33.8577L32.4523 33.9587L32.3355 34.0553L32.2018 34.1412L32.0532 34.2314L31.8961 34.3066L31.7327 34.3839L31.565 34.4462L31.3825 34.5021L31.202 34.5472L31.0195 34.5858L30.8348 34.6116L30.6523 34.6245L30.4719 34.6288L30.2957 34.6116L30.1259 34.5858L29.9072 34.53L29.7077 34.4655L29.5315 34.3839L29.3745 34.2873L29.2386 34.1863L29.1134 34.0725L29.0136 33.9522L28.9266 33.8255L28.8523 33.6945L28.7886 33.5527L28.7377 33.4152L28.7016 33.2756L28.6761 33.1296L28.657 32.9835L28.6443 32.8439V32.7065L28.6634 32.4594L28.7016 32.2253L28.7632 32.0041L28.8459 31.7872L28.9436 31.5853L29.0561 31.4027L29.1877 31.2266L29.3384 31.0655L29.4955 30.9216L29.6695 30.7884L29.8521 30.6681L30.0388 30.565L30.2384 30.4791L30.4464 30.4082L30.6587 30.3524L30.8773 30.3137H30.89L30.9197 30.3073L30.9643 30.3009L31.0344 30.2944L31.1086 30.2815L31.1957 30.2751L31.2891 30.2622L31.3952 30.2493L31.5013 30.2386L31.6096 30.2257L31.7221 30.2192L31.8218 30.2063L31.9216 30.1999L32.015 30.1935L32.1042 30.187H32.3164L32.4671 30.1935L32.603 30.1999H32.7409L32.8534 30.2063L32.9426 30.2106L33.0041 30.2192H33.0232L33.0339 30.1741L33.0721 30.0603L33.1039 29.9271L33.1145 29.8068L33.0912 29.6672L33.0339 29.5405L32.9596 29.4267L32.8598 29.3322L32.7409 29.2505L32.6093 29.1947L32.4586 29.156L32.2973 29.1432L32.1211 29.1367L31.9322 29.1303H31.7391L31.5395 29.1367L31.3336 29.1496L31.132 29.1668L30.9346 29.1861L30.7393 29.2119L30.5504 29.2377L30.37 29.2677L30.2087 29.2999L30.058 29.3322L29.92 29.3708L29.8075 29.4073L29.7205 29.4524L29.6504 29.4911L30.094 27.9661L30.2341 27.9081L30.37 27.8587L30.5207 27.8136L30.6714 27.7814L30.8221 27.7492L30.9834 27.7256L31.1469 27.6998L31.3145 27.6869L31.4907 27.674L31.6711 27.6676L31.8579 27.6611H32.4586L32.6794 27.6676L32.898 27.674L33.0721 27.6869L33.261 27.7191L33.4541 27.7621L33.6537 27.8201L33.8489 27.8952L34.0357 27.9855L34.2225 28.0929L34.3987 28.2131L34.5537 28.3527L34.6916 28.5031L34.819 28.6749L34.9103 28.8639L34.9739 29.068L35.01 29.2828V29.5212L34.9739 29.7746L34.3435 33.1167Z" fill="white"/>
    <path fill-rule="evenodd" clip-rule="evenodd" d="M34.3435 33.1167L34.0909 34.5214H32.5159L32.5584 34.2636L32.5924 34.0295L32.6157 33.8513L32.6412 33.7568L32.5541 33.8577L32.4523 33.9587L32.3355 34.0553L32.2018 34.1412L32.0532 34.2314L31.8961 34.3066L31.7327 34.3839L31.565 34.4462L31.3825 34.5021L31.202 34.5472L31.0195 34.5858L30.8348 34.6116L30.6523 34.6245L30.4719 34.6288L30.2957 34.6116L30.1259 34.5858L29.9072 34.53L29.7077 34.4655L29.5315 34.3839L29.3745 34.2873L29.2386 34.1863L29.1134 34.0725L29.0136 33.9522L28.9266 33.8255L28.8523 33.6945L28.7886 33.5527L28.7377 33.4152L28.7016 33.2756L28.6761 33.1296L28.657 32.9835L28.6443 32.8439V32.7065L28.6634 32.4594L28.7016 32.2253L28.7632 32.0041L28.8459 31.7872L28.9436 31.5853L29.0561 31.4027L29.1877 31.2266L29.3384 31.0655L29.4955 30.9216L29.6695 30.7884L29.8521 30.6681L30.0388 30.565L30.2384 30.4791L30.4464 30.4082L30.6587 30.3524L30.8773 30.3137H30.89L30.9197 30.3073L30.9643 30.3009L31.0344 30.2944L31.1086 30.2815L31.1957 30.2751L31.2891 30.2622L31.3952 30.2493L31.5013 30.2386L31.6096 30.2257L31.7221 30.2192L31.8218 30.2063L31.9216 30.1999L32.015 30.1935L32.1042 30.187H32.3164L32.4671 30.1935L32.603 30.1999H32.7409L32.8534 30.2063L32.9426 30.2106L33.0041 30.2192H33.0232L33.0339 30.1741L33.0721 30.0603L33.1039 29.9271L33.1145 29.8068L33.0912 29.6672L33.0339 29.5405L32.9596 29.4267L32.8598 29.3322L32.7409 29.2505L32.6093 29.1947L32.4586 29.156L32.2973 29.1432L32.1211 29.1367L31.9322 29.1303H31.7391L31.5395 29.1367L31.3336 29.1496L31.132 29.1668L30.9346 29.1861L30.7393 29.2119L30.5504 29.2377L30.37 29.2677L30.2087 29.2999L30.058 29.3322L29.92 29.3708L29.8075 29.4073L29.7205 29.4524L29.6504 29.4911L30.094 27.9661L30.2341 27.9081L30.37 27.8587L30.5207 27.8136L30.6714 27.7814L30.8221 27.7492L30.9834 27.7256L31.1469 27.6998L31.3145 27.6869L31.4907 27.674L31.6711 27.6676L31.8579 27.6611H32.4586L32.6794 27.6676L32.898 27.674L33.0721 27.6869L33.261 27.7191L33.4541 27.7621L33.6537 27.8201L33.8489 27.8952L34.0357 27.9855L34.2225 28.0929L34.3987 28.2131L34.5537 28.3527L34.6916 28.5031L34.819 28.6749L34.9103 28.8639L34.9739 29.068L35.01 29.2828V29.5212L34.9739 29.7746L34.3435 33.1167Z" stroke="white" stroke-width="0.216"/>
    <path fill-rule="evenodd" clip-rule="evenodd" d="M32.8344 31.4634L32.8281 31.4334L32.8026 31.4012L32.7665 31.3818L32.7028 31.3689L32.6349 31.3561L32.5542 31.3496H32.3653L32.2656 31.3561L32.1594 31.3689L32.0597 31.3818L31.9599 31.3947L31.8665 31.4076L31.7774 31.4248L31.7031 31.4441L31.6351 31.4634L31.5906 31.4763L31.5396 31.4957L31.4717 31.5214L31.4017 31.5515L31.321 31.5902L31.2403 31.6353L31.1533 31.6782L31.0705 31.7298L30.9835 31.7921L30.9028 31.8565L30.8264 31.9317L30.7585 32.009L30.6948 32.0906L30.6524 32.1787L30.6163 32.2796L30.5951 32.3806L30.5908 32.5975L30.6205 32.7672L30.6842 32.8939L30.7649 32.9884L30.8583 33.0529L30.9644 33.0894L31.0663 33.1087L31.1661 33.1151L31.3528 33.1087L31.5227 33.0894L31.684 33.0636L31.8283 33.0271L31.9535 32.982L32.0724 32.9261L32.1785 32.8681L32.2719 32.7994L32.3547 32.735L32.4269 32.6598L32.4906 32.5911L32.5415 32.5137L32.584 32.4386L32.6243 32.3634L32.654 32.2925L32.671 32.2238L32.7219 32.0412L32.7665 31.8307L32.8026 31.6288L32.8344 31.4634Z" fill="#EC1C2E"/>
    <path fill-rule="evenodd" clip-rule="evenodd" d="M21.1817 34.5198H19.4814L20.9015 26.2119H23.8604L24.1427 31.1412L26.1868 26.2119H29.2773L27.8255 34.5198H26.1252L27.1993 28.3125H27.1314L24.5863 34.5198H22.6675L22.6526 34.2621L22.6102 33.5705L22.5529 32.591L22.4892 31.4634L22.4276 30.3315L22.3725 29.337L22.3279 28.6175L22.3151 28.3125H22.2217L21.1817 34.5198Z" fill="white"/>
    <path fill-rule="evenodd" clip-rule="evenodd" d="M21.1817 34.5198H19.4814L20.9015 26.2119H23.8604L24.1427 31.1412L26.1868 26.2119H29.2773L27.8255 34.5198H26.1252L27.1993 28.3125H27.1314L24.5863 34.5198H22.6675L22.6526 34.2621L22.6102 33.5705L22.5529 32.591L22.4892 31.4634L22.4276 30.3315L22.3725 29.337L22.3279 28.6175L22.3151 28.3125H22.2217L21.1817 34.5198Z" stroke="white" stroke-width="0.216"/>
    <path fill-rule="evenodd" clip-rule="evenodd" d="M65.3852 33.1167L65.1283 34.5214H63.5576L63.5703 34.2636L63.5767 34.036V33.8641L63.5894 33.789L63.5088 33.8835L63.4132 33.978L63.3029 34.066L63.1755 34.1563L63.046 34.2379L62.8953 34.313L62.7383 34.3904L62.5812 34.4527L62.4135 34.5021L62.2373 34.5536L62.0633 34.5858L61.8892 34.6116L61.7067 34.6245L61.5326 34.6288L61.3628 34.6116L61.193 34.5858L60.968 34.53L60.7685 34.4655L60.5923 34.3839L60.4289 34.2873L60.293 34.1863L60.1741 34.0725L60.0744 33.9522L59.9873 33.8255L59.9109 33.6945L59.8557 33.5527L59.8048 33.4152L59.773 33.2756L59.7475 33.1296L59.7305 32.9835L59.7178 32.8439V32.7065L59.7305 32.4594L59.7687 32.2253L59.8239 32.0041L59.9067 31.7872L59.998 31.5853L60.1168 31.4027L60.2484 31.2266L60.3928 31.0655L60.5562 30.9216L60.7239 30.7884L60.9064 30.6681L61.0996 30.565L61.2949 30.4791L61.5008 30.4082L61.7067 30.3524L61.9189 30.3137H61.9317L61.9614 30.3073L62.006 30.3009L62.0696 30.2944L62.1503 30.2815L62.2373 30.2751L62.3328 30.2622L62.4305 30.2493L62.5387 30.2386L62.6512 30.2257L62.7574 30.2192L62.8635 30.2063L62.9633 30.1999L63.0503 30.1935L63.1394 30.187H63.3581L63.5088 30.1935L63.651 30.1999H63.7889L63.9078 30.2063L64.0076 30.2106L64.0649 30.2192H64.0904L64.1031 30.1741L64.1222 30.0603L64.1392 29.9271L64.1519 29.8068L64.1286 29.6672L64.0776 29.5405L63.997 29.4267L63.9015 29.3322L63.7889 29.2505L63.6574 29.1947L63.5215 29.156L63.3687 29.1432L63.1946 29.1367L63.0078 29.1303H62.8125L62.613 29.1367L62.4071 29.1496L62.2076 29.1668L62.006 29.1861L61.8128 29.2119L61.6239 29.2377L61.4435 29.2677L61.28 29.2999L61.1314 29.3322L60.9935 29.3708L60.881 29.4073L60.7918 29.4524L60.7239 29.4911L61.1633 27.9661L61.2991 27.9081L61.4435 27.8587L61.5878 27.8136L61.7364 27.7814L61.8935 27.7492L62.0505 27.7256L62.2118 27.6998L62.3817 27.6869L62.5557 27.674L62.7383 27.6676L62.9208 27.6611H63.5088L63.721 27.6676L63.9333 27.674L64.1095 27.6869L64.2963 27.7191L64.4894 27.7621L64.6911 27.8201L64.8842 27.8952L65.0774 27.9855L65.2642 28.0929L65.4403 28.2131L65.5974 28.3527L65.7396 28.5031L65.8649 28.6749L65.9604 28.8639L66.0283 29.068L66.0729 29.2828V29.5212L66.041 29.7746L65.3852 33.1167Z" fill="white"/>
    <path fill-rule="evenodd" clip-rule="evenodd" d="M65.1281 34.5646L65.1641 34.5281L65.421 33.1213L65.3467 33.1084L65.0898 34.5152L65.1281 34.4766V34.5646L65.1578 34.5582L65.1641 34.5281L65.1281 34.5646Z" fill="white"/>
    <path fill-rule="evenodd" clip-rule="evenodd" d="M63.5213 34.5195L63.5573 34.5646H65.1281V34.4766H63.5573L63.5956 34.5195H63.5213L63.5149 34.5646H63.5573L63.5213 34.5195Z" fill="white"/>
    <path fill-rule="evenodd" clip-rule="evenodd" d="M63.621 33.8101L63.5637 33.7607L63.5382 33.8617L63.5319 34.0335V34.2612L63.5212 34.5189H63.5955L63.6083 34.2612L63.621 34.0335L63.6146 33.8617V33.8101L63.5573 33.7607L63.621 33.8101Z" fill="white"/>
    <path fill-rule="evenodd" clip-rule="evenodd" d="M61.1885 34.622L61.3625 34.6457L61.5323 34.665L61.7064 34.6607L61.8889 34.6457L62.0694 34.622L62.2434 34.5898L62.4196 34.5404L62.5936 34.4889L62.7507 34.4244L62.912 34.3493L63.0649 34.2741L63.1943 34.1839L63.3259 34.0958L63.4384 34.0077L63.5382 33.9046L63.621 33.8101L63.5573 33.7607L63.4767 33.8552L63.3896 33.9433L63.275 34.0335L63.1583 34.1216L63.0267 34.1968L62.876 34.2741L62.7252 34.3493L62.5703 34.4115L62.4069 34.4631L62.2307 34.5146L62.0566 34.5447L61.8889 34.5705L61.7064 34.5834L61.5323 34.5898L61.3625 34.5705L61.1991 34.5447L61.1885 34.622Z" fill="white"/>
    <path fill-rule="evenodd" clip-rule="evenodd" d="M59.6729 32.7052L59.6792 32.8426L59.692 32.9822L59.7111 33.1347L59.7365 33.2808L59.7684 33.4204L59.8172 33.5665L59.8724 33.7104L59.9552 33.8435L60.0422 33.9767L60.1441 34.097L60.2672 34.2173L60.4115 34.3182L60.575 34.4192L60.7575 34.5008L60.9613 34.5652L61.1884 34.6232L61.199 34.5459L60.974 34.49L60.7809 34.4256L60.611 34.344L60.4476 34.2559L60.3181 34.155L60.2035 34.0454L60.1037 33.9251L60.0167 33.8049L59.9488 33.6738L59.8936 33.5407L59.8427 33.4075L59.8108 33.2679L59.7875 33.1218L59.7684 32.9822L59.7556 32.8426L59.762 32.7052H59.6729ZM61.9186 30.2738L61.7 30.3125L61.4877 30.3704L61.2797 30.4392L61.0801 30.5272L60.8849 30.6282L60.7002 30.7549L60.5304 30.8881L60.3669 31.0406L60.2184 31.1974L60.0868 31.3756L59.9615 31.5647L59.8681 31.7751L59.7875 31.9899L59.7302 32.2176L59.692 32.4582L59.6729 32.7052H59.762L59.7684 32.4582L59.8045 32.2305L59.8618 32.0157L59.9424 31.7988L60.0358 31.6033L60.1483 31.425L60.2799 31.2489L60.4179 31.09L60.5792 30.9525L60.749 30.8172L60.9231 30.7055L61.1184 30.6024L61.3051 30.5165L61.5132 30.4456L61.7127 30.3876L61.9186 30.3511V30.2738ZM63.207 30.1406H63.1391L63.0499 30.1535L62.9629 30.1621L62.8631 30.1664L62.757 30.1793L62.6509 30.1857L62.5384 30.1986L62.4301 30.2094L62.3325 30.2244L62.237 30.2373L62.1499 30.2416L62.0693 30.2545L62.0056 30.2609L61.9568 30.2673L61.9313 30.2738H61.9186V30.3511H61.9313L61.9695 30.3425L62.0056 30.3382L62.0693 30.3318L62.1499 30.3189L62.237 30.3125L62.3325 30.2996L62.4301 30.2867L62.5384 30.2738L62.6509 30.2609L62.757 30.2545L62.8631 30.2416L62.9629 30.2373L63.0499 30.2287H63.207V30.1406ZM64.0518 30.2094L64.09 30.1793H64.0646L64.0072 30.1728L63.9075 30.1664L63.7886 30.1535H63.5084L63.3577 30.1406H63.207V30.2287H63.5084L63.6506 30.2416H63.9075L64.0072 30.248L64.0646 30.2545H64.09L64.1282 30.2244L64.09 30.2545L64.1219 30.2609L64.1282 30.2244L64.0518 30.2094Z" fill="white"/>
    <path fill-rule="evenodd" clip-rule="evenodd" d="M64.1134 29.8057H64.1092L64.1028 29.9259L64.0816 30.0527L64.0646 30.1665L64.0518 30.2095L64.1283 30.2245L64.1389 30.1794L64.158 30.0656L64.1771 29.9259L64.1941 29.8057H64.1134ZM63.3684 29.1785V29.1849L63.5148 29.1935L63.6464 29.23L63.7695 29.2859L63.8757 29.3632L63.9627 29.4513L64.0391 29.5587L64.0901 29.6725L64.1134 29.8057H64.1898L64.1643 29.6618L64.1134 29.52L64.0264 29.4019L63.9266 29.2988L63.8077 29.2107L63.6698 29.1549L63.5254 29.1162L63.3684 29.0969V29.1785ZM60.6875 29.4835L60.7491 29.52L60.8127 29.4899L60.8934 29.4448L60.9995 29.4062L61.1375 29.3697L61.2882 29.3374L61.4495 29.3052L61.6299 29.2751L61.8125 29.2494L62.0056 29.2236L62.2073 29.2043L62.4068 29.1849L62.6127 29.1742H63.1943L63.3684 29.1785V29.1033L63.1943 29.0969L63.0075 29.084H62.8122L62.6127 29.0969L62.4068 29.1098L62.2073 29.1291L62.0056 29.1484L61.8125 29.1742L61.6193 29.1978L61.4368 29.23L61.2755 29.2623L61.1248 29.2945L60.9868 29.331L60.8679 29.3697L60.7745 29.4126L60.7002 29.4577L60.7618 29.4964L60.6875 29.4835Z" fill="white"/>
    <path fill-rule="evenodd" clip-rule="evenodd" d="M61.1502 27.9258L61.1248 27.958L60.6875 29.483L60.7618 29.4959L61.1991 27.9687L61.1736 28.0031L61.1502 27.9258L61.1311 27.9322L61.1248 27.958L61.1502 27.9258Z" fill="white"/>
    <path fill-rule="evenodd" clip-rule="evenodd" d="M63.9327 27.6367L63.7204 27.6238L63.5081 27.6152H62.9202L62.7376 27.6303L62.5551 27.6367L62.381 27.6496L62.2112 27.6603L62.0435 27.6861L61.8886 27.7119L61.7315 27.7441L61.5808 27.7763L61.4301 27.8193L61.2879 27.8687L61.1499 27.9267L61.1733 28.004L61.3133 27.946L61.4556 27.8945L61.5935 27.8515L61.7442 27.8193L61.9013 27.7871L62.0563 27.7613L62.2112 27.7377L62.381 27.7248L62.5551 27.7119L62.7376 27.7054H63.5081L63.7204 27.7119H63.9327V27.6367ZM66.0786 29.7824L66.1083 29.5204V29.282L66.0659 29.0586L65.9958 28.8502L65.8961 28.6548L65.7708 28.4765L65.6201 28.3197L65.4652 28.1801L65.2826 28.0598L65.0959 27.946L64.8963 27.8579L64.701 27.7806L64.4973 27.7248L64.302 27.6797L64.1088 27.6496L63.9327 27.6367V27.7119L64.1088 27.7248L64.2893 27.757L64.4824 27.8L64.6756 27.8579L64.8709 27.9331L65.0576 28.0212L65.2466 28.1221L65.4142 28.2424L65.5713 28.382L65.7093 28.5281L65.8345 28.6913L65.9216 28.876L65.9895 29.0736L66.034 29.282V29.5204L66.0022 29.7695L66.0786 29.7824Z" fill="white"/>
    <path fill-rule="evenodd" clip-rule="evenodd" d="M65.4212 33.1223L66.0792 29.7824L66.0028 29.7695L65.3469 33.1094L65.4212 33.1223Z" fill="white"/>
    <path fill-rule="evenodd" clip-rule="evenodd" d="M63.8716 31.4631L63.8588 31.4244L63.8334 31.3943L63.7888 31.375L63.7272 31.3557L63.6572 31.3492L63.5765 31.3428H63.4831L63.3897 31.3492L63.2879 31.3621L63.1881 31.375L63.0883 31.3879L62.9928 31.4008L62.9015 31.4201L62.8209 31.433L62.7381 31.4502L62.6766 31.4631L62.632 31.4695L62.581 31.4888L62.5195 31.5082L62.4494 31.5339L62.3688 31.5704L62.2945 31.6091L62.2075 31.6542L62.1247 31.7101L62.044 31.768L61.9612 31.8368L61.8933 31.9055L61.8254 31.9893L61.7681 32.0773L61.7256 32.1718L61.6874 32.2728L61.6704 32.3802L61.6641 32.5971L61.6938 32.7668L61.7447 32.8935L61.819 32.988L61.9124 33.0525L62.0185 33.089L62.1247 33.1083L62.2308 33.1148L62.4197 33.1083L62.5938 33.089L62.7572 33.0589L62.9015 33.0138L63.0374 32.9644L63.1584 32.9064L63.2709 32.842L63.3685 32.7668L63.4577 32.6981L63.532 32.6165L63.602 32.5391L63.6572 32.4575L63.7018 32.3802L63.7336 32.305L63.7591 32.2298L63.7761 32.159L63.8015 31.9828L63.8334 31.7981L63.8588 31.622L63.8716 31.4631Z" fill="#FBB231"/>
    <path fill-rule="evenodd" clip-rule="evenodd" d="M76.7539 33.6547L76.7688 33.5086L76.8155 33.3368L76.9046 33.1864L77.0107 33.0533L77.1423 32.9459L77.2931 32.8685L77.4565 32.817L77.6305 32.7998L77.8067 32.817L77.968 32.8685L78.1188 32.9459L78.2504 33.0533L78.3565 33.1864L78.4435 33.3368L78.4945 33.5086L78.5072 33.6547H78.3183L78.314 33.5408L78.2737 33.4012L78.2121 33.2745L78.1315 33.1671L78.0317 33.0769L77.9129 33.0146L77.7749 32.9695L77.6305 32.9587L77.4862 32.9695L77.3504 33.0146L77.2315 33.0769L77.1296 33.1671L77.049 33.2745L76.9874 33.4012L76.9492 33.5408L76.9364 33.6547H76.7539Z" fill="white"/>
    <path fill-rule="evenodd" clip-rule="evenodd" d="M77.3184 33.6536V33.2734H77.6622L77.7365 33.2799L77.8066 33.2928L77.8554 33.3121L77.9 33.3357L77.9318 33.3744L77.9552 33.413L77.9679 33.456L77.9743 33.5011L77.9679 33.557L77.9552 33.6021L77.9382 33.6407L77.9233 33.6536H77.6622L77.6856 33.6472L77.7302 33.6407L77.7684 33.6278L77.8002 33.6149L77.8236 33.5956L77.8384 33.5763L77.849 33.5462V33.5011L77.8427 33.4689L77.8299 33.4431L77.8129 33.4324L77.7938 33.4195L77.762 33.413L77.7302 33.4066H77.4733V33.6536H77.3184ZM76.7538 33.6536L76.7495 33.6923L76.7686 33.8748L76.8153 34.0445L76.9045 34.197L77.0106 34.3237L77.1422 34.4311L77.2929 34.5149L77.4563 34.5643L77.6304 34.5836L77.8066 34.5643L77.9679 34.5149L78.1186 34.4311L78.2502 34.3237L78.3563 34.197L78.4434 34.0445L78.4943 33.8748L78.5113 33.6923L78.507 33.6536H78.3181L78.3245 33.6923L78.3139 33.8426L78.2736 33.9822L78.212 34.1025L78.1313 34.2099L78.0316 34.3001L77.9127 34.3667L77.7747 34.4118L77.6304 34.4247L77.4861 34.4118L77.3502 34.3667L77.2313 34.3001L77.1295 34.2099L77.0488 34.1025L76.9872 33.9822L76.949 33.8426L76.9363 33.6923V33.6536H76.7538Z" fill="white"/>
    <path fill-rule="evenodd" clip-rule="evenodd" d="M77.3184 33.6543V34.0409H77.4733V33.723H77.6304L77.8172 34.0409H77.9445L77.7556 33.723H77.8002L77.8426 33.7101L77.8809 33.6973L77.9127 33.6736L77.9233 33.6543H77.6622L77.6304 33.6607H77.4733V33.6543H77.3184Z" fill="white"/>
    <path d="M76.7495 34.4451L76.7835 34.1078L76.8726 33.7921L77.0361 33.5129L77.2313 33.268L77.4754 33.0704L77.7556 32.9287L78.0528 32.8342L78.3754 32.7998L78.7023 32.8342L78.9995 32.9287L79.2776 33.0704L79.5217 33.268L79.7169 33.5107L79.8783 33.79L79.9695 34.1078L80.0035 34.4472L79.9695 34.7844L79.8783 35.098L79.7169 35.3815L79.5217 35.6135L79.2776 35.8111L79.0016 35.9657L78.7023 36.0581L78.3754 36.0925L78.0549 36.0581L77.7556 35.9657L77.4754 35.8111L77.2313 35.6135L77.0361 35.3815L76.8726 35.098L76.7835 34.7844L76.7495 34.4472M78.3754 35.8004L78.6429 35.7789L78.8976 35.693L79.1162 35.5684L79.3009 35.403L79.4495 35.2075L79.5662 34.9842L79.6363 34.7264L79.6596 34.4472L79.6384 34.1658L79.5662 33.9081L79.4495 33.6761L79.3009 33.4764L79.1162 33.3131L78.8976 33.1972L78.6429 33.1155L78.3754 33.0919L78.1101 33.1134L77.8575 33.1993L77.6368 33.3131L77.4521 33.4764L77.3035 33.6761L77.1889 33.9081L77.1188 34.1658L77.0955 34.4451L77.1188 34.7264L77.1889 34.9842L77.3035 35.2075L77.4521 35.4009L77.6368 35.5684L77.8575 35.6951L78.1122 35.7767L78.3754 35.8004ZM78.3754 34.3892L78.4794 34.3634L78.5622 34.3527L78.6302 34.3312L78.6896 34.3076L78.7342 34.2711L78.7596 34.2346L78.7809 34.1787V34.0971L78.7681 34.037L78.7469 33.9897L78.7129 33.9682L78.6768 33.9446L78.6174 33.9339L78.5622 33.9231H78.0889V34.3892H78.3754V34.3892ZM78.0889 35.0894H77.7981V33.6761H78.4349L78.5728 33.6869L78.7002 33.7083L78.7936 33.7449L78.8743 33.7921L78.9316 33.863L78.9761 33.9339L78.9995 34.0133L79.0122 34.0971L78.9995 34.2002L78.9783 34.2818L78.9443 34.3527L78.8976 34.4107L78.8382 34.4579L78.7681 34.4794L78.6896 34.5052H78.6089L78.9549 35.0894H78.7214L78.3754 34.5052H78.0889V35.0894V35.0894Z" stroke="white" stroke-width="0.216"/>
    <path fill-rule="evenodd" clip-rule="evenodd" d="M65.8542 34.5212H67.6181L68.2486 30.9214L68.274 30.7818L68.3122 30.6422L68.3483 30.5026L68.3993 30.3651L68.4608 30.2255L68.5372 30.0923L68.6179 29.9656L68.7177 29.8453L68.8302 29.7379L68.9554 29.637L69.0997 29.5403L69.261 29.4651L69.4436 29.4029L69.6431 29.3513L69.8617 29.3126L70.1059 29.2998H70.2629L70.5431 27.6738L70.3691 27.6867L70.2014 27.706L70.0443 27.7383L69.8936 27.7812L69.7556 27.8328L69.624 27.8951L69.4988 27.9659L69.3799 28.0411L69.2695 28.1313L69.1613 28.2194L69.0615 28.3203L68.9618 28.4213L68.8684 28.5287L68.775 28.649L68.6794 28.7628L68.5945 28.8895L68.7813 27.7447H67.0238L65.8542 34.5212Z" fill="white"/>
    <path fill-rule="evenodd" clip-rule="evenodd" d="M65.8542 34.5212H67.6181L68.2486 30.9214L68.274 30.7818L68.3122 30.6422L68.3483 30.5026L68.3993 30.3651L68.4608 30.2255L68.5372 30.0923L68.6179 29.9656L68.7177 29.8453L68.8302 29.7379L68.9554 29.637L69.0997 29.5403L69.261 29.4651L69.4436 29.4029L69.6431 29.3513L69.8617 29.3126L70.1059 29.2998H70.2629L70.5431 27.6738L70.3691 27.6867L70.2014 27.706L70.0443 27.7383L69.8936 27.7812L69.7556 27.8328L69.624 27.8951L69.4988 27.9659L69.3799 28.0411L69.2695 28.1313L69.1613 28.2194L69.0615 28.3203L68.9618 28.4213L68.8684 28.5287L68.775 28.649L68.6794 28.7628L68.5945 28.8895L68.7813 27.7447H67.0238L65.8542 34.5212Z" stroke="white" stroke-width="0.216"/>
    <path fill-rule="evenodd" clip-rule="evenodd" d="M49.2913 34.5212H51.0849L51.6856 30.9214L51.711 30.7818L51.7429 30.6486L51.7747 30.5176L51.8193 30.3887L51.8681 30.262L51.9297 30.1417L52.0061 30.0279L52.0931 29.9205L52.1929 29.8238L52.3054 29.7315L52.4433 29.6542L52.5941 29.5854L52.7681 29.5274L52.9634 29.478L53.1756 29.4458L53.4176 29.4265H53.4389L53.4622 29.4329L53.494 29.4394H53.5259L53.5556 29.4458L53.5832 29.4523L53.6002 29.4587H53.6065L53.6129 29.4329L53.632 29.3577L53.6575 29.2439L53.6893 29.1043L53.7318 28.9411L53.7764 28.7628L53.8315 28.5867L53.8867 28.4062L53.9377 28.2881L54.0013 28.1678L54.0629 28.0476L54.1245 27.9402L54.1818 27.8457L54.2242 27.7683L54.2582 27.7254L54.2688 27.706H54.2646L54.2391 27.6996L54.2072 27.6932L54.1627 27.6867H54.1202L54.0693 27.6803L54.0247 27.6738H53.9822L53.787 27.6867L53.6129 27.706L53.4516 27.7383L53.3009 27.7769L53.1565 27.8263L53.0249 27.8908L52.9061 27.953L52.7936 28.0282L52.6874 28.112L52.5877 28.2065L52.4922 28.301L52.4009 28.4062L52.3054 28.5158L52.2184 28.6382L52.125 28.7628L52.0294 28.8895L52.2544 27.7447H50.4608L49.2913 34.5212Z" fill="white"/>
    <path fill-rule="evenodd" clip-rule="evenodd" d="M49.2913 34.5212H51.0849L51.6856 30.9214L51.711 30.7818L51.7429 30.6486L51.7747 30.5176L51.8193 30.3887L51.8681 30.262L51.9297 30.1417L52.0061 30.0279L52.0931 29.9205L52.1929 29.8238L52.3054 29.7315L52.4433 29.6542L52.5941 29.5854L52.7681 29.5274L52.9634 29.478L53.1756 29.4458L53.4176 29.4265H53.4389L53.4622 29.4329L53.494 29.4394H53.5259L53.5556 29.4458L53.5832 29.4523L53.6002 29.4587H53.6065L53.6129 29.4329L53.632 29.3577L53.6575 29.2439L53.6893 29.1043L53.7318 28.9411L53.7764 28.7628L53.8315 28.5867L53.8867 28.4062L53.9377 28.2881L54.0013 28.1678L54.0629 28.0476L54.1245 27.9402L54.1818 27.8457L54.2242 27.7683L54.2582 27.7254L54.2688 27.706H54.2646L54.2391 27.6996L54.2072 27.6932L54.1627 27.6867H54.1202L54.0693 27.6803L54.0247 27.6738H53.9822L53.787 27.6867L53.6129 27.706L53.4516 27.7383L53.3009 27.7769L53.1565 27.8263L53.0249 27.8908L52.9061 27.953L52.7936 28.0282L52.6874 28.112L52.5877 28.2065L52.4922 28.301L52.4009 28.4062L52.3054 28.5158L52.2184 28.6382L52.125 28.7628L52.0294 28.8895L52.2544 27.7447H50.4608L49.2913 34.5212Z" stroke="white" stroke-width="0.216"/>
    <path fill-rule="evenodd" clip-rule="evenodd" d="M76.7686 41.177V41.1512L76.8153 40.988L76.9044 40.8419L77.0105 40.7152L77.1421 40.6142L77.2928 40.5369L77.4563 40.4939L77.6303 40.4746L77.8065 40.4939L77.9678 40.5369L78.1185 40.6142L78.2501 40.7152L78.3563 40.8419L78.4433 40.988L78.4942 41.1512V41.177H78.3138L78.2735 41.0459L78.2119 40.9235L78.1313 40.8161L78.0315 40.7281L77.9126 40.6593L77.7747 40.6142L77.6303 40.6013L77.486 40.6142L77.3501 40.6593L77.2313 40.7281L77.1294 40.8161L77.0487 40.9235L76.9872 41.0459L76.949 41.177H76.7686Z" fill="#FBB231"/>
    <path fill-rule="evenodd" clip-rule="evenodd" d="M77.3184 41.1771V40.958H77.7365L77.8066 40.9687L77.8554 40.9795L77.9 41.0053L77.9318 41.0396L77.9552 41.0761L77.9679 41.1212L77.9743 41.1771H77.849V41.1449L77.8427 41.1148L77.8299 41.089L77.8129 41.0761L77.7938 41.0633L77.762 41.0568L77.7302 41.0504H77.4733V41.1771H77.3184ZM76.7495 41.3167L76.7686 41.1771H76.949V41.1835L76.9363 41.3167H76.7495ZM77.3184 41.3167V41.1771H77.4733V41.3038H77.6304L77.6856 41.2931L77.7302 41.2866L77.7684 41.2716L77.8002 41.2587L77.8236 41.2415L77.8384 41.2222L77.849 41.1921V41.1771H77.9743L77.9679 41.2222L77.9552 41.2587L77.9382 41.2931L77.9127 41.3167H77.3184ZM78.3245 41.3167L78.3139 41.1835V41.1771H78.4943L78.5113 41.3167H78.3245ZM76.7495 41.3167V41.336L76.7686 41.5186L76.8153 41.6904L76.9045 41.8408L77.0106 41.9761L77.1422 42.0835L77.2929 42.1587L77.4563 42.2102L77.6304 42.2274L77.8066 42.2102L77.9679 42.1587L78.1186 42.0835L78.2502 41.9761L78.3563 41.8408L78.4434 41.6904L78.4943 41.5186L78.5113 41.336V41.3167H78.3245V41.336L78.3139 41.4885L78.2736 41.6281L78.212 41.7463L78.1313 41.8537L78.0316 41.9439L77.9127 42.0126L77.7747 42.0577L77.6304 42.0706L77.4861 42.0577L77.3502 42.0126L77.2313 41.9439L77.1295 41.8537L77.0488 41.7463L76.9872 41.6281L76.949 41.4885L76.9363 41.336V41.3167H76.7495Z" fill="#FBB231"/>
    <path fill-rule="evenodd" clip-rule="evenodd" d="M77.3184 41.3174V41.6847H77.4733V41.3689H77.6304L77.8172 41.6847H77.9445L77.7556 41.3689H77.8002L77.8426 41.356L77.8809 41.3432L77.9127 41.3174H77.3184Z" fill="#FBB231"/>
    <path fill-rule="evenodd" clip-rule="evenodd" d="M47.7907 30.3407H45.5025L45.5047 30.3364H45.5004L45.5174 30.2462L45.5429 30.1151L45.579 29.9863L45.6214 29.8617L45.6808 29.7479L45.736 29.6405L45.804 29.5374L45.8804 29.4429L45.961 29.3548L46.0417 29.2796L46.1372 29.2087L46.2306 29.1529L46.3367 29.1014L46.4429 29.0648L46.549 29.0369L46.6615 29.0197L46.7804 29.0133L46.8929 29.0262L46.999 29.0455L47.1009 29.0713L47.2006 29.1078L47.294 29.1593L47.3874 29.2152L47.4702 29.2796L47.5445 29.3548L47.6082 29.4429L47.6697 29.5374L47.7122 29.6448L47.7546 29.7672L47.7801 29.8918L47.7928 30.0314L47.8013 30.1839L47.7886 30.3407H47.7907ZM49.4867 29.7607L49.4358 29.3806L49.3466 29.0455L49.2235 28.7534L49.0664 28.5L48.8775 28.2852L48.6716 28.109L48.4466 27.9565L48.2025 27.8427L47.9542 27.7461L47.6973 27.6816L47.4405 27.6387L47.1837 27.6129L46.9396 27.6064L46.4301 27.6344L45.9844 27.7095L45.5747 27.8234L45.2139 27.9823L44.8997 28.1713L44.6238 28.3861L44.3797 28.6267L44.1802 28.8801L44.0061 29.1465L43.8618 29.4257L43.7493 29.6985L43.6559 29.9669L43.5879 30.2354L43.537 30.4803L43.4988 30.7165L43.4754 30.9184L43.4436 31.4361L43.4627 31.9043L43.5306 32.3296L43.6368 32.7033L43.7875 33.0384L43.97 33.3283L44.1823 33.5882L44.4243 33.803L44.6875 33.9877L44.9698 34.1445L45.2627 34.267L45.5705 34.3615L45.8825 34.4366L46.1966 34.4796L46.5087 34.514L46.8143 34.5183H47.0202L47.2155 34.514H47.3832L47.5466 34.5075L47.691 34.4946L47.8204 34.4817L47.9457 34.4689L48.0582 34.4495L48.1643 34.428L48.2641 34.4066L48.366 34.3722L48.4593 34.3421L48.5527 34.3035L48.6525 34.267L48.7523 34.2154L48.852 34.1639L49.1025 32.6088L48.9221 32.7162L48.7459 32.815L48.5655 32.8923L48.3893 32.9632L48.2216 33.019L48.0454 33.0577L47.8756 33.0878L47.7079 33.1136L47.5381 33.1264L47.3768 33.1329H47.207L47.0457 33.1264L46.8844 33.1136L46.7209 33.0942L46.5639 33.0749L46.4025 33.0513L46.2752 33.0255L46.1521 32.9825L46.0268 32.9245L45.9122 32.8537L45.8018 32.7785L45.6999 32.684L45.6066 32.5895L45.5195 32.4821L45.4452 32.3747L45.3773 32.2544L45.3264 32.1406L45.2818 32.0181L45.2563 31.8979L45.2478 31.7776L45.2521 31.6702L45.2669 31.5886H49.3254L49.3551 31.202L49.4506 30.6714L49.4931 30.1903L49.4888 29.7607H49.4867Z" fill="white"/>
</svg>
