<svg width="98" height="62" viewBox="0 0 98 62" fill="none" xmlns="http://www.w3.org/2000/svg">
    <path d="M91.0559 0.855469H7.28317C3.72421 0.855469 0.839111 3.74057 0.839111 7.29953V54.5559C0.839111 58.1149 3.72421 61 7.28317 61H91.0559C94.6149 61 97.5 58.1149 97.5 54.5559V7.29953C97.5 3.74057 94.6149 0.855469 91.0559 0.855469Z" fill="white" stroke="#D9D9D9"/>
    <path fill-rule="evenodd" clip-rule="evenodd" d="M45.3162 39.657H40.2082L43.4023 20.0349H48.5125L45.3162 39.657ZM35.91 20.0349L31.0405 33.5309L30.4605 30.6268L28.7421 21.8027C28.7421 21.8027 28.5402 20.037 26.3234 20.037H18.2683L18.1738 20.3678C18.1738 20.3678 20.6376 20.8791 23.5224 22.6104L27.9602 39.657H33.283L41.409 20.037H35.91V20.0349ZM70.4759 32.7168L73.1588 25.3706L74.6689 32.7168H70.4781H70.4759ZM76.0973 39.657H80.7886L76.6966 20.037H72.5917C70.695 20.037 70.2311 21.4977 70.2311 21.4977L62.612 39.6592H67.9391L69.0024 36.7465H75.498L76.0973 39.6592V39.657ZM63.0116 24.7541L63.7419 20.5397C63.7419 20.5397 61.4908 19.6826 59.1451 19.6826C56.6105 19.6826 50.5896 20.791 50.5896 26.1804C50.5896 31.2497 57.6566 31.3141 57.6566 33.9755C57.6566 36.6369 51.3178 36.1622 49.2256 34.4825L48.4652 38.8859C48.4652 38.8859 50.7464 39.9964 54.2326 39.9964C57.7189 39.9964 62.9794 38.1921 62.9794 33.2774C62.9794 28.1759 55.8501 27.699 55.8501 25.4801C55.8501 23.2634 60.8249 23.5469 63.0116 24.7541" fill="#0066B2"/>
    <path fill-rule="evenodd" clip-rule="evenodd" d="M30.4605 30.6259L28.7421 21.7997C28.7421 21.7997 28.5402 20.0361 26.3234 20.0361H18.2683L18.1738 20.3669C18.1738 20.3669 22.0467 21.1681 25.7563 24.1711C29.307 27.0451 30.4605 30.6259 30.4605 30.6259Z" fill="#F9A533"/>
</svg>
