<svg width="310" height="45" viewBox="0 0 310 45" fill="none" xmlns="http://www.w3.org/2000/svg">
<path d="M54.6892 11.9881H49.1435V6.53561H54.6892V11.9881ZM54.6507 20.1705V28.9242C54.6507 31.1958 56.3199 31.2381 59.4877 31.0699V35.9937C51.7404 36.8354 49.1291 34.6049 49.1291 28.9238V20.1705H45.4053V14.9526H59.4877V20.1705H54.6507ZM74.724 14.5313V20.5909C71.8567 20.2545 68.2174 21.5163 68.2174 25.9351V35.9932H62.6958V14.9512H68.2174V18.5703C69.3309 15.7094 72.0277 14.5313 74.724 14.5313ZM98.7621 14.9517V35.9941H93.2405V33.5114C91.7003 35.4042 89.3881 36.5831 86.2637 36.5831C80.5715 36.5831 75.8626 31.7425 75.8626 25.4729C75.8626 19.2025 80.5715 14.3626 86.2637 14.3626C89.3881 14.3626 91.6997 15.5411 93.2405 17.4345V14.9517H98.7621ZM93.2405 25.4729C93.2405 21.9379 90.7161 19.5387 87.2908 19.5387C83.9103 19.5387 81.3837 21.9379 81.3837 25.4729C81.3837 29.0078 83.9099 31.407 87.2908 31.407C90.7161 31.407 93.2405 29.0078 93.2405 25.4729ZM123.742 6.53516V35.9932H118.221V33.5108C116.68 35.4465 114.411 36.5827 111.287 36.5827C105.552 36.5827 100.842 31.743 100.842 25.4734C100.842 19.2021 105.552 14.3626 111.287 14.3626C114.411 14.3626 116.68 15.4988 118.221 17.4355V6.53561L123.742 6.53516ZM118.221 25.4734C118.221 21.9385 115.695 19.5391 112.314 19.5391C108.889 19.5391 106.364 21.9385 106.364 25.4734C106.364 29.0074 108.889 31.4066 112.314 31.4066C115.695 31.4066 118.221 29.0074 118.221 25.4734ZM137.478 31.6589C139.618 31.6589 141.33 30.7754 142.273 29.5546L146.723 32.0801C144.711 34.9416 141.501 36.5827 137.393 36.5827C130.202 36.5827 125.664 31.743 125.664 25.4725C125.664 19.2033 130.244 14.3632 136.965 14.3632C143.299 14.3632 147.793 19.2874 147.793 25.4729C147.793 26.272 147.708 26.9873 147.58 27.7035H131.443C132.214 30.4808 134.567 31.6589 137.478 31.6589ZM142.273 23.4941C141.586 20.4645 139.276 19.2443 136.965 19.2443C134.011 19.2443 131.999 20.8013 131.357 23.4945L142.273 23.4941Z" fill="white"/>
<path d="M149.739 6.53503H155.261V35.9932H149.739V6.53503ZM186.761 23.0741V35.994H181.24V23.7472C181.24 20.8861 179.485 19.4127 177.002 19.4127C174.306 19.4127 172.294 20.9697 172.294 24.6315V35.994H166.772V14.952H172.294V17.3085C173.578 15.4151 175.803 14.3635 178.672 14.3635C183.209 14.3635 186.761 17.477 186.761 23.0741ZM211.74 14.9516V34.9837C211.74 41.8855 206.218 45 200.569 45C195.988 45 192.308 43.2735 190.424 39.8652L195.134 37.2147C196.032 38.855 197.444 40.1598 200.74 40.1598C204.206 40.1598 206.347 38.3086 206.347 34.9837V32.7117C204.848 34.6883 202.538 35.909 199.498 35.909C193.421 35.909 188.841 31.0698 188.841 25.1365C188.841 19.2446 193.421 14.363 199.498 14.363C202.538 14.363 204.848 15.5832 206.347 17.5612V14.9516H211.74ZM206.347 25.136C206.347 21.8115 203.822 19.4127 200.354 19.4127C196.887 19.4127 194.362 21.8115 194.362 25.1356C194.362 28.5019 196.887 30.9007 200.354 30.9007C203.822 30.9007 206.347 28.5015 206.347 25.136ZM158.23 9.5021C158.235 7.90192 159.601 6.53063 161.228 6.53547C162.892 6.54031 164.251 7.92128 164.245 9.52103C164.241 11.1208 162.873 12.4555 161.209 12.4507C159.583 12.4459 158.224 11.1014 158.23 9.5021ZM158.46 14.9433L163.981 14.9603L163.913 36.0023L158.391 35.9847L158.46 14.9433ZM29.9561 40.6758C24.3145 40.6758 19.7412 36.1785 19.7412 30.6326C19.7412 25.0855 24.3145 20.5894 29.9561 20.5894C35.5981 20.5894 40.1709 25.0855 40.1709 30.6326C40.1709 36.1785 35.5981 40.6758 29.9561 40.6758Z" fill="#FB641E"/>
<path d="M26.7581 14.3793L13.3795 27.5335L0 14.3797L13.3799 1.22595L26.7581 14.3793Z" fill="white"/>
<path fill-rule="evenodd" clip-rule="evenodd" d="M236.341 9.54541H295.586C303.195 9.54541 309.363 15.6506 309.363 23.1818C309.363 30.7129 303.195 36.8181 295.586 36.8181H236.341C228.732 36.8181 222.563 30.7129 222.563 23.1818C222.563 15.6506 228.732 9.54541 236.341 9.54541ZM234.591 27.9545H236.862L237.605 25.693H241.223L241.965 27.9545H244.234L240.78 18.0372H238.051L234.591 27.9545ZM240.686 24.0563L239.455 20.3034H239.376L238.143 24.0563H240.686ZM246.461 27.6155C247.016 27.9384 247.677 28.0997 248.448 28.0997C249.116 28.0997 249.696 27.9788 250.185 27.7366C250.674 27.4944 251.057 27.1587 251.334 26.7294C251.615 26.2967 251.771 25.7964 251.804 25.2282H249.838C249.798 25.4897 249.715 25.714 249.587 25.9013C249.463 26.0854 249.306 26.2257 249.113 26.3226C248.924 26.4195 248.711 26.4679 248.472 26.4679C248.149 26.4679 247.868 26.3807 247.625 26.2063C247.384 26.032 247.197 25.7787 247.063 25.4461C246.932 25.1136 246.867 24.71 246.867 24.2355C246.867 23.7675 246.935 23.3687 247.069 23.0394C247.202 22.7101 247.388 22.4599 247.625 22.2889C247.868 22.1145 248.149 22.0273 248.472 22.0273C248.854 22.0273 249.161 22.142 249.397 22.3711C249.635 22.5972 249.781 22.8957 249.838 23.267H251.804C251.775 22.6924 251.617 22.1919 251.33 21.7658C251.042 21.3396 250.652 21.0088 250.16 20.7732C249.667 20.5374 249.094 20.4196 248.438 20.4196C247.677 20.4196 247.022 20.5827 246.471 20.9087C245.919 21.2315 245.494 21.6819 245.195 22.2598C244.897 22.8345 244.748 23.5026 244.748 24.2645C244.748 25.0167 244.896 25.6817 245.189 26.2596C245.485 26.8375 245.91 27.2895 246.461 27.6155ZM254 27.848C254.375 28.0126 254.802 28.095 255.281 28.095C255.653 28.095 255.981 28.0465 256.265 27.9496C256.549 27.8496 256.791 27.7123 256.994 27.538C257.197 27.3605 257.358 27.1556 257.479 26.923H257.537V27.9545H259.514V22.9377C259.514 22.4955 259.427 22.1161 259.255 21.7997C259.081 21.4801 258.844 21.2187 258.545 21.0152C258.248 20.8119 257.907 20.6618 257.522 20.565C257.14 20.468 256.741 20.4196 256.323 20.4196C255.724 20.4196 255.195 20.51 254.739 20.6908C254.285 20.8684 253.915 21.1234 253.628 21.456C253.34 21.7853 253.149 22.1758 253.051 22.6279L254.978 22.7828C255.05 22.5375 255.197 22.334 255.418 22.1725C255.64 22.008 255.939 21.9256 256.313 21.9256C256.669 21.9256 256.943 22.0096 257.136 22.1775C257.332 22.3453 257.429 22.5826 257.429 22.8893V22.9183C257.429 23.0765 257.369 23.196 257.249 23.2767C257.128 23.3574 256.933 23.4188 256.666 23.4606C256.399 23.4995 256.046 23.5414 255.609 23.5866C255.237 23.6221 254.882 23.6835 254.543 23.7706C254.207 23.8577 253.906 23.9869 253.642 24.158C253.379 24.3291 253.169 24.5551 253.016 24.836C252.863 25.1168 252.786 25.4638 252.786 25.8771C252.786 26.3678 252.894 26.7778 253.109 27.1071C253.328 27.4332 253.624 27.6801 254 27.848ZM256.691 26.4921C256.455 26.6116 256.185 26.6712 255.878 26.6712C255.558 26.6712 255.295 26.5986 255.086 26.4533C254.881 26.3048 254.777 26.0901 254.777 25.8092C254.777 25.6156 254.828 25.4541 254.929 25.325C255.031 25.1927 255.173 25.0877 255.354 25.0103C255.538 24.9328 255.751 24.8764 255.997 24.8408C256.109 24.8247 256.238 24.807 256.378 24.7876C256.517 24.765 256.658 24.7407 256.798 24.7149C256.939 24.6859 257.064 24.6552 257.175 24.6229C257.289 24.5874 257.378 24.5487 257.445 24.5067V25.296C257.445 25.5575 257.377 25.7915 257.243 25.9981C257.11 26.2048 256.925 26.3694 256.691 26.4921ZM262.349 27.6398C262.812 27.9302 263.329 28.0756 263.899 28.0756C264.305 28.0756 264.648 28.0093 264.927 27.877C265.211 27.7446 265.441 27.5784 265.618 27.3782C265.797 27.1749 265.936 26.9698 266.034 26.7632H266.122V27.9545H268.176V18.0372H266.097V21.7658H266.034C265.941 21.5657 265.808 21.3623 265.631 21.1557C265.459 20.9458 265.23 20.7715 264.947 20.6327C264.667 20.4906 264.316 20.4196 263.895 20.4196C263.344 20.4196 262.837 20.5617 262.373 20.8457C261.914 21.1266 261.545 21.5511 261.268 22.1194C260.991 22.6843 260.852 23.3929 260.852 24.2451C260.852 25.0749 260.985 25.7754 261.253 26.3468C261.524 26.915 261.889 27.3459 262.349 27.6398ZM265.412 26.1628C265.181 26.3436 264.897 26.4339 264.561 26.4339C264.218 26.4339 263.93 26.342 263.694 26.1579C263.463 25.9707 263.285 25.7124 263.161 25.3831C263.041 25.0506 262.98 24.6681 262.98 24.2355C262.98 23.8062 263.041 23.4285 263.161 23.1024C263.282 22.7764 263.46 22.5212 263.694 22.3373C263.93 22.1532 264.218 22.0613 264.561 22.0613C264.897 22.0613 265.182 22.15 265.416 22.3276C265.652 22.5051 265.831 22.7569 265.955 23.083C266.079 23.4091 266.141 23.7932 266.141 24.2355C266.141 24.6778 266.078 25.0636 265.95 25.3928C265.826 25.7221 265.646 25.9787 265.412 26.1628ZM271.319 27.6349C271.877 27.9448 272.542 28.0997 273.315 28.0997C273.934 28.0997 274.481 28.0062 274.953 27.819C275.43 27.6285 275.819 27.3638 276.118 27.0248C276.422 26.6825 276.622 26.2823 276.72 25.8238L274.792 25.698C274.721 25.8852 274.616 26.0434 274.479 26.1725C274.342 26.3016 274.178 26.3985 273.985 26.463C273.792 26.5276 273.581 26.5599 273.35 26.5599C273 26.5599 272.698 26.4872 272.444 26.342C272.19 26.1966 271.993 25.99 271.852 25.7221C271.714 25.4541 271.647 25.1361 271.647 24.7682V24.7633H276.764V24.1967C276.764 23.564 276.674 23.012 276.495 22.5406C276.316 22.066 276.064 21.6722 275.741 21.3591C275.422 21.0459 275.047 20.8119 274.616 20.6569C274.189 20.4987 273.727 20.4196 273.231 20.4196C272.494 20.4196 271.852 20.581 271.304 20.9038C270.759 21.2267 270.336 21.677 270.036 22.2549C269.737 22.8328 269.587 23.5043 269.587 24.2694C269.587 25.0539 269.737 25.7334 270.036 26.308C270.336 26.8794 270.764 27.3218 271.319 27.6349ZM271.649 23.4849C271.661 23.2179 271.73 22.9741 271.856 22.7537C271.994 22.5115 272.183 22.3195 272.424 22.1775C272.669 22.0322 272.95 21.9595 273.266 21.9595C273.569 21.9595 273.835 22.0257 274.063 22.1581C274.295 22.2872 274.475 22.4664 274.606 22.6956C274.737 22.9249 274.802 23.1879 274.802 23.4849H271.649ZM278.124 20.5165V27.9545H280.208V23.4898C280.208 23.2153 280.262 22.9764 280.369 22.7731C280.478 22.5665 280.623 22.4067 280.805 22.2936C280.991 22.1775 281.2 22.1194 281.432 22.1194C281.775 22.1194 282.05 22.2275 282.258 22.4438C282.471 22.66 282.577 22.9506 282.577 23.3154V27.9545H284.598V23.4122C284.598 23.0248 284.704 22.7134 284.915 22.4777C285.127 22.2388 285.423 22.1194 285.801 22.1194C286.134 22.1194 286.411 22.2226 286.633 22.4293C286.855 22.6359 286.965 22.9457 286.965 23.359V27.9545H289.045V22.9523C289.045 22.1451 288.825 21.5221 288.384 21.083C287.947 20.6408 287.378 20.4196 286.677 20.4196C286.126 20.4196 285.648 20.5487 285.243 20.807C284.842 21.062 284.565 21.4026 284.412 21.8288H284.333C284.212 21.3962 283.971 21.054 283.609 20.8022C283.246 20.5471 282.808 20.4196 282.293 20.4196C281.784 20.4196 281.346 20.5456 280.981 20.7973C280.616 21.0492 280.356 21.393 280.199 21.8288H280.11V20.5165H278.124ZM290.965 30.6808C291.196 30.7228 291.444 30.7438 291.709 30.7438C292.224 30.7438 292.665 30.6615 293.03 30.4967C293.395 30.3354 293.697 30.1045 293.935 29.8043C294.176 29.5073 294.368 29.1586 294.507 28.7584L297.428 20.5165H295.222L293.651 25.9787H293.573L292.017 20.5165H289.825L292.521 28.1675L292.399 28.4824C292.308 28.7147 292.188 28.8795 292.042 28.9763C291.897 29.0731 291.726 29.1184 291.528 29.1118C291.332 29.1054 291.112 29.065 290.867 28.9907L290.397 30.5307C290.547 30.592 290.737 30.6421 290.965 30.6808Z" fill="#FFECCC"/>
</svg>
