<?xml version="1.0" encoding="UTF-8"?>
<svg width="18px" height="20px" viewBox="0 0 18 20" version="1.1" xmlns="http://www.w3.org/2000/svg" xmlns:xlink="http://www.w3.org/1999/xlink">
    <title>multimedia-option</title>
    <g id="Phase-1" stroke="none" stroke-width="1" fill="none" fill-rule="evenodd">
        <g id="Buyer-Center_Order-Details_Shipping-info-missing" transform="translate(-320.000000, -1867.000000)" fill="#000000" fill-rule="nonzero">
            <g id="Group-21" transform="translate(264.000000, 1528.000000)">
                <g id="Group-18" transform="translate(16.000000, 269.000000)">
                    <g id="Group-22" transform="translate(24.000000, 60.000000)">
                        <g id="multimedia-option" transform="translate(16.000000, 10.000000)">
                            <path d="M16.5274668,1.45696218 C14.5640431,-0.48565406 11.369645,-0.48565406 9.40622125,1.45696218 L1.90836762,8.87531793 C1.67697017,9.10426313 1.67697017,9.47516139 1.90836762,9.70410659 C2.13976506,9.93305179 2.51463603,9.93305179 2.74603347,9.70410659 L10.2438476,2.28575084 C11.6993103,0.84684529 14.2342987,0.84684529 15.6897614,2.28575084 C17.190943,3.77102355 17.190943,6.18813174 15.6897614,7.67340446 L5.22006342,18.14879 C4.32455807,19.0348052 2.7643526,19.0348052 1.86888674,18.14879 C0.945034114,17.2347279 0.945034114,15.7477365 1.86888674,14.8336744 L11.9197716,4.77207775 C12.2552801,4.44012479 12.8407026,4.44012479 13.1762506,4.77207775 C13.5227348,5.11489008 13.5227348,5.67297575 13.1762506,6.01582714 L3.54477118,15.662424 C3.34499792,15.8600801 3.34499792,16.2935174 3.54477118,16.4912127 C3.77616863,16.7201579 4.15103959,16.7201579 4.38243704,16.4912127 L14.013877,6.84457674 C14.8226428,6.04438181 14.8226428,4.74344495 14.013877,3.94328909 C13.2306158,3.16832853 11.8641825,3.16946134 11.0821057,3.94328909 L1.03122088,14.0048467 C-0.343740293,15.3652366 -0.343740293,17.6171105 1.03122088,18.9775396 C1.70286963,19.6420705 2.59545339,20 3.5447317,20 C4.49401001,20 5.38667274,19.6420705 6.05772927,18.9775786 L16.5274273,8.50215405 C18.490851,6.55953781 18.490851,3.39953936 16.5274668,1.45696218 Z" id="Path"></path>
                        </g>
                    </g>
                </g>
            </g>
        </g>
    </g>
</svg>