<svg xmlns="http://www.w3.org/2000/svg" width="26" height="26" viewBox="0 0 26 26">
    <path d="M11.922 3.223c-2.324-.011-4.207 1.871-4.196 4.196l.04 8.877c.002.274.225.497.499.498.274.001.495-.22.493-.494l-.04-8.877c-.008-1.722 1.486-3.216 3.209-3.209 1.777.008 3.23 1.461 3.238 3.239l.127 12.465c.005 1.06-.915 1.98-1.975 1.975-1.094-.005-1.987-.899-1.992-1.993L11.2 7.93c-.002-.397.343-.742.74-.74.41.002.746.337.748.747l.122 11.474c.001.236.262.497.498.498.274.001.495-.22.494-.494l-.123-11.473c-.004-.958-.786-1.74-1.744-1.744-.927-.004-1.731.802-1.727 1.728l.125 11.97c.007 1.627 1.36 2.98 2.989 2.988.795.004 1.536-.307 2.095-.866.56-.56.87-1.3.866-2.095l-.126-12.466c-.011-2.325-1.91-4.224-4.235-4.234z"/>
</svg>
