<?xml version="1.0" encoding="utf-8"?>
<!-- Generator: Adobe Illustrator 25.0.1, SVG Export Plug-In . SVG Version: 6.00 Build 0)  -->
<svg version="1.1" id="_x32_4hr" xmlns="http://www.w3.org/2000/svg" xmlns:xlink="http://www.w3.org/1999/xlink" x="0px" y="0px"
	 viewBox="0 0 100 100" style="enable-background:new 0 0 100 100;" xml:space="preserve">
<style type="text/css">
	.st0{clip-path:url(#SVGID_2_);fill:#00394C;}
	.st1{clip-path:url(#SVGID_2_);fill:#FFFFFF;}
	.st2{clip-path:url(#SVGID_2_);}
	.st3{fill:#E7531A;}
	.st4{fill:#00394C;}
	.st5{fill:#FFFFFF;}
	.st6{clip-path:url(#SVGID_4_);fill:#E95317;}
</style>
<g>
	<defs>
		<rect id="SVGID_1_" x="13.2" y="10.72" width="73.7" height="78.56"/>
	</defs>
	<clipPath id="SVGID_2_">
		<use xlink:href="#SVGID_1_"  style="overflow:visible;"/>
	</clipPath>
	<path class="st0" d="M67.14,89.37H16.68c-1.97,0-3.58-1.7-3.58-3.78V14.41c0-2.08,1.6-3.78,3.58-3.78H67
		c1.01,0,1.96,0.39,2.67,1.11s1.1,1.67,1.1,2.68l-0.04,13.2c0,1.34-0.01,3.52-0.01,4.86v53.12C70.72,87.68,69.12,89.37,67.14,89.37z
		 M16.68,13.33c-0.48,0-0.88,0.5-0.88,1.08v71.18c0,0.59,0.4,1.08,0.88,1.08h50.46c0.48,0,0.88-0.5,0.88-1.08V32.48
		c0-1.34,0-3.52,0.01-4.87l0.04-13.21c0-0.29-0.11-0.56-0.31-0.76c-0.2-0.2-0.47-0.32-0.76-0.32H16.68z"/>
	<path class="st1" d="M65.2,79.94c7.98,0,14.45-6.47,14.45-14.45S73.18,51.04,65.2,51.04s-14.45,6.47-14.45,14.45
		S57.22,79.94,65.2,79.94"/>
	<g class="st2">
		<circle class="st3" cx="65.2" cy="65.49" r="14.45"/>
		<path class="st3" d="M65.2,81.28c-8.71,0-15.8-7.09-15.8-15.8s7.09-15.8,15.8-15.8S81,56.78,81,65.49S73.91,81.28,65.2,81.28z
			 M65.2,52.39c-7.22,0-13.1,5.88-13.1,13.1s5.88,13.1,13.1,13.1s13.1-5.88,13.1-13.1S72.42,52.39,65.2,52.39z"/>
	</g>
</g>
<path class="st4" d="M48.66,53.46H23.49c-0.75,0-1.35-0.6-1.35-1.35s0.6-1.35,1.35-1.35h25.17c0.75,0,1.35,0.6,1.35,1.35
	S49.4,53.46,48.66,53.46z"/>
<path class="st4" d="M40.63,63.1H23.49c-0.75,0-1.35-0.6-1.35-1.35s0.6-1.35,1.35-1.35h17.14c0.75,0,1.35,0.6,1.35,1.35
	S41.38,63.1,40.63,63.1z"/>
<path class="st4" d="M40.63,72.83H23.49c-0.75,0-1.35-0.6-1.35-1.35s0.6-1.35,1.35-1.35h17.14c0.75,0,1.35,0.6,1.35,1.35
	S41.38,72.83,40.63,72.83z"/>
<g>
	<path class="st5" d="M66.15,72.24v1.67h-1.27v-1.65c-2.13-0.15-3.71-1.24-4.37-3l2.26-1.31c0.4,0.99,1.06,1.58,2.11,1.73v-3.29
		c-0.02,0-0.04-0.02-0.06-0.02c-1.77-0.68-3.72-1.54-3.72-4.07c0-2.36,1.79-3.65,3.78-3.84v-1.65h1.27v1.69
		c1.58,0.19,2.93,1.06,3.65,2.68l-2.2,1.29c-0.3-0.76-0.78-1.22-1.44-1.39v3.17c1.73,0.68,3.84,1.37,3.84,4.03
		C69.98,70.59,68.35,71.98,66.15,72.24z M64.88,63.69v-2.66c-0.76,0.15-1.18,0.65-1.18,1.29C63.7,62.88,64,63.26,64.88,63.69z
		 M67.36,68.31c0-0.67-0.44-1.04-1.22-1.41v2.74C67,69.45,67.36,68.9,67.36,68.31z"/>
</g>
<g>
	<defs>
		<rect id="SVGID_3_" x="13.2" y="10.72" width="73.7" height="78.56"/>
	</defs>
	<clipPath id="SVGID_4_">
		<use xlink:href="#SVGID_3_"  style="overflow:visible;"/>
	</clipPath>
	<path class="st6" d="M46.63,44.48L46.63,44.48c-3.57,0-6.47-2.89-6.47-6.47c0-3.57,2.9-6.47,6.47-6.47c3.57,0,6.47,2.9,6.47,6.47
		C53.09,41.59,50.2,44.48,46.63,44.48"/>
</g>
<rect x="30.14" y="21.56" transform="matrix(0.7071 -0.7071 0.7071 0.7071 -8.899 33.6155)" class="st4" width="11.98" height="11.98"/>
</svg>
