<svg width="18" height="18" viewBox="0 0 18 18" fill="none" xmlns="http://www.w3.org/2000/svg">
    <path d="M9.18257 16.3067L8.4207 15.9618C7.81246 15.6849 7.20343 15.408 6.59363 15.1319C5.86047 14.7974 5.12654 14.4653 4.39338 14.1308C3.75721 13.8411 3.12103 13.5514 2.48407 13.2633C2.17607 13.1241 1.87117 12.9672 1.55851 12.8424L1.5461 12.8368L1.72454 13.1577V12.2926V10.2168V7.71605V5.55299C1.72454 5.20168 1.7385 4.84718 1.72454 4.49667V4.48146C1.54454 4.5895 1.36223 4.69513 1.18223 4.80236L1.9441 5.14807L3.77117 5.97792C4.50355 6.31242 5.23748 6.64452 5.97064 6.97822C6.6076 7.26871 7.243 7.5584 7.88073 7.84569C8.18796 7.98493 8.49286 8.14258 8.80551 8.26742C8.81095 8.26902 8.81483 8.27062 8.81793 8.27302C8.75897 8.16499 8.69923 8.05935 8.63949 7.95132V15.5568C8.63949 15.9089 8.63173 16.2627 8.63949 16.6132V16.6284C8.63949 16.8228 8.80552 17.0085 9.00025 16.9997C9.1942 16.9901 9.36023 16.8364 9.36023 16.6284V15.7625V13.6867V11.1859V9.02285C9.36023 8.67074 9.36877 8.31703 9.36023 7.96653V7.95132C9.36023 7.83288 9.29351 7.68244 9.18179 7.63042L8.4207 7.28472L6.59363 6.45486L4.39338 5.45456C3.75721 5.16487 3.12103 4.87518 2.48407 4.5871L1.55851 4.16617C1.55618 4.16377 1.54998 4.16217 1.5461 4.16057C1.42352 4.10455 1.30326 4.08854 1.18223 4.16057C1.07284 4.22699 1.00379 4.34942 1.00379 4.48146V12.0862C1.00379 12.4391 0.995259 12.792 1.00379 13.1425V13.1585C1.00379 13.2769 1.07051 13.4274 1.18223 13.4786L1.9441 13.8243C2.55234 14.1012 3.16059 14.3781 3.77117 14.6542C4.50355 14.9887 5.23748 15.3208 5.97064 15.6545C6.6076 15.945 7.243 16.2346 7.88073 16.5219C8.18796 16.6636 8.49751 16.8044 8.80551 16.9437L8.81793 16.9493C8.98861 17.0269 9.21282 17.0069 9.31135 16.8156C9.39437 16.654 9.36566 16.3907 9.18179 16.3067H9.18257Z" fill="#00394D" stroke="#005F80" stroke-width="0.2"/>
    <path d="M16.4543 12.8368L15.6925 13.1817L13.8654 14.0124C13.133 14.3461 12.3991 14.6782 11.6659 15.0127C11.029 15.3024 10.3936 15.592 9.75585 15.8801C9.44862 16.0194 9.13364 16.149 8.83106 16.3011L8.81787 16.3067C8.99864 16.4147 9.18019 16.5203 9.36018 16.6284V15.7625V13.6867V11.1859V9.02285C9.36018 8.67234 9.37414 8.31703 9.36018 7.96652V7.95132L9.18174 8.27302L9.9436 7.92731L11.7707 7.09746C12.5031 6.76296 13.237 6.43086 13.9701 6.09716C14.6071 5.80747 15.2425 5.51778 15.8802 5.22969C16.1875 5.09045 16.5024 4.96081 16.805 4.80796C16.8089 4.80636 16.8143 4.80476 16.8174 4.80236C16.6374 4.69513 16.4559 4.5895 16.2759 4.48146V12.0862C16.2759 12.4391 16.2666 12.792 16.2759 13.1425V13.1585C16.2759 13.353 16.4412 13.5386 16.6359 13.529C16.8298 13.5202 16.9959 13.3658 16.9959 13.1577V12.2926V10.2168V7.71605V5.55299C16.9959 5.20008 17.0052 4.84718 16.9959 4.49667V4.48146C16.9959 4.34942 16.9276 4.22699 16.8174 4.16057C16.6972 4.08854 16.5769 4.10455 16.4543 4.16057L15.6925 4.50547C15.0842 4.78236 14.476 5.05924 13.8654 5.33532C13.133 5.66983 12.3991 6.00193 11.6659 6.33563C11.029 6.62612 10.3936 6.9158 9.75585 7.20309C9.44862 7.34233 9.13131 7.46877 8.83106 7.62482L8.81787 7.63042C8.70693 7.68084 8.63943 7.83048 8.63943 7.95132V15.5568C8.63943 15.9089 8.63168 16.2626 8.63943 16.6132V16.6284C8.63943 16.7596 8.70848 16.8828 8.81787 16.9493C8.9389 17.0213 9.05916 17.0053 9.18251 16.9493L9.94282 16.6036L11.7707 15.7737L13.9701 14.7734C14.6071 14.4837 15.2425 14.194 15.8802 13.9059C16.1875 13.7667 16.5048 13.6403 16.805 13.485L16.8174 13.4794C16.9904 13.401 17.0448 13.1265 16.947 12.9704C16.8322 12.7848 16.6398 12.7528 16.4543 12.8368Z" fill="#00394D" stroke="#005F80" stroke-width="0.2"/>
    <path d="M16.4564 4.16068L15.6946 4.50558C15.0863 4.78247 14.4781 5.05935 13.8675 5.33543C13.1351 5.66994 12.4012 6.00204 11.668 6.33574C11.0311 6.62623 10.3957 6.91592 9.75793 7.2032C9.4507 7.34244 9.13572 7.47529 8.83315 7.62493L8.81996 7.63053H9.1846L8.42273 7.28483L6.59566 6.45497L4.39541 5.45467C3.75923 5.16498 3.12305 4.87529 2.4861 4.58721C2.1781 4.44796 1.8732 4.29432 1.56054 4.16628L1.54812 4.16068L1.46201 4.84008L2.22309 4.52959C2.82979 4.28311 3.43804 4.03584 4.04474 3.78696L6.24809 2.89069C6.88504 2.63061 7.52277 2.37053 8.15973 2.11205C8.3692 2.02723 8.57712 1.944 8.78427 1.85838C8.88357 1.81756 8.98754 1.78155 9.08296 1.73514C9.08684 1.73354 9.09227 1.73194 9.09538 1.72954H8.9053L9.66638 2.04003C10.2731 2.28731 10.8813 2.53378 11.488 2.78266L13.6914 3.67893C14.3283 3.93901 14.9661 4.19909 15.603 4.45757C15.911 4.5816 16.2151 4.72485 16.5286 4.83368L16.541 4.84008C16.7171 4.91211 16.9444 4.76166 16.9832 4.58C17.0298 4.36634 16.9212 4.19909 16.7318 4.12387L15.97 3.81337C15.3602 3.5645 14.7496 3.31562 14.1414 3.06914C13.4051 2.76745 12.6673 2.46896 11.9303 2.16807L10.0248 1.39183C9.71992 1.2686 9.41734 1.12615 9.10856 1.01892C8.9821 0.974107 8.89754 1.01732 8.7897 1.06133C8.63143 1.12615 8.47316 1.19177 8.31489 1.25499L6.59023 1.95681L4.38998 2.85308C3.72742 3.12276 3.06642 3.39164 2.40386 3.66293C2.04233 3.80937 1.68079 3.95821 1.32081 4.10466C1.30451 4.11266 1.28822 4.11746 1.27038 4.12547C1.13306 4.18148 1.0322 4.27511 1.0128 4.43356C0.994959 4.5672 1.05625 4.74565 1.18348 4.80247C1.43951 4.91771 1.69553 5.03454 1.94845 5.14978L3.78484 5.98523C4.5211 6.31973 5.25736 6.65424 5.99362 6.99034L7.89672 7.8546C8.20085 7.99224 8.50497 8.13389 8.80987 8.26913C8.94797 8.33075 9.05581 8.33075 9.19468 8.26913L9.29399 8.22431L9.76724 8.00905C10.3414 7.74737 10.9178 7.48729 11.4919 7.22561C12.2243 6.89351 12.9567 6.55901 13.6898 6.22691L15.6822 5.32103C16.046 5.15538 16.4076 4.99053 16.7714 4.82728C16.7869 4.81928 16.804 4.81207 16.8218 4.80487C16.9941 4.72645 17.0484 4.45197 16.9514 4.29592C16.8343 4.10866 16.6411 4.07665 16.4564 4.15988V4.16068Z" fill="#00394D" stroke="#005F80" stroke-width="0.2"/>
    <path d="M12.6395 6.11569V8.53482C12.6395 8.73008 12.8055 8.91574 12.9995 8.90614C13.1934 8.89653 13.3595 8.74289 13.3595 8.53482V6.41418V6.11569C13.3595 5.92043 13.1942 5.73477 12.9995 5.74438C12.8055 5.75158 12.6395 5.90602 12.6395 6.11569Z" fill="#00394D"/>
    <path d="M5.26833 3.23237L6.02864 3.55487L7.85183 4.3295L10.0583 5.26579C10.6945 5.53467 11.3291 5.80515 11.9668 6.07403C12.2741 6.20447 12.5797 6.35332 12.8932 6.46855L12.9064 6.47416C13.0809 6.54778 13.3098 6.39413 13.3486 6.21408C13.3974 5.99801 13.2842 5.83716 13.0972 5.75714C12.8427 5.6491 12.5914 5.54107 12.3369 5.43384L10.5137 4.66L8.30724 3.72372C7.67107 3.45484 7.03644 3.18355 6.39871 2.91467C6.0907 2.78423 5.78503 2.63619 5.47159 2.52095L5.45918 2.51535C5.28462 2.44093 5.05575 2.59538 5.01696 2.77543C4.96963 2.9923 5.08135 3.15154 5.26833 3.23157V3.23237Z" fill="#00394D" stroke="#005F80" stroke-width="0.2"/>
</svg>
