<svg xmlns="http://www.w3.org/2000/svg" width="14" height="14" viewBox="0 0 14 14">
    <path fill="#404040" d="M7.163.911c-.105-.042-.221-.042-.326 0L1.615 3.01l2.104.845L9.104 1.69 7.163.911zm3.118 1.254L4.896 4.329 7 5.174l5.385-2.164-2.104-.845zm2.844 1.495L7.437 5.946v6.965l5.688-2.286V3.66zm-6.563 9.252V5.945L.875 3.66v6.966l5.688 2.286zM6.513.094c.313-.125.663-.125.975 0l6.238 2.508c.166.067.275.228.275.408v7.616c0 .36-.218.682-.55.816l-6.287 2.526c-.105.043-.221.043-.326 0L.551 11.442c-.332-.134-.55-.457-.551-.816V3.01c0-.18.109-.341.275-.408L6.513.094z"/>
</svg>
