<?xml version="1.0" encoding="UTF-8"?>
<svg width="31px" height="31px" viewBox="0 0 31 31" version="1.1" xmlns="http://www.w3.org/2000/svg" xmlns:xlink="http://www.w3.org/1999/xlink">
    <!-- Generator: sketchtool 61.2 (101010) - https://sketch.com -->
    <title>6588C4CA-7C26-444B-A4EC-D7BD5F7BC06A</title>
    <desc>Created with sketchtool.</desc>
    <g id="Messages" stroke="none" stroke-width="1" fill="none" fill-rule="evenodd">
        <g id="Message-Center" transform="translate(-24.000000, -17.000000)">
            <rect fill="#FAFAFA" x="0" y="0" width="1600" height="1360"></rect>
            <g id="header/buyer">
                <g id="Group-3">
                    <rect id="Rectangle" stroke="#D8D8D8" fill="#FFFFFF" x="0.5" y="0.5" width="1599" height="63"></rect>
                    <g id="Icons/Black/burger" transform="translate(24.000000, 17.000000)" fill="#222222">
                        <g id="burger">
                            <path d="M22.6041667,20.6666667 C22.9608506,20.6666667 23.25,20.9558161 23.25,21.3125 C23.25,21.6691839 22.9608506,21.9583333 22.6041667,21.9583333 L8.39583333,21.9583333 C8.03914943,21.9583333 7.75,21.6691839 7.75,21.3125 C7.75,20.9558161 8.03914943,20.6666667 8.39583333,20.6666667 L22.6041667,20.6666667 Z M22.6041667,15.5 C22.9608506,15.5 23.25,15.7891494 23.25,16.1458333 C23.25,16.5025172 22.9608506,16.7916667 22.6041667,16.7916667 L8.39583333,16.7916667 C8.03914943,16.7916667 7.75,16.5025172 7.75,16.1458333 C7.75,15.7891494 8.03914943,15.5 8.39583333,15.5 L22.6041667,15.5 Z M22.6041667,10.3333333 C22.9608506,10.3333333 23.25,10.6224828 23.25,10.9791667 C23.25,11.3358506 22.9608506,11.625 22.6041667,11.625 L8.39583333,11.625 C8.03914943,11.625 7.75,11.3358506 7.75,10.9791667 C7.75,10.6224828 8.03914943,10.3333333 8.39583333,10.3333333 L22.6041667,10.3333333 Z"></path>
                        </g>
                    </g>
                </g>
            </g>
        </g>
    </g>
</svg>