<svg width="73" height="72" viewBox="0 0 73 72" fill="none" xmlns="http://www.w3.org/2000/svg">
<path d="M19.4502 60.1559H11.235C10.8015 60.1559 10.3858 59.9837 10.0793 59.6772C9.77278 59.3707 9.60059 58.9549 9.60059 58.5215V48.2399C9.60059 47.8064 9.77278 47.3907 10.0793 47.0842C10.3858 46.7777 10.8015 46.6055 11.235 46.6055H19.4502C19.8837 46.6055 20.2994 46.7777 20.6059 47.0842C20.9124 47.3907 21.0846 47.8064 21.0846 48.2399V58.5215C21.0846 58.9549 20.9124 59.3707 20.6059 59.6772C20.2994 59.9837 19.8837 60.1559 19.4502 60.1559ZM11.4006 58.3559H19.3206V48.3767H11.4006V58.3559Z" fill="#002C3C"/>
<path d="M33.8214 60.1565H25.6062C25.174 60.1546 24.7601 59.9816 24.4552 59.6753C24.1502 59.369 23.979 58.9544 23.979 58.5221V41.8541C23.979 41.4219 24.1502 41.0073 24.4552 40.701C24.7601 40.3947 25.174 40.2216 25.6062 40.2197H33.8214C34.2549 40.2197 34.6706 40.3919 34.9771 40.6984C35.2836 41.0049 35.4558 41.4207 35.4558 41.8541V58.5221C35.4558 58.9556 35.2836 59.3713 34.9771 59.6778C34.6706 59.9843 34.2549 60.1565 33.8214 60.1565ZM25.779 58.3565H33.6558V42.0197H25.779V58.3565Z" fill="#002C3C"/>
<path d="M47.7968 60.1561H39.5816C39.3663 60.1571 39.153 60.1155 38.9539 60.0338C38.7548 59.9521 38.5737 59.8318 38.4212 59.6799C38.2687 59.5281 38.1476 59.3476 38.0651 59.1488C37.9825 58.9501 37.94 58.7369 37.94 58.5217V35.4817C37.939 35.2659 37.9808 35.052 38.063 34.8524C38.1451 34.6528 38.266 34.4714 38.4186 34.3188C38.5713 34.1662 38.7526 34.0453 38.9522 33.9631C39.1518 33.881 39.3657 33.8391 39.5816 33.8401H47.7968C48.0156 33.8362 48.2331 33.8764 48.4361 33.9581C48.6392 34.0399 48.8238 34.1616 48.9789 34.316C49.134 34.4705 49.2565 34.6545 49.3392 34.8573C49.4218 35.06 49.4629 35.2772 49.46 35.4961V58.5361C49.4581 58.752 49.4135 58.9653 49.3287 59.1638C49.2439 59.3624 49.1206 59.5421 48.966 59.6928C48.8114 59.8434 48.6284 59.9619 48.4277 60.0414C48.2271 60.1209 48.0126 60.1599 47.7968 60.1561ZM39.7472 58.3561H47.624V35.6617H39.7472V58.3561Z" fill="#002C3C"/>
<path d="M61.7646 60.1563H53.5494C53.116 60.1563 52.7003 59.9841 52.3937 59.6776C52.0872 59.3711 51.915 58.9554 51.915 58.5219V28.9371C51.915 28.5037 52.0872 28.088 52.3937 27.7814C52.7003 27.4749 53.116 27.3027 53.5494 27.3027H61.7646C62.1981 27.3027 62.6138 27.4749 62.9203 27.7814C63.2268 28.088 63.399 28.5037 63.399 28.9371V58.5219C63.399 58.9554 63.2268 59.3711 62.9203 59.6776C62.6138 59.9841 62.1981 60.1563 61.7646 60.1563ZM53.715 58.3563H61.635V29.1027H53.715V58.3563Z" fill="#002C3C"/>
<path d="M57.9487 24.9556C57.8794 24.9657 57.8091 24.9657 57.7399 24.9556C57.6253 24.9285 57.5171 24.8791 57.4217 24.8101C57.3263 24.741 57.2455 24.6538 57.1839 24.5534C57.1223 24.4531 57.0812 24.3415 57.063 24.2252C57.0447 24.1088 57.0496 23.99 57.0775 23.8756L58.0999 19.57L53.7799 18.0004C53.555 17.9176 53.3721 17.7493 53.2709 17.5321C53.1697 17.3149 53.1586 17.0666 53.2399 16.8412C53.28 16.7302 53.3417 16.6282 53.4215 16.5413C53.5013 16.4543 53.5976 16.384 53.7047 16.3344C53.8118 16.2849 53.9277 16.2571 54.0457 16.2526C54.1636 16.2481 54.2813 16.2671 54.3919 16.3084L59.4319 18.1444C59.6404 18.2198 59.8138 18.3694 59.9188 18.5648C60.0237 18.7601 60.0529 18.9873 60.0007 19.2028L58.8199 24.2644C58.7719 24.4599 58.6603 24.634 58.5026 24.7591C58.3449 24.8843 58.15 24.9534 57.9487 24.9556Z" fill="#E24A04"/>
<path d="M10.7742 41.3998C10.5996 41.3999 10.4287 41.3488 10.2829 41.2528C10.137 41.1568 10.0224 41.0202 9.95341 40.8598C9.90553 40.7515 9.87946 40.6349 9.87671 40.5166C9.87396 40.3982 9.89457 40.2805 9.93737 40.1702C9.98018 40.0598 10.0443 39.959 10.1261 39.8735C10.208 39.7879 10.3059 39.7194 10.4142 39.6718L57.099 19.1014C57.2073 19.0535 57.3239 19.0274 57.4422 19.0247C57.5605 19.0219 57.6783 19.0425 57.7886 19.0853C57.899 19.1281 57.9998 19.1923 58.0853 19.2741C58.1708 19.3559 58.2394 19.4538 58.287 19.5622C58.3348 19.6699 58.3607 19.786 58.3634 19.9038C58.366 20.0216 58.3454 20.1388 58.3025 20.2485C58.2597 20.3583 58.1955 20.4585 58.1138 20.5434C58.032 20.6282 57.9343 20.6961 57.8262 20.743L11.1414 41.3206C11.0254 41.3708 10.9006 41.3977 10.7742 41.3998Z" fill="#E24A04"/>
<path d="M25.2536 29.3684C24.3707 29.3684 23.5076 29.1066 22.7735 28.6161C22.0394 28.1256 21.4672 27.4284 21.1294 26.6127C20.7915 25.797 20.7031 24.8995 20.8753 24.0335C21.0476 23.1676 21.4727 22.3722 22.097 21.7479C22.7213 21.1236 23.5167 20.6985 24.3827 20.5262C25.2486 20.354 26.1462 20.4424 26.9619 20.7802C27.7775 21.1181 28.4747 21.6903 28.9652 22.4244C29.4557 23.1585 29.7176 24.0215 29.7176 24.9044C29.7176 26.0884 29.2472 27.2238 28.4101 28.061C27.5729 28.8981 26.4375 29.3684 25.2536 29.3684Z" fill="#E24A04"/>
<path d="M18.0239 11.8429L12.1782 17.6865L18.0219 23.5322L23.8675 17.6886L18.0239 11.8429Z" fill="#002C3C"/>
</svg>
