<svg xmlns="http://www.w3.org/2000/svg" width="20" height="20" viewBox="0 0 20 20">
    <path fill="none" fill-rule="evenodd" stroke="#404040" stroke-width="1.5" d="M19 15.644c-.004-.417.046-.677-.579-.886-.883-.26-4.343-1.915-4.702-1.914-.39.126-1.088.792-1.581 1.278-.273.269-.791.383-1.117.187-.914-.55-2.51-1.72-3.076-2.295C7.2 11.26 5.956 9.741 5.424 8.83c-.188-.32-.059-.857.202-1.127.495-.514 1.223-1.265 1.321-1.592.001-.15-.244-.902-.442-1.3-.49-1.246-1.077-2.485-1.514-3.67C4.843.992 4.547.996 4.3 1c-.445.007-1.384.17-1.88.524C1.429 2.28 1.014 4.023 1 5.018.957 8.47 3.947 12.653 7.805 15.881c2.41 1.94 11.247 6.044 11.195-.237"/>
</svg>
