<svg xmlns="http://www.w3.org/2000/svg" xmlns:xlink="http://www.w3.org/1999/xlink" width="14" height="14" viewBox="0 0 14 14">
    <defs>
        <path id="prefix__a" d="M4 11c.828 0 1.5.672 1.5 1.5S4.828 14 4 14s-1.5-.672-1.5-1.5S3.172 11 4 11zm6 0c.828 0 1.5.672 1.5 1.5 0 .607-.365 1.154-.926 1.386-.56.232-1.206.104-1.635-.325-.429-.43-.557-1.075-.325-1.635.232-.56.78-.926 1.386-.926zm-6 1c-.276 0-.5.224-.5.5s.224.5.5.5.5-.224.5-.5-.224-.5-.5-.5zm6 0c-.276 0-.5.224-.5.5s.224.5.5.5.5-.224.5-.5-.224-.5-.5-.5zM.72 0c.688 0 1.288.468 1.455 1.135L2.39 2h11.225l-1 4.03c-.137.545-.568.968-1.115 1.095L4.095 8.87l.06.25c.056.229.265.387.5.38H11.5v1H4.655c-.693.007-1.301-.462-1.47-1.135L3 8.62 1.22 1.38C1.164 1.151.955.993.72 1H0V0zm11.64 3H2.64l1.225 4.9 7.425-1.745c.184-.041.329-.182.375-.365L12.36 3z"/>
    </defs>
    <g fill="none" fill-rule="evenodd">
        <mask id="prefix__b" fill="#fff">
            <use xlink:href="#prefix__a"/>
        </mask>
        <use fill="#252C32" xlink:href="#prefix__a"/>
        <g fill="#404040" mask="url(#prefix__b)">
            <path d="M0 0L20 0 20 20 0 20z" transform="translate(-3 -3)"/>
        </g>
    </g>
</svg>
