<svg width="73" height="73" viewBox="0 0 73 73" fill="none" xmlns="http://www.w3.org/2000/svg">
<path d="M49.1822 39.505C48.2922 39.505 47.4223 39.2411 46.6824 38.7466C45.9424 38.2522 45.3657 37.5495 45.0251 36.7273C44.6846 35.9051 44.5955 35.0004 44.7691 34.1276C44.9427 33.2548 45.3712 32.453 46.0005 31.8237C46.6298 31.1945 47.4315 30.7659 48.3043 30.5923C49.1772 30.4187 50.0819 30.5078 50.9041 30.8484C51.7263 31.1889 52.429 31.7656 52.9234 32.5056C53.4178 33.2455 53.6817 34.1155 53.6817 35.0054C53.6817 36.1988 53.2077 37.3432 52.3638 38.1871C51.52 39.0309 50.3755 39.505 49.1822 39.505Z" fill="#E24A04"/>
<path d="M41.8898 21.8403L35.9976 27.7305L41.8877 33.6227L47.78 27.7325L41.8898 21.8403Z" fill="#002C3C"/>
<path d="M43.4926 43.1402C43.2895 42.8754 43.0262 42.6629 42.7246 42.5202C42.4229 42.3776 42.0916 42.309 41.7581 42.3202H18.8539L17.9177 39.2358C17.7023 38.616 17.3039 38.0761 16.7753 37.6874C16.2467 37.2987 15.6126 37.0795 14.9567 37.0586H11.3281C11.0875 37.0586 10.8567 37.1542 10.6866 37.3243C10.5165 37.4944 10.4209 37.7252 10.4209 37.9658C10.4209 38.2064 10.5165 38.4371 10.6866 38.6072C10.8567 38.7774 11.0875 38.8729 11.3281 38.8729H14.9567C15.226 38.896 15.4835 38.9939 15.7002 39.1554C15.9169 39.317 16.0842 39.5359 16.1832 39.7874L20.9295 55.4414C21.145 56.0612 21.5433 56.6011 22.0719 56.9898C22.6006 57.3785 23.2347 57.5977 23.8905 57.6186H37.4545C38.1128 57.5971 38.7493 57.3779 39.2813 56.9896C39.8133 56.6013 40.2161 56.0618 40.4372 55.4414L43.7538 45.0489C43.8648 44.7329 43.8989 44.3949 43.8535 44.0631C43.8081 43.7312 43.6844 43.4149 43.4926 43.1402ZM42.0411 44.4974L38.71 54.8826C38.6088 55.1383 38.4371 55.36 38.2148 55.5219C37.9926 55.6838 37.7289 55.7792 37.4545 55.797H23.8905C23.622 55.7746 23.3651 55.6778 23.1485 55.5176C22.9319 55.3574 22.7641 55.14 22.664 54.8899L19.4055 44.1345H41.7581C41.9177 44.1345 42.0048 44.178 42.0266 44.2143C42.0484 44.2506 42.0701 44.345 42.0266 44.4974H42.0411Z" fill="#E24A04"/>
<path d="M23.8906 58.6055C23.1881 58.604 22.5009 58.8111 21.9162 59.2005C21.3315 59.5899 20.8755 60.1441 20.606 60.7929C20.3365 61.4416 20.2656 62.1558 20.4023 62.8449C20.539 63.534 20.8772 64.167 21.3739 64.6637C21.8707 65.1605 22.5037 65.4986 23.1927 65.6353C23.8818 65.772 24.596 65.7011 25.2447 65.4316C25.8935 65.1621 26.4477 64.7061 26.8371 64.1214C27.2265 63.5367 27.4336 62.8496 27.4321 62.1471C27.4302 61.2084 27.0565 60.3087 26.3927 59.6449C25.729 58.9811 24.8293 58.6074 23.8906 58.6055ZM23.8906 63.8816C23.5472 63.883 23.2111 63.7825 22.925 63.5928C22.6388 63.4031 22.4153 63.1327 22.2829 62.8159C22.1505 62.4991 22.1151 62.1501 22.1812 61.8131C22.2474 61.4762 22.412 61.1665 22.6543 60.9232C22.8965 60.6799 23.2056 60.5139 23.5422 60.4464C23.8789 60.3789 24.228 60.4128 24.5454 60.5439C24.8627 60.675 25.1341 60.8973 25.325 61.1827C25.5159 61.4681 25.6178 61.8037 25.6178 62.1471C25.6178 62.3739 25.5731 62.5985 25.4863 62.808C25.3995 63.0176 25.2723 63.208 25.1119 63.3684C24.9515 63.5288 24.7611 63.656 24.5515 63.7428C24.342 63.8296 24.1174 63.8743 23.8906 63.8743V63.8816Z" fill="#E24A04"/>
<path d="M37.6938 58.6055C36.9916 58.6055 36.3052 58.8138 35.7215 59.2041C35.1377 59.5943 34.6829 60.149 34.4145 60.7979C34.1461 61.4468 34.0762 62.1607 34.2137 62.8493C34.3513 63.5379 34.69 64.1703 35.187 64.6663C35.6841 65.1623 36.3171 65.4997 37.006 65.6358C37.6948 65.7719 38.4086 65.7006 39.057 65.4309C39.7053 65.1612 40.2591 64.7052 40.6481 64.1206C41.0372 63.5361 41.2441 62.8493 41.2427 62.1471C41.2408 61.2071 40.866 60.3063 40.2007 59.6423C39.5354 58.9784 38.6338 58.6055 37.6938 58.6055ZM37.6938 63.8816C37.3508 63.8816 37.0154 63.7798 36.7302 63.5892C36.445 63.3986 36.2227 63.1278 36.0914 62.8108C35.9601 62.4939 35.9257 62.1451 35.9927 61.8087C36.0596 61.4722 36.2248 61.1631 36.4674 60.9206C36.7099 60.678 37.019 60.5128 37.3555 60.4459C37.6919 60.3789 38.0407 60.4133 38.3576 60.5446C38.6746 60.6759 38.9454 60.8982 39.136 61.1834C39.3266 61.4687 39.4284 61.804 39.4284 62.1471C39.4264 62.6058 39.2428 63.0451 38.9178 63.3688C38.5927 63.6926 38.1526 63.8743 37.6938 63.8743V63.8816Z" fill="#E24A04"/>
<path d="M60.6128 19.9974C60.5652 19.2411 60.2337 18.5308 59.6846 18.0086C59.1356 17.4864 58.4094 17.191 57.6518 17.1815H51.0041C50.9097 15.3962 50.3944 11.4192 47.8326 8.79203C47.0224 7.97415 46.0513 7.33323 44.9808 6.90976C43.9103 6.4863 42.7635 6.2895 41.6131 6.33179C34.4719 6.33179 32.2221 12.9795 31.939 17.2178H25.676C24.9174 17.2291 24.1899 17.5208 23.6338 18.0368C23.0776 18.5527 22.7322 19.2563 22.6642 20.0119L21.2708 38.7358C21.2554 38.858 21.2651 38.9821 21.2992 39.1004C21.3333 39.2188 21.3912 39.3289 21.4693 39.4242C21.5474 39.5194 21.6441 39.5978 21.7535 39.6544C21.8628 39.7111 21.9826 39.7449 22.1054 39.7538C22.2283 39.7627 22.3517 39.7464 22.468 39.7061C22.5844 39.6657 22.6913 39.6021 22.7823 39.5191C22.8733 39.436 22.9464 39.3354 22.9972 39.2232C23.048 39.1109 23.0755 38.9896 23.0778 38.8664L24.4495 20.1062C24.4795 19.807 24.6177 19.529 24.8382 19.3245C25.0587 19.1201 25.3463 19.0032 25.6469 18.9958H57.6518C57.9452 19.0024 58.2255 19.1185 58.4377 19.3213C58.6499 19.5241 58.7786 19.7989 58.7984 20.0917L60.7361 59.4119C60.7458 59.5438 60.7282 59.6763 60.6845 59.8012C60.6408 59.926 60.5719 60.0405 60.4821 60.1377C60.3886 60.2347 60.2756 60.3108 60.1505 60.3608C60.0254 60.4109 59.891 60.4338 59.7564 60.428H44.3128C44.0722 60.428 43.8415 60.5235 43.6713 60.6937C43.5012 60.8638 43.4056 61.0945 43.4056 61.3351C43.4056 61.5757 43.5012 61.8065 43.6713 61.9766C43.8415 62.1467 44.0722 62.2423 44.3128 62.2423H59.8072C60.1825 62.2438 60.5542 62.1687 60.8994 62.0215C61.2447 61.8744 61.5563 61.6583 61.8152 61.3866C62.074 61.1148 62.2747 60.7931 62.4049 60.441C62.535 60.089 62.592 59.7141 62.5722 59.3394L60.6128 19.9974ZM33.7606 17.1815C33.8859 15.7352 34.2208 14.3149 34.7549 12.965C36.0685 9.76451 38.3836 8.14613 41.5986 8.14613C42.5059 8.10845 43.4113 8.25853 44.258 8.58697C45.1047 8.9154 45.8744 9.41511 46.519 10.0548C48.5946 12.1885 49.0663 15.5849 49.1752 17.1815H33.7606Z" fill="#002C3C"/>
<path d="M46.1632 46.2464H56.1421C56.3345 46.2464 56.5191 46.1699 56.6552 46.0338C56.7913 45.8977 56.8678 45.7131 56.8678 45.5207C56.8678 45.3282 56.7913 45.1436 56.6552 45.0075C56.5191 44.8714 56.3345 44.7949 56.1421 44.7949H46.1632C45.9708 44.7949 45.7862 44.8714 45.6501 45.0075C45.514 45.1436 45.4375 45.3282 45.4375 45.5207C45.4375 45.7131 45.514 45.8977 45.6501 46.0338C45.7862 46.1699 45.9708 46.2464 46.1632 46.2464Z" fill="#002C3C"/>
<path d="M56.1421 54.2383H46.1632C45.9708 54.2383 45.7862 54.3147 45.6501 54.4508C45.514 54.5869 45.4375 54.7715 45.4375 54.964C45.4375 55.1565 45.514 55.3411 45.6501 55.4772C45.7862 55.6133 45.9708 55.6898 46.1632 55.6898H56.1421C56.3345 55.6898 56.5191 55.6133 56.6552 55.4772C56.7913 55.3411 56.8678 55.1565 56.8678 54.964C56.8678 54.7715 56.7913 54.5869 56.6552 54.4508C56.5191 54.3147 56.3345 54.2383 56.1421 54.2383Z" fill="#002C3C"/>
<path d="M56.1421 49.5195H46.1632C45.9708 49.5195 45.7862 49.596 45.6501 49.7321C45.514 49.8682 45.4375 50.0528 45.4375 50.2453C45.4375 50.4377 45.514 50.6223 45.6501 50.7584C45.7862 50.8945 45.9708 50.971 46.1632 50.971H56.1421C56.3345 50.971 56.5191 50.8945 56.6552 50.7584C56.7913 50.6223 56.8678 50.4377 56.8678 50.2453C56.8678 50.0528 56.7913 49.8682 56.6552 49.7321C56.5191 49.596 56.3345 49.5195 56.1421 49.5195Z" fill="#002C3C"/>
</svg>
