<?xml version="1.0" encoding="UTF-8"?>
<svg width="20px" height="21px" viewBox="0 0 20 21" version="1.1" xmlns="http://www.w3.org/2000/svg" xmlns:xlink="http://www.w3.org/1999/xlink">
    <title>Icon / solid / l / faq</title>
    <defs>
        <path d="M10.0158775,0.0159716758 C15.4247859,0.0159716758 19.8246518,4.41922954 19.8246518,9.83184915 C19.8246518,15.2403984 15.424746,19.6406235 10.0158775,19.6406235 C8.95344182,19.6406235 7.91059962,19.4708668 6.91512486,19.1361022 C6.86983248,19.1462382 6.8407416,19.1584092 6.82585696,19.1672283 C6.43295051,19.3511912 6.08397966,19.4898218 5.71437784,19.6128894 C5.58520475,19.653473 5.4654892,19.6845591 5.34581355,19.7156852 L5.17976807,19.7596607 C4.55521202,19.9300957 3.83496333,20.0159717 3.03729858,20.0159717 L2.95716897,20.0159717 C2.18384638,20.011223 1.70909439,19.8090234 1.50621643,19.397162 C1.43350918,19.2490738 1.30098406,18.8581626 1.63810307,18.4145367 L2.71338819,16.978788 C2.84088526,16.8144585 2.91391175,16.7126603 2.94300263,16.6355635 C1.17284851,14.7916646 0.2,12.3827881 0.2,9.83184915 C0.2,4.41922954 4.60325786,0.0159716758 10.0158775,0.0159716758 Z M10.0158376,1.40100085 C5.36708301,1.40100085 1.58498927,5.18309459 1.58498927,9.83184915 C1.58498927,12.0750792 2.46146675,14.1908123 4.05272592,15.7895337 L4.13656672,15.8737336 L4.18764535,15.9805997 C4.34690695,16.3163619 4.37328428,16.6873206 4.2633854,17.0538497 C4.15516253,17.3673049 3.9925489,17.5894571 3.82075708,17.8106116 L3.21244244,18.6295857 C3.81568912,18.6187714 4.35333168,18.5497754 4.81319904,18.4239942 L4.99951635,18.3746315 C5.09520898,18.3502893 5.19126076,18.3259472 5.2869534,18.2954995 C5.5963383,18.1920254 5.89762245,18.072669 6.19754982,17.93336 C6.36866326,17.8366697 6.61280318,17.766676 6.90087871,17.7419747 L7.11660614,17.7396203 L7.22885943,17.7795255 C8.12018165,18.0953351 9.05819293,18.2556342 10.0157977,18.2556342 C14.6604819,18.2556342 18.4395428,14.4768925 18.4395428,9.83188906 C18.4395428,5.18309459 14.6605218,1.40100085 10.0158376,1.40100085 Z M9.52412588,8.01209289 L10.9991811,8.01209289 C11.3523819,8.01209289 11.5324341,8.19214509 11.5809189,8.54530598 C11.6293638,8.89850677 11.5047,9.23091697 11.442408,9.57027066 C11.2623558,10.5882519 11.0684166,11.5993296 10.8884044,12.6103674 C10.8260725,12.9566247 10.7637006,13.302882 10.7083522,13.6560828 C10.6945051,13.7599959 10.7014087,13.8776763 10.7083522,13.9815894 C10.7706441,14.43168 11.0268753,14.597925 11.4562551,14.4871083 C11.5878225,14.4525105 11.7055827,14.3763315 11.8302465,14.3139996 C11.9479668,14.2585713 12.0656871,14.1824322 12.190311,14.1339474 C12.4048812,14.0507051 12.5780298,14.189216 12.5295849,14.4108095 C12.5087943,14.5354733 12.4326153,14.6670407 12.3425892,14.7640103 C11.795529,15.3249575 11.1376122,15.6573278 10.348168,15.6712148 C9.99496716,15.6781583 9.62795917,15.6919655 9.28860547,15.6157865 C8.38834449,15.4287908 7.8758821,14.6600972 8.0213365,13.7598762 C8.1944452,12.6726195 8.38834449,11.5992498 8.57534019,10.5189366 C8.63076849,10.19343 8.70000399,9.86796334 8.74154529,9.54245675 C8.76233589,9.42473645 8.74848879,9.29316905 8.72769819,9.18239226 C8.68615689,8.96079877 8.5753801,8.86382917 8.3606902,8.82919147 C8.2429699,8.81534437 8.1252097,8.82224796 8.01443291,8.79459367 C7.87592201,8.75305237 7.71666041,8.70456757 7.60584372,8.62148498 C7.41194442,8.47603058 7.45352562,8.19214509 7.67511912,8.09517549 C7.78589591,8.03974719 7.92440681,8.01209289 8.04907061,8.01209289 C8.5407823,8.00514939 9.03935769,8.01209289 9.52412588,8.01209289 Z M10.3827657,4.32788657 C11.2207347,4.32788657 11.8786116,4.98576345 11.8786116,5.83063603 C11.8855152,6.65471801 11.2276383,7.3333855 10.4104999,7.3472326 C9.58641787,7.3541362 8.90771048,6.67546871 8.89390329,5.83753963 C8.88695978,5.01345765 9.55868377,4.33479016 10.3827657,4.32788657 Z" id="path-1"></path>
    </defs>
    <g id="Kamran-launch-designs" stroke="none" stroke-width="1" fill="none" fill-rule="evenodd">
        <g id="OCP_Buyer_Supplier-will-arrange" transform="translate(-1046.000000, -562.000000)">
            <g id="Help" transform="translate(1020.000000, 385.000000)">
                <g id="Group-4" transform="translate(24.000000, 151.211618)">
                    <g id="Icon-/-solid-/-l-/-faq" transform="translate(0.000000, 24.000000)">
                        <g id="colour-/-red" transform="translate(2.000000, 2.000000)">
                            <mask id="mask-2" fill="white">
                                <use xlink:href="#path-1"></use>
                            </mask>
                            <use id="Mask" fill="#FFB333" fill-rule="nonzero" xlink:href="#path-1"></use>
                            <g id="colour-/-body-grey" mask="url(#mask-2)" fill="#404040">
                                <g transform="translate(-2.000000, -2.000000)" id="Background">
                                    <polygon points="0 0 24 0 24 24 0 24"></polygon>
                                </g>
                            </g>
                        </g>
                    </g>
                </g>
            </g>
        </g>
    </g>
</svg>