<svg xmlns="http://www.w3.org/2000/svg" width="16" height="16" viewBox="0 0 16 16">
    <path fill="#404040" stroke="#404040" stroke-width=".3" d="M3.098 15.787h-.06c-.571-.003-.922-.153-1.072-.457-.054-.11-.152-.399.097-.727l.795-1.061c.095-.122.149-.197.17-.254C1.72 11.925 1 10.144 1 8.258 1 4.255 4.256 1 8.257 1c4 0 7.253 3.256 7.253 7.257 0 4-3.253 7.253-7.253 7.253-.785 0-1.556-.126-2.292-.373-.034.007-.055.016-.066.023-.29.136-.549.238-.822.33-.095.03-.184.052-.272.075l-.123.033c-.462.126-.994.19-1.584.19zm5.16-13.763c-3.438 0-6.234 2.796-6.234 6.233 0 1.659.648 3.223 1.825 4.405l.062.063.037.079c.118.248.138.522.056.793-.08.232-.2.396-.327.56l-.45.605c.446-.008.844-.059 1.184-.152l.138-.036c.07-.018.141-.036.212-.059.229-.076.452-.165.673-.268.127-.071.307-.123.52-.141l.16-.002.083.03c.659.233 1.352.352 2.06.352 3.435 0 6.229-2.794 6.229-6.228 0-3.438-2.794-6.234-6.229-6.234z"/>
</svg>
