<?xml version="1.0" encoding="UTF-8"?>
<svg width="82px" height="81px" viewBox="0 0 82 81" version="1.1" xmlns="http://www.w3.org/2000/svg" xmlns:xlink="http://www.w3.org/1999/xlink">
    <title>Group 7</title>
    <g id="Final-phase1" stroke="none" stroke-width="1" fill="none" fill-rule="evenodd">
        <g id="Buyer-central---Addresses" transform="translate(-1323.000000, -256.000000)">
            <g id="Group-34" transform="translate(1149.000000, 232.000000)">
                <g id="Group-7" transform="translate(174.000000, 24.000000)">
                    <polyline id="Stroke-1" stroke="#E85218" stroke-width="3" points="57.6089673 42.5833316 79.6984328 42.5833316 79.6984328 77.4196575 71.1985885 71.3119253 45.7878983 71.3119253 45.7878983 46.3587338"></polyline>
                    <path d="M0,0 L0,64.7314997 L14.2555267,49.8258433 L58.8147379,49.825013 L58.8147379,0 L0,0 Z M5.11551635,5.11468604 L53.7000519,5.11468604 L53.7000519,44.7103269 L14.2555267,44.7111572 L12.0693306,44.7111572 L10.5590036,46.2912299 L5.11551635,51.983809 L5.11551635,5.11468604 Z" id="Fill-3" fill="#00394C"></path>
                    <polygon id="Fill-4" fill="#00394C" points="42.2077011 23.8487182 29.4068708 36.6495485 16.6068708 23.8487182 29.4068708 11.0478879"></polygon>
                    <path d="M58.7238194,56.9482927 C58.7238194,54.728054 60.5230929,52.9287805 62.7425013,52.9287805 C64.9619097,52.9287805 66.7611832,54.728054 66.7611832,56.9482927 C66.7611832,59.1677011 64.9619097,60.9669746 62.7425013,60.9669746 C60.5230929,60.9669746 58.7238194,59.1677011 58.7238194,56.9482927" id="Fill-5" fill="#E85218"></path>
                </g>
            </g>
        </g>
    </g>
</svg>