<svg xmlns="http://www.w3.org/2000/svg" width="60" height="64">
  <g fill-rule="nonzero" fill="none">
    <path fill="#E95317" d="M44.5 25c-3.038 0-5.5-2.239-5.5-5 0-2.762 2.462-5 5.5-5s5.5 2.238 5.5 5c0 2.761-2.462 5-5.5 5"/>
    <path fill="#00394C" d="M30.357 12.062l6.495-6.43 6.496 6.43-6.496 6.43z"/>
    <g fill="#00394C">
      <path d="M43.938 61.398a1.09 1.09 0 01-1.095-1.084v-7.079c-.004-2.516-2.064-4.554-4.605-4.559H9.486c-3.648 0-6.616 2.368-6.616 5.274v6.364c0 .599-.49 1.084-1.094 1.084a1.09 1.09 0 01-1.095-1.084v-6.34c0-4.102 3.949-7.44 8.805-7.44h28.752c3.75.004 6.79 3.012 6.794 6.725v7.055c.003.289-.112.565-.318.769a1.09 1.09 0 01-.776.315zM55.654 1.602H27.39c-2.022.004-3.66 1.626-3.665 3.628v15.587c.74.008 1.475.108 2.19.297V5.23a1.474 1.474 0 011.475-1.46h28.265c.815 0 1.476.653 1.476 1.46v20.066c0 .806-.661 1.46-1.476 1.46H44.432l-4.33 4.487v-4.462h-7.986c.248.7.406 1.428.47 2.167h5.328v7.729l7.491-7.73h10.25c2.021-.004 3.66-1.625 3.664-3.627V5.254a3.623 3.623 0 00-1.067-2.579 3.696 3.696 0 00-2.598-1.073z"/>
      <path d="M23.627 43.074c-5.562-.009-10.072-4.463-10.095-9.969v-3.387c0-5.519 4.52-9.993 10.095-9.993 5.575 0 10.095 4.474 10.095 9.993v3.387c-.018 5.508-4.531 9.965-10.095 9.969zm0-21.181c-4.364.004-7.9 3.505-7.905 7.825v3.387c0 4.322 3.539 7.826 7.905 7.826s7.905-3.504 7.905-7.826v-3.387a7.791 7.791 0 00-2.309-5.547 7.96 7.96 0 00-5.596-2.303v.024z"/>
    </g>
  </g>
</svg>