<svg xmlns="http://www.w3.org/2000/svg" width="60" height="44">
  <g fill-rule="nonzero" fill="none">
    <path fill="#00394C" d="M57.074 43.56H2.926C1.354 43.596.046 42.385 0 40.85V3.27C.046 1.734 1.354.523 2.926.56h54.148C58.646.523 59.954 1.734 60 3.27v37.428c0 1.58-1.31 2.862-2.926 2.862zM2.926 2.67a.71.71 0 00-.776.6v37.542a.71.71 0 00.776.6h54.187a.784.784 0 00.543-.22.752.752 0 00.226-.532V3.27a.712.712 0 00-.776-.6H2.926z"/>
    <path fill="#00394C" d="M53.23 31.56H34.77c-.425 0-.77-.448-.77-1s.345-1 .77-1h18.46c.425 0 .77.448.77 1s-.345 1-.77 1zm0 6H34.77c-.425 0-.77-.448-.77-1s.345-1 .77-1h18.46c.425 0 .77.448.77 1s-.345 1-.77 1z"/>
    <path fill="#E95317" d="M27.5 23.56a4.5 4.5 0 110-9 4.5 4.5 0 010 9"/>
    <path fill="#00394C" d="M13.363 11.77l6.387-6.373 6.385 6.376-6.387 6.374zM6.334 39.734V36.62c0-1.719 1.556-3.115 3.524-3.115h13.12c.692 0 1.355.292 1.843.81a2.86 2.86 0 01.763 1.958v3.46m-9.628-17.669c-2.178 0-3.944 1.875-3.944 4.188v1.586c.094 2.243 1.833 4.01 3.947 4.01s3.854-1.767 3.948-4.01v-1.586a4.323 4.323 0 00-1.158-2.964 3.828 3.828 0 00-2.793-1.224M32.398 33.06h-2.94c-.501-.01-.903-.444-.902-.976v-3.09c0-.538.41-.974.917-.974h2.94c.501.009.903.443.903.975v3.122c-.017.526-.423.942-.918.942zm-2.94-4.404a.283.283 0 00-.209.087.316.316 0 00-.087.219v3.122a.32.32 0 00.087.222c.055.06.13.092.209.092h2.94a.28.28 0 00.206-.092.322.322 0 00.082-.222v-3.09a.31.31 0 00-.082-.218.271.271 0 00-.206-.087l-2.94-.033zm2.94 11.309h-2.94c-.501-.009-.903-.443-.902-.975v-3.13c0-.259.096-.507.268-.69a.891.891 0 01.65-.285h2.94c.243 0 .476.102.648.285.172.183.27.431.27.69v3.13c0 .262-.1.512-.275.696a.895.895 0 01-.66.28zm-2.94-4.411a.305.305 0 00-.296.306v3.13c.004.17.136.306.296.306h2.94c.159 0 .288-.137.288-.306v-3.13c0-.081-.03-.16-.085-.217a.28.28 0 00-.203-.09h-2.94z"/>
    <path fill="#E95317" d="M42.198 18.56L38.3 15.631a.728.728 0 01-.29-.705.768.768 0 01.513-.585.862.862 0 01.803.119l2.62 1.977 5.6-6.59a.858.858 0 011.144-.124.72.72 0 01.135 1.061l-6.627 7.776z"/>
  </g>
</svg>