<svg xmlns="http://www.w3.org/2000/svg" width="60" height="67">
  <g fill-rule="nonzero" fill="none">
    <g fill="#00394C">
      <path d="M1.85 64.81a1.42 1.42 0 01-1.039-.396 1.74 1.74 0 01-.235-1.958l13.387-34.965a.887.887 0 011.529-.236c.2.252.25.593.135.894L2.36 62.82l33.42-13.987c.296-.163.658-.14.933.057a.902.902 0 01-.252 1.589L2.76 64.603a2.382 2.382 0 01-.91.206z"/>
      <path d="M35.18 50.576a12.8 12.8 0 01-3.57-.567 26.996 26.996 0 01-10.239-6.228 27.316 27.316 0 01-6.945-9.873c-1.33-3.537-1.136-6.5.544-8.342 1.68-1.843 4.405-2.246 7.83-1.3a.895.895 0 01.681.635.915.915 0 01-.24.907.883.883 0 01-.904.202c-2.75-.757-4.868-.477-6.053.823-1.185 1.3-1.258 3.653-.195 6.475a25.554 25.554 0 006.491 9.165 25.025 25.025 0 009.534 5.85c2.847.822 5.16.591 6.344-.7 1.81-1.983.95-6.335-2.142-10.835a.916.916 0 01-.082-.91.894.894 0 01.741-.52.892.892 0 01.81.401c3.684 5.323 4.446 10.334 1.972 13.04a5.98 5.98 0 01-4.576 1.777z"/>
      <path d="M19.854 31.9a.661.661 0 01-.6-.378.671.671 0 01.316-.905c.243-.123 5.623-2.846 6.361-11.78a.651.651 0 01.227-.461.634.634 0 01.487-.149c.36.031.628.35.6.716-.81 9.758-6.856 12.76-7.115 12.884a.668.668 0 01-.276.074zm4.3 3.728a.657.657 0 01-.608-.42.678.678 0 01.357-.872c.097-.041 9.59-4.196 11.57-20.255a.66.66 0 01.734-.58c.36.045.617.379.572.745-2.077 16.89-11.96 21.16-12.373 21.308a.698.698 0 01-.252.074zm12.154-24.961a.67.67 0 01-.657-.675c0-3.01-2.783-7.56-2.807-7.61a.674.674 0 01-.05-.685c.11-.22.33-.361.574-.366a.655.655 0 01.587.344c.13.197 3.019 4.936 3.019 8.317 0 .18-.07.35-.195.477s-.294.198-.47.198zM29.209 40.63a.628.628 0 01-.373-.124.664.664 0 01-.272-.43.68.68 0 01.11-.5c3.672-4.83 9.352-7.651 15.367-7.634.234 0 .451.127.569.333a.678.678 0 010 .667.658.658 0 01-.57.333c-5.574.032-10.831 2.632-14.287 7.067a.659.659 0 01-.544.288zm14.767 13.41c-1.424-.005-2.575-1.178-2.572-2.622.003-1.444 1.159-2.612 2.582-2.61 1.424.001 2.578 1.172 2.578 2.616 0 .695-.273 1.362-.759 1.853a2.565 2.565 0 01-1.83.763zm0-4.229c-.897 0-1.623.737-1.623 1.646 0 .908.726 1.645 1.623 1.645.896 0 1.622-.737 1.622-1.645 0-.91-.726-1.646-1.622-1.646zM26.434 15.216a2.588 2.588 0 01-2.397-1.614 2.652 2.652 0 01.556-2.863 2.565 2.565 0 012.822-.573 2.627 2.627 0 011.6 2.426c0 1.446-1.155 2.62-2.58 2.624zm0-4.237c-.896 0-1.623.737-1.623 1.646 0 .909.727 1.645 1.623 1.645s1.623-.736 1.623-1.645-.727-1.646-1.623-1.646z"/>
    </g>
    <path fill="#00394C" d="M51.884 46.99l-2.667-1.503-2.675 1.502.576-3.117-2.198-2.149 2.955-.39 1.311-2.9 1.304 2.9 2.986.39-2.19 2.149.598 3.117zm-4.971-4.606l1.197 1.172-.303 1.645 1.41-.803 1.402.803-.303-1.645 1.197-1.172-1.63-.21-.666-1.502-.675 1.502-1.63.21zM16.537 22.39l-2.652-1.505-2.644 1.505.563-3.123-2.178-2.144 3.004-.392 1.293-2.897 1.3 2.897 2.959.392-2.179 2.152.534 3.115zm-2.652-2.596l1.39.805-.293-1.64 1.187-1.174-1.615-.218-.669-1.505-.669 1.505-1.607.218 1.187 1.174-.3 1.64 1.389-.805zM29.08 29.63c-.163 0-.324-.039-.465-.111l-.817-.445c-.457-.259-1.085-.614-1.297-.74-.376-.238-.503-.689-.298-1.06.205-.372.679-.55 1.115-.42.26.125.759.406 1.436.791l.727.415c.436.237.582.749.326 1.148a.96.96 0 01-.726.422zm5.518 3.998a.995.995 0 01-.63-.222l-.513-.437-1.429-1.207a.783.783 0 01-.09-1.177 1 1 0 011.306-.082c.164.126.93.785 1.478 1.244l.506.43c.306.229.416.61.273.945-.142.336-.505.552-.902.536v-.03z"/>
    <path fill="#E95317" d="M51.411 35.605c-1.925 0-3.66-1.052-4.397-2.666-.736-1.614-.327-3.472 1.035-4.706 1.363-1.234 3.411-1.601 5.189-.93 1.778.67 2.935 2.246 2.932 3.993 0 1.144-.502 2.241-1.394 3.05-.893.808-2.103 1.261-3.365 1.26"/>
    <path fill="#00394C" d="M37.114 23.06l6.231-6.276 6.23 6.278-6.232 6.276z"/>
    <g fill="#00394C">
      <path d="M57.744 37.497a.632.632 0 01-.313-.081 45.088 45.088 0 00-1.566-.755.657.657 0 01-.33-.876.676.676 0 01.89-.325c.528.244 1.072.503 1.648.812a.662.662 0 01.335.74.677.677 0 01-.64.51l-.024-.025zM17.373 58.479a.944.944 0 01-.626-.244C6.364 48.499 9.413 39.16 9.546 38.763a.908.908 0 011.145-.56c.23.072.42.232.527.445a.866.866 0 01.042.682c-.124.366-2.76 8.698 6.74 17.599a.881.881 0 01.001 1.266.954.954 0 01-.627.284z"/>
    </g>
  </g>
</svg>