<svg xmlns="http://www.w3.org/2000/svg" width="50" height="53">
  <g fill-rule="nonzero" fill="none">
    <path fill="#00394C" d="M37.69 34.015v16.201a.953.953 0 01-.949.95H2.681a.953.953 0 01-.949-.95V2.668c0-.521.424-.945.95-.948h34.06a.952.952 0 01.949.948V22.52l1.732-1.764V2.668A2.68 2.68 0 0036.741 0H2.681A2.678 2.678 0 000 2.668v47.548a2.68 2.68 0 002.682 2.669h34.06a2.68 2.68 0 002.681-2.669V32.244l-1.732 1.77z"/>
    <path fill="#00394C" d="M26.979 28.698H7.59c-.476 0-.86-.39-.86-.872s.384-.872.86-.872h19.388c.475 0 .86.39.86.872s-.385.872-.86.872zm-6.796 6.796H7.59c-.476 0-.86-.39-.86-.872s.384-.873.86-.873h12.592c.475 0 .86.39.86.873a.866.866 0 01-.86.872zm-3.937 6.795H7.591c-.476 0-.86-.39-.86-.872s.384-.872.86-.872h8.655c.476 0 .86.39.86.872s-.384.872-.86.872zm5.039 4.826a1.153 1.153 0 01-.835-.336 1.305 1.305 0 01-.286-1.292l1.72-6.324a4.465 4.465 0 01.955-1.686l19.846-20.672c.298-.3.702-.465 1.121-.459.42 0 .827.16 1.134.453l4.599 4.522a1.63 1.63 0 010 2.273L29.877 44.176a4.302 4.302 0 01-1.625 1.007l-6.515 1.874c-.147.04-.3.06-.452.058zm2.152-7.513l-1.554 5.71 5.898-1.698c.35-.12.671-.314.943-.569L48.418 22.47l-4.599-4.521L23.991 38.62a2.982 2.982 0 00-.554.982z"/>
    <path fill="#E95317" d="M27.818 39.423a.782.782 0 01-.726-.497.842.842 0 01.165-.891l16.538-18.052a.77.77 0 01.778-.287c.29.067.52.297.594.598.075.3-.02.618-.243.822L28.404 39.17a.752.752 0 01-.586.254zm-4.683-17.805c-2.156 0-3.904-1.826-3.904-4.078 0-2.252 1.748-4.078 3.904-4.078 2.156 0 3.904 1.826 3.904 4.078 0 2.252-1.748 4.078-3.904 4.078"/>
    <path fill="#00394C" d="M11.575 11.518l5.212-5.244 5.211 5.245-5.211 5.245z"/>
  </g>
</svg>