<svg xmlns="http://www.w3.org/2000/svg" width="49" height="60">
  <g fill-rule="nonzero" fill="none">
    <path fill="#E95317" d="M20.567 24.118a4.712 4.712 0 01-4.356-2.89 4.642 4.642 0 011.035-5.094 4.74 4.74 0 015.144-.994 4.671 4.671 0 012.888 4.337c0 2.58-2.11 4.67-4.711 4.67"/>
    <path fill="#00394C" d="M40.664 55.543a.744.744 0 01-.62.74H3.28a.742.742 0 01-.611-.74V4.126a.74.74 0 01.61-.739h29.662l-.507-1.995H3.28C1.79 1.44.618 2.67.656 4.148v51.395C.618 57.021 1.79 58.251 3.28 58.3h36.765c1.493-.045 2.669-1.277 2.631-2.757V50.71c-.65.262-1.324.46-2.012.59v4.243zm.052-43.309l-.038-.045v18.625c.69.13 1.364.329 2.013.591V12.492l-1.975-.258z"/>
    <path fill="#00394C" d="M6.674 11.889l6.101-6.12 6.103 6.12-6.102 6.12z"/>
    <path fill="#E95317" d="M38.432 52.882c-4.275 0-8.129-2.809-9.764-7.117-1.636-4.308-.732-9.267 2.29-12.564 3.023-3.298 7.569-4.284 11.518-2.5C46.426 32.486 49 36.69 49 41.353c-.004 6.366-4.733 11.525-10.568 11.53zm0-21.046c-3.529 0-6.71 2.319-8.06 5.875-1.35 3.556-.604 7.65 1.89 10.372 2.496 2.722 6.248 3.536 9.508 2.063 3.26-1.473 5.385-4.944 5.385-8.793-.003-5.254-3.907-9.513-8.723-9.517z"/>
    <path fill="#00394C" d="M26.865 32.706H8.684c-.551 0-.998-.43-.998-.96 0-.532.447-.962.998-.962h18.181c.551 0 .998.43.998.961 0 .53-.447.96-.998.96zm-7.689 6.725H6.765c-.552 0-1-.43-1-.96 0-.531.448-.961 1-.961h12.411c.553 0 1 .43 1 .96 0 .531-.447.961-1 .961zm0 7.687H6.765c-.552 0-1-.43-1-.961 0-.53.448-.96 1-.96h12.411c.553 0 1 .43 1 .96s-.447.96-1 .96z"/>
    <path fill="#E95317" d="M37.47 47.118c-.528-.005-.956-.485-.96-1.08v-9.37c0-.597.43-1.08.96-1.08.531 0 .961.483.961 1.08v9.37c0 .596-.43 1.08-.96 1.08z"/>
    <path fill="#E95317" d="M34.673 38.47c-.439-.011-.825-.232-.978-.558-.153-.326-.042-.692.28-.928l4.565-3.317 4.34 3.177c.444.32.476.863.073 1.214-.403.35-1.09.376-1.533.057l-2.912-2.148-3.097 2.256c-.199.152-.462.24-.738.248z"/>
    <path fill="#00394C" d="M42.74 11.789c.877.942.559 1.701-.713 1.701H34.15c-1.285 0-2.327-1.063-2.327-2.374l-.116-8.918c0-1.298.675-1.583 1.55-.65l9.484 10.24z"/>
  </g>
</svg>