<?xml version="1.0" encoding="UTF-8"?>
<svg width="84px" height="84px" viewBox="0 0 84 84" version="1.1" xmlns="http://www.w3.org/2000/svg" xmlns:xlink="http://www.w3.org/1999/xlink">
    <title>Tick_Icon</title>
    <g id="Phase-1" stroke="none" stroke-width="1" fill="none" fill-rule="evenodd">
        <g id="order-confirmed" transform="translate(-758.000000, -213.000000)">
            <g id="Group" transform="translate(561.000000, 213.000000)">
                <g id="Tick_Icon" transform="translate(197.000000, 0.000000)">
                    <circle id="Oval" fill="#45BF88" cx="42" cy="42" r="42"></circle>
                    <path d="M27.7437323,43.0541192 C28.556088,44.0968443 29.3684437,45.1456319 30.1807993,46.188357 C31.4720811,47.8555048 32.7694252,49.5226526 34.0607069,51.1898004 C34.3577624,51.5717289 34.6548178,51.9536573 34.9518732,52.341648 C35.1640557,52.614454 35.6914806,52.802387 36.0249102,52.7842 C36.4432127,52.7660129 36.7827046,52.614454 37.0979471,52.341648 C37.7829933,51.7354125 38.4741019,51.1291769 39.1591481,50.5229413 C40.8081088,49.067976 42.4570695,47.6069483 44.1060303,46.1519829 C46.0944829,44.3938998 48.0768732,42.641879 50.0653259,40.8837958 C51.7809725,39.3682069 53.4966192,37.8465556 55.2183282,36.3309667 C56.0549333,35.5913593 56.9218501,34.8760014 57.7342058,34.1060822 C57.7463305,34.0939575 57.7584552,34.0878951 57.7705799,34.0757704 C58.3646908,33.5483455 58.3465037,32.4631838 57.7705799,31.9296965 C57.1340326,31.3477104 56.2610534,31.3658974 55.624506,31.9296965 C54.9394598,32.5359321 54.2483513,33.1421676 53.5633051,33.7484032 C51.9143444,35.2033686 50.2653836,36.6643963 48.6164229,38.1193616 C46.6279702,39.8774448 44.6455799,41.6294656 42.6571273,43.3875487 C40.9414806,44.9031376 39.225834,46.4247889 37.504125,47.9403778 C36.6675199,48.6799852 35.800603,49.3953432 34.9882474,50.1652623 C34.9761226,50.177387 34.9639979,50.1834494 34.9518732,50.1955741 C35.6672312,50.1955741 36.3825892,50.1955741 37.0979471,50.1955741 C36.2855915,49.1528489 35.4732358,48.1040614 34.6608802,47.0613362 C33.3695984,45.3941884 32.0722543,43.7270406 30.7809725,42.0598928 C30.4839171,41.6779644 30.1868617,41.296036 29.8898062,40.9080452 C29.6715614,40.6231145 29.1562612,40.4654933 28.8167693,40.4654933 C28.4469656,40.4654933 27.9983513,40.6291769 27.7437323,40.9080452 C27.4769887,41.1990383 27.2829933,41.5749044 27.3011804,41.9810822 C27.3193675,42.4115095 27.4830511,42.7206896 27.7437323,43.0541192 L27.7437323,43.0541192 Z" id="Path" fill="#FFFFFF" fill-rule="nonzero"></path>
                </g>
            </g>
        </g>
    </g>
</svg>