<svg width="168" height="168" viewBox="0 0 168 168" fill="none" xmlns="http://www.w3.org/2000/svg">
<path d="M90.7206 142.7H60.8838C59.5471 142.7 58.2651 142.169 57.3199 141.224C56.3747 140.278 55.8438 138.996 55.8438 137.66V75.4326C55.9449 73.1122 56.639 70.8565 57.8597 68.8806L68.8805 51.9462C69.637 50.613 70.0794 49.1249 70.1741 47.595V40.875H74.2061V47.595C74.1174 49.9051 73.4409 52.1544 72.2405 54.1302L61.2029 71.0982C60.4395 72.4223 59.9964 73.9067 59.9093 75.4326V137.761C59.9093 138.01 60.0085 138.249 60.1849 138.426C60.3613 138.602 60.6006 138.701 60.8501 138.701H90.7206V142.7Z" fill="#033045"/>
<path d="M90.2504 41.7482H72.3584C71.0217 41.7482 69.7397 41.2172 68.7945 40.272C67.8494 39.3268 67.3184 38.0449 67.3184 36.7082V30.2402C67.3184 28.9035 67.8494 27.6216 68.7945 26.6764C69.7397 25.7312 71.0217 25.2002 72.3584 25.2002H90.2504C91.5871 25.2002 92.869 25.7312 93.8142 26.6764C94.7594 27.6216 95.2904 28.9035 95.2904 30.2402V36.7418C95.2815 38.0727 94.7466 39.346 93.8024 40.2839C92.8581 41.2218 91.5812 41.7482 90.2504 41.7482ZM72.3584 29.333C72.2334 29.3308 72.1093 29.3535 71.9932 29.3997C71.8771 29.446 71.7714 29.515 71.6822 29.6025C71.5931 29.6901 71.5223 29.7946 71.4739 29.9098C71.4256 30.0251 71.4007 30.1488 71.4008 30.2738V36.7754C71.4007 36.9004 71.4256 37.0241 71.4739 37.1393C71.5223 37.2546 71.5931 37.3591 71.6822 37.4467C71.7714 37.5342 71.8771 37.6032 71.9932 37.6495C72.1093 37.6957 72.2334 37.7184 72.3584 37.7162H90.2504C90.5014 37.7162 90.7425 37.6177 90.9216 37.4417C91.1007 37.2657 91.2036 37.0264 91.208 36.7754V30.2402C91.2036 29.9891 91.1007 29.7499 90.9216 29.5739C90.7425 29.3979 90.5014 29.2994 90.2504 29.2994L72.3584 29.333Z" fill="#033045"/>
<path d="M98.2972 66.4268L89.5948 53.0708C88.8256 51.8013 88.3973 50.3545 88.3516 48.8708V40.79H92.4004V48.8708C92.4514 49.5716 92.6519 50.2532 92.9884 50.87L101.691 64.226L98.2972 66.4268Z" fill="#033045"/>
<path d="M59.439 122.17C58.9339 122.124 58.4643 121.891 58.1224 121.516C57.7804 121.142 57.5908 120.653 57.5908 120.145C57.5908 119.638 57.7804 119.149 58.1224 118.775C58.4643 118.4 58.9339 118.167 59.439 118.121H89.9142C90.4489 118.121 90.9617 118.333 91.3397 118.712C91.7178 119.09 91.9302 119.602 91.9302 120.137C91.9302 120.672 91.7178 121.185 91.3397 121.563C90.9617 121.941 90.4489 122.153 89.9142 122.153L59.4558 122.254L59.439 122.17Z" fill="#033045"/>
<path d="M59.4379 93.3572C58.9032 93.3572 58.3904 93.1448 58.0123 92.7667C57.6343 92.3887 57.4219 91.8759 57.4219 91.3412C57.4219 90.8065 57.6343 90.2937 58.0123 89.9157C58.3904 89.5376 58.9032 89.3252 59.4379 89.3252H89.8963C90.4014 89.3713 90.871 89.6045 91.2129 89.979C91.5549 90.3536 91.7445 90.8424 91.7445 91.3496C91.7445 91.8568 91.5549 92.3456 91.2129 92.7202C90.871 93.0947 90.4014 93.3279 89.8963 93.374L59.4379 93.3572Z" fill="#033045"/>
<path d="M82.0514 111.082H65.2514C64.7167 111.082 64.2039 110.869 63.8258 110.491C63.4477 110.113 63.2354 109.6 63.2354 109.066C63.2354 108.531 63.4477 108.018 63.8258 107.64C64.2039 107.262 64.7167 107.05 65.2514 107.05H82.0514C82.586 107.05 83.0988 107.262 83.4769 107.64C83.855 108.018 84.0674 108.531 84.0674 109.066C84.0674 109.6 83.855 110.113 83.4769 110.491C83.0988 110.869 82.586 111.082 82.0514 111.082Z" fill="#E84E0F"/>
<path d="M144.716 142.699H92.8878C91.6594 142.695 90.4826 142.205 89.614 141.336C88.7453 140.468 88.2554 139.291 88.251 138.063V82.6225C88.3335 80.5459 88.9094 78.5188 89.931 76.7089L99.5238 60.7825C100.151 59.598 100.512 58.2908 100.582 56.9521V49.1569C100.587 48.1781 100.977 47.2405 101.67 46.5484C102.362 45.8562 103.299 45.4654 104.278 45.4609H135.039C136.266 45.4654 137.441 45.9559 138.307 46.825C139.173 47.694 139.659 48.8709 139.659 50.0977V58.3633C139.706 59.1358 139.894 59.8931 140.213 60.5977L147.925 75.3817C148.8 77.2228 149.286 79.2244 149.353 81.2617V138.063C149.348 139.291 148.858 140.468 147.99 141.336C147.121 142.205 145.944 142.695 144.716 142.699ZM93.3414 78.7417C92.7139 79.9263 92.3527 81.2335 92.283 82.5721V138.012C92.283 138.173 92.3467 138.326 92.4601 138.44C92.5735 138.553 92.7274 138.617 92.8878 138.617H144.716C144.876 138.617 145.03 138.553 145.143 138.44C145.257 138.326 145.321 138.173 145.321 138.012V81.2617C145.256 79.8841 144.925 78.532 144.346 77.2801L136.635 62.5129C136.018 61.2255 135.675 59.8239 135.627 58.3969V50.0977C135.627 49.9402 135.566 49.7889 135.456 49.6759C135.346 49.563 135.196 49.4973 135.039 49.4929H104.581V56.9017C104.491 58.9773 103.916 61.0028 102.901 62.8153L93.3414 78.7417Z" fill="#033045"/>
<path d="M128.234 61.8074H102.564C102.029 61.8074 101.516 61.595 101.138 61.2169C100.76 60.8389 100.548 60.3261 100.548 59.7914C100.548 59.2567 100.76 58.7439 101.138 58.3659C101.516 57.9878 102.029 57.7754 102.564 57.7754H128.234C128.769 57.7754 129.282 57.9878 129.66 58.3659C130.038 58.7439 130.25 59.2567 130.25 59.7914C130.25 60.3261 130.038 60.8389 129.66 61.2169C129.282 61.595 128.769 61.8074 128.234 61.8074Z" fill="#033045"/>
<path d="M138.6 82.3201H91.4252C90.8905 82.3201 90.3777 82.1077 89.9997 81.7296C89.6216 81.3515 89.4092 80.8388 89.4092 80.3041C89.4092 79.7694 89.6216 79.2566 89.9997 78.8786C90.3777 78.5005 90.8905 78.2881 91.4252 78.2881H138.6C139.134 78.2881 139.647 78.5005 140.025 78.8786C140.403 79.2566 140.616 79.7694 140.616 80.3041C140.616 80.8388 140.403 81.3515 140.025 81.7296C139.647 82.1077 139.134 82.3201 138.6 82.3201Z" fill="#033045"/>
<path d="M127.965 82.2188C127.622 82.2045 127.288 82.1026 126.995 81.9229C126.702 81.7432 126.46 81.4916 126.292 81.192C126.123 80.8923 126.034 80.5547 126.033 80.211C126.032 79.8673 126.119 79.5291 126.285 79.2284L136.416 60.8996C136.694 60.469 137.126 60.1606 137.623 60.037C138.121 59.9134 138.647 59.984 139.094 60.2344C139.541 60.4848 139.876 60.8962 140.031 61.3849C140.186 61.8736 140.149 62.4029 139.927 62.8652L129.729 81.194C129.553 81.5063 129.297 81.7658 128.986 81.946C128.676 82.1261 128.324 82.2203 127.965 82.2188Z" fill="#033045"/>
<path d="M67.3515 142.699H23.5203C22.2371 142.699 21.0064 142.19 20.099 141.282C19.1917 140.375 18.6819 139.144 18.6819 137.861V109.066C18.6753 108.425 18.7954 107.79 19.0353 107.196C19.2753 106.602 19.6304 106.062 20.0801 105.606C20.5298 105.15 21.0653 104.787 21.6558 104.539C22.2462 104.291 22.8799 104.162 23.5203 104.16H56.5155V108.209H23.5203C23.4138 108.207 23.3079 108.226 23.209 108.266C23.1101 108.305 23.0203 108.365 22.945 108.44C22.8696 108.515 22.8103 108.605 22.7706 108.704C22.7309 108.803 22.7116 108.909 22.7139 109.015V137.861C22.7139 137.967 22.7348 138.072 22.7753 138.17C22.8158 138.267 22.8752 138.356 22.9501 138.431C23.025 138.506 23.1139 138.565 23.2117 138.606C23.3095 138.646 23.4144 138.667 23.5203 138.667H67.3515V142.699Z" fill="#033045"/>
<path d="M58.4303 118.49H19.5215V122.522H58.4303V118.49Z" fill="#033045"/>
<path d="M127.781 128.738C125.788 128.738 123.839 128.147 122.181 127.039C120.523 125.932 119.231 124.357 118.468 122.516C117.706 120.674 117.506 118.647 117.895 116.692C118.284 114.736 119.244 112.94 120.654 111.53C122.063 110.121 123.859 109.161 125.815 108.772C127.77 108.383 129.797 108.582 131.639 109.345C133.481 110.108 135.055 111.4 136.162 113.058C137.27 114.716 137.861 116.664 137.861 118.658C137.861 121.332 136.799 123.895 134.909 125.786C133.018 127.676 130.455 128.738 127.781 128.738Z" fill="#E84E0F"/>
<path d="M111.346 88.9426L98.0771 102.212L111.346 115.481L124.616 102.212L111.346 88.9426Z" fill="#033045"/>
</svg>
