<svg xmlns="http://www.w3.org/2000/svg" xmlns:xlink="http://www.w3.org/1999/xlink" width="20" height="20" viewBox="0 0 20 20">
    <defs>
        <path id="9ev7rtebya" d="M13.758 6.242c.323.322.323.845 0 1.167L11.168 10l2.59 2.59c.323.323.323.846 0 1.168-.322.323-.845.323-1.167 0L10 11.168l-2.59 2.59c-.323.323-.846.323-1.168 0-.323-.322-.323-.845 0-1.167L8.832 10l-2.59-2.59c-.323-.323-.323-.846 0-1.168.322-.323.845-.323 1.167 0L10 8.832l2.59-2.59c.323-.323.846-.323 1.168 0z"/>
    </defs>
    <g fill="none" fill-rule="evenodd">
        <circle cx="10" cy="10" r="9.5" fill="#D9D9D9" stroke="#FFF"/>
        <use fill="#404040" xlink:href="#9ev7rtebya"/>
    </g>
</svg>
