<svg width="125" height="125" viewBox="0 0 125 125" fill="none" xmlns="http://www.w3.org/2000/svg">
<g clip-path="url(#clip0_9298_232588)">
<rect width="125" height="125" rx="12" fill="#DFE2E5"/>
<rect width="200" height="200" transform="translate(-37.5 -37.5)" fill="#F2F2F2"/>
<path fill-rule="evenodd" clip-rule="evenodd" d="M68.2279 18.9008C64.6825 16.856 60.3175 16.856 56.7721 18.9008L27.6021 35.736C24.058 37.7857 21.875 41.5663 21.875 45.662V79.3411C21.875 83.4357 24.0583 87.2186 27.6054 89.2649L56.7721 106.102C60.3175 108.147 64.6836 108.146 68.229 106.102L97.3979 89.263C100.942 87.2132 103.125 83.4327 103.125 79.337V45.662C103.125 41.5674 100.942 37.7845 97.3946 35.7383L68.2279 18.9008ZM31.2467 40.8488L59.8946 24.3149C61.507 23.3853 63.493 23.3854 65.1054 24.3149L93.7493 40.8506L62.4995 58.8917L31.2467 40.8488ZM28.125 46.2633V79.3411C28.125 81.2045 29.1173 82.9219 30.7279 83.8508L59.375 100.388V64.3046L28.125 46.2633ZM65.625 64.304L96.875 46.2628V79.337C96.875 81.1996 95.883 82.9191 94.2688 83.8527L65.625 100.388V64.304Z" fill="#BFBFBF"/>
</g>
<defs>
<clipPath id="clip0_9298_232588">
<rect width="125" height="125" rx="12" fill="white"/>
</clipPath>
</defs>
</svg>
