<svg width="24" height="24" viewBox="0 0 24 24" fill="none" xmlns="http://www.w3.org/2000/svg">
<path fill-rule="evenodd" clip-rule="evenodd" d="M16.4093 5.82358C16.5078 5.7251 16.6654 5.72608 16.762 5.8229L18.1767 7.23758C18.2752 7.33606 18.2735 7.49434 18.1767 7.59092L16.9139 8.85368L15.1466 7.08634L16.4093 5.82358ZM14.0859 8.147L5.75 16.4829V18.2502H7.51734L15.8533 9.91434L14.0859 8.147ZM15.3487 4.76292C16.0321 4.07945 17.1404 4.07842 17.8239 4.76345L19.2373 6.17692C19.9208 6.86037 19.9216 7.96882 19.2367 8.65226L8.35833 19.5306C8.21768 19.6712 8.02691 19.7502 7.828 19.7502H5C4.58579 19.7502 4.25 19.4145 4.25 19.0002V16.1722C4.25 15.9733 4.32902 15.7826 4.46967 15.6419L15.3487 4.76292Z" fill="#404040"/>
</svg>
