<svg xmlns="http://www.w3.org/2000/svg" width="26" height="19" viewBox="0 0 26 19">
    <path fill="#404040" fill-rule="evenodd" stroke="#404040" stroke-width=".5" d="M24.014 16.19l-6.557-6.693 6.557-6.693V16.19zm-21.426.804l6.647-6.785 2.343 2.391c.352.36.87.566 1.42.566.55 0 1.067-.206 1.42-.566l2.337-2.385 6.641 6.779H2.588zM1.986 2.81l6.552 6.687-6.552 6.688V2.81zm21.396-.804l-9.556 9.754c-.195.2-.507.318-.834.318-.327 0-.639-.118-.834-.318L2.602 2.006h20.78zM25 2.92C25 1.861 24.156 1 23.12 1H2.88C1.844 1 1 1.861 1 2.92v13.16C1 17.14 1.844 18 2.88 18h20.24c1.036 0 1.88-.861 1.88-1.92V2.92h0z"/>
</svg>
