<svg width="20" height="20" viewBox="0 0 20 20" fill="none" xmlns="http://www.w3.org/2000/svg">
    <path d="M2.797 19.716H2.718C1.956 19.712 1.488 19.512 1.288 19.106C1.216 18.96 1.085 18.575 1.418 18.138L2.478 16.722C2.603 16.56 2.675 16.46 2.704 16.384C0.96 14.566 0 12.19 0 9.677C0 4.34 4.34 0 9.677 0C15.009 0 19.347 4.34 19.347 9.677C19.347 15.008 15.009 19.347 9.677 19.347C8.629 19.347 7.601 19.179 6.62 18.849C6.575 18.859 6.547 18.871 6.532 18.879C6.145 19.061 5.801 19.198 5.436 19.319C5.309 19.359 5.191 19.389 5.073 19.42L4.909 19.464C4.293 19.632 3.583 19.716 2.797 19.716ZM9.677 1.366C5.094 1.366 1.365 5.094 1.365 9.676C1.365 11.888 2.229 13.974 3.798 15.55L3.881 15.633L3.931 15.738C4.088 16.069 4.114 16.435 4.006 16.796C3.899 17.106 3.739 17.324 3.569 17.542L2.969 18.35C3.564 18.339 4.094 18.27 4.548 18.147L4.731 18.098C4.826 18.074 4.921 18.05 5.015 18.02C5.32 17.918 5.617 17.8 5.912 17.663C6.082 17.568 6.322 17.499 6.606 17.475L6.818 17.472L6.929 17.512C7.808 17.822 8.733 17.981 9.677 17.981C14.255 17.981 17.981 14.256 17.981 9.677C17.981 5.094 14.255 1.365 9.677 1.365V1.366Z" fill="#404040"/>
    <path d="M8.66477 11.9474H10.549V11.7784C10.5589 10.8089 10.907 10.3565 11.6925 9.88423C12.6222 9.33239 13.2287 8.60156 13.2287 7.43324C13.2287 5.69318 11.8267 4.67898 9.85298 4.67898C8.0483 4.67898 6.5767 5.62358 6.53196 7.61222H8.56037C8.5902 6.80185 9.19176 6.36932 9.84304 6.36932C10.5142 6.36932 11.0561 6.81676 11.0561 7.50781C11.0561 8.15909 10.5838 8.59162 9.9723 8.9794C9.13707 9.50639 8.66974 10.0384 8.66477 11.7784V11.9474ZM9.64418 15.1293C10.2805 15.1293 10.8324 14.5973 10.8374 13.9361C10.8324 13.2848 10.2805 12.7528 9.64418 12.7528C8.98793 12.7528 8.44602 13.2848 8.45099 13.9361C8.44602 14.5973 8.98793 15.1293 9.64418 15.1293Z" fill="#404040"/>
</svg>
