<svg xmlns="http://www.w3.org/2000/svg" xmlns:xlink="http://www.w3.org/1999/xlink" width="16" height="18" viewBox="0 0 16 18">
    <defs>
        <path id="prefix__a" d="M13.969 14.358V5.5c0-.341-.058-.512-.34-.512-.992 0-1.387.733-1.704 1.322-.365.682-.607 1.063-1.363 1.063-.566 0-.74-.34-1.06-1.26-.32-.92-.746-2.147-2.347-2.147H6.985c-.041-.005-.082-.005-.123 0-1.779.167-2.205 1.857-2.58 3.363-.145.692-.363 1.367-.65 2.014-.084.166-.186.322-.303.467-.099.054-.177.139-.222.241-.575.504-1.321.768-2.085.736V1.411C1.022 1.13.793.9.512.9.228.9 0 1.129 0 1.411v13.117c0 .283.229.511.511.511h13.117c.283 0 .443-.59.341-.681zm-10.903-.34H1.022v-2.192h.065c.69 0 1.369-.167 1.98-.487v2.678zm3.407 0H4.088V10.51c.178-.208.332-.437.457-.681.323-.713.568-1.459.73-2.225.32-1.28.565-2.13 1.198-2.453v8.865zm3.408 0H7.496V5.028c.562.137.766.63 1.042 1.418.232.66.532 1.523 1.343 1.83v5.74zm3.066 0h-2.044V8.374c1.151-.136 1.594-.96 1.925-1.58l.119-.215v7.437z"/>
    </defs>
    <g fill="none" fill-rule="evenodd" transform="translate(1 .25)">
        <mask id="prefix__b" fill="#fff">
            <use xlink:href="#prefix__a"/>
        </mask>
        <use fill="#000" xlink:href="#prefix__a"/>
        <g fill="#404040" mask="url(#prefix__b)">
            <path d="M0 0L20 0 20 20 0 20z" transform="translate(-3 -2)"/>
        </g>
    </g>
</svg>
