<svg xmlns="http://www.w3.org/2000/svg" width="24" height="24" viewBox="0 0 24 24">
    <g fill="none" fill-rule="evenodd">
        <g stroke-width=".05" opacity=".5">
            <path fill="#FFF" stroke="#404040" d="M0.025 0.025H23.49V23.974999999999998H0.025z"/>
            <rect width="17.586" height="17.95" x="2.964" y="3.025" stroke="#A6A6A6" rx="1"/>
            <rect width="19.546" height="15.95" x="1.985" y="4.025" stroke="#A6A6A6" rx="1"/>
            <rect width="15.627" height="19.95" x="3.944" y="2.025" stroke="#A6A6A6" rx="1"/>
        </g>
        <path fill="#404040" d="M19 16c.552 0 1 .448 1 1s-.448 1-1 1H5c-.552 0-1-.448-1-1s.448-1 1-1h14zm0-5c.552 0 1 .448 1 1s-.448 1-1 1H5c-.552 0-1-.448-1-1s.448-1 1-1h14zm0-5c.552 0 1 .448 1 1s-.448 1-1 1H5c-.552 0-1-.448-1-1s.448-1 1-1h14z"/>
    </g>
</svg>
