<svg width="170" height="68" viewBox="0 0 170 68" fill="none" xmlns="http://www.w3.org/2000/svg">
    <path d="M107.76 56.48H40.56C29.2807 56.48 20.1355 47.3393 20.13 36.06V36.06C20.13 24.7768 29.2768 15.63 40.56 15.63H69.56" stroke="#01394D" stroke-width="2.7" stroke-linecap="round" stroke-linejoin="round"/>
    <path d="M103.58 15.63H130.28C141.559 15.6355 150.7 24.7807 150.7 36.06V36.06C150.7 47.3377 141.558 56.48 130.28 56.48H123" stroke="#01394D" stroke-width="2.7" stroke-linecap="round" stroke-linejoin="round"/>
    <path d="M122.7 56.48L115.22 64.97L107.73 56.48" stroke="#00394C" stroke-width="2.7" stroke-linecap="round" stroke-linejoin="round"/>
    <path d="M65.83 31.2V43.76H63.37V38.56H58.7V43.76H56.23V31.2H58.7V36.2H63.37V31.2H65.83Z" fill="#E8541B"/>
    <path d="M77.91 41.39V43.76H70.14V31.2H77.82V33.57H72.61V36.24H77.37V38.58H72.61V41.39H77.91Z" fill="#E8541B"/>
    <path d="M88.89 41.39V43.76H81.62V31.2H84.1V41.39H88.89Z" fill="#E8541B"/>
    <path d="M99.53 41.39V43.76H92.26V31.2H94.74V41.39H99.53Z" fill="#E8541B"/>
    <path fill-rule="evenodd" clip-rule="evenodd" d="M105.589 31.438C103.147 32.4507 101.556 34.8361 101.56 37.48C101.544 39.2124 102.224 40.8786 103.448 42.1046C104.672 43.3305 106.338 44.0135 108.07 44C110.714 44.0081 113.102 42.4212 114.118 39.9805C115.135 37.5398 114.579 34.7271 112.711 32.8561C110.843 30.9852 108.031 30.4253 105.589 31.438ZM108.037 33.4701C110.273 33.4518 112.103 35.2444 112.13 37.48C112.16 38.5703 111.744 39.6256 110.977 40.4015C110.211 41.1775 109.161 41.6068 108.07 41.59C105.834 41.5898 104.019 39.7822 104.01 37.5464C104.001 35.3107 105.801 33.4884 108.037 33.4701Z" fill="#E8541B"/>
    <path d="M91.47 27.33C88.9372 27.334 86.6515 25.8114 85.6794 23.4725C84.7073 21.1336 85.2404 18.4395 87.03 16.647C88.8195 14.8546 91.5129 14.3172 93.8533 15.2856C96.1937 16.2539 97.72 18.5371 97.72 21.07C97.7145 24.5211 94.9211 27.319 91.47 27.33Z" fill="#E8541B"/>
    <path d="M73.1097 10.9445L81.305 2.74909L89.5004 10.9445L81.305 19.1398L73.1097 10.9445Z" fill="#01394C"/>
</svg>
