<svg xmlns="http://www.w3.org/2000/svg" width="12" height="12" viewBox="0 0 12 12">
    <g fill="none" fill-rule="evenodd">
        <g fill="#BFBFBF">
            <g>
                <path d="M6 0C2.688 0 0 2.688 0 6s2.688 6 6 6 6-2.688 6-6-2.688-6-6-6zm.6 10.2H5.4V9h1.2v1.2zm1.242-4.65l-.54.552C6.87 6.54 6.6 6.9 6.6 7.8H5.4v-.3c0-.66.27-1.26.702-1.698l.744-.756c.222-.216.354-.516.354-.846C7.2 3.54 6.66 3 6 3c-.66 0-1.2.54-1.2 1.2H3.6c0-1.326 1.074-2.4 2.4-2.4 1.326 0 2.4 1.074 2.4 2.4 0 .528-.216 1.008-.558 1.35z" transform="translate(-523 -972) translate(523 972)"/>
            </g>
        </g>
    </g>
</svg>
