<svg xmlns="http://www.w3.org/2000/svg" width="33" height="33" viewBox="0 0 33 33">
    <g fill="none" fill-rule="evenodd">
        <circle cx="16.5" cy="16.5" r="16" fill="#FFF" stroke="#404040"/>
        <path fill="#404040" fill-rule="nonzero" d="M8.63 21.796h15.74v1.574H8.63v-1.574zm1.574-6.296h1.574v5.51h-1.574V15.5zm3.935 0h1.574v5.51h-1.574V15.5zm3.148 0h1.574v5.51h-1.574V15.5zm3.935 0h1.574v5.51h-1.574V15.5zM8.63 11.565L16.5 7.63l7.87 3.935v3.148H8.63v-3.148zm1.574.973v.6h12.592v-.6L16.5 9.389l-6.296 3.149zm6.296-.186c-.435 0-.787-.353-.787-.787 0-.435.352-.787.787-.787.435 0 .787.352.787.787 0 .434-.352.787-.787.787z"/>
    </g>
</svg>
