<svg xmlns="http://www.w3.org/2000/svg" width="14" height="14" viewBox="0 0 14 14">
    <defs>
        <filter id="prefix__a">
            <feColorMatrix in="SourceGraphic" values="0 0 0 0 1.000000 0 0 0 0 1.000000 0 0 0 0 1.000000 0 0 0 1.000000 0"/>
        </filter>
    </defs>
    <g fill="none" fill-rule="evenodd">
        <circle cx="7" cy="7" r="7" fill="#D9D9D9"/>
        <g filter="url(#prefix__a)">
            <g>
                <path fill="#404040" d="M1.114.992C1.108.451 1.638.005 2.288 0c.66 0 1.18.432 1.18.988.005.541-.514.987-1.158.996-.65.005-1.186-.441-1.196-.992zM3.98 6.627c-.016.082-.076.168-.147.232-.431.368-.95.587-1.573.596-.278.005-.568.014-.835-.036-.71-.123-1.114-.629-1-1.22.137-.715.29-1.42.437-2.13.044-.214.099-.428.131-.642.017-.077.006-.164-.01-.237-.033-.145-.12-.209-.29-.232C.6 2.95.507 2.954.42 2.936c-.11-.028-.235-.06-.322-.114-.153-.096-.12-.282.054-.346.088-.037.197-.055.295-.055.388-.004.781 0 1.164 0h1.163c.278 0 .42.119.459.35.038.233-.06.451-.11.674-.142.67-.295 1.334-.436 1.998-.05.228-.099.455-.142.688-.011.068-.006.145 0 .214.049.295.25.405.59.332.103-.023.196-.073.294-.114.093-.036.186-.086.284-.118.17-.055.306.036.268.182z" transform="translate(5 3)"/>
            </g>
        </g>
    </g>
</svg>
