<svg id="Layer_1" data-name="Layer 1" xmlns="http://www.w3.org/2000/svg" xmlns:xlink="http://www.w3.org/1999/xlink" viewBox="0 0 100 100"><defs><style>.cls-1{fill:none;}.cls-2{clip-path:url(#clip-path);}.cls-3{fill:#fff;}.cls-4{fill:#e95317;}.cls-5{fill:#00394c;}</style><clipPath id="clip-path"><rect class="cls-1" x="17.4" y="10.17" width="65.2" height="79.66"/></clipPath></defs><g class="cls-2"><path class="cls-3" d="M33.73,61a6.24,6.24,0,0,0-6.24,6.24v2.35a6.24,6.24,0,0,0,12.48,0V67.23A6.24,6.24,0,0,0,33.73,61"/><path class="cls-3" d="M67.34,61a6.24,6.24,0,0,0-6.24,6.24v2.35a6.24,6.24,0,1,0,12.48,0V67.23A6.24,6.24,0,0,0,67.34,61"/></g><path class="cls-4" d="M56,45.82a5.95,5.95,0,1,0-5.95-5.94A5.94,5.94,0,0,0,56,45.82Z"/><path class="cls-4" d="M75.81,19.66l-7.67-.94-.18,0a1.1,1.1,0,0,0-.26,0l-.2.08a1,1,0,0,0-.23.12,1.22,1.22,0,0,0-.17.15,1.6,1.6,0,0,0-.16.19,1.12,1.12,0,0,0-.1.22,1.22,1.22,0,0,0-.07.17L65,27.58a1.25,1.25,0,0,0,1,1.49l.27,0a1.26,1.26,0,0,0,1.22-1l1.25-5.63a21.34,21.34,0,0,1-17.91,33,21.42,21.42,0,0,1-10.23-2.6,1.25,1.25,0,0,0-1.2,2.19A23.87,23.87,0,0,0,71.12,21.6l4.39.54h.15a1.25,1.25,0,0,0,.15-2.49Z"/><rect class="cls-5" x="40.85" y="24.75" width="11.01" height="11.01" transform="translate(-7.82 41.64) rotate(-45)"/><path class="cls-5" d="M44.61,78.65H23.92c-3.55,0-6.45,2.49-6.45,5.55v4.46a1.1,1.1,0,1,0,2.2,0V84.2c0-1.85,1.91-3.36,4.25-3.36H44.61a2.11,2.11,0,0,1,2.1,2.1v5.72a1.1,1.1,0,0,0,2.2,0V82.94A4.3,4.3,0,0,0,44.61,78.65Z"/><path class="cls-5" d="M26.39,67.23v2.35a7.34,7.34,0,0,0,14.68,0V67.23a7.34,7.34,0,0,0-14.68,0Zm12.48,0v2.35a5.14,5.14,0,0,1-10.28,0V67.23a5.14,5.14,0,0,1,10.28,0Z"/><path class="cls-5" d="M78.23,78.65H57.54c-3.56,0-6.45,2.49-6.45,5.55v4.46a1.1,1.1,0,0,0,2.2,0V84.2c0-1.85,1.9-3.36,4.25-3.36H78.23a2.11,2.11,0,0,1,2.1,2.1v5.72a1.1,1.1,0,1,0,2.2,0V82.94A4.3,4.3,0,0,0,78.23,78.65Z"/><path class="cls-5" d="M60,67.23v2.35a7.34,7.34,0,1,0,14.68,0V67.23a7.34,7.34,0,1,0-14.68,0Zm2.2,0a5.14,5.14,0,1,1,10.28,0v2.35a5.14,5.14,0,1,1-10.28,0Z"/><path class="cls-5" d="M27.33,51.61h7.73a1.28,1.28,0,0,0,.47-.1l.12-.07a1.59,1.59,0,0,0,.27-.18l.1-.14a1.25,1.25,0,0,0,.16-.24,1.17,1.17,0,0,0,.06-.2,1.52,1.52,0,0,0,.06-.2l.77-8A1.25,1.25,0,0,0,36,41.06a1.27,1.27,0,0,0-1.37,1.13l-.5,5.22a21.36,21.36,0,0,1,28.64-31,1.25,1.25,0,1,0,1.4-2.07A23.85,23.85,0,0,0,32.25,49.1H27.33a1.25,1.25,0,0,0,0,2.5Z"/></svg>