<svg xmlns="http://www.w3.org/2000/svg" width="20" height="20" viewBox="0 0 20 20">
    <g fill="#404040">
        <path d="M12 20c-.552 0-1-.407-1-.91 0-.501.448-.908 1-.908h5c.552 0 1-.407 1-.91V2.728c0-.502-.448-.909-1-.909h-5c-.552 0-1-.407-1-.909S11.448 0 12 0h5c1.657 0 3 1.221 3 2.727v14.546C20 18.779 18.657 20 17 20h-5z"/>
        <path d="M11.586 10L8.293 7.006c-.39-.355-.39-.93 0-1.285.39-.355 1.024-.355 1.414 0l4 3.636c.39.355.39.93 0 1.286l-4 3.636c-.39.355-1.024.355-1.414 0-.39-.355-.39-.93 0-1.285L11.586 10z"/>
        <path d="M13 9.09c.552 0 1 .408 1 .91s-.448.91-1 .91H1c-.552 0-1-.408-1-.91s.448-.91 1-.91h12z"/>
    </g>
</svg>
