<svg xmlns="http://www.w3.org/2000/svg" width="149" height="45" viewBox="0 0 149 45">
    <g fill="none" fill-rule="evenodd">
        <path fill="#1C2D4E" d="M87.34 22.535H76.92c.194-3.3 1.23-6.018 5.177-6.018 4.142 0 5.566 2.847 5.242 6.018m-5.242-9.254c-8.09 0-9.772 6.86-9.772 11.52 0 5.76 1.877 10.678 10.484 10.678 3.43 0 5.242-.388 6.99-1.035l.841-3.754c-1.424.712-4.206 1.489-7.313 1.489-4.013 0-6.472-1.554-6.408-6.666h14.239c.13-.906.194-2.007.194-2.719 0-4.724-2.071-9.513-9.255-9.513M43.98 25.222v2.038c0 2.718-2.137 4.66-4.725 4.66-1.1 0-3.819-.13-3.819-3.172 0-2.912 1.942-3.818 5.436-3.818.907 0 2.395.13 3.107.194v.098zm4.27-3.98c0-6.343-2.718-7.961-8.219-7.961-2.653 0-5.372.582-6.86 1.165l-.712 3.56a17.865 17.865 0 0 1 6.343-1.166c2.588 0 5.177.195 5.177 3.236v2.007c-.518-.065-2.33-.26-3.495-.26-4.983 0-9.578 1.748-9.578 7.379 0 3.883 2.2 6.277 6.86 6.277 4.077 0 5.501-1.877 6.213-3.106 0 .046.002.098.005.153 0 .02.003.04.004.06.002.036.006.073.01.112l.01.088a3.58 3.58 0 0 0 .118.549l.013.043c.018.058.039.116.062.175l.008.02-.008-.02a3.06 3.06 0 0 1-.062-.175l-.013-.043a3.464 3.464 0 0 1-.118-.55l-.01-.087a3.612 3.612 0 0 1-.01-.112l-.004-.06a3.032 3.032 0 0 1-.005-.153v2.783h4.276V25.222h-.005v-3.98zM94.21 35.156h4.336V4.932L94.21 6.356zM101.404 35.156h4.337V13.669h-4.337zM9.832 8.814V.077L5.561 1.501v7.313zM5.56 13.67v16.308c0 4.207 1.49 5.501 4.466 5.501 2.395 0 3.301-.324 4.79-.841l-.648-3.236c-.518.259-1.553.517-2.135.517-1.618 0-2.2-.258-2.2-2.458V13.669H5.56z"/>
        <path fill="#447DF7" d="M.047 13.655h4.855V8.8H.047zM10.196 11.155a2.75 2.75 0 1 1 5.5 0 2.75 2.75 0 0 1-5.5 0"/>
        <path fill="#1C2D4E" d="M108.598 13.67h3.938v3.753h.087c.496-1.108 1.357-2.005 2.582-2.69 1.225-.686 2.64-1.029 4.244-1.029.992 0 1.947.153 2.866.459.918.306 1.721.78 2.407 1.422.684.642 1.231 1.466 1.64 2.472.409 1.007.613 2.196.613 3.566v13.532h-3.938V22.717c0-.962-.132-1.786-.394-2.472-.263-.685-.612-1.24-1.05-1.662a3.958 3.958 0 0 0-1.51-.92 5.572 5.572 0 0 0-1.771-.284c-.818 0-1.576.132-2.276.394-.7.263-1.312.678-1.837 1.247-.525.57-.934 1.29-1.225 2.166-.293.875-.438 1.91-.438 3.107v10.862h-3.938V13.67zM65.959 26.848s-.294 2.43-3.298 3.929c-.68.34-1.595.562-2.79.562a5.03 5.03 0 0 1-1.764-.327c-.585-.218-1.115-.6-1.59-1.145-.474-.544-.859-1.274-1.154-2.187-.296-.912-.444-2.064-.444-3.454 0-1.008.108-1.952.323-2.83.216-.88.939-4.12 5.238-4.405 2.933-.195 4.898 1.004 5.479 1.588v8.269zm0 5.486v2.821h4.268V4.941l-4.278 1.49v7.784c-1.833-.839-4.533-.936-6.04-.818-7.31.573-8.55 5.426-8.917 6.779-.367 1.353-.55 2.805-.55 4.356 0 2.14.251 3.912.754 5.317.503 1.405 1.159 2.527 1.966 3.365.807.84 1.71 1.427 2.705 1.762a9.368 9.368 0 0 0 3.004.503c2.034 0 3.618-.288 4.75-.865 1.133-.576 1.908-1.337 2.328-2.28 0 .273.01.787.01 1.398v-1.398zM18.293 35.156V13.243h4.263v3.12c.415-.995.996-1.762 1.743-2.302.747-.539 1.483-.809 2.21-.809.788 0 1.514.12 2.178.358a11.8 11.8 0 0 1 1.774.794l-.747 3.485a16.693 16.693 0 0 0-1.696-.452 9.032 9.032 0 0 0-1.82-.17c-.457 0-.882.109-1.277.326a5.29 5.29 0 0 0-1.058.763 2.054 2.054 0 0 0-.14.148 4.79 4.79 0 0 0-1.167 3.162v13.49h-4.263zM144.526 26.81s-.294 2.426-3.294 3.923c-.68.34-1.593.561-2.786.561-.59 0-1.178-.108-1.762-.326-.584-.217-1.113-.599-1.587-1.143s-.858-1.272-1.154-2.184c-.295-.912-.442-2.061-.442-3.45 0-1.007.108-1.949.323-2.826.215-.878.937-4.113 5.231-4.399 2.928-.195 4.89 1.004 5.47 1.586v8.258zm-4.63-13.48c-.799 0-1.619.054-2.46.159-.84.105-1.661.3-2.46.583-.8.284-1.557.684-2.271 1.199-.715.515-1.336 1.183-1.861 2.003-.526.82-.947 1.824-1.261 3.012-.316 1.189-.474 2.592-.474 4.21 0 2.062.215 3.792.647 5.19.43 1.398 1.04 2.523 1.83 3.375a6.843 6.843 0 0 0 2.822 1.845c1.093.379 2.292.568 3.596.568.988 0 1.814-.063 2.476-.19.663-.126 1.23-.304 1.703-.536.474-.23.9-.515 1.277-.851.38-.336.779-.715 1.2-1.136v1.893c0 1.282-.148 2.307-.442 3.075-.295.768-.725 1.351-1.293 1.75-.569.4-1.273.663-2.114.79-.84.126-1.819.189-2.933.189-.652 0-1.325-.047-2.019-.142a23.141 23.141 0 0 1-2.066-.379 17.706 17.706 0 0 1-1.956-.568c-.62-.22-1.172-.457-1.656-.709l-.82 3.595c.59.274 1.236.521 1.94.742.704.22 1.435.405 2.193.552a29.16 29.16 0 0 0 2.24.347c.735.084 1.428.126 2.08.126 1.62 0 3.108-.084 4.464-.253 1.356-.168 2.528-.588 3.517-1.26.988-.674 1.755-1.7 2.303-3.076.546-1.378.82-3.276.82-5.694V15.958c-.808-.808-3.943-2.627-9.021-2.627z"/>
    </g>
</svg>
