<svg width="26" height="43" viewBox="0 0 26 43" fill="none" xmlns="http://www.w3.org/2000/svg">
<path d="M23.07 42.6H2.81002C2.44016 42.6 2.07394 42.527 1.73236 42.3851C1.39079 42.2433 1.08057 42.0354 0.819506 41.7734C0.558443 41.5114 0.351666 41.2005 0.211039 40.8584C0.0704129 40.5163 -0.00129842 40.1499 1.77952e-05 39.78V2.78C0.00791911 2.03995 0.307459 1.3329 0.833583 0.812393C1.35971 0.291887 2.06993 -4.21744e-05 2.81002 4.57e-09H23.07C23.4399 -2.33746e-06 23.8061 0.0730108 24.1477 0.214851C24.4893 0.356692 24.7995 0.564568 25.0605 0.826561C25.3216 1.08855 25.5284 1.39951 25.669 1.74159C25.8096 2.08367 25.8813 2.45014 25.88 2.82V39.82C25.8721 40.56 25.5726 41.2671 25.0465 41.7876C24.5203 42.3081 23.8101 42.6 23.07 42.6ZM2.81002 2.5C2.76845 2.49998 2.72731 2.50832 2.68903 2.52452C2.65075 2.54072 2.61612 2.56445 2.5872 2.5943C2.55828 2.62416 2.53566 2.65952 2.52068 2.6983C2.5057 2.73707 2.49868 2.77846 2.50002 2.82V39.82C2.49868 39.8615 2.5057 39.9029 2.52068 39.9417C2.53566 39.9805 2.55828 40.0158 2.5872 40.0457C2.61612 40.0755 2.65075 40.0993 2.68903 40.1155C2.72731 40.1317 2.76845 40.14 2.81002 40.14H23.07C23.1116 40.14 23.1527 40.1317 23.191 40.1155C23.2293 40.0993 23.2639 40.0755 23.2928 40.0457C23.3218 40.0158 23.3444 39.9805 23.3594 39.9417C23.3743 39.9029 23.3814 39.8615 23.38 39.82V2.82C23.3814 2.77846 23.3743 2.73707 23.3594 2.6983C23.3444 2.65952 23.3218 2.62416 23.2928 2.5943C23.2639 2.56445 23.2293 2.54072 23.191 2.52452C23.1527 2.50832 23.1116 2.49998 23.07 2.5H2.81002Z" fill="#00394C"/>
<path d="M12.9502 36.7402C13.3458 36.7402 13.7324 36.6229 14.0613 36.4032C14.3902 36.1834 14.6466 35.8711 14.798 35.5056C14.9493 35.1401 14.9889 34.738 14.9118 34.3501C14.8346 33.9621 14.6441 33.6057 14.3644 33.326C14.0847 33.0463 13.7283 32.8558 13.3404 32.7787C12.9524 32.7015 12.5503 32.7411 12.1848 32.8925C11.8194 33.0439 11.507 33.3002 11.2873 33.6291C11.0675 33.958 10.9502 34.3447 10.9502 34.7402C10.9502 35.2707 11.1609 35.7794 11.536 36.1544C11.9111 36.5295 12.4198 36.7402 12.9502 36.7402Z" fill="#E85319"/>
<path d="M6.94002 22.57C6.7384 22.5695 6.54165 22.508 6.37558 22.3937C6.2095 22.2794 6.08187 22.1175 6.00942 21.9294C5.93697 21.7412 5.92309 21.5355 5.96959 21.3394C6.0161 21.1432 6.12082 20.9656 6.27002 20.83L16.38 11.54C16.4746 11.4412 16.5884 11.3629 16.7144 11.3098C16.8405 11.2567 16.976 11.2301 17.1128 11.2315C17.2495 11.2329 17.3845 11.2623 17.5094 11.318C17.6343 11.3736 17.7465 11.4543 17.839 11.555C17.9315 11.6558 18.0024 11.7744 18.0472 11.9036C18.092 12.0328 18.1099 12.1698 18.0997 12.3061C18.0895 12.4425 18.0514 12.5753 17.9878 12.6964C17.9242 12.8175 17.8365 12.9242 17.73 13.01L7.62002 22.32C7.43257 22.4854 7.18997 22.5746 6.94002 22.57Z" fill="#00394C"/>
<path d="M12.9701 22.8506C12.8313 22.8516 12.6938 22.8236 12.5664 22.7685C12.439 22.7134 12.3245 22.6324 12.2301 22.5306C12.0516 22.3355 11.9577 22.0775 11.9689 21.8133C11.9802 21.549 12.0957 21.3 12.2901 21.1206L17.1301 16.6806C17.2246 16.5819 17.3384 16.5035 17.4645 16.4504C17.5905 16.3974 17.7261 16.3707 17.8628 16.3721C17.9996 16.3735 18.1346 16.403 18.2595 16.4586C18.3844 16.5143 18.4966 16.5949 18.5891 16.6957C18.6816 16.7964 18.7524 16.915 18.7973 17.0442C18.8421 17.1734 18.86 17.3104 18.8497 17.4468C18.8395 17.5831 18.8015 17.7159 18.7379 17.837C18.6743 17.9581 18.5866 18.0648 18.4801 18.1506L13.6501 22.5906C13.4641 22.7597 13.2214 22.8525 12.9701 22.8506Z" fill="#00394C"/>
</svg>
