<svg width="32" height="32" viewBox="0 0 32 32" fill="none" xmlns="http://www.w3.org/2000/svg">
<mask id="path-1-inside-1_2000_95368" fill="white">
<path d="M12.9668 15.4535C12.5904 15.4542 12.2223 15.3432 11.909 15.1346C11.5957 14.926 11.3513 14.6292 11.2066 14.2817C11.062 13.9342 11.0237 13.5517 11.0965 13.1824C11.1693 12.8131 11.35 12.4737 11.6157 12.2071C11.8813 11.9405 12.2201 11.7587 12.5892 11.6847C12.9582 11.6106 13.3409 11.6476 13.6889 11.7911C14.0368 11.9345 14.3345 12.1779 14.5441 12.4905C14.7537 12.8031 14.866 13.1709 14.8666 13.5473C14.8666 14.0514 14.6666 14.535 14.3104 14.8918C13.9542 15.2486 13.471 15.4494 12.9668 15.4503"/>
</mask>
<path d="M12.9668 15.4535C12.5904 15.4542 12.2223 15.3432 11.909 15.1346C11.5957 14.926 11.3513 14.6292 11.2066 14.2817C11.062 13.9342 11.0237 13.5517 11.0965 13.1824C11.1693 12.8131 11.35 12.4737 11.6157 12.2071C11.8813 11.9405 12.2201 11.7587 12.5892 11.6847C12.9582 11.6106 13.3409 11.6476 13.6889 11.7911C14.0368 11.9345 14.3345 12.1779 14.5441 12.4905C14.7537 12.8031 14.866 13.1709 14.8666 13.5473C14.8666 14.0514 14.6666 14.535 14.3104 14.8918C13.9542 15.2486 13.471 15.4494 12.9668 15.4503" fill="#E24A04"/>
<path d="M14.8666 13.5473L15.8666 13.5473L15.8666 13.5456L14.8666 13.5473ZM12.9651 14.4535C12.7865 14.4538 12.6118 14.4012 12.4632 14.3022L11.3548 15.967C11.8328 16.2852 12.3943 16.4545 12.9685 16.4535L12.9651 14.4535ZM12.4632 14.3022C12.3145 14.2032 12.1985 14.0624 12.1299 13.8975L10.2834 14.666C10.504 15.1961 10.8769 15.6488 11.3548 15.967L12.4632 14.3022ZM12.1299 13.8975C12.0612 13.7326 12.0431 13.5511 12.0776 13.3758L10.1154 12.989C10.0043 13.5523 10.0628 14.1359 10.2834 14.666L12.1299 13.8975ZM12.0776 13.3758C12.1121 13.2006 12.1979 13.0395 12.324 12.913L10.9074 11.5012C10.502 11.9079 10.2264 12.4256 10.1154 12.989L12.0776 13.3758ZM12.324 12.913C12.45 12.7865 12.6108 12.7003 12.7859 12.6651L12.3924 10.7042C11.8295 10.8172 11.3127 11.0945 10.9074 11.5012L12.324 12.913ZM12.7859 12.6651C12.961 12.63 13.1426 12.6475 13.3077 12.7156L14.07 10.8666C13.5391 10.6477 12.9553 10.5912 12.3924 10.7042L12.7859 12.6651ZM13.3077 12.7156C13.4729 12.7837 13.6141 12.8992 13.7136 13.0475L15.3746 11.9336C15.0548 11.4567 14.6008 11.0854 14.07 10.8666L13.3077 12.7156ZM13.7136 13.0475C13.8131 13.1959 13.8663 13.3704 13.8666 13.549L15.8666 13.5456C15.8656 12.9714 15.6944 12.4104 15.3746 11.9336L13.7136 13.0475ZM13.8666 13.5473C13.8666 13.7865 13.7717 14.016 13.6027 14.1853L15.0181 15.5983C15.5614 15.054 15.8666 14.3163 15.8666 13.5473L13.8666 13.5473ZM13.6027 14.1853C13.4336 14.3546 13.2043 14.4499 12.9651 14.4503L12.9685 16.4503C13.7376 16.449 14.4747 16.1426 15.0181 15.5983L13.6027 14.1853Z" fill="#404040" mask="url(#path-1-inside-1_2000_95368)"/>
<path d="M9.88058 12.2572L8.09968 10.4757L9.8812 8.69482L11.6621 10.4763L9.88058 12.2572Z" fill="#002C3C" stroke="#404040"/>
<mask id="path-4-inside-2_2000_95368" fill="white">
<path d="M8.42226 21.3077H4.34202C4.28191 21.3129 4.22137 21.3056 4.16425 21.2861C4.10713 21.2667 4.05468 21.2356 4.01021 21.1948C3.96575 21.154 3.93025 21.1044 3.90597 21.0492C3.88168 20.9939 3.86914 20.9343 3.86914 20.8739C3.86914 20.8136 3.88168 20.7539 3.90597 20.6987C3.93025 20.6434 3.96575 20.5938 4.01021 20.553C4.05468 20.5123 4.10713 20.4812 4.16425 20.4617C4.22137 20.4423 4.28191 20.4349 4.34202 20.4401H8.42226C8.53086 20.4495 8.63199 20.4992 8.70568 20.5795C8.77937 20.6599 8.82025 20.7649 8.82025 20.8739C8.82025 20.9829 8.77937 21.088 8.70568 21.1683C8.63199 21.2486 8.53086 21.2984 8.42226 21.3077Z"/>
</mask>
<path d="M8.42226 21.3077H4.34202C4.28191 21.3129 4.22137 21.3056 4.16425 21.2861C4.10713 21.2667 4.05468 21.2356 4.01021 21.1948C3.96575 21.154 3.93025 21.1044 3.90597 21.0492C3.88168 20.9939 3.86914 20.9343 3.86914 20.8739C3.86914 20.8136 3.88168 20.7539 3.90597 20.6987C3.93025 20.6434 3.96575 20.5938 4.01021 20.553C4.05468 20.5123 4.10713 20.4812 4.16425 20.4617C4.22137 20.4423 4.28191 20.4349 4.34202 20.4401H8.42226C8.53086 20.4495 8.63199 20.4992 8.70568 20.5795C8.77937 20.6599 8.82025 20.7649 8.82025 20.8739C8.82025 20.9829 8.77937 21.088 8.70568 21.1683C8.63199 21.2486 8.53086 21.2984 8.42226 21.3077Z" fill="#E24A04"/>
<path d="M8.42226 21.3077V22.3077H8.46533L8.50824 22.304L8.42226 21.3077ZM4.34202 21.3077V20.3077H4.29895L4.25604 20.3114L4.34202 21.3077ZM4.34202 20.4401L4.25604 21.4364L4.29895 21.4401H4.34202V20.4401ZM8.42226 20.4401L8.50824 19.4438L8.46533 19.4401H8.42226V20.4401ZM8.42226 20.3077H4.34202V22.3077H8.42226V20.3077ZM4.25604 20.3114C4.33397 20.3047 4.41246 20.3143 4.48652 20.3395L3.84198 22.2328C4.03028 22.2969 4.22985 22.3211 4.42801 22.304L4.25604 20.3114ZM4.48652 20.3395C4.56059 20.3647 4.6286 20.405 4.68624 20.4579L3.33419 21.9317C3.48075 22.0661 3.65367 22.1687 3.84198 22.2328L4.48652 20.3395ZM4.68624 20.4579C4.74388 20.5108 4.78991 20.5751 4.8214 20.6467L2.99054 21.4517C3.0706 21.6337 3.18763 21.7972 3.33419 21.9317L4.68624 20.4579ZM4.8214 20.6467C4.85288 20.7183 4.86914 20.7957 4.86914 20.8739H2.86914C2.86914 21.0728 2.91048 21.2696 2.99054 21.4517L4.8214 20.6467ZM4.86914 20.8739C4.86914 20.9521 4.85288 21.0295 4.8214 21.1011L2.99054 20.2962C2.91048 20.4783 2.86914 20.675 2.86914 20.8739H4.86914ZM4.8214 21.1011C4.78991 21.1728 4.74388 21.237 4.68624 21.2899L3.33419 19.8162C3.18762 19.9506 3.07059 20.1141 2.99054 20.2962L4.8214 21.1011ZM4.68624 21.2899C4.62859 21.3428 4.56058 21.3831 4.48652 21.4084L3.84198 19.5151C3.65368 19.5792 3.48076 19.6817 3.33419 19.8162L4.68624 21.2899ZM4.48652 21.4084C4.41247 21.4336 4.33398 21.4431 4.25604 21.4364L4.42801 19.4438C4.22983 19.4267 4.03027 19.451 3.84198 19.5151L4.48652 21.4084ZM4.34202 21.4401H8.42226V19.4401H4.34202V21.4401ZM8.33627 21.4364C8.19547 21.4242 8.06434 21.3597 7.9688 21.2556L9.44256 19.9035C9.19964 19.6387 8.86625 19.4747 8.50824 19.4438L8.33627 21.4364ZM7.9688 21.2556C7.87326 21.1514 7.82025 21.0152 7.82025 20.8739H9.82025C9.82025 20.5146 9.68548 20.1683 9.44256 19.9035L7.9688 21.2556ZM7.82025 20.8739C7.82025 20.7326 7.87326 20.5964 7.9688 20.4923L9.44256 21.8443C9.68548 21.5795 9.82025 21.2332 9.82025 20.8739H7.82025ZM7.9688 20.4923C8.06434 20.3881 8.19547 20.3236 8.33627 20.3114L8.50824 22.304C8.86624 22.2731 9.19964 22.1091 9.44256 21.8443L7.9688 20.4923Z" fill="#FB641E" mask="url(#path-4-inside-2_2000_95368)"/>
<path d="M16.3052 22.1436H2.9614V9.42234H4.57415C4.68275 9.41297 4.78388 9.3632 4.85757 9.28288C4.93126 9.20256 4.97214 9.09752 4.97214 8.98851C4.97214 8.87951 4.93126 8.77447 4.85757 8.69415C4.78388 8.61382 4.68275 8.56406 4.57415 8.55469H2.52919C2.4137 8.55469 2.30295 8.60056 2.22129 8.68222C2.13963 8.76389 2.09375 8.87464 2.09375 8.99013V22.5791C2.09375 22.6946 2.13963 22.8053 2.22129 22.887C2.30295 22.9686 2.4137 23.0145 2.52919 23.0145H16.3052C16.3653 23.0197 16.4259 23.0123 16.483 22.9929C16.5401 22.9735 16.5926 22.9424 16.637 22.9016C16.6815 22.8608 16.717 22.8112 16.7413 22.7559C16.7656 22.7007 16.7781 22.641 16.7781 22.5807C16.7781 22.5204 16.7656 22.4607 16.7413 22.4054C16.717 22.3502 16.6815 22.3006 16.637 22.2598C16.5926 22.219 16.5401 22.1879 16.483 22.1685C16.4259 22.149 16.3653 22.1417 16.3052 22.1469V22.1436Z" fill="#002C3C"/>
<path d="M29.5371 9.55426L7.65543 3.82903C7.59949 3.81466 7.54124 3.81164 7.48411 3.82016C7.42699 3.82867 7.37215 3.84855 7.32284 3.87862C7.27353 3.90869 7.23074 3.94834 7.19701 3.99522C7.16328 4.0421 7.13929 4.09527 7.12645 4.15158L3.83001 16.7374C3.81563 16.7933 3.81261 16.8516 3.82113 16.9087C3.82965 16.9658 3.84953 17.0207 3.8796 17.07C3.90967 17.1193 3.94931 17.1621 3.99619 17.1958C4.04308 17.2296 4.09624 17.2535 4.15256 17.2664L14.5064 19.979C14.5696 20.0143 14.6404 20.0342 14.7128 20.0371L16.203 20.4274C16.2394 20.4305 16.2761 20.4305 16.3126 20.4274C16.4185 20.4286 16.5212 20.3909 16.6012 20.3214C16.6811 20.2519 16.7327 20.1554 16.7463 20.0504C16.7598 19.9453 16.7343 19.839 16.6745 19.7515C16.6148 19.664 16.5251 19.6015 16.4223 19.5758L15.2418 19.2533L18.3124 7.51576L24.4795 9.1285L23.7667 11.8444C23.762 11.8818 23.762 11.9198 23.7667 11.9572C23.7692 12.0616 23.8091 12.1615 23.8792 12.2389C23.9492 12.3163 24.0447 12.3659 24.1482 12.3788C24.2518 12.3917 24.3565 12.367 24.4434 12.3092C24.5302 12.2513 24.5934 12.1642 24.6215 12.0637L25.3182 9.35428L28.8952 10.2897L27.1599 16.9277C27.1392 17.0365 27.1607 17.1491 27.2201 17.2426C27.2794 17.336 27.3721 17.4034 27.4794 17.4309C27.5867 17.4585 27.7004 17.4441 27.7974 17.3908C27.8945 17.3374 27.9675 17.2491 28.0018 17.1438L29.85 10.0832C29.8775 9.97166 29.8602 9.85372 29.8017 9.7548C29.7431 9.65588 29.6481 9.58387 29.5371 9.55426ZM14.3935 19.0565L4.7783 16.5374L7.85541 4.77732L17.4738 7.29642L14.3935 19.0565Z" fill="#002C3C"/>
<path d="M26.5562 14.9409C26.5562 13.6765 24.6209 12.7314 22.0921 12.7314C19.5634 12.7314 17.6313 13.6765 17.6313 14.9344C17.6281 14.9774 17.6281 15.0205 17.6313 15.0635C17.6298 15.0806 17.6298 15.0979 17.6313 15.1151V26.0301C17.6313 27.288 19.5472 28.2331 22.0921 28.2331C24.637 28.2331 26.553 27.288 26.5562 26.0333V15.1151C26.5578 15.0968 26.5578 15.0785 26.5562 15.0602C26.5465 15.0183 26.5562 14.9796 26.5562 14.9409ZM22.0921 13.5991C24.2887 13.5991 25.6885 14.3893 25.6885 14.9344C25.6885 15.4796 24.2887 16.2666 22.0921 16.2666C19.8956 16.2666 18.4989 15.4828 18.4989 14.9344C18.4989 14.3861 19.8988 13.5991 22.0921 13.5991ZM25.6885 26.0301C25.6885 26.5752 24.2887 27.3655 22.0921 27.3655C19.8956 27.3655 18.5086 26.5817 18.4989 26.0366V25.1366C19.2989 25.6688 20.5826 26.0043 22.0921 26.0043C23.6017 26.0043 24.8886 25.6818 25.6885 25.1366V26.0301ZM25.6885 23.8013C25.6885 24.3464 24.2887 25.1366 22.0921 25.1366C19.8956 25.1366 18.5215 24.3593 18.4989 23.8142V22.9175C19.2989 23.4497 20.5826 23.7852 22.0921 23.7852C23.6017 23.7852 24.8886 23.4626 25.6885 22.9143V23.8013ZM25.6885 21.5822C25.6885 22.1273 24.2887 22.9175 22.0921 22.9175C19.8956 22.9175 18.5215 22.1402 18.4989 21.6112V20.7081C19.2989 21.2403 20.5826 21.5757 22.0921 21.5757C23.6017 21.5757 24.8886 21.2532 25.6885 20.7048V21.5822ZM25.6885 19.3566C25.6885 19.9017 24.2887 20.6919 22.0921 20.6919C19.8956 20.6919 18.5215 19.9146 18.4989 19.3695V18.4664C19.2989 18.9986 20.5826 19.334 22.0921 19.334C23.6017 19.334 24.8886 19.0115 25.6885 18.4631V19.3566ZM25.6885 17.131C25.6885 17.6761 24.2887 18.4664 22.0921 18.4664C19.8956 18.4664 18.5215 17.689 18.4989 17.1439V16.2698C19.2989 16.802 20.5826 17.1342 22.0921 17.1342C23.6017 17.1342 24.8886 16.8117 25.6885 16.273V17.131Z" fill="#002C3C"/>
</svg>
