<svg width="49" height="48" viewBox="0 0 49 48" fill="none" xmlns="http://www.w3.org/2000/svg">
<rect width="48" height="48" transform="translate(0.5)" fill="white"/>
<path d="M31.5801 35.9999C31.5056 35.9999 31.4321 35.9825 31.3654 35.9492C31.2988 35.9159 31.2408 35.8675 31.1961 35.8079C31.1585 35.7572 31.1313 35.6995 31.1161 35.6383C31.1008 35.577 31.0978 35.5134 31.1071 35.451C31.1165 35.3886 31.1381 35.3286 31.1706 35.2745C31.2032 35.2205 31.2461 35.1733 31.2969 35.1359L32.8425 33.9839L34.2825 35.0735C34.3329 35.1113 34.3754 35.1587 34.4075 35.2129C34.4396 35.2672 34.4608 35.3272 34.4697 35.3896C34.4786 35.452 34.4751 35.5155 34.4595 35.5766C34.4438 35.6377 34.4163 35.6951 34.3785 35.7455C34.3407 35.7959 34.2933 35.8384 34.2391 35.8705C34.1848 35.9026 34.1248 35.9237 34.0624 35.9327C34 35.9416 33.9364 35.9381 33.8754 35.9225C33.8143 35.9068 33.7569 35.8793 33.7065 35.8415L32.8281 35.1791L31.8681 35.9039C31.785 35.9662 31.684 35.9999 31.5801 35.9999Z" fill="#002C3C"/>
<path d="M32.8423 38.4433C32.715 38.4433 32.5929 38.3927 32.5029 38.3027C32.4129 38.2127 32.3623 38.0906 32.3623 37.9633V34.7857C32.3623 34.6584 32.4129 34.5363 32.5029 34.4463C32.5929 34.3562 32.715 34.3057 32.8423 34.3057C32.9696 34.3057 33.0917 34.3562 33.1817 34.4463C33.2717 34.5363 33.3223 34.6584 33.3223 34.7857V37.9633C33.3223 38.0906 33.2717 38.2127 33.1817 38.3027C33.0917 38.3927 32.9696 38.4433 32.8423 38.4433Z" fill="#002C3C"/>
<path d="M34.8728 35.9999C34.7983 35.9999 34.7248 35.9825 34.6582 35.9492C34.5915 35.9159 34.5335 35.8675 34.4888 35.8079C34.4512 35.7572 34.4241 35.6995 34.4088 35.6383C34.3935 35.577 34.3905 35.5134 34.3998 35.451C34.4092 35.3886 34.4308 35.3286 34.4634 35.2745C34.4959 35.2205 34.5388 35.1733 34.5896 35.1359L36.1352 33.9839L37.5752 35.0735C37.6256 35.1113 37.6681 35.1587 37.7002 35.2129C37.7324 35.2672 37.7535 35.3272 37.7624 35.3896C37.7713 35.452 37.7678 35.5155 37.7522 35.5766C37.7366 35.6377 37.709 35.6951 37.6712 35.7455C37.6334 35.7959 37.586 35.8384 37.5318 35.8705C37.4775 35.9026 37.4175 35.9237 37.3551 35.9327C37.2927 35.9416 37.2292 35.9381 37.1681 35.9225C37.107 35.9068 37.0496 35.8793 36.9992 35.8415L36.1208 35.1791L35.1608 35.9039C35.0777 35.9662 34.9767 35.9999 34.8728 35.9999Z" fill="#002C3C"/>
<path d="M36.1353 38.4433C36.008 38.4433 35.8859 38.3927 35.7959 38.3027C35.7058 38.2127 35.6553 38.0906 35.6553 37.9633V34.7857C35.6553 34.6584 35.7058 34.5363 35.7959 34.4463C35.8859 34.3562 36.008 34.3057 36.1353 34.3057C36.2626 34.3057 36.3847 34.3562 36.4747 34.4463C36.5647 34.5363 36.6153 34.6584 36.6153 34.7857V37.9633C36.6153 38.0906 36.5647 38.2127 36.4747 38.3027C36.3847 38.3927 36.2626 38.4433 36.1353 38.4433Z" fill="#002C3C"/>
<path d="M37.1767 39.9551H31.6135C31.4862 39.9551 31.3642 39.9045 31.2741 39.8145C31.1841 39.7245 31.1335 39.6024 31.1335 39.4751C31.1335 39.3478 31.1841 39.2257 31.2741 39.1357C31.3642 39.0457 31.4862 38.9951 31.6135 38.9951H37.1767C37.3041 38.9951 37.4261 39.0457 37.5162 39.1357C37.6062 39.2257 37.6567 39.3478 37.6567 39.4751C37.6567 39.6024 37.6062 39.7245 37.5162 39.8145C37.4261 39.9045 37.3041 39.9551 37.1767 39.9551Z" fill="#002C3C"/>
<path d="M15.788 35.9999C15.7127 36.0006 15.6382 35.9836 15.5707 35.9503C15.5032 35.9169 15.4444 35.8682 15.3992 35.8079C15.3617 35.7572 15.3345 35.6995 15.3192 35.6383C15.3039 35.577 15.3009 35.5134 15.3102 35.451C15.3196 35.3886 15.3412 35.3286 15.3738 35.2745C15.4063 35.2205 15.4492 35.1733 15.5 35.1359L17.0504 33.9839L18.4904 35.0735C18.5408 35.1113 18.5833 35.1587 18.6154 35.2129C18.6476 35.2672 18.6687 35.3272 18.6776 35.3896C18.6865 35.452 18.683 35.5155 18.6674 35.5766C18.6518 35.6377 18.6242 35.6951 18.5864 35.7455C18.5486 35.7959 18.5012 35.8384 18.447 35.8705C18.3927 35.9026 18.3327 35.9237 18.2703 35.9327C18.2079 35.9416 18.1444 35.9381 18.0833 35.9225C18.0222 35.9068 17.9648 35.8793 17.9144 35.8415L17.036 35.1791L16.076 35.9039C15.9929 35.9662 15.8919 35.9999 15.788 35.9999Z" fill="#002C3C"/>
<path d="M17.0503 38.4433C16.923 38.4433 16.8009 38.3927 16.7109 38.3027C16.6209 38.2127 16.5703 38.0906 16.5703 37.9633V34.7857C16.5703 34.6584 16.6209 34.5363 16.7109 34.4463C16.8009 34.3562 16.923 34.3057 17.0503 34.3057C17.1776 34.3057 17.2997 34.3562 17.3897 34.4463C17.4797 34.5363 17.5303 34.6584 17.5303 34.7857V37.9633C17.5303 38.0906 17.4797 38.2127 17.3897 38.3027C17.2997 38.3927 17.1776 38.4433 17.0503 38.4433Z" fill="#002C3C"/>
<path d="M19.0808 35.9999C19.0063 35.9999 18.9328 35.9825 18.8662 35.9492C18.7995 35.9159 18.7415 35.8675 18.6968 35.8079C18.659 35.7575 18.6315 35.7001 18.6158 35.639C18.6002 35.578 18.5967 35.5144 18.6057 35.452C18.6146 35.3896 18.6357 35.3296 18.6678 35.2753C18.6999 35.2211 18.7424 35.1737 18.7928 35.1359L20.3432 33.9839L21.7832 35.0735C21.8337 35.1113 21.8761 35.1587 21.9083 35.2129C21.9404 35.2672 21.9615 35.3272 21.9704 35.3896C21.9793 35.452 21.9759 35.5155 21.9602 35.5766C21.9446 35.6377 21.9171 35.6951 21.8792 35.7455C21.8414 35.7959 21.794 35.8384 21.7398 35.8705C21.6855 35.9026 21.6255 35.9237 21.5631 35.9327C21.5007 35.9416 21.4372 35.9381 21.3761 35.9225C21.315 35.9068 21.2577 35.8793 21.2072 35.8415L20.3288 35.1791L19.3688 35.9039C19.2857 35.9662 19.1847 35.9999 19.0808 35.9999Z" fill="#002C3C"/>
<path d="M20.3433 38.4433C20.216 38.4433 20.0939 38.3927 20.0039 38.3027C19.9139 38.2127 19.8633 38.0906 19.8633 37.9633V34.7857C19.8633 34.6584 19.9139 34.5363 20.0039 34.4463C20.0939 34.3562 20.216 34.3057 20.3433 34.3057C20.4706 34.3057 20.5927 34.3562 20.6827 34.4463C20.7727 34.5363 20.8233 34.6584 20.8233 34.7857V37.9633C20.8233 38.0906 20.7727 38.2127 20.6827 38.3027C20.5927 38.3927 20.4706 38.4433 20.3433 38.4433Z" fill="#002C3C"/>
<path d="M21.3849 39.9551H15.8169C15.6896 39.9551 15.5675 39.9045 15.4775 39.8145C15.3875 39.7245 15.3369 39.6024 15.3369 39.4751C15.3369 39.3478 15.3875 39.2257 15.4775 39.1357C15.5675 39.0457 15.6896 38.9951 15.8169 38.9951H21.3849C21.5122 38.9951 21.6343 39.0457 21.7243 39.1357C21.8143 39.2257 21.8649 39.3478 21.8649 39.4751C21.8649 39.6024 21.8143 39.7245 21.7243 39.8145C21.6343 39.9045 21.5122 39.9551 21.3849 39.9551Z" fill="#002C3C"/>
<path d="M11.8273 12.4796V29.4516H11.6753V12.4804C11.6763 12.1867 11.7935 11.9052 12.0012 11.6975C12.2089 11.4898 12.4904 11.3726 12.7841 11.3716H36.0585C36.3524 11.3716 36.6342 11.4883 36.842 11.6961C37.0498 11.9039 37.1665 12.1857 37.1665 12.4796V29.4276H37.0001V12.4796V12.4671L36.9995 12.4546C36.9869 12.2033 36.8781 11.9664 36.6957 11.7931L36.3513 12.1556C36.2619 12.0707 36.1433 12.0234 36.0201 12.0236V11.5236H36.0199H12.7833H12.7711L12.7589 11.5242C12.5158 11.5361 12.2858 11.638 12.1138 11.81L12.1138 11.81C11.9417 11.9821 11.8398 12.2121 11.8279 12.4552L11.8273 12.4674V12.4796Z" fill="#002C3C" stroke="#404040"/>
<path d="M31.09 6.49704L31.0731 6.48048L31.0547 6.46559C30.8414 6.29283 30.582 6.18648 30.3088 6.15975L30.2845 6.15737H30.2601H18.4857H18.4601L18.4347 6.15998C18.1633 6.18783 17.9057 6.29343 17.6929 6.46411L17.6759 6.47772L17.6602 6.49275L12.2417 11.6727L12.1367 11.5632L17.5294 6.39072C17.7939 6.15561 18.1317 6.01944 18.4853 6.00537H30.2505C30.6057 6.02002 30.9446 6.15867 31.2082 6.39721L36.1126 11.1902L35.9949 11.3032L31.09 6.49704Z" fill="#002C3C" stroke="#404040"/>
<path d="M21.773 10.7434L21.63 10.692L23.149 6.47055L23.292 6.52201L21.773 10.7434Z" fill="#002C3C" stroke="#FB641E"/>
<path d="M26.0067 5.83487L24.9229 6.2251L26.7813 11.3871L27.8652 10.9969L26.0067 5.83487Z" fill="#002C3C"/>
<path d="M27.0008 14.9134H21.8936C21.6589 14.9134 21.4338 14.8205 21.2674 14.655C21.101 14.4895 21.0069 14.2648 21.0056 14.0302V11.8078H22.1576V13.7614H26.7368V11.7598H27.8888V14.0302C27.8875 14.2648 27.7934 14.4895 27.627 14.655C27.4606 14.8205 27.2355 14.9134 27.0008 14.9134Z" fill="#002C3C"/>
<path d="M29.5688 21.518C29.4483 21.517 29.3312 21.4782 29.2339 21.4072C29.1366 21.3361 29.064 21.2363 29.0264 21.1218C28.9887 21.0074 28.988 20.884 29.0241 20.7691C29.0603 20.6541 29.1316 20.5535 29.228 20.4812L30.9896 19.1708C31.1619 19.0455 31.3694 18.978 31.5824 18.978C31.7954 18.978 32.0029 19.0455 32.1752 19.1708L33.788 20.3804C33.9102 20.472 33.991 20.6085 34.0126 20.7597C34.0342 20.9109 33.9948 21.0646 33.9032 21.1868C33.8115 21.309 33.6751 21.3898 33.5238 21.4114C33.3726 21.433 33.219 21.3936 33.0968 21.302L31.58 20.1596L29.9144 21.4076C29.8139 21.4803 29.6928 21.519 29.5688 21.518Z" fill="#002C3C"/>
<path d="M31.5848 25.4015C31.5091 25.4015 31.4342 25.3866 31.3644 25.3576C31.2945 25.3287 31.231 25.2862 31.1775 25.2328C31.124 25.1793 31.0816 25.1158 31.0526 25.0459C31.0237 24.976 31.0088 24.9011 31.0088 24.8255V19.7567C31.0088 19.6039 31.0695 19.4574 31.1775 19.3494C31.2855 19.2413 31.432 19.1807 31.5848 19.1807C31.7376 19.1807 31.8841 19.2413 31.9921 19.3494C32.1001 19.4574 32.1608 19.6039 32.1608 19.7567V24.8255C32.1608 24.9782 32.1001 25.1247 31.9921 25.2328C31.8841 25.3408 31.7376 25.4015 31.5848 25.4015Z" fill="#002C3C"/>
<path d="M33.2457 27.84H29.5545C29.4017 27.84 29.2552 27.7793 29.1472 27.6713C29.0392 27.5633 28.9785 27.4168 28.9785 27.264C28.9785 27.1112 29.0392 26.9647 29.1472 26.8567C29.2552 26.7487 29.4017 26.688 29.5545 26.688H33.2457C33.3985 26.688 33.545 26.7487 33.653 26.8567C33.761 26.9647 33.8217 27.1112 33.8217 27.264C33.8217 27.4168 33.761 27.5633 33.653 27.6713C33.545 27.7793 33.3985 27.84 33.2457 27.84Z" fill="#002C3C"/>
<path d="M39.5959 42.4945H9.40393C9.08096 42.4946 8.77108 42.3669 8.54181 42.1394C8.31254 41.912 8.18246 41.6031 8.17993 41.2801V30.8881C8.1812 30.5644 8.31072 30.2543 8.54013 30.0257C8.76953 29.7972 9.08014 29.6689 9.40393 29.6689H39.5959C39.9197 29.6689 40.2303 29.7972 40.4597 30.0257C40.6891 30.2543 40.8187 30.5644 40.8199 30.8881V41.2801C40.8174 41.6031 40.6873 41.912 40.4581 42.1394C40.2288 42.3669 39.9189 42.4946 39.5959 42.4945ZM9.40393 30.8209C9.38564 30.8209 9.36802 30.8278 9.35464 30.8403C9.34127 30.8528 9.33315 30.8699 9.33193 30.8881V41.2801C9.33193 41.2992 9.33952 41.3176 9.35302 41.3311C9.36652 41.3446 9.38484 41.3521 9.40393 41.3521H39.5959C39.615 41.3521 39.6333 41.3446 39.6468 41.3311C39.6603 41.3176 39.6679 41.2992 39.6679 41.2801V30.8881C39.6667 30.8699 39.6586 30.8528 39.6452 30.8403C39.6318 30.8278 39.6142 30.8209 39.5959 30.8209H9.40393Z" fill="#002C3C"/>
<path d="M25.0663 30.269H23.9143V41.9714H25.0663V30.269Z" fill="#002C3C"/>
<path d="M23.2902 26.9042C22.7605 26.9042 22.2426 26.7471 21.8022 26.4528C21.3617 26.1585 21.0184 25.7402 20.8157 25.2507C20.613 24.7613 20.5599 24.2228 20.6633 23.7032C20.7666 23.1837 21.0217 22.7064 21.3963 22.3319C21.7709 21.9573 22.2481 21.7022 22.7677 21.5988C23.2872 21.4955 23.8258 21.5485 24.3152 21.7512C24.8046 21.954 25.2229 22.2973 25.5172 22.7377C25.8115 23.1782 25.9686 23.696 25.9686 24.2258C25.9693 24.5777 25.9004 24.9262 25.766 25.2515C25.6316 25.5767 25.4344 25.8723 25.1855 26.1211C24.9367 26.3699 24.6412 26.5672 24.3159 26.7016C23.9907 26.8359 23.6421 26.9048 23.2902 26.9042Z" fill="#E24A04"/>
<path d="M18.9486 16.389L15.4419 19.8945L18.9474 23.4013L22.4541 19.8958L18.9486 16.389Z" fill="#002C3C"/>
</svg>
