<svg width="100" height="100" viewBox="0 0 100 100" fill="none" xmlns="http://www.w3.org/2000/svg">
<path d="M33.7302 61C32.0753 61 30.4881 61.6574 29.3179 62.8277C28.1477 63.9979 27.4902 65.585 27.4902 67.24V69.59C27.4902 71.2449 28.1477 72.8321 29.3179 74.0023C30.4881 75.1726 32.0753 75.83 33.7302 75.83C35.3852 75.83 36.9724 75.1726 38.1426 74.0023C39.3128 72.8321 39.9702 71.2449 39.9702 69.59V67.23C39.9676 65.5768 39.309 63.9922 38.139 62.8241C36.9691 61.6561 35.3835 61 33.7302 61Z" fill="white"/>
<path d="M67.3406 61C65.6856 61 64.0985 61.6574 62.9282 62.8277C61.758 63.9979 61.1006 65.585 61.1006 67.24V69.59C61.1006 71.2449 61.758 72.8321 62.9282 74.0023C64.0985 75.1726 65.6856 75.83 67.3406 75.83C68.9955 75.83 70.5827 75.1726 71.7529 74.0023C72.9232 72.8321 73.5806 71.2449 73.5806 69.59V67.23C73.5779 65.5768 72.9193 63.9922 71.7494 62.8241C70.5795 61.6561 68.9938 61 67.3406 61Z" fill="white"/>
<path d="M55.9998 45.8199C57.177 45.8199 58.3278 45.4707 59.3065 44.8165C60.2852 44.1622 61.0478 43.2324 61.4978 42.1446C61.9479 41.0568 62.0651 39.8599 61.8347 38.7055C61.6044 37.551 61.0367 36.4908 60.2035 35.6591C59.3704 34.8274 58.3093 34.2615 57.1545 34.033C55.9996 33.8046 54.803 33.9238 53.7159 34.3757C52.6289 34.8276 51.7003 35.5918 51.0477 36.5716C50.3951 37.5513 50.0478 38.7027 50.0498 39.8799C50.0498 40.6608 50.2038 41.4341 50.5029 42.1554C50.8021 42.8767 51.2405 43.532 51.7931 44.0837C52.3458 44.6354 53.0018 45.0727 53.7236 45.3706C54.4454 45.6686 55.2189 45.8212 55.9998 45.8199Z" fill="#E24A04"/>
<path d="M75.8101 19.6596L68.1401 18.7196H67.9601C67.8737 18.7093 67.7864 18.7093 67.7001 18.7196L67.5001 18.7996C67.4185 18.8295 67.3412 18.8698 67.2701 18.9196C67.2089 18.9642 67.152 19.0145 67.1001 19.0696C67.0419 19.1287 66.9884 19.1922 66.9401 19.2596C66.8989 19.3291 66.8654 19.4029 66.8401 19.4796C66.8125 19.5344 66.7891 19.5913 66.7701 19.6496L65.0001 27.5796C64.9653 27.7433 64.9637 27.9123 64.9954 28.0767C65.0271 28.241 65.0915 28.3972 65.1848 28.5362C65.2781 28.6752 65.3983 28.794 65.5383 28.8856C65.6784 28.9772 65.8354 29.0398 66.0001 29.0696H66.2701C66.5569 29.0667 66.8341 28.966 67.0559 28.7842C67.2777 28.6023 67.4309 28.3503 67.4901 28.0696L68.7401 22.4396C70.8424 25.6622 72.0344 29.3931 72.1898 33.2377C72.3452 37.0822 71.4583 40.8972 69.623 44.2789C67.7876 47.6606 65.0721 50.4832 61.7639 52.4479C58.4556 54.4126 54.6777 55.4463 50.8301 55.4396C47.2566 55.4399 43.7398 54.5461 40.6001 52.8396C40.3113 52.6987 39.9794 52.6743 39.6731 52.7717C39.3669 52.869 39.1099 53.0805 38.9555 53.3623C38.8011 53.6441 38.7612 53.9745 38.8439 54.285C38.9267 54.5954 39.1259 54.8621 39.4001 55.0296C44.0155 57.5211 49.323 58.423 54.5023 57.5961C59.6816 56.7691 64.4443 54.2593 68.0545 50.4546C71.6646 46.6498 73.9211 41.762 74.4752 36.5464C75.0293 31.3308 73.8502 26.078 71.1201 21.5996L75.5101 22.1396H75.6601C75.9773 22.1377 76.2818 22.0152 76.5121 21.7971C76.7424 21.579 76.8811 21.2814 76.9002 20.9648C76.9193 20.6482 76.8173 20.3362 76.6148 20.092C76.4124 19.8477 76.1247 19.6896 75.8101 19.6496V19.6596Z" fill="#E24A04"/>
<path d="M46.3517 22.4706L38.5664 30.2559L46.3517 38.0411L54.1369 30.2559L46.3517 22.4706Z" fill="#002C3C"/>
<path d="M44.6097 78.6504H23.9197C20.3697 78.6504 17.4697 81.1404 17.4697 84.2004V88.6604C17.4697 88.9521 17.5856 89.2319 17.7919 89.4382C17.9982 89.6445 18.278 89.7604 18.5697 89.7604C18.8615 89.7604 19.1413 89.6445 19.3475 89.4382C19.5538 89.2319 19.6697 88.9521 19.6697 88.6604V84.2004C19.6697 82.3504 21.5797 80.8404 23.9197 80.8404H44.6097C45.1659 80.843 45.6985 81.0651 46.0917 81.4584C46.485 81.8516 46.7071 82.3842 46.7097 82.9404V88.6604C46.7097 88.9521 46.8256 89.2319 47.0319 89.4382C47.2382 89.6445 47.518 89.7604 47.8097 89.7604C48.1015 89.7604 48.3813 89.6445 48.5875 89.4382C48.7938 89.2319 48.9097 88.9521 48.9097 88.6604V82.9404C48.9071 81.8017 48.4529 80.7105 47.6468 79.9063C46.8406 79.1021 45.7484 78.6504 44.6097 78.6504Z" fill="#002C3C"/>
<path d="M26.3896 67.2297V69.5797C26.3896 71.5263 27.163 73.3933 28.5395 74.7698C29.916 76.1463 31.783 76.9196 33.7296 76.9196C35.6763 76.9196 37.5433 76.1463 38.9198 74.7698C40.2963 73.3933 41.0696 71.5263 41.0696 69.5797V67.2297C41.0696 65.283 40.2963 63.416 38.9198 62.0395C37.5433 60.663 35.6763 59.8896 33.7296 59.8896C31.783 59.8896 29.916 60.663 28.5395 62.0395C27.163 63.416 26.3896 65.283 26.3896 67.2297ZM38.8696 67.2297V69.5797C38.8696 70.9429 38.3281 72.2502 37.3642 73.2142C36.4002 74.1781 35.0929 74.7197 33.7296 74.7197C32.3664 74.7197 31.0591 74.1781 30.0951 73.2142C29.1312 72.2502 28.5896 70.9429 28.5896 69.5797V67.2297C28.5896 65.8664 29.1312 64.5591 30.0951 63.5951C31.0591 62.6312 32.3664 62.0896 33.7296 62.0896C35.0929 62.0896 36.4002 62.6312 37.3642 63.5951C38.3281 64.5591 38.8696 65.8664 38.8696 67.2297Z" fill="#002C3C"/>
<path d="M78.2298 78.6504H57.5398C53.9798 78.6504 51.0898 81.1404 51.0898 84.2004V88.6604C51.0898 88.9521 51.2057 89.2319 51.412 89.4382C51.6183 89.6445 51.8981 89.7604 52.1898 89.7604C52.4816 89.7604 52.7614 89.6445 52.9677 89.4382C53.174 89.2319 53.2898 88.9521 53.2898 88.6604V84.2004C53.2898 82.3504 55.1898 80.8404 57.5398 80.8404H78.2298C78.786 80.843 79.3186 81.0651 79.7119 81.4584C80.1051 81.8516 80.3272 82.3842 80.3298 82.9404V88.6604C80.3298 88.9521 80.4457 89.2319 80.652 89.4382C80.8583 89.6445 81.1381 89.7604 81.4298 89.7604C81.7216 89.7604 82.0014 89.6445 82.2077 89.4382C82.4139 89.2319 82.5298 88.9521 82.5298 88.6604V82.9404C82.5272 81.8017 82.073 80.7105 81.2669 79.9063C80.4608 79.1021 79.3685 78.6504 78.2298 78.6504Z" fill="#002C3C"/>
<path d="M60 67.2297V69.5797C60 71.5263 60.7733 73.3933 62.1498 74.7698C63.5264 76.1463 65.3933 76.9196 67.34 76.9196C69.2867 76.9196 71.1536 76.1463 72.5302 74.7698C73.9067 73.3933 74.68 71.5263 74.68 69.5797V67.2297C74.68 65.283 73.9067 63.416 72.5302 62.0395C71.1536 60.663 69.2867 59.8896 67.34 59.8896C65.3933 59.8896 63.5264 60.663 62.1498 62.0395C60.7733 63.416 60 65.283 60 67.2297ZM62.2 67.2297C62.2 65.8664 62.7415 64.5591 63.7055 63.5951C64.6694 62.6312 65.9768 62.0896 67.34 62.0896C68.7032 62.0896 70.0106 62.6312 70.9745 63.5951C71.9385 64.5591 72.48 65.8664 72.48 67.2297V69.5797C72.48 70.9429 71.9385 72.2502 70.9745 73.2142C70.0106 74.1781 68.7032 74.7197 67.34 74.7197C65.9768 74.7197 64.6694 74.1781 63.7055 73.2142C62.7415 72.2502 62.2 70.9429 62.2 69.5797V67.2297Z" fill="#002C3C"/>
<path d="M27.3301 51.6102H35.0601C35.2217 51.6069 35.3811 51.573 35.5301 51.5102L35.6501 51.4402C35.746 51.3896 35.8365 51.3293 35.9201 51.2602L36.0201 51.1202C36.0825 51.0467 36.1362 50.9662 36.1801 50.8802C36.206 50.8155 36.2261 50.7486 36.2401 50.6802C36.2646 50.615 36.2847 50.5482 36.3001 50.4802L37.0701 42.4802C37.094 42.3166 37.0853 42.1499 37.0444 41.9896C37.0034 41.8294 36.9311 41.6789 36.8316 41.5468C36.7321 41.4147 36.6073 41.3037 36.4646 41.2202C36.3219 41.1367 36.164 41.0823 36.0001 41.0602C35.6693 41.0322 35.3408 41.1348 35.0847 41.346C34.8287 41.5572 34.6655 41.8602 34.6301 42.1902L34.1301 47.4102C30.9701 43.4175 29.3404 38.4273 29.5348 33.3392C29.7291 28.2511 31.7347 23.3997 35.19 19.6597C38.6453 15.9196 43.323 13.537 48.3799 12.9412C53.4368 12.3454 58.5402 13.5757 62.7701 16.4102C62.9058 16.5078 63.0597 16.5772 63.2227 16.6142C63.3857 16.6512 63.5545 16.6552 63.7191 16.6258C63.8836 16.5965 64.0406 16.5345 64.1808 16.4434C64.321 16.3523 64.4414 16.234 64.5351 16.0955C64.6287 15.9571 64.6936 15.8012 64.726 15.6372C64.7584 15.4732 64.7575 15.3044 64.7235 15.1408C64.6894 14.9771 64.6229 14.8219 64.5279 14.6844C64.4328 14.5469 64.3112 14.4299 64.1701 14.3402C59.4355 11.123 53.7016 9.7159 48.0155 10.3759C42.3294 11.0359 37.0704 13.719 33.1986 17.9353C29.3268 22.1515 27.1006 27.6197 26.9265 33.3413C26.7524 39.0629 28.6419 44.6563 32.2501 49.1002H27.3301C26.9986 49.1002 26.6806 49.2319 26.4462 49.4664C26.2118 49.7008 26.0801 50.0187 26.0801 50.3502C26.0801 50.6818 26.2118 50.9997 26.4462 51.2341C26.6806 51.4686 26.9986 51.6002 27.3301 51.6002V51.6102Z" fill="#002C3C"/>
</svg>
