<svg width="19" height="17" viewBox="0 0 19 17" fill="none" xmlns="http://www.w3.org/2000/svg">
    <path d="M1.70929 11.1484C1.69434 10.7292 1.85434 10.3852 2.1194 10.0901C2.30041 9.88865 2.48546 9.69107 2.67577 9.49993C2.76627 9.40887 2.78203 9.3496 2.68587 9.24178C2.42243 8.94713 2.28021 8.59277 2.27253 8.17957C2.26808 7.91971 2.17556 7.70194 1.99535 7.51424C1.44343 6.93953 0.899983 6.35538 0.354116 5.7738C-0.113769 5.27512 -0.119426 4.72791 0.345631 4.23181C1.4507 3.05276 2.55738 1.87586 3.66689 0.701544C4.1469 0.193846 4.64913 0.19943 5.12792 0.706699C5.49439 1.09499 5.8548 1.48972 6.22733 1.87157C6.58532 2.23881 7.02088 2.40289 7.50372 2.25385C8.14171 2.05669 8.75182 2.11898 9.35425 2.37583C9.59749 2.47935 9.81244 2.49051 10.0581 2.35178C10.4258 2.14432 10.8399 2.0932 11.2517 2.0975C11.8234 2.10351 12.2937 1.88317 12.6985 1.46266C13.0779 1.06836 13.4715 0.689518 13.859 0.303804C14.2731 -0.108539 14.8069 -0.103385 15.2044 0.333012C15.7697 0.953675 16.3265 1.58379 16.8869 2.21004C17.3685 2.74823 17.8505 3.28599 18.3322 3.82376C18.8243 4.37355 18.8227 4.8602 18.3269 5.41085C17.9091 5.87517 17.4946 6.34335 17.0727 6.8038C16.7891 7.11349 16.6659 7.48675 16.659 7.90854C16.6525 8.3153 16.6364 8.7212 16.581 9.12409C16.5439 9.39555 16.457 9.65069 16.3245 9.88521C16.2671 9.98701 16.2574 10.0648 16.3164 10.1773C16.8331 11.1643 16.3725 12.2296 15.3277 12.4619C15.1879 12.4929 15.1386 12.5418 15.1099 12.6982C14.9899 13.348 14.619 13.7647 14.0081 13.9163C13.8679 13.9511 13.8012 13.9962 13.7737 14.1633C13.659 14.8591 13.2775 15.3015 12.6161 15.4467C12.501 15.472 12.442 15.536 12.4274 15.6597C12.3527 16.2881 12.0286 16.7202 11.4694 16.9144C10.8876 17.1163 10.3716 16.956 9.94254 16.4874C9.75022 16.2774 9.54698 16.079 9.36112 15.8633C9.2496 15.7341 9.17485 15.7499 9.06899 15.8685C8.85646 16.1069 8.6407 16.3435 8.41161 16.5635C7.60392 17.3379 6.35905 17.0192 6.0645 15.9467C5.98652 15.6623 5.88996 15.5399 5.60753 15.4703C5.05843 15.3355 4.72509 14.9205 4.60266 14.3347C4.56953 14.1762 4.51539 14.1186 4.35579 14.1074C3.78083 14.0671 3.2879 13.5757 3.14931 12.9052C3.11537 12.7403 3.04426 12.6866 2.90284 12.6599C2.1695 12.5225 1.70727 11.9323 1.70929 11.1484ZM15.6263 10.9388C15.6396 10.7563 15.5257 10.618 15.3996 10.4831C14.4141 9.42992 13.425 8.38016 12.4472 7.3188C12.0565 6.89486 11.5882 6.64015 11.0557 6.50356C10.7688 6.43012 10.4981 6.47521 10.25 6.66163C10.0339 6.82442 9.86577 7.03918 9.67425 7.22903C9.27142 7.62763 8.80394 7.89522 8.26292 8.00862C7.64796 8.13748 6.91947 7.75391 6.61401 7.14742C6.31218 6.5478 6.42006 5.81675 6.89118 5.31507C7.24715 4.9358 7.60877 4.56254 7.96877 4.18757C8.23747 3.90752 8.50535 3.62661 8.77889 3.35214C8.88394 3.24648 8.86778 3.20481 8.73323 3.16186C8.44151 3.06908 8.15181 3.06522 7.86009 3.15026C6.97118 3.40884 6.20228 3.18033 5.54773 2.50168C5.21116 2.15248 4.8762 1.80113 4.55216 1.43861C4.42892 1.30073 4.357 1.30589 4.23215 1.4399C3.17274 2.57642 2.10929 3.70865 1.03857 4.83314C0.904428 4.97446 0.927458 5.04318 1.04706 5.16731C1.58969 5.73171 2.12465 6.30469 2.65961 6.87725C2.96506 7.20369 3.14608 7.5894 3.15012 8.06016C3.15173 8.24915 3.20547 8.42354 3.31658 8.57774C3.38527 8.67309 3.44184 8.68856 3.52507 8.59492C3.66366 8.43943 3.80386 8.2848 3.95417 8.1422C4.36953 7.7479 4.85277 7.63407 5.37843 7.81705C5.90733 8.00132 6.22774 8.4055 6.32592 8.98836C6.35259 9.14729 6.43017 9.18079 6.5534 9.20098C7.14896 9.29848 7.61564 9.74562 7.732 10.3607C7.76635 10.542 7.84958 10.5926 7.99706 10.6141C8.61444 10.7047 9.0795 11.1738 9.19344 11.8284C9.21809 11.9688 9.27102 12.0492 9.40556 12.0655C9.77042 12.1097 10.0581 12.3069 10.3114 12.5779C10.8323 13.1354 11.3555 13.6904 11.8795 14.2445C11.9458 14.3145 12.0145 14.3866 12.0933 14.4386C12.2674 14.5529 12.4517 14.5533 12.6286 14.4446C12.7983 14.3402 12.8812 14.1792 12.8856 13.967C12.8897 13.7703 12.7996 13.6302 12.6763 13.4997C12.1381 12.9301 11.6016 12.3593 11.0658 11.7876C10.9902 11.7068 10.9135 11.6244 10.8512 11.5324C10.7187 11.3361 10.7498 11.0655 10.9131 10.9096C11.0755 10.755 11.3102 10.7468 11.486 10.895C11.5438 10.9436 11.5943 11.002 11.6464 11.0574C12.1789 11.6226 12.7107 12.1888 13.2432 12.754C13.3895 12.9095 13.5523 13.0388 13.7745 13.0006C13.981 12.9649 14.1325 12.8446 14.2044 12.6277C14.282 12.3928 14.2226 12.1918 14.0626 12.0212C13.522 11.4444 12.9794 10.8697 12.4391 10.2924C12.3636 10.2117 12.2872 10.1288 12.2278 10.0347C12.1119 9.85128 12.1361 9.61805 12.2739 9.46213C12.4149 9.30278 12.648 9.26627 12.8274 9.38525C12.8949 9.42992 12.9531 9.4922 13.0101 9.55233C13.543 10.1172 14.0743 10.6837 14.6077 11.2481C14.6739 11.3181 14.7434 11.3885 14.8218 11.4414C14.9947 11.5578 15.1814 11.5569 15.3584 11.4564C15.5382 11.3529 15.6303 11.185 15.6263 10.9388ZM7.3425 6.39575C7.34654 6.74753 7.61645 7.03446 7.93201 7.05937C8.35343 7.09244 8.68111 6.86694 8.98495 6.6015C9.20233 6.41165 9.38778 6.18013 9.60557 5.99071C10.1106 5.55131 10.6779 5.41171 11.3216 5.58954C12.0731 5.79657 12.6937 6.20719 13.2291 6.80294C13.9571 7.61346 14.7135 8.39562 15.4517 9.19625C15.5907 9.34702 15.625 9.27615 15.6642 9.12753C15.7487 8.80711 15.7467 8.47852 15.7479 8.15079C15.7515 7.31837 15.9632 6.58303 16.5576 5.99243C16.9544 5.59813 17.3111 5.15829 17.6913 4.74509C17.7835 4.64458 17.7762 4.58273 17.6869 4.48351C16.6748 3.35858 15.6651 2.23108 14.661 1.098C14.5475 0.969997 14.4796 0.982024 14.3713 1.09327C13.9992 1.47512 13.6206 1.84966 13.2428 2.22507C12.6941 2.77056 12.0464 3.0678 11.2921 3.05104C10.6929 3.03773 10.1801 3.24906 9.75547 3.67944C9.00152 4.4427 8.26332 5.22315 7.51867 5.99715C7.40351 6.11742 7.34533 6.26518 7.3425 6.39575ZM5.46167 9.24909C5.44914 9.03003 5.35783 8.84877 5.15863 8.74439C4.95095 8.63573 4.71539 8.68168 4.53196 8.87497C3.94609 9.49263 3.36224 10.1124 2.78163 10.7357C2.53758 10.9977 2.52708 11.3155 2.74163 11.5535C2.95981 11.7953 3.28103 11.7979 3.52871 11.5385C4.1166 10.9229 4.69761 10.2997 5.28025 9.67861C5.38813 9.56436 5.45439 9.42691 5.46167 9.24909ZM4.02447 12.5908C4.02326 12.8433 4.1166 13.013 4.30892 13.117C4.52832 13.2359 4.73923 13.193 4.90489 13.0207C5.51985 12.382 6.13077 11.7378 6.73037 11.0827C6.94815 10.8448 6.92351 10.508 6.71259 10.2933C6.49522 10.0716 6.19986 10.0639 5.97238 10.3019C5.36348 10.9375 4.76388 11.5831 4.16064 12.2248C4.05922 12.3326 4.01801 12.4645 4.02447 12.5908ZM7.79948 11.5427C7.63301 11.5397 7.50331 11.6231 7.39018 11.7425C7.17078 11.974 6.9526 12.2068 6.73401 12.4392C6.3635 12.8335 5.98652 13.2209 5.6249 13.6247C5.31379 13.9721 5.47177 14.4871 5.91177 14.5803C6.13158 14.6267 6.29966 14.5065 6.44754 14.3497C6.99422 13.769 7.54129 13.1883 8.08635 12.6058C8.14736 12.5405 8.20676 12.4692 8.2512 12.3902C8.45929 12.0212 8.20433 11.5466 7.79948 11.5427ZM9.1494 13.0014C9.04556 13.0027 8.91101 13.0877 8.79263 13.2136C8.21848 13.8252 7.6419 14.4339 7.06977 15.0477C6.83704 15.2972 6.82492 15.6456 7.02937 15.8711C7.24068 16.1039 7.56069 16.1142 7.80312 15.8625C8.40393 15.2388 8.99344 14.6035 9.58456 13.97C9.63506 13.9159 9.67385 13.8433 9.70133 13.772C9.84153 13.4052 9.58577 13.001 9.1494 13.0014ZM11.5511 15.4806C11.5462 15.332 11.5014 15.2036 11.4108 15.1039C11.1502 14.8166 10.8836 14.5352 10.6181 14.2526C10.5809 14.2127 10.5357 14.1581 10.4929 14.2449C10.3559 14.5215 10.1417 14.729 9.94012 14.948C9.88234 15.0107 9.87951 15.0704 9.9389 15.1327C10.1918 15.3982 10.4363 15.6739 10.7001 15.9265C10.8634 16.0824 11.0674 16.091 11.2638 15.9797C11.4517 15.8724 11.5397 15.6963 11.5511 15.4806Z" fill="#00394D"/>
</svg>
