<svg width="17" height="15" viewBox="0 0 17 15" fill="none" xmlns="http://www.w3.org/2000/svg">
<path d="M1.5539 9.83686C1.54031 9.46697 1.68576 9.16339 1.92672 8.90303C2.09128 8.72528 2.25951 8.55094 2.43252 8.38229C2.51479 8.30194 2.52912 8.24964 2.4417 8.15452C2.20221 7.89453 2.07291 7.58186 2.06594 7.21727C2.06189 6.98798 1.97778 6.79583 1.81396 6.63021C1.31221 6.12312 0.818166 5.60769 0.321924 5.09453C-0.103427 4.65452 -0.108569 4.17168 0.31421 3.73395C1.31882 2.69361 2.32489 1.65517 3.33354 0.61901C3.76991 0.171041 4.22648 0.175968 4.66175 0.623558C4.99491 0.966167 5.32255 1.31446 5.66121 1.65138C5.98665 1.97542 6.38262 2.1202 6.82156 1.98869C7.40155 1.81473 7.9562 1.86968 8.50386 2.09632C8.72499 2.18766 8.9204 2.19751 9.14373 2.0751C9.47798 1.89205 9.85448 1.84694 10.2288 1.85073C10.7485 1.85604 11.1761 1.66162 11.5441 1.29058C11.889 0.942669 12.2468 0.608398 12.5991 0.268063C12.9756 -0.09577 13.4608 -0.0912221 13.8222 0.293834C14.3361 0.841478 14.8423 1.39746 15.3517 1.95003C15.7896 2.42491 16.2278 2.89941 16.6656 3.37391C17.113 3.85902 17.1115 4.28841 16.6608 4.77428C16.281 5.18397 15.9042 5.59707 15.5207 6.00335C15.2628 6.27661 15.1508 6.60595 15.1446 6.97812C15.1387 7.33703 15.124 7.69518 15.0737 8.05067C15.0399 8.29019 14.9609 8.51532 14.8404 8.72225C14.7883 8.81207 14.7794 8.88066 14.8331 8.97996C15.3029 9.85088 14.8841 10.7908 13.9342 10.9958C13.8072 11.0231 13.7623 11.0663 13.7363 11.2043C13.6272 11.7777 13.29 12.1453 12.7346 12.2791C12.6071 12.3098 12.5465 12.3496 12.5216 12.497C12.4172 13.111 12.0705 13.5013 11.4692 13.6294C11.3645 13.6518 11.3109 13.7083 11.2977 13.8174C11.2297 14.3719 10.9351 14.7532 10.4268 14.9245C9.89782 15.1026 9.42876 14.9612 9.03868 14.5477C8.86383 14.3624 8.67907 14.1873 8.51011 13.9971C8.40873 13.883 8.34078 13.897 8.24454 14.0016C8.05133 14.212 7.85519 14.4208 7.64692 14.6148C6.91266 15.2981 5.78096 15.0169 5.51319 14.0706C5.44229 13.8197 5.35451 13.7117 5.09775 13.6503C4.59857 13.5313 4.29554 13.1652 4.18424 12.6482C4.15412 12.5084 4.1049 12.4576 3.95981 12.4477C3.43712 12.4121 2.989 11.9785 2.86301 11.3869C2.83215 11.2414 2.76751 11.194 2.63895 11.1705C1.97227 11.0493 1.55206 10.5285 1.5539 9.83686ZM14.2057 9.65191C14.2178 9.49084 14.1142 9.36881 13.9996 9.2498C13.1038 8.32051 12.2046 7.39426 11.3157 6.45777C10.9605 6.0837 10.5347 5.85896 10.0506 5.73844C9.78983 5.67363 9.54373 5.71342 9.3182 5.87791C9.12169 6.02155 8.96889 6.21104 8.79478 6.37856C8.42856 6.73026 8.00358 6.96637 7.51175 7.06643C6.95269 7.18013 6.29042 6.84169 6.01273 6.30655C5.73835 5.77747 5.83642 5.13243 6.26471 4.68977C6.58832 4.35512 6.91706 4.02577 7.24434 3.69491C7.48861 3.44781 7.73214 3.19995 7.98081 2.95777C8.07631 2.86454 8.06162 2.82778 7.9393 2.78988C7.6741 2.70802 7.41074 2.7046 7.14553 2.77964C6.33744 3.0078 5.63844 2.80617 5.04339 2.20737C4.73742 1.89925 4.43291 1.58923 4.13833 1.26936C4.0263 1.1477 3.96091 1.15225 3.84741 1.2705C2.88431 2.27331 1.91754 3.27234 0.944156 4.26454C0.822207 4.38923 0.843144 4.44986 0.951869 4.55939C1.44517 5.05739 1.9315 5.56297 2.41782 6.06816C2.69551 6.3562 2.86007 6.69653 2.86374 7.11191C2.86521 7.27866 2.91407 7.43253 3.01508 7.56859C3.07752 7.65273 3.12894 7.66637 3.20461 7.58375C3.3306 7.44656 3.45806 7.31012 3.5947 7.18429C3.9723 6.83638 4.41161 6.73595 4.88949 6.8974C5.3703 7.05999 5.66158 7.41662 5.75084 7.93091C5.77508 8.07114 5.84561 8.1007 5.95764 8.11851C6.49906 8.20454 6.92331 8.59907 7.02909 9.14179C7.06032 9.30173 7.13598 9.34645 7.27005 9.3654C7.83131 9.44536 8.25409 9.85922 8.35767 10.4368C8.38008 10.5607 8.4282 10.6316 8.55051 10.646C8.8822 10.685 9.14373 10.859 9.37403 11.0981C9.8475 11.5901 10.3232 12.0797 10.7996 12.5686C10.8598 12.6304 10.9223 12.6941 10.9939 12.7399C11.1522 12.8408 11.3197 12.8411 11.4806 12.7453C11.6349 12.6532 11.7102 12.511 11.7142 12.3238C11.7179 12.1502 11.636 12.0267 11.5239 11.9115C11.0347 11.4089 10.5469 10.9052 10.0598 10.4008C9.99112 10.3296 9.92133 10.2568 9.86477 10.1757C9.74429 10.0025 9.77257 9.76372 9.92097 9.62614C10.0686 9.48971 10.282 9.4825 10.4418 9.61326C10.4943 9.65608 10.5403 9.70763 10.5876 9.75652C11.0718 10.2553 11.5552 10.7548 12.0393 11.2535C12.1722 11.3907 12.3203 11.5048 12.5223 11.4711C12.71 11.4396 12.8477 11.3335 12.9131 11.1421C12.9836 10.9348 12.9296 10.7574 12.7842 10.607C12.2927 10.098 11.7994 9.5909 11.3083 9.08153C11.2396 9.01028 11.1702 8.93713 11.1162 8.85413C11.0108 8.6923 11.0328 8.48651 11.1581 8.34894C11.2863 8.20833 11.4982 8.17612 11.6613 8.2811C11.7226 8.32051 11.7755 8.37547 11.8273 8.42853C12.3118 8.9269 12.7948 9.42679 13.2797 9.92479C13.3399 9.98656 13.4031 10.0487 13.4744 10.0953C13.6316 10.198 13.8013 10.1973 13.9622 10.1086C14.1256 10.0173 14.2094 9.86908 14.2057 9.65191ZM6.675 5.64331C6.67868 5.95371 6.92404 6.20687 7.21092 6.22885C7.59403 6.25804 7.89192 6.05907 8.16814 5.82485C8.36575 5.65733 8.53435 5.45306 8.73233 5.28592C9.19148 4.89821 9.70719 4.77504 10.2923 4.93194C10.9755 5.11462 11.5397 5.47693 12.0264 6.0026C12.6883 6.71776 13.3759 7.4079 14.047 8.11434C14.1734 8.24737 14.2046 8.18483 14.2402 8.0537C14.317 7.77097 14.3152 7.48105 14.3163 7.19187C14.3196 6.45739 14.512 5.80855 15.0524 5.28744C15.4131 4.93952 15.7374 4.55143 16.083 4.18684C16.1668 4.09816 16.1602 4.04358 16.079 3.95604C15.1589 2.96346 14.241 1.9686 13.3282 0.96882C13.225 0.85588 13.1633 0.866492 13.0648 0.964651C12.7265 1.30157 12.3823 1.63206 12.0389 1.9633C11.5401 2.44462 10.9513 2.70688 10.2655 2.6921C9.72078 2.68035 9.25466 2.86681 8.86861 3.24656C8.1832 3.92003 7.51211 4.60866 6.83515 5.29161C6.73047 5.39772 6.67757 5.5281 6.675 5.64331ZM4.96515 8.16096C4.95377 7.96767 4.87075 7.80774 4.68967 7.71564C4.50087 7.61976 4.28672 7.66031 4.11996 7.83086C3.58735 8.37585 3.05658 8.92273 2.52875 9.47265C2.30689 9.70384 2.29734 9.98429 2.49239 10.1943C2.69074 10.4076 2.98275 10.4099 3.20792 10.181C3.74236 9.63789 4.27056 9.08797 4.80023 8.53995C4.8983 8.43914 4.95854 8.31786 4.96515 8.16096ZM3.65861 11.1095C3.65751 11.3324 3.74236 11.4821 3.9172 11.5738C4.11665 11.6788 4.30839 11.6409 4.45899 11.4889C5.01805 10.9253 5.57343 10.3568 6.11852 9.77888C6.3165 9.56891 6.2941 9.27178 6.10236 9.08229C5.90474 8.88673 5.63624 8.87991 5.42944 9.08987C4.87589 9.65078 4.3308 10.2204 3.7824 10.7866C3.6902 10.8817 3.65274 10.9981 3.65861 11.1095ZM7.09044 10.1848C6.9391 10.1821 6.82119 10.2556 6.71835 10.361C6.51889 10.5653 6.32054 10.7707 6.12183 10.9757C5.785 11.3236 5.44229 11.6655 5.11355 12.0218C4.83072 12.3284 4.97433 12.7828 5.37434 12.865C5.57416 12.9059 5.72696 12.7998 5.8614 12.6615C6.35838 12.1491 6.85572 11.6367 7.35123 11.1228C7.40669 11.0652 7.46069 11.0023 7.50109 10.9325C7.69026 10.607 7.45849 10.1882 7.09044 10.1848ZM8.31764 11.4718C8.22324 11.473 8.10092 11.548 7.9933 11.6591C7.47134 12.1987 6.94718 12.7358 6.42707 13.2774C6.21549 13.4975 6.20447 13.8049 6.39033 14.0039C6.58244 14.2093 6.87335 14.2184 7.09374 13.9963C7.63994 13.446 8.17585 12.8855 8.71323 12.3265C8.75915 12.2787 8.79441 12.2147 8.81939 12.1517C8.94685 11.8281 8.71434 11.4715 8.31764 11.4718ZM10.501 13.6594C10.4965 13.5282 10.4558 13.4149 10.3735 13.327C10.1366 13.0735 9.89415 12.8252 9.65283 12.5758C9.61903 12.5406 9.57789 12.4925 9.53896 12.569C9.41444 12.8131 9.21976 12.9961 9.03647 13.1894C8.98395 13.2448 8.98137 13.2974 9.03537 13.3524C9.26531 13.5866 9.48753 13.8299 9.72739 14.0528C9.87579 14.1903 10.0613 14.1979 10.2398 14.0998C10.4106 14.005 10.4907 13.8496 10.501 13.6594Z" fill="#404040"/>
</svg>
