<?xml version="1.0" encoding="UTF-8"?>
<svg width="122px" height="122px" viewBox="0 0 122 122" version="1.1" xmlns="http://www.w3.org/2000/svg" xmlns:xlink="http://www.w3.org/1999/xlink">
    <!-- Generator: Sketch 61.2 (89653) - https://sketch.com -->
    <title>Group 17</title>
    <desc>Created with Sketch.</desc>
    <g id="Messages-DS" stroke="none" stroke-width="1" fill="none" fill-rule="evenodd">
        <g id="Empty-state---no-connection" transform="translate(-862.000000, -454.000000)" stroke="#A6A6A6" stroke-width="2">
            <g id="Group-3" transform="translate(723.000000, 455.000000)">
                <g id="Group-17" transform="translate(140.000000, 0.000000)">
                    <line x1="35.0943396" y1="35.0943396" x2="19.245283" y2="19.245283" id="Stroke-1"></line>
                    <line x1="5.66037736" y1="44.5552561" x2="26.6037736" y2="44.5552561" id="Stroke-2"></line>
                    <line x1="44.5552561" y1="5.66037736" x2="44.5552561" y2="26.6037736" id="Stroke-4"></line>
                    <line x1="84.9056604" y1="84.9056604" x2="100.754717" y2="100.754717" id="Stroke-7"></line>
                    <line x1="75" y1="114" x2="75" y2="93" id="Stroke-8"></line>
                    <line x1="114" y1="75" x2="93" y2="75" id="Stroke-10"></line>
                    <path d="M91.2189,61.7811 L113.1639,39.8361 C117.5409,35.4591 120.0009,29.5251 120.0009,23.3361 C120.0009,10.4481 109.5519,-0.0009 96.6639,-0.0009 C90.4749,-0.0009 84.5409,2.4591 80.1639,6.8361 L58.2669,28.7331" id="Stroke-12"></path>
                    <path d="M28.7811,58.2186 L6.8361,80.1636 C2.4591,84.5406 -0.0009,90.4746 -0.0009,96.6636 C-0.0009,109.5516 10.4481,120.0006 23.3361,120.0006 C29.5251,120.0006 35.4591,117.5406 39.8361,113.1636 L61.8111,91.1886" id="Stroke-14"></path>
                </g>
            </g>
        </g>
    </g>
</svg>