<?xml version="1.0" encoding="UTF-8"?>
<svg width="69" height="93" xmlns="http://www.w3.org/2000/svg">
  <g stroke-width="3" fill="none" fill-rule="evenodd" stroke-linecap="round" stroke-linejoin="round">
    <path d="M39 13.164V2C26.67 3.988 14.336 5.977 2 7.963v18.391l7.756.606V34c3.13-2.311 4.696-3.6 7.821-6.43 3.193.248 5.79.453 8.236.643V11.04c4.397.706 8.79 1.415 13.187 2.124z" stroke="#00394D"/>
    <path d="M26 30.624v11.12l23.739-1.846c3.463 3.129 5.197 4.549 8.666 7.102v-7.774L67 38.557V18.24L40.612 14" stroke="#FB641E"/>
    <path d="M42 13.736c-4.503-.724-11.497-2.015-16-2.736v19" stroke="#FB641E"/>
    <path d="M30 90.152c9.957 2.452 19.938-.558 27-7.152M56 83c4.318-3.598 7.546-8.387 9-14M64.68 69c1.495-5.876.943-11.755-1.202-17M30 90c-9.5-2.33-16.74-9.294-20-18M8.317 55c-1.491 5.877-.94 11.757 1.206 17M18 40c-4.318 3.598-7.546 8.387-9 14M21 72.615c-4.314-.414-8.1-.393-11 .066M9.494 72.5h.012M56 83c-2.442-1.691-5.886-3.411-10-5M56.502 83.5h-.004M34 75c4.4 1.125 8.47 2.504 12 4M21 72.332c3.964.387 8.381 1.158 13 2.337M53.566 52c.732 4.504.618 9.242-.588 14M32 90c5.515-2.448 10.37-6.62 14-12M48 78a35.948 35.948 0 005-11.997V66M20.437 72A35.862 35.862 0 0121 58M29 89c-4.209-4.711-6.975-10.613-8-17M25 48a36.904 36.904 0 00-4 10M35 74l3-12M41 43l-4 19M30 90l4-16M38 62l-16-4M9 55l12 3M65 69l-12-3M53 65l-16-4" stroke="#00394D"/>
  </g>
</svg>