<svg xmlns="http://www.w3.org/2000/svg" width="12" height="14" viewBox="0 0 12 14">
    <path fill="#404040" d="M6 7.667c-.416-.005-.79.25-.94.638-.148.388-.04.828.273 1.102v.926c0 .369.299.667.667.667.368 0 .667-.298.667-.667v-.926c.312-.274.42-.714.272-1.102-.149-.389-.523-.643-.939-.638zM9.333 5V3.667C9.333 1.826 7.841.333 6 .333c-1.84 0-3.333 1.493-3.333 3.334V5c-1.105 0-2 .895-2 2v4.667c0 1.104.895 2 2 2h6.666c1.105 0 2-.896 2-2V7c0-1.105-.895-2-2-2zM4 3.667c0-1.105.895-2 2-2s2 .895 2 2V5H4V3.667zm6 8c0 .368-.298.666-.667.666H2.667c-.369 0-.667-.298-.667-.666V7c0-.368.298-.667.667-.667h6.666c.369 0 .667.299.667.667v4.667z"/>
</svg>
