<svg xmlns="http://www.w3.org/2000/svg" width="68" height="27" viewBox="0 0 68 27">
    <g fill="none">
        <g fill="#225E63">
            <path d="M1.756 1.183l.68.15c-.045.142-.113.259-.215.35-.102.092-.216.167-.363.209-.147.05-.328.075-.555.075-.272 0-.487-.025-.669-.084-.17-.058-.317-.158-.441-.308C.068 1.433 0 1.242 0 1.017c0-.3.113-.534.329-.7C.544.15.86.075 1.258.075c.317 0 .555.05.736.142.181.091.317.233.397.433l-.68.108C1.688.7 1.666.658 1.63.633c-.045-.041-.09-.075-.158-.1C1.405.508 1.337.5 1.269.5 1.099.5.963.55.872.658.804.733.77.858.77 1.017c0 .2.046.341.125.416.08.075.204.117.351.117.148 0 .26-.033.329-.092.09-.075.147-.158.181-.275zM2.708 1.017c0-.3.113-.534.34-.7.226-.167.544-.25.952-.25.419 0 .736.083.963.241.226.167.34.392.34.692 0 .217-.046.392-.148.525s-.238.242-.43.317c-.182.075-.42.116-.692.116-.283 0-.51-.033-.702-.1-.181-.066-.329-.166-.453-.316-.125-.15-.17-.309-.17-.525zm.77 0c0 .183.046.316.136.4.09.083.216.125.386.125s.294-.042.385-.117c.09-.083.136-.225.136-.425 0-.175-.046-.3-.148-.375-.09-.083-.226-.117-.385-.117-.158 0-.283.042-.374.125-.09.067-.136.2-.136.384zM5.699.1L6.707.1 7.093 1.217 7.478.1 8.486.1 8.486 1.933 7.852 1.933 7.852.533 7.365 1.933 6.798 1.933 6.311.533 6.311 1.933 5.676 1.933 5.676.1zM8.985.1h1.28c.283 0 .487.05.623.15.136.1.204.233.204.417 0 .183-.08.333-.226.433-.148.108-.386.158-.692.158h-.419v.684h-.77V.1zm.77.783h.193c.147 0 .249-.016.317-.058.057-.042.09-.083.09-.142 0-.058-.022-.108-.079-.15-.056-.041-.147-.058-.294-.058h-.215v.408h-.012zM11.5.1L12.27.1 12.27 1.483 13.471 1.483 13.471 1.933 11.5 1.933zM13.857.1L14.627.1 14.627 1.933 13.857 1.933zM16.712 1.625h-.873l-.124.3h-.782l.94-1.833h.839l.94 1.833h-.804l-.136-.3zm-.159-.392l-.272-.658-.272.658h.544zM17.89.1L18.604.1 19.544 1.117 19.544.1 20.269.1 20.269 1.933 19.544 1.933 18.615.925 18.615 1.933 17.89 1.933 17.89.1zM20.609.1L22.955.1 22.955.55 22.173.55 22.173 1.933 21.402 1.933 21.402.55 20.621.55 20.621.1z" transform="translate(44 14)"/>
        </g>
        <path fill="#225E63" d="M37.664 17.75l2.257-.728-.733-1.667c-.539.692-1.078 1.585-1.524 2.395zm-.768-7.62L32.473.036.092 1.913l8.972 25.075 17.267-5.576c-1.1-1.62-1.5-3.545-.229-4.484 1.42-1.057 3.564.164 4.927 1.89 1.318-2.254 5.019-7.501 5.867-8.687z"/>
        <g fill="#FEFEFE">
            <path d="M25.277 4.825c1.352 0 2.452-1.057 2.452-2.372 0-1.314-1.1-2.37-2.452-2.37-1.352 0-2.452 1.056-2.452 2.37 0 1.304 1.1 2.372 2.452 2.372zm-2.005 1.021h4.01v10.741h-4.01V5.847zM21.29 8.98c.034.012.057 0 .057-.035V6.222c0-.035-.023-.07-.057-.094 0 0-.527-.352-2.132-.446-.08-.047-1.49-.059-1.867 0-5.844.481-6.062 4.813-6.062 5v1.057c0 .13 0 4.555 6.062 4.942.595.047 1.753 0 1.867 0 1.398 0 2.36-.434 2.36-.434.035-.012.058-.047.058-.082v-2.548c0-.035-.023-.047-.046-.023 0 0-.435.352-2.337.552-.539.058-.802.035-.997 0-2.704-.47-2.83-2.489-2.83-2.489 0-.035-.012-.094-.012-.117v-.775c0-.035 0-.094.012-.118 0 0 .183-2.171 2.83-2.406h.997c1.157.152 2.097.74 2.097.74zM.092 16.552c0 .035.023.059.057.059h3.907c.035 0 .058-.024.058-.059V13.43c0-.036.022-.06.057-.06 0 0 6.245.459 6.245-3.826 0-3.393-3.92-3.757-5.202-3.698H.149c-.034 0-.057.024-.057.059v10.647zm3.953-5.564V8.182h.962s1.387.059 1.501 1.033c.023.07.023.552 0 .575-.183 1.14-1.386 1.198-1.386 1.198H4.045z" transform="translate(6.187 2.506)"/>
        </g>
        <path fill="#2BBC5D" d="M31.58 24.277c.32 0 .572 0 .985-.188 1.42-.763 6.221-12.772 11.286-16.47.034-.024.069-.059.092-.094.034-.047.034-.094.034-.094s0-.247-.745-.247c-4.503-.129-9.19 9.556-11.653 13.383-.034.047-.195 0-.195 0s-1.65-1.996-3.082-2.759c-.034-.011-.195-.07-.367-.058-.114 0-.779.14-1.088.47-.367.398-.355.621-.355 1.103 0 .035.023.2.068.281.356.634 1.948 2.888 3.266 4.133.195.152.504.54 1.753.54z"/>
        <g fill="#225E63">
            <path d="M.033.162h3.58c.712 0 1.281.097 1.708.281.438.195.8.465 1.073.811.285.357.493.768.613 1.232.132.465.197.963.197 1.492 0 .822-.098 1.46-.284 1.914-.186.454-.45.832-.789 1.146-.339.303-.7.508-1.084.616-.525.14-1.007.205-1.434.205H.033V.162zm2.409 1.74v4.206h.59c.504 0 .866-.054 1.074-.162.208-.108.383-.303.503-.573.12-.27.187-.724.187-1.34 0-.822-.132-1.374-.405-1.676-.274-.303-.712-.454-1.347-.454h-.602zM7.872 5.319l2.3-.14c.054.367.153.648.306.843.252.313.602.464 1.062.464.34 0 .613-.075.8-.237.186-.163.284-.346.284-.552 0-.194-.088-.378-.263-.54-.175-.162-.59-.303-1.237-.443-1.062-.238-1.806-.552-2.266-.941-.46-.39-.68-.887-.68-1.492 0-.4.121-.767.351-1.124C8.76.8 9.11.53 9.58.324c.471-.205 1.106-.302 1.916-.302.997 0 1.763.183 2.278.551.525.368.832.951.93 1.751l-2.277.13c-.066-.346-.186-.595-.383-.757-.197-.162-.46-.238-.8-.238-.284 0-.492.055-.635.173-.142.12-.208.26-.208.433 0 .119.055.238.176.335.11.097.383.195.81.281 1.051.227 1.806.454 2.266.681.46.227.789.52.997.854.208.335.306.725.306 1.146 0 .497-.142.952-.416 1.362-.274.422-.668.735-1.16.952-.493.216-1.128.324-1.884.324-1.324 0-2.244-.249-2.759-.757-.503-.508-.788-1.146-.865-1.924z" transform="translate(46 4)"/>
        </g>
        <g fill="#225E63">
            <path d="M.022 5.319l2.261-.14c.054.367.15.648.302.843.247.313.592.464 1.044.464.334 0 .603-.075.786-.237.183-.163.28-.346.28-.552 0-.194-.086-.378-.258-.54-.172-.162-.582-.303-1.217-.443-1.045-.238-1.777-.552-2.23-.941-.44-.39-.667-.887-.667-1.492 0-.4.119-.767.345-1.124C.894.8 1.238.53 1.702.324 2.165.12 2.789.022 3.586.022c.98 0 1.734.183 2.24.551.517.368.819.951.916 1.751l-2.24.13c-.065-.346-.184-.595-.377-.757-.194-.162-.453-.238-.787-.238-.28 0-.484.055-.624.173-.14.12-.205.26-.205.433 0 .119.054.238.173.335.107.097.376.195.796.281 1.034.227 1.777.454 2.23.681.452.227.775.52.98.854.204.335.301.725.301 1.146 0 .497-.14.952-.409 1.362-.27.422-.657.735-1.142.952C4.954 7.892 4.33 8 3.586 8 2.283 8 1.378 7.751.872 7.243.366 6.735.086 6.097.022 5.32z" transform="translate(61 4)"/>
        </g>
    </g>
</svg>
