<svg width="101" height="100" viewBox="0 0 101 100" fill="none" xmlns="http://www.w3.org/2000/svg">
<path d="M75.61 90.77H24.84C23.9225 90.7783 23.0309 90.4662 22.3189 89.8875C21.6069 89.3088 21.1192 88.4998 20.94 87.6L15.87 54.46C15.7933 54.0248 15.8138 53.5781 15.9298 53.1517C16.0458 52.7254 16.2546 52.3299 16.5412 51.9937C16.8278 51.6574 17.1852 51.3885 17.5878 51.2064C17.9903 51.0242 18.4282 50.9333 18.87 50.94H81.3C81.7768 50.9316 82.2496 51.0285 82.6846 51.2239C83.1196 51.4193 83.5062 51.7083 83.8166 52.0704C84.127 52.4324 84.3537 52.8585 84.4805 53.3182C84.6073 53.7779 84.631 54.26 84.55 54.73L79.55 87.39C79.3894 88.3239 78.9081 89.1726 78.1888 89.7896C77.4695 90.4067 76.5575 90.7534 75.61 90.77ZM23.27 85.16L23.58 87.16C23.6657 87.4253 23.8345 87.656 24.0614 87.818C24.2882 87.9801 24.5612 88.0649 24.84 88.06H75.61C75.9125 88.049 76.2032 87.9395 76.4379 87.7481C76.6725 87.5568 76.8383 87.2941 76.91 87L81.91 54.34C81.9336 54.2514 81.9351 54.1584 81.9144 54.0691C81.8936 53.9798 81.8513 53.8969 81.791 53.8278C81.7308 53.7587 81.6545 53.7054 81.5689 53.6727C81.4833 53.6399 81.3909 53.6287 81.3 53.64H18.89C18.832 53.6357 18.7737 53.6433 18.7187 53.6622C18.6637 53.6811 18.6131 53.7109 18.57 53.75C18.5369 53.7955 18.5143 53.8479 18.504 53.9032C18.4936 53.9585 18.4956 54.0155 18.51 54.07L23.27 85.16Z" fill="#002C3C"/>
<path d="M51.53 52.33H48.86C48.5637 48.8341 46.9657 45.5769 44.3823 43.2031C41.7989 40.8294 38.4184 39.5121 34.91 39.5121C31.4016 39.5121 28.0211 40.8294 25.4377 43.2031C22.8542 45.5769 21.2562 48.8341 20.96 52.33H18.29C18.29 47.9221 20.041 43.6947 23.1579 40.5778C26.2747 37.461 30.5021 35.71 34.91 35.71C39.3179 35.71 43.5452 37.461 46.6621 40.5778C49.7789 43.6947 51.53 47.9221 51.53 52.33Z" fill="#002C3C"/>
<path d="M35.62 37.9998L34.33 37.8698C34.08 37.8698 28.18 37.2298 24.82 33.0598C23.9039 31.8863 23.24 30.5363 22.8701 29.0942C22.5001 27.6522 22.432 26.1494 22.67 24.6798L22.8 23.5798L23.91 23.4998C24.15 23.4998 29.78 23.1598 33.29 26.8898C35.48 29.2098 36.29 32.5198 35.78 36.7098L35.62 37.9998ZM25.21 26.1898C25.1287 28.0544 25.7136 29.887 26.86 31.3598C28.5306 33.2238 30.7572 34.5001 33.21 34.9998C33.3334 33.8852 33.2287 32.7571 32.902 31.6843C32.5753 30.6115 32.0337 29.6164 31.31 28.7598C29.6575 27.1887 27.4884 26.2749 25.21 26.1898Z" fill="#002C3C"/>
<path d="M39.66 36.7597H36.98V28.9997C37.0252 27.972 37.3731 26.9804 37.98 26.1497L43.46 18.9997V15.7397H46.14V19.9397L40.07 27.8097C39.8397 28.1677 39.6991 28.5759 39.66 28.9997V36.7597Z" fill="#002C3C"/>
<path d="M60.86 36.76H58.21V29C58.1756 28.5658 58.0348 28.1468 57.8 27.78L51.73 19.91V15.71H54.41V19L59.91 26.15C60.5207 26.9787 60.869 27.9714 60.91 29L60.86 36.76Z" fill="#002C3C"/>
<path d="M81.65 51.6498H78.98V38.7198C78.98 38.0298 78.55 37.4498 78.04 37.4498H52.54C52.03 37.4498 51.6 38.0298 51.6 38.7198V51.6498H48.93V38.7198C48.8892 37.7194 49.246 36.7435 49.9224 36.0053C50.5988 35.2671 51.5398 34.8265 52.54 34.7798H78.04C79.0401 34.8265 79.9811 35.2671 80.6575 36.0053C81.3339 36.7435 81.6907 37.7194 81.65 38.7198V51.6498Z" fill="#002C3C"/>
<path d="M53.26 16.67H44.6C43.944 16.67 43.3147 16.4101 42.8499 15.9471C42.3851 15.4842 42.1226 14.856 42.12 14.2V11.7C42.1226 11.044 42.3851 10.4157 42.8499 9.95282C43.3147 9.48989 43.944 9.22998 44.6 9.22998H53.26C53.9142 9.23261 54.541 9.49369 55.0036 9.95634C55.4663 10.419 55.7273 11.0457 55.73 11.7V14.2C55.7273 14.8543 55.4663 15.481 55.0036 15.9436C54.541 16.4063 53.9142 16.6673 53.26 16.67ZM44.8 14H53.06V11.9H44.8V14Z" fill="#002C3C"/>
<path d="M54.9 83.9C53.6733 83.902 52.4736 83.54 51.4527 82.86C50.4318 82.1799 49.6356 81.2123 49.1648 80.0796C48.694 78.9468 48.5698 77.6999 48.8079 76.4966C49.046 75.2932 49.6357 74.1876 50.5024 73.3195C51.3691 72.4514 52.4738 71.8599 53.6767 71.6199C54.8797 71.3798 56.1268 71.502 57.2603 71.971C58.3938 72.44 59.3627 73.2346 60.0444 74.2544C60.7261 75.2742 61.09 76.4733 61.09 77.7C61.09 79.3426 60.4381 80.9181 59.2776 82.0805C58.117 83.243 56.5426 83.8973 54.9 83.9Z" fill="#E24A04"/>
<path d="M44.838 59.544L36.7205 67.6616L44.838 75.7792L52.9556 67.6616L44.838 59.544Z" fill="#002C3C"/>
</svg>
