<svg width="100" height="100" viewBox="0 0 100 100" fill="none" xmlns="http://www.w3.org/2000/svg">
<path d="M54.0002 84.9401H36.2402C35.4446 84.9401 34.6815 84.624 34.1189 84.0614C33.5563 83.4988 33.2402 82.7357 33.2402 81.9401V44.9001C33.3004 43.5189 33.7136 42.1762 34.4402 41.0001L41.0002 30.9201C41.4505 30.1265 41.7138 29.2407 41.7702 28.3301V24.3301H44.1702V28.3301C44.1174 29.7051 43.7147 31.044 43.0002 32.2201L36.4302 42.3201C35.9758 43.1082 35.7121 43.9918 35.6602 44.9001V82.0001C35.6602 82.1486 35.7192 82.291 35.8243 82.3961C35.9293 82.5011 36.0717 82.5601 36.2202 82.5601H54.0002V84.9401Z" fill="#002C3C"/>
<path d="M53.7203 24.85H43.0703C42.2747 24.85 41.5116 24.5339 40.949 23.9713C40.3864 23.4087 40.0703 22.6456 40.0703 21.85V18C40.0703 17.2044 40.3864 16.4413 40.949 15.8787C41.5116 15.3161 42.2747 15 43.0703 15H53.7203C54.516 15 55.279 15.3161 55.8416 15.8787C56.4042 16.4413 56.7203 17.2044 56.7203 18V21.87C56.715 22.6622 56.3966 23.4201 55.8346 23.9784C55.2726 24.5367 54.5125 24.85 53.7203 24.85ZM43.0703 17.46C42.9959 17.4587 42.922 17.4722 42.8529 17.4997C42.7838 17.5273 42.7209 17.5683 42.6679 17.6204C42.6148 17.6726 42.5726 17.7348 42.5439 17.8034C42.5151 17.872 42.5003 17.9456 42.5003 18.02V21.89C42.5003 21.9644 42.5151 22.038 42.5439 22.1066C42.5726 22.1752 42.6148 22.2374 42.6679 22.2896C42.7209 22.3417 42.7838 22.3827 42.8529 22.4103C42.922 22.4378 42.9959 22.4513 43.0703 22.45H53.7203C53.8698 22.45 54.0133 22.3913 54.1199 22.2866C54.2265 22.1819 54.2877 22.0394 54.2903 21.89V18C54.2877 17.8506 54.2265 17.7081 54.1199 17.6034C54.0133 17.4987 53.8698 17.44 53.7203 17.44L43.0703 17.46Z" fill="#002C3C"/>
<path d="M58.5098 39.5403L53.3298 31.5903C52.872 30.8346 52.6171 29.9734 52.5898 29.0903V24.2803H54.9998V29.0903C55.0302 29.5074 55.1496 29.9131 55.3498 30.2803L60.5298 38.2303L58.5098 39.5403Z" fill="#002C3C"/>
<path d="M35.3804 72.7196C35.0797 72.6922 34.8002 72.5533 34.5967 72.3304C34.3931 72.1074 34.2803 71.8165 34.2803 71.5146C34.2803 71.2127 34.3931 70.9217 34.5967 70.6987C34.8002 70.4758 35.0797 70.337 35.3804 70.3096H53.5204C53.8386 70.3096 54.1439 70.436 54.3689 70.661C54.594 70.8861 54.7204 71.1913 54.7204 71.5096C54.7204 71.8278 54.594 72.1331 54.3689 72.3581C54.1439 72.5831 53.8386 72.7096 53.5204 72.7096L35.3904 72.7696L35.3804 72.7196Z" fill="#002C3C"/>
<path d="M35.3797 55.5699C35.0614 55.5699 34.7562 55.4435 34.5312 55.2185C34.3061 54.9934 34.1797 54.6882 34.1797 54.3699C34.1797 54.0517 34.3061 53.7464 34.5312 53.5214C34.7562 53.2964 35.0614 53.1699 35.3797 53.1699H53.5097C53.8103 53.1973 54.0899 53.3362 54.2934 53.5591C54.497 53.7821 54.6098 54.073 54.6098 54.3749C54.6098 54.6768 54.497 54.9678 54.2934 55.1907C54.0899 55.4137 53.8103 55.5525 53.5097 55.5799L35.3797 55.5699Z" fill="#002C3C"/>
<path d="M48.8396 66.1197H38.8396C38.5214 66.1197 38.2162 65.9933 37.9911 65.7683C37.7661 65.5432 37.6396 65.238 37.6396 64.9197C37.6396 64.6015 37.7661 64.2962 37.9911 64.0712C38.2162 63.8462 38.5214 63.7197 38.8396 63.7197H48.8396C49.1579 63.7197 49.4631 63.8462 49.6882 64.0712C49.9132 64.2962 50.0396 64.6015 50.0396 64.9197C50.0396 65.238 49.9132 65.5432 49.6882 65.7683C49.4631 65.9933 49.1579 66.1197 48.8396 66.1197Z" fill="#E24A04"/>
<path d="M86.1403 84.9396H55.2903C54.5591 84.9369 53.8586 84.6453 53.3416 84.1283C52.8245 83.6112 52.5329 82.9108 52.5303 82.1796V49.1796C52.5794 47.9435 52.9222 46.7369 53.5303 45.6596L59.2403 36.1796C59.6138 35.4745 59.8288 34.6964 59.8703 33.8996V29.2596C59.8729 28.6769 60.1055 28.1189 60.5175 27.7068C60.9296 27.2948 61.4876 27.0622 62.0703 27.0596H80.3803C81.1105 27.0622 81.81 27.3542 82.3254 27.8715C82.8409 28.3888 83.1303 29.0893 83.1303 29.8196V34.7396C83.1581 35.1993 83.2699 35.6501 83.4603 36.0696L88.0503 44.8696C88.5711 45.9654 88.8604 47.1569 88.9003 48.3696V82.1796C88.8976 82.9108 88.606 83.6112 88.089 84.1283C87.572 84.6453 86.8715 84.9369 86.1403 84.9396ZM55.5603 46.8696C55.1868 47.5746 54.9718 48.3528 54.9303 49.1496V82.1496C54.9303 82.2451 54.9682 82.3366 55.0357 82.4041C55.1032 82.4716 55.1948 82.5096 55.2903 82.5096H86.1403C86.2358 82.5096 86.3273 82.4716 86.3948 82.4041C86.4623 82.3366 86.5003 82.2451 86.5003 82.1496V48.3696C86.4617 47.5495 86.2648 46.7447 85.9203 45.9996L81.3303 37.2096C80.9629 36.4432 80.7586 35.609 80.7303 34.7596V29.8196C80.7303 29.7258 80.6938 29.6357 80.6284 29.5685C80.563 29.5013 80.474 29.4622 80.3803 29.4596H62.2503V33.8696C62.197 35.105 61.8545 36.3107 61.2503 37.3896L55.5603 46.8696Z" fill="#002C3C"/>
<path d="M76.3296 36.7896H61.0496C60.7314 36.7896 60.4261 36.6632 60.2011 36.4382C59.976 36.2131 59.8496 35.9079 59.8496 35.5896C59.8496 35.2714 59.976 34.9662 60.2011 34.7411C60.4261 34.5161 60.7314 34.3896 61.0496 34.3896H76.3296C76.6479 34.3896 76.9531 34.5161 77.1781 34.7411C77.4032 34.9662 77.5296 35.2714 77.5296 35.5896C77.5296 35.9079 77.4032 36.2131 77.1781 36.4382C76.9531 36.6632 76.6479 36.7896 76.3296 36.7896Z" fill="#002C3C"/>
<path d="M82.4997 48.9996H54.4197C54.1015 48.9996 53.7962 48.8732 53.5712 48.6481C53.3462 48.4231 53.2197 48.1179 53.2197 47.7996C53.2197 47.4814 53.3462 47.1761 53.5712 46.9511C53.7962 46.726 54.1015 46.5996 54.4197 46.5996H82.4997C82.818 46.5996 83.1232 46.726 83.3483 46.9511C83.5733 47.1761 83.6997 47.4814 83.6997 47.7996C83.6997 48.1179 83.5733 48.4231 83.3483 48.6481C83.1232 48.8732 82.818 48.9996 82.4997 48.9996Z" fill="#002C3C"/>
<path d="M76.1696 48.94C75.9652 48.9315 75.7664 48.8709 75.592 48.7639C75.4176 48.6569 75.2735 48.5072 75.1733 48.3288C75.0731 48.1505 75.0202 47.9495 75.0195 47.7449C75.0189 47.5403 75.0705 47.339 75.1696 47.16L81.1996 36.25C81.3652 35.9937 81.6222 35.8101 81.9183 35.7366C82.2144 35.663 82.5275 35.705 82.7937 35.8541C83.06 36.0031 83.2594 36.248 83.3516 36.5389C83.4437 36.8298 83.4215 37.1449 83.2896 37.42L77.2196 48.33C77.1146 48.5159 76.962 48.6704 76.7774 48.7776C76.5929 48.8849 76.383 48.9409 76.1696 48.94Z" fill="#002C3C"/>
<path d="M40.0903 84.94H14.0003C13.2364 84.94 12.5039 84.6366 11.9638 84.0965C11.4237 83.5564 11.1203 82.8238 11.1203 82.06V64.92C11.1163 64.5388 11.1878 64.1606 11.3306 63.8071C11.4735 63.4537 11.6848 63.132 11.9525 62.8606C12.2202 62.5892 12.539 62.3734 12.8904 62.2257C13.2419 62.078 13.6191 62.0013 14.0003 62H33.6403V64.41H14.0003C13.9369 64.4086 13.8738 64.4201 13.815 64.4438C13.7561 64.4674 13.7027 64.5027 13.6578 64.5476C13.613 64.5924 13.5777 64.6459 13.554 64.7047C13.5304 64.7636 13.5189 64.8266 13.5203 64.89V82.06C13.5203 82.123 13.5327 82.1855 13.5568 82.2437C13.5809 82.3019 13.6163 82.3548 13.6609 82.3994C13.7054 82.444 13.7583 82.4793 13.8166 82.5035C13.8748 82.5276 13.9372 82.54 14.0003 82.54H40.0903V84.94Z" fill="#002C3C"/>
<path d="M34.7801 70.5303H11.6201V72.9303H34.7801V70.5303Z" fill="#002C3C"/>
<path d="M76.0605 76.6299C74.8739 76.6299 73.7138 76.278 72.7271 75.6187C71.7404 74.9594 70.9714 74.0223 70.5173 72.926C70.0631 71.8296 69.9443 70.6232 70.1758 69.4593C70.4073 68.2955 70.9788 67.2264 71.8179 66.3872C72.657 65.5481 73.7261 64.9767 74.89 64.7452C76.0539 64.5137 77.2603 64.6325 78.3567 65.0866C79.453 65.5407 80.3901 66.3098 81.0494 67.2965C81.7087 68.2832 82.0605 69.4432 82.0605 70.6299C82.0605 72.2212 81.4284 73.7473 80.3032 74.8725C79.178 75.9977 77.6518 76.6299 76.0605 76.6299Z" fill="#E24A04"/>
<path d="M66.2773 52.9424L58.3789 60.8408L66.2773 68.7392L74.1757 60.8408L66.2773 52.9424Z" fill="#002C3C"/>
</svg>
