<svg width="16" height="15" viewBox="0 0 16 15" fill="none" xmlns="http://www.w3.org/2000/svg">
    <path d="M6.7627 13.8059V9.96411H9.32386V13.8059" stroke="#404040" stroke-width="0.9" stroke-miterlimit="10" stroke-linecap="round" stroke-linejoin="round"/>
    <path d="M3.08105 6.92261V13.9658H13.3257V6.92261" stroke="#404040" stroke-width="0.9" stroke-miterlimit="10" stroke-linecap="round" stroke-linejoin="round"/>
    <path d="M15.0864 4.84175C15.074 5.36324 14.8551 5.85848 14.4777 6.21866C14.1004 6.57883 13.5955 6.77448 13.074 6.76262C12.7459 6.76499 12.422 6.68804 12.1301 6.53832C11.8381 6.3886 11.5866 6.17054 11.3971 5.90271C11.2058 6.16884 10.954 6.38563 10.6624 6.53517C10.3708 6.68471 10.0478 6.7627 9.72013 6.7627C9.39243 6.7627 9.06943 6.68471 8.77784 6.53517C8.48625 6.38563 8.23443 6.16884 8.04321 5.90271C7.85198 6.16884 7.60017 6.38563 7.30858 6.53517C7.01698 6.68471 6.69399 6.7627 6.36628 6.7627C6.03858 6.7627 5.71558 6.68471 5.42399 6.53517C5.1324 6.38563 4.88058 6.16884 4.68936 5.90271C4.4998 6.17054 4.24833 6.3886 3.95635 6.53832C3.66438 6.68804 3.34055 6.76499 3.01244 6.76262C2.49093 6.77448 1.98604 6.57883 1.6087 6.21866C1.23135 5.85848 1.01242 5.36324 1 4.84175L3.56117 1H12.5252L15.0864 4.84175Z" stroke="#404040" stroke-width="0.9" stroke-miterlimit="10" stroke-linecap="round" stroke-linejoin="round"/>
</svg>
