<svg xmlns="http://www.w3.org/2000/svg" width="16" height="16" viewBox="0 0 16 16">
    <g fill="#404040" stroke="#404040" stroke-width=".1">
        <path d="M13.316 7.167c-.059-.115-.059-.247 0-.362l.543-1.066c.303-.593.063-1.3-.545-1.61l-1.093-.557c-.118-.06-.2-.166-.222-.292l-.214-1.17c-.119-.65-.747-1.087-1.429-.995l-1.225.166C9 1.3 8.868 1.26 8.772 1.17L7.883.345c-.495-.46-1.27-.46-1.766 0l-.89.825c-.095.089-.226.13-.358.112l-1.225-.167c-.682-.092-1.31.345-1.429.996L2.001 3.28c-.023.126-.104.232-.221.292L.687 4.13c-.609.31-.849 1.017-.546 1.61l.543 1.066c.059.116.059.247 0 .362L.141 8.234c-.303.593-.063 1.3.546 1.61l1.093.556c.117.06.198.167.221.293l.214 1.17c.108.591.638 1.007 1.247 1.007.06 0 .12-.004.182-.012l1.225-.167c.132-.018.263.023.359.112l.89.825c.247.23.564.345.882.345.318 0 .636-.115.883-.345l.89-.825c.095-.089.226-.13.358-.112l1.225.167c.683.092 1.31-.345 1.429-.996l.214-1.169c.023-.126.104-.233.222-.293l1.093-.556c.608-.31.848-1.017.545-1.61l-.543-1.067zm-.396 1.965l-1.093.557c-.349.177-.588.492-.656.865l-.214 1.169c-.04.22-.252.368-.483.337l-1.225-.167c-.39-.053-.777.068-1.06.331l-.89.825c-.168.155-.43.155-.598 0l-.889-.825c-.24-.222-.553-.343-.88-.343-.06 0-.12.004-.18.012l-1.226.167c-.23.03-.443-.117-.483-.337l-.214-1.17c-.068-.372-.307-.687-.656-.865L1.08 9.132c-.206-.104-.287-.344-.184-.545l.543-1.066c.173-.34.173-.73 0-1.07L.896 5.386c-.103-.2-.022-.44.184-.545l1.093-.556c.349-.177.588-.493.656-.865l.214-1.169c.04-.22.252-.368.483-.337l1.225.166c.39.053.777-.067 1.061-.33l.89-.825c.167-.156.43-.156.597 0l.889.825c.284.263.67.383 1.06.33l1.226-.166c.23-.031.443.117.483.337l.214 1.169c.068.373.307.688.656.865l1.093.556c.206.105.287.345.184.545l-.543 1.066c-.173.34-.173.73 0 1.07l.543 1.066c.103.201.022.44-.184.545z" transform="translate(1 1)"/>
        <path d="M10.07 4.042c-.164-.157-.43-.157-.594 0L3.93 9.361c-.164.157-.164.412 0 .57.082.078.19.118.297.118.108 0 .215-.04.297-.118l5.546-5.319c.164-.157.164-.412 0-.57zM5.32 3.36c-.85 0-1.541.663-1.541 1.477 0 .815.691 1.478 1.54 1.478.85 0 1.541-.663 1.541-1.478 0-.814-.691-1.477-1.54-1.477zm0 2.149c-.387 0-.7-.301-.7-.672 0-.37.313-.671.7-.671.386 0 .7.301.7.671 0 .37-.314.672-.7.672zM8.68 7.658c-.849 0-1.54.663-1.54 1.477 0 .815.691 1.478 1.54 1.478.85 0 1.541-.663 1.541-1.478 0-.814-.691-1.477-1.54-1.477zm0 2.149c-.386 0-.7-.301-.7-.672 0-.37.314-.671.7-.671.387 0 .7.301.7.671 0 .37-.313.672-.7.672z" transform="translate(1 1)"/>
    </g>
</svg>
