<?xml version="1.0" encoding="UTF-8"?>
<svg width="12px" height="12px" viewBox="0 0 12 12" version="1.1" xmlns="http://www.w3.org/2000/svg" xmlns:xlink="http://www.w3.org/1999/xlink">
    <title>Shape</title>
    <g id="FINAL-DESIGNS" stroke="none" stroke-width="1" fill="none" fill-rule="evenodd">
        <g id="PDP_Product-Details_Guest-user" transform="translate(-265.000000, -1108.000000)" fill="#BFBFBF">
            <g id="Group-36" transform="translate(0.000000, 938.000000)">
                <g id="Group-37" transform="translate(184.000000, 98.000000)">
                    <g id="Group-23" transform="translate(1.000000, 53.000000)">
                        <g id="ic_help_24px" transform="translate(80.000000, 19.000000)">
                            <path d="M6,0 C2.688,0 0,2.688 0,6 C0,9.312 2.688,12 6,12 C9.312,12 12,9.312 12,6 C12,2.688 9.312,0 6,0 Z M6.6,10.2 L5.4,10.2 L5.4,9 L6.6,9 L6.6,10.2 Z M7.842,5.55 L7.302,6.102 C6.87,6.54 6.6,6.9 6.6,7.8 L5.4,7.8 L5.4,7.5 C5.4,6.84 5.67,6.24 6.102,5.802 L6.846,5.046 C7.068,4.83 7.2,4.53 7.2,4.2 C7.2,3.54 6.66,3 6,3 C5.34,3 4.8,3.54 4.8,4.2 L3.6,4.2 C3.6,2.874 4.674,1.8 6,1.8 C7.326,1.8 8.4,2.874 8.4,4.2 C8.4,4.728 8.184,5.208 7.842,5.55 Z" id="Shape"></path>
                        </g>
                    </g>
                </g>
            </g>
        </g>
    </g>
</svg>