<?xml version="1.0" encoding="utf-8"?>
<!-- Generator: Adobe Illustrator 25.2.0, SVG Export Plug-In . SVG Version: 6.00 Build 0)  -->
<svg version="1.1" id="_x32_4hr" xmlns="http://www.w3.org/2000/svg" xmlns:xlink="http://www.w3.org/1999/xlink" x="0px" y="0px"
	 viewBox="0 0 100 100" style="enable-background:new 0 0 100 100;" xml:space="preserve">
<style type="text/css">
	.st0{clip-path:url(#SVGID_2_);fill:#00394C;}
	.st1{fill:#00394C;}
	.st2{clip-path:url(#SVGID_4_);fill:#00394C;}
	.st3{clip-path:url(#SVGID_6_);fill:#E7531A;}
</style>
<g>
	<g>
		<defs>
			<rect id="SVGID_1_" x="13.96" y="15.83" width="72.08" height="68.33"/>
		</defs>
		<clipPath id="SVGID_2_">
			<use xlink:href="#SVGID_1_"  style="overflow:visible;"/>
		</clipPath>
		<path class="st0" d="M81.96,84.17H18.04c-2.25,0-4.08-1.83-4.08-4.08V34.59c0-2.25,1.83-4.08,4.08-4.08h63.91
			c2.25,0,4.08,1.83,4.08,4.08v45.49C86.04,82.33,84.21,84.17,81.96,84.17z M18.04,33.01c-0.87,0-1.58,0.71-1.58,1.58v45.49
			c0,0.87,0.71,1.58,1.58,1.58h63.91c0.87,0,1.58-0.71,1.58-1.58V34.59c0-0.87-0.71-1.58-1.58-1.58H18.04z"/>
		<path class="st0" d="M16.28,34.14l-1.73-1.8L30.4,17.16c0.8-0.77,2.19-1.33,3.3-1.33h32.32c1.12,0,2.51,0.57,3.3,1.35l14.44,14.17
			l-1.75,1.78L67.57,18.97c-0.33-0.32-1.09-0.63-1.55-0.63H33.7c-0.46,0-1.24,0.31-1.57,0.63L16.28,34.14z"/>
		
			<rect x="37.08" y="22.78" transform="matrix(0.3391 -0.9407 0.9407 0.3391 6.8794 57.852)" class="st0" width="15.06" height="2.5"/>
		
			<rect x="54.18" y="16.5" transform="matrix(0.9409 -0.3387 0.3387 0.9409 -4.8627 20.1925)" class="st0" width="2.5" height="15.06"/>
		<path class="st0" d="M57.09,41.01H43.05c-1.16,0-2.1-0.94-2.1-2.1v-6.09h2.5v5.69h13.23v-5.84h2.5v6.24
			C59.19,40.07,58.25,41.01,57.09,41.01z"/>
		<path class="st0" d="M52.13,59.15c-0.38,0-0.76-0.17-1-0.5c-0.41-0.55-0.3-1.34,0.26-1.75l4.84-3.6c0.82-0.61,2.04-0.61,2.86,0.01
			l4.42,3.32c0.55,0.41,0.66,1.2,0.25,1.75s-1.2,0.67-1.75,0.25l-4.36-3.27l-4.78,3.55C52.65,59.07,52.39,59.15,52.13,59.15z"/>
	</g>
	<path class="st1" d="M57.65,69.81c-0.69,0-1.25-0.56-1.25-1.25V54.64c0-0.69,0.56-1.25,1.25-1.25s1.25,0.56,1.25,1.25v13.92
		C58.9,69.25,58.34,69.81,57.65,69.81z"/>
	<g>
		<defs>
			<rect id="SVGID_3_" x="13.96" y="15.83" width="72.08" height="68.33"/>
		</defs>
		<clipPath id="SVGID_4_">
			<use xlink:href="#SVGID_3_"  style="overflow:visible;"/>
		</clipPath>
		<path class="st2" d="M66.56,59.15c-0.38,0-0.76-0.17-1-0.5c-0.41-0.55-0.3-1.34,0.26-1.75l4.85-3.6c0.82-0.61,2.05-0.6,2.86,0.01
			l4.42,3.32c0.55,0.41,0.66,1.2,0.25,1.75c-0.41,0.55-1.2,0.67-1.75,0.25l-4.36-3.27l-4.78,3.55
			C67.08,59.07,66.82,59.15,66.56,59.15z"/>
	</g>
	<path class="st1" d="M72.09,69.81c-0.69,0-1.25-0.56-1.25-1.25V54.64c0-0.69,0.56-1.25,1.25-1.25s1.25,0.56,1.25,1.25v13.92
		C73.34,69.25,72.78,69.81,72.09,69.81z"/>
	<path class="st1" d="M76.65,76.45H52.27c-0.69,0-1.25-0.56-1.25-1.25s0.56-1.25,1.25-1.25h24.38c0.69,0,1.25,0.56,1.25,1.25
		S77.34,76.45,76.65,76.45z"/>
	<g>
		<defs>
			<rect id="SVGID_5_" x="13.96" y="15.83" width="72.08" height="68.33"/>
		</defs>
		<clipPath id="SVGID_6_">
			<use xlink:href="#SVGID_5_"  style="overflow:visible;"/>
		</clipPath>
		<path class="st3" d="M38.82,69.08L38.82,69.08c-3.05,0-5.52-2.47-5.52-5.52c0-3.05,2.47-5.52,5.52-5.52
			c3.05,0,5.52,2.47,5.52,5.52C44.34,66.61,41.87,69.08,38.82,69.08"/>
	</g>
	
		<rect x="24.76" y="49.53" transform="matrix(0.7072 -0.707 0.707 0.7072 -29.8849 37.1184)" class="st1" width="10.22" height="10.22"/>
</g>
</svg>
