<svg xmlns="http://www.w3.org/2000/svg" width="19" height="20" viewBox="0 0 19 20">
    <path fill="#00394D" d="M1.9 8.952V2.857c0-.526.425-.952.95-.952H7.6V0h3.8v1.905h4.75c.525 0 .95.426.95.952v6.095l1.032.31c.485.147.77.65.648 1.144l-1.44 5.779c-.614.032-1.228-.056-1.807-.26l1.187-5.096L9.5 8.57 2.28 10.83l1.188 5.096c-.58.203-1.194.291-1.807.26l-1.44-5.78c-.124-.493.162-.996.647-1.142l1.032-.31zm1.9-.571l5.7-1.714 5.7 1.714V3.81H3.8v4.57zm-1.9 9.714c1.402.002 2.756-.516 3.8-1.455 1.044.939 2.398 1.457 3.8 1.455 1.402.002 2.756-.516 3.8-1.455 1.044.939 2.398 1.457 3.8 1.455H19V20h-1.9c-1.334.002-2.645-.35-3.8-1.02-1.155.67-2.466 1.022-3.8 1.02-1.334.002-2.645-.35-3.8-1.02-1.155.67-2.466 1.022-3.8 1.02H0v-1.905h1.9z"/>
</svg>
