<svg width="148" height="148" viewBox="0 0 148 148" fill="none" xmlns="http://www.w3.org/2000/svg">
<path d="M47.5229 123.048L10.0049 117.35L34.2473 70.6706L57.2613 72.935C57.5265 72.9399 57.7879 72.9997 58.029 73.1105C58.2701 73.2212 58.4856 73.3807 58.6621 73.5788C58.8386 73.7768 58.9722 74.0093 59.0546 74.2615C59.1369 74.5137 59.1662 74.7802 59.1406 75.0443C59.115 75.3083 59.0351 75.5643 58.9059 75.796C58.7766 76.0276 58.6009 76.2301 58.3896 76.3906C58.1784 76.5511 57.9362 76.6662 57.6784 76.7287C57.4205 76.7911 57.1526 76.7995 56.8913 76.7534L36.4525 74.7406L15.8805 114.36L47.5081 119.17L97.0141 111.415L131.291 116.462L109.698 73.0386C109.472 72.5833 109.436 72.057 109.599 71.5754C109.761 71.0939 110.108 70.6965 110.563 70.4708C111.019 70.2451 111.545 70.2095 112.027 70.3719C112.508 70.5343 112.906 70.8813 113.131 71.3366L137.995 121.361L97.0289 115.307L47.5229 123.048Z" fill="#00394C"/>
<path d="M84.36 102.564C80.4824 102.564 70.966 87.2167 68.08 82.5251C63.4624 74.8291 55.6924 60.6359 55.6924 52.0519C55.6924 37.1039 68.5388 24.9531 84.3008 24.9531C100.063 24.9531 112.909 37.1039 112.909 52.0519C112.909 60.5767 105.08 74.7995 100.418 82.5251C97.68 87.2315 88.06 102.564 84.36 102.564ZM84.36 29.1119C70.8772 29.1119 59.9104 39.4719 59.9104 52.0519C59.9104 64.2767 79.402 93.7287 84.3304 98.0799C89.2736 93.6399 108.824 63.9067 108.824 52.0519C108.81 39.3979 97.828 29.1119 84.36 29.1119Z" fill="#00394C"/>
<path d="M46.1908 122.307C46.0436 122.329 45.8939 122.329 45.7468 122.307C45.495 122.242 45.259 122.127 45.0533 121.969C44.8476 121.81 44.6764 121.611 44.5503 121.383C44.4242 121.156 44.3459 120.906 44.32 120.647C44.2942 120.388 44.3214 120.127 44.4 119.88L55.2484 74.9468C55.2913 74.6856 55.3877 74.4361 55.5315 74.2138C55.6754 73.9915 55.8635 73.8013 56.0842 73.6551C56.3049 73.5089 56.5534 73.4098 56.8141 73.364C57.0749 73.3182 57.3422 73.3267 57.5995 73.389C57.8569 73.4513 58.0985 73.566 58.3095 73.7259C58.5204 73.8859 58.6961 74.0877 58.8255 74.3187C58.9548 74.5496 59.0352 74.8048 59.0614 75.0682C59.0877 75.3317 59.0592 75.5977 58.978 75.8496L48.0556 120.842C47.9555 121.26 47.7168 121.633 47.3783 121.899C47.0398 122.165 46.6213 122.309 46.1908 122.307Z" fill="#00394C"/>
<path d="M97.9759 115.247C97.5427 115.251 97.1213 115.106 96.782 114.837C96.4426 114.568 96.2059 114.19 96.1111 113.767L93.4767 101.676C93.3853 101.184 93.4892 100.676 93.7663 100.259C94.0435 99.8422 94.4721 99.5499 94.9612 99.444C95.4503 99.3381 95.9614 99.4269 96.3861 99.6916C96.8108 99.9563 97.1156 100.376 97.2359 100.862L99.8555 112.953C99.9097 113.2 99.9143 113.456 99.869 113.704C99.8238 113.953 99.7296 114.19 99.5919 114.402C99.4542 114.614 99.2758 114.797 99.067 114.94C98.8582 115.082 98.6231 115.182 98.3755 115.233C98.2438 115.258 98.1091 115.263 97.9759 115.247Z" fill="#00394C"/>
<path d="M90.2799 70.9514C88.5698 70.9514 86.8982 70.4441 85.4765 69.4938C84.0548 68.5434 82.947 67.1926 82.2932 65.6124C81.6395 64.0322 81.4692 62.2936 81.8039 60.6166C82.1386 58.9396 82.9632 57.3995 84.1735 56.1913C85.3838 54.9832 86.9252 54.1611 88.6028 53.8293C90.2804 53.4975 92.0187 53.6708 93.5978 54.3272C95.1769 54.9837 96.5257 56.0938 97.4737 57.5171C98.4216 58.9404 98.926 60.613 98.9231 62.323C98.9231 63.4574 98.6994 64.5806 98.2649 65.6284C97.8304 66.6762 97.1935 67.6281 96.3907 68.4295C95.5879 69.2309 94.635 69.8661 93.5864 70.2989C92.5378 70.7316 91.4142 70.9534 90.2799 70.9514Z" fill="#E95317"/>
<path d="M76.2513 37.0358L64.9385 48.3486L76.2513 59.6615L87.5642 48.3486L76.2513 37.0358Z" fill="#00394C"/>
</svg>
