<svg xmlns="http://www.w3.org/2000/svg" width="79" height="27" viewBox="0 0 79 27">
    <g fill="none">
        <path fill="#77BC1F" d="M17.423 8.969c.656-.007 1.287.257 1.752.734.481.457.751 1.102.743 1.776v12.794c.008.674-.262 1.32-.743 1.776-.465.477-1.096.74-1.752.733H2.577c-.656.008-1.287-.256-1.752-.733-.481-.456-.751-1.102-.743-1.776V11.478c-.008-.673.262-1.319.743-1.775.465-.477 1.096-.741 1.752-.734h1.218V6.398c-.008-1.127.279-2.236.83-3.21.541-.967 1.32-1.771 2.257-2.33 1.931-1.142 4.305-1.142 6.236 0 .937.559 1.716 1.363 2.256 2.33.553.975.84 2.085.831 3.214V8.97h1.218zm-3.593 0V6.398c.002-.689-.176-1.366-.516-1.959-.338-.604-.824-1.105-1.41-1.454-1.172-.714-2.628-.714-3.8 0-.587.348-1.075.85-1.414 1.454-.34.593-.518 1.27-.516 1.959v2.57h7.656zM10 20.447c1.01.01 1.926-.614 2.312-1.577.386-.964.164-2.072-.56-2.8-.459-.49-1.091-.766-1.752-.766-.66 0-1.293.277-1.753.766-.703.735-.912 1.833-.53 2.787.383.955 1.281 1.58 2.283 1.59z"/>
        <ellipse cx="12" cy="19.5" fill="#77BC1F" rx="6" ry="6.5"/>
        <path fill="#FFF" d="M3.528 6.287L10.118 0 11 0.839 3.528 7.95 0.061 4.652 0.928 3.812z" transform="translate(4 14)"/>
        <g>
            <g fill="#313C3F">
                <path d="M1.403 7.957S2.597 9.12 3.923 9.12c.53 0 1.104-.219 1.104-.895 0-1.337-4.744-1.29-4.744-4.748C.283 1.403 1.921.034 4.011.034c2.269 0 3.39 1.274 3.39 1.274L6.308 3.556s-1.06-.99-2.328-.99c-.53 0-1.119.25-1.119.88 0 1.418 4.744 1.163 4.744 4.715 0 1.871-1.34 3.494-3.713 3.494-2.475 0-3.846-1.604-3.846-1.604l1.356-2.094zM9.374.218L15.975.218 15.975 2.576 11.953 2.576 11.953 4.62 15.166 4.62 15.166 6.987 11.953 6.987 11.953 9.104 16.182 9.104 16.182 11.462 9.374 11.462zM22.842.034c2.608 0 3.949 1.588 3.949 1.588l-1.193 2.074s-1.18-1.148-2.638-1.148c-2.02 0-2.977 1.588-2.977 3.207 0 1.666 1.032 3.384 2.977 3.384 1.59 0 2.8-1.383 2.8-1.383l1.33 2.012s-1.488 1.887-4.244 1.887c-3.3 0-5.525-2.5-5.525-5.833-.005-3.273 2.353-5.788 5.521-5.788zM28.5.218h2.578v7.106c0 1.179.723 1.808 1.828 1.808s1.826-.63 1.826-1.808V.218h2.579v7.106c0 2.53-1.74 4.323-4.391 4.323-2.682 0-4.42-1.793-4.42-4.323V.218zM39.64.218h3.668c1.076 0 1.591.079 2.047.268 1.193.487 1.944 1.637 1.944 3.275 0 1.194-.53 2.5-1.576 3.065v.032c.145.216.278.442.397.676l2.046 3.93h-2.869l-1.871-3.789h-1.209v3.787H39.64V.218zm3.698 5.094c.824 0 1.34-.488 1.34-1.383 0-.85-.294-1.353-1.59-1.353h-.87v2.74l1.12-.004zM49.688.218L56.29.218 56.29 2.576 52.267 2.576 52.267 4.62 55.48 4.62 55.48 6.987 52.267 6.987 52.267 9.104 56.496 9.104 56.496 11.462 49.688 11.462z" transform="translate(22 7)"/>
            </g>
            <g fill="#A0A2A2">
                <path d="M.642 3.679s.538.525 1.136.525c.24 0 .5-.1.5-.405 0-.603-2.142-.582-2.142-2.143C.136.719.874.102 1.818.102c1.024 0 1.535.575 1.535.575l-.492 1.015s-.479-.448-1.05-.448c-.24 0-.506.11-.506.398 0 .638 2.141.525 2.141 2.129 0 .845-.604 1.575-1.676 1.575C1.124 5.358.5 5.098.03 4.622l.612-.943zM4.502 3.679s.54.525 1.138.525c.24 0 .5-.1.5-.405 0-.603-2.143-.582-2.143-2.143 0-.937.739-1.554 1.683-1.554 1.023 0 1.53.575 1.53.575l-.492 1.015s-.48-.448-1.051-.448c-.24 0-.506.11-.506.398 0 .638 2.142.525 2.142 2.129 0 .845-.605 1.575-1.676 1.575-.647.012-1.272-.248-1.74-.724l.615-.943zM8.097.188L9.26.188 9.26 4.196 11.205 4.196 11.205 5.261 8.097 5.261zM13.365.188L16.344.188 16.344 1.252 14.53 1.252 14.53 2.175 15.98 2.175 15.98 3.239 14.53 3.239 14.53 4.196 16.44 4.196 16.44 5.261 13.37 5.261zM17.276.188h1.176l1.317 2.37c.148.28.28.57.4.865h.013s-.054-.545-.054-.865V.188h1.165V5.26h-1.17l-1.325-2.363c-.147-.28-.28-.57-.399-.865h-.013s.053.545.053.865v2.363h-1.163V.188zM24.578.102c1.177 0 1.783.717 1.783.717l-.54.936s-.531-.517-1.19-.517c-.911 0-1.343.716-1.343 1.447 0 .753.466 1.529 1.344 1.529.716 0 1.263-.625 1.263-.625l.599.909c-.5.554-1.194.862-1.916.851-1.49 0-2.494-1.128-2.494-2.632 0-1.48 1.064-2.615 2.494-2.615zM27.198.188h1.658c.486 0 .716.035.92.12.539.218.879.738.879 1.476 0 .539-.24 1.129-.717 1.384v.014c.066.098.126.2.18.305l.921 1.774h-1.286l-.845-1.71h-.546v1.71h-1.164V.188zm1.67 2.299c.372 0 .606-.219.606-.625 0-.383-.133-.61-.717-.61h-.392v1.235h.503zM32.633 3.182L31.063.188h1.324l.538 1.22c.154.347.287.73.287.73h.013s.133-.383.285-.73l.533-1.22h1.324l-1.57 2.994v2.074h-1.164V3.182zM35.898.188h1.976c.92 0 1.55.722 1.55 1.746s-.625 1.76-1.55 1.76h-.812v1.568h-1.164V.188zm1.74 2.44c.409 0 .605-.29.605-.695 0-.404-.205-.68-.585-.68h-.596v1.376h.575zM41.026 1.252L39.582 1.252 39.582.188 43.633.188 43.633 1.252 42.19 1.252 42.19 5.261 41.026 5.261zM44.219.188L45.382.188 45.382 5.261 44.219 5.261zM48.662.102c1.432 0 2.487 1.136 2.487 2.59 0 1.49-1.05 2.654-2.487 2.654s-2.488-1.164-2.488-2.654c0-1.454 1.051-2.59 2.488-2.59zm0 4.109c.716 0 1.283-.655 1.283-1.519 0-.83-.572-1.454-1.283-1.454s-1.285.624-1.285 1.454c0 .866.573 1.519 1.285 1.519zM51.94.188h1.178l1.319 2.37c.147.28.28.57.399.865h.01s-.053-.545-.053-.865V.188h1.163V5.26h-1.17l-1.322-2.363c-.147-.28-.28-.57-.4-.865h-.013s.054.545.054.865v2.363H51.94V.188z" transform="translate(22 7) translate(.819 13.427)"/>
            </g>
        </g>
    </g>
</svg>
