<svg width="16" height="16" viewBox="0 0 16 16" fill="none" xmlns="http://www.w3.org/2000/svg">
    <path fill-rule="evenodd" clip-rule="evenodd" d="M15.8444 0.159245C15.6318 -0.0530816 15.2874 -0.0530816 15.0748 0.159245L14.1055 1.12848C14.0145 1.1031 13.9205 1.08967 13.826 1.08855H8.31919C8.03046 1.0888 7.75365 1.20371 7.54961 1.408L0.318489 8.63551C-0.106163 9.06069 -0.106163 9.74948 0.318489 10.1747L5.82532 15.6815C6.2505 16.1062 6.9393 16.1062 7.36448 15.6815L14.592 8.454C14.7949 8.24937 14.9085 7.97263 14.9078 7.68442V2.17758C14.9067 2.08306 14.8932 1.9891 14.8679 1.89806L15.8371 0.928824C16.0514 0.718242 16.0547 0.373833 15.8444 0.159245ZM13.5349 7.78398L6.55154 14.7693L1.23071 9.44699L8.21758 2.46164H12.7948L11.1884 4.06852C10.9411 3.93671 10.6654 3.86688 10.3852 3.86503C9.41664 3.86503 8.63146 4.65042 8.63146 5.61926C8.63146 6.58809 9.41664 7.37349 10.3852 7.37349C11.3538 7.37349 12.1389 6.58809 12.1389 5.61926C12.136 5.33863 12.065 5.06292 11.932 4.81582L13.5384 3.20894L13.5349 7.78398ZM11.0738 5.5383C11.0738 5.87817 10.7989 6.15368 10.4599 6.15368C10.1209 6.15368 9.84607 5.87817 9.84607 5.5383C9.84607 5.19844 10.1209 4.92292 10.4599 4.92292C10.6233 4.9221 10.7802 4.98657 10.896 5.10207C11.0117 5.21756 11.0768 5.37456 11.0768 5.5383H11.0738Z" fill="#00394D"/>
    <mask id="mask0" mask-type="alpha" maskUnits="userSpaceOnUse" x="0" y="0" width="16" height="16">
    <path fill-rule="evenodd" clip-rule="evenodd" d="M15.8444 0.159245C15.6318 -0.0530816 15.2874 -0.0530816 15.0748 0.159245L14.1055 1.12848C14.0145 1.1031 13.9205 1.08967 13.826 1.08855H8.31919C8.03046 1.0888 7.75365 1.20371 7.54961 1.408L0.318489 8.63551C-0.106163 9.06069 -0.106163 9.74948 0.318489 10.1747L5.82532 15.6815C6.2505 16.1062 6.9393 16.1062 7.36448 15.6815L14.592 8.454C14.7949 8.24937 14.9085 7.97263 14.9078 7.68442V2.17758C14.9067 2.08306 14.8932 1.9891 14.8679 1.89806L15.8371 0.928824C16.0514 0.718242 16.0547 0.373833 15.8444 0.159245ZM13.5349 7.78398L6.55154 14.7693L1.23071 9.44699L8.21758 2.46164H12.7948L11.1884 4.06852C10.9411 3.93671 10.6654 3.86688 10.3852 3.86503C9.41664 3.86503 8.63146 4.65042 8.63146 5.61926C8.63146 6.58809 9.41664 7.37349 10.3852 7.37349C11.3538 7.37349 12.1389 6.58809 12.1389 5.61926C12.136 5.33863 12.065 5.06292 11.932 4.81582L13.5384 3.20894L13.5349 7.78398ZM11.0738 5.5383C11.0738 5.87817 10.7989 6.15368 10.4599 6.15368C10.1209 6.15368 9.84607 5.87817 9.84607 5.5383C9.84607 5.19844 10.1209 4.92292 10.4599 4.92292C10.6233 4.9221 10.7802 4.98657 10.896 5.10207C11.0117 5.21756 11.0768 5.37456 11.0768 5.5383H11.0738Z" fill="white"/>
    </mask>
    <g mask="url(#mask0)"></g>
</svg>
