<svg id="Layer_1" data-name="Layer 1" xmlns="http://www.w3.org/2000/svg" xmlns:xlink="http://www.w3.org/1999/xlink" viewBox="0 0 100 100"><defs><style>.cls-1{fill:none;}.cls-2{clip-path:url(#clip-path);}.cls-3{fill:#e95317;}.cls-4{fill:#00394c;}</style><clipPath id="clip-path"><rect class="cls-1" x="11.81" y="9.11" width="76.38" height="81.77"/></clipPath></defs><g class="cls-2"><path class="cls-3" d="M38.74,38.55h0a5.78,5.78,0,1,1,5.77-5.78,5.78,5.78,0,0,1-5.77,5.78"/></g><rect class="cls-4" x="24.02" y="18.08" width="10.7" height="10.7" transform="translate(-7.97 27.62) rotate(-45)"/><g class="cls-2"><path class="cls-4" d="M71.2,90.89a1.27,1.27,0,0,1-1.27-1.27V81.74A3.73,3.73,0,0,0,66.2,78H36.68c-3.56,0-6.46,2.32-6.46,5.17v6.44a1.27,1.27,0,1,1-2.53,0V83.18c0-4.25,4-7.7,9-7.7H66.2a6.27,6.27,0,0,1,6.26,6.26v7.88A1.27,1.27,0,0,1,71.2,90.89Z"/><path class="cls-4" d="M66.41,66.12V58.05H63.57a1.27,1.27,0,0,1,0-2.53h5.37v4.29L73,55.52H84.35a1.32,1.32,0,0,0,1.31-1.32V33.87a1.31,1.31,0,0,0-1.31-1.3H56a1.31,1.31,0,0,0-1.31,1.3V45.79a1.27,1.27,0,0,1-2.53,0V33.87A3.85,3.85,0,0,1,56,30H84.35a3.84,3.84,0,0,1,3.84,3.83V54.2a3.85,3.85,0,0,1-3.84,3.85H74.11Z"/><path class="cls-4" d="M38.83,53.79l-9.26-9.7H16.3a4.5,4.5,0,0,1-4.49-4.49v-26A4.5,4.5,0,0,1,16.3,9.12H52.51A4.5,4.5,0,0,1,57,13.61v13a1.2,1.2,0,0,1-2.4,0V13.61a2.09,2.09,0,0,0-2.09-2.09H16.3a2.09,2.09,0,0,0-2.09,2.09v26a2.1,2.1,0,0,0,2.09,2.09H30.6l5.83,6.11V41.69h12a1.2,1.2,0,0,1,0,2.4H38.83Z"/><path class="cls-4" d="M50.85,72.34A10.29,10.29,0,0,1,40.57,62.06v-3.4a10.28,10.28,0,0,1,20.56,0v3.4A10.29,10.29,0,0,1,50.85,72.34Zm0-21.43a7.75,7.75,0,0,0-7.75,7.75v3.4a7.75,7.75,0,0,0,15.5,0v-3.4A7.76,7.76,0,0,0,50.85,50.91Z"/><path class="cls-3" d="M50.71,67.33A5.33,5.33,0,0,1,46,64.45a1,1,0,0,1,1.78-.93,3.33,3.33,0,0,0,5.92,0A1,1,0,0,1,55,63.1a1,1,0,0,1,.42,1.34A5.31,5.31,0,0,1,50.71,67.33Z"/></g><path class="cls-4" d="M79.66,38.62H60.58a1,1,0,0,1,0-2.06H79.66a1,1,0,0,1,0,2.06Z"/><path class="cls-4" d="M79.66,44.29H60.58a1,1,0,0,1,0-2.06H79.66a1,1,0,0,1,0,2.06Z"/><path class="cls-4" d="M71,50H60.58a1,1,0,0,1,0-2.06H71A1,1,0,0,1,71,50Z"/></svg>