<svg xmlns="http://www.w3.org/2000/svg" xmlns:xlink="http://www.w3.org/1999/xlink" width="16" height="17" viewBox="0 0 16 17">
    <defs>
        <path id="prefix__a" d="M7.733 0C3.463 0 0 3.462 0 7.733c0 4.271 3.462 7.734 7.733 7.734 4.271 0 7.734-3.463 7.734-7.734C15.467 3.463 12.004 0 7.733 0zM1.055 7.733c0-2.925 1.903-5.51 4.696-6.378 2.793-.868 5.826.182 7.484 2.592 1.659 2.41 1.556 5.618-.254 7.917-.805-1.2-1.974-2.11-3.335-2.598.588-.63.91-1.462.9-2.324 0-1.757-1.262-3.163-2.813-3.163-1.55 0-2.812 1.406-2.812 3.163-.009.893.341 1.751.97 2.384-1.37.492-2.526 1.446-3.269 2.7-1.013-1.201-1.568-2.722-1.567-4.293zm6.854 1.23c-.192.001-.385.012-.576.032-.856-.31-1.407-1.144-1.357-2.053 0-1.163.787-2.109 1.757-2.109.97 0 1.758.946 1.758 2.11.043.882-.475 1.697-1.294 2.031-.095-.003-.19-.01-.288-.01zM3.403 12.83c.764-1.491 2.207-2.517 3.866-2.749.343.067.695.059 1.034-.024 1.64.221 3.088 1.183 3.93 2.608-2.48 2.288-6.278 2.36-8.84.165h.01z"/>
    </defs>
    <g fill="none" fill-rule="evenodd" transform="translate(0 .25)">
        <use fill="#404040" xlink:href="#prefix__a"/>
    </g>
</svg>
