<svg width="16" height="16" viewBox="0 0 16 16" fill="none" xmlns="http://www.w3.org/2000/svg">
<path fill-rule="evenodd" clip-rule="evenodd" d="M5.64907 12.9295H3.8115C3.40117 12.9295 3.06861 12.5969 3.06861 12.1866V10.3483C3.06861 10.1513 2.9901 9.96242 2.85086 9.82318L1.55101 8.52332C1.26067 8.23298 1.26067 7.76266 1.55101 7.47307L2.86419 6.15988C2.99529 6.02878 3.06861 5.85177 3.06861 5.6666V3.81125C3.06861 3.40093 3.40117 3.06837 3.8115 3.06837H5.64981C5.84682 3.06837 6.03569 2.98986 6.17494 2.85062L7.47479 1.55076C7.76513 1.26042 8.23545 1.26042 8.52505 1.55076L9.8249 2.85062C9.96414 2.98986 10.153 3.06837 10.35 3.06837H12.1883C12.5987 3.06837 12.9312 3.40093 12.9312 3.81125V5.64957C12.9312 5.84658 13.0097 6.03545 13.149 6.17469L14.4488 7.47455C14.7392 7.76489 14.7392 8.2352 14.4488 8.5248L13.149 9.82466C13.0097 9.9639 12.9312 10.1528 12.9312 10.3498V12.1881C12.9312 12.5984 12.5987 12.931 12.1883 12.931H10.35C10.153 12.931 9.96414 13.0095 9.8249 13.1487L8.52505 14.4486C8.23471 14.7389 7.76439 14.7389 7.47479 14.4486L6.17494 13.1487C6.03495 13.0073 5.84608 12.9295 5.64907 12.9295Z" fill="#2C855E"/>
<path fill-rule="evenodd" clip-rule="evenodd" d="M10.5748 6.53512C10.7701 6.73038 10.7701 7.04696 10.5748 7.24223L7.79738 10.0197C7.60212 10.215 7.28553 10.215 7.09027 10.0197L5.42379 8.35321C5.22853 8.15795 5.22853 7.84137 5.42379 7.64611C5.61905 7.45084 5.93563 7.45084 6.1309 7.64611L7.44383 8.95903L9.86774 6.53512C10.063 6.33986 10.3796 6.33986 10.5748 6.53512Z" fill="#E1FBF0"/>
</svg>
