<svg xmlns="http://www.w3.org/2000/svg" width="24" height="24" viewBox="0 0 24 24" fill="none">
  <circle cx="12" cy="12" r="12" fill="#0084B3"/>
  <path d="M13.1968 10.4184C13.1963 10.4955 13.1912 10.5719 13.1813 10.6482C13.1872 10.6055 13.1932 10.5628 13.1991 10.52C13.1842 10.624 13.1607 10.7256 13.1281 10.8255C13.1213 10.8465 13.1136 10.8673 13.1059 10.888C13.0633 11.0031 13.1468 10.7962 13.113 10.8719C13.0891 10.9251 13.0616 10.9766 13.0324 11.0271C13.007 11.0711 12.9787 11.1134 12.9495 11.1549C12.8982 11.2276 13.0295 11.0528 12.9747 11.1228C12.9568 11.1455 12.938 11.1675 12.919 11.1893C12.8477 11.2712 12.7673 11.3446 12.6819 11.4115C12.716 11.385 12.7501 11.3585 12.7842 11.332C12.6679 11.4206 12.5425 11.4939 12.4081 11.5517C12.4494 11.5346 12.4906 11.5174 12.5318 11.5002C12.3936 11.5575 12.2502 11.5967 12.1019 11.6178C12.1462 11.6121 12.1906 11.6064 12.2349 11.6007C12.0816 11.6204 11.928 11.6204 11.7747 11.6007C11.8175 11.6066 11.8603 11.6125 11.9031 11.6184C11.799 11.6036 11.6973 11.5801 11.5973 11.5476C11.5762 11.5407 11.5555 11.533 11.5347 11.5254C11.4195 11.4828 11.6266 11.5662 11.5509 11.5324C11.4975 11.5086 11.4459 11.4811 11.3954 11.4519C11.3513 11.4265 11.309 11.3984 11.2674 11.3691C11.1946 11.318 11.3696 11.4491 11.2996 11.3943C11.2768 11.3765 11.2548 11.3576 11.233 11.3387C11.1511 11.2675 11.0775 11.1872 11.0106 11.1019C11.0371 11.1359 11.0636 11.17 11.0902 11.204C11.0014 11.0879 10.928 10.9626 10.8701 10.8284C10.8873 10.8696 10.9045 10.9108 10.9217 10.952C10.8643 10.8139 10.8251 10.6706 10.804 10.5226C10.8097 10.5669 10.8154 10.6111 10.8211 10.6554C10.8014 10.5023 10.8014 10.3489 10.8211 10.1958C10.8152 10.2386 10.8093 10.2813 10.8034 10.324C10.8182 10.2201 10.8418 10.1184 10.8743 10.0186C10.8812 9.99755 10.8889 9.9768 10.8965 9.95605C10.9392 9.84098 10.8557 10.0479 10.8895 9.97223C10.9133 9.91895 10.9409 9.86743 10.97 9.81694C10.9955 9.77294 11.0237 9.73063 11.053 9.68912C11.1042 9.61642 10.9729 9.79125 11.0278 9.7213C11.0456 9.69853 11.0645 9.67657 11.0835 9.65476C11.1547 9.57291 11.2351 9.49942 11.3205 9.43261C11.2864 9.4591 11.2523 9.48559 11.2182 9.51208C11.3345 9.42346 11.46 9.35012 11.5943 9.29231C11.5531 9.3095 11.5118 9.32669 11.4706 9.34388C11.6089 9.28652 11.7523 9.24736 11.9005 9.22626C11.8562 9.23197 11.8119 9.23767 11.7675 9.24338C11.9208 9.22366 12.0744 9.22366 12.2277 9.24338C12.1849 9.23747 12.1421 9.23155 12.0993 9.22564C12.2034 9.24045 12.3051 9.264 12.4051 9.29651C12.4262 9.30336 12.447 9.31103 12.4677 9.3187C12.583 9.36127 12.3758 9.27789 12.4516 9.31165C12.5049 9.33543 12.5565 9.36296 12.607 9.39211C12.6511 9.4175 12.6934 9.44569 12.735 9.47491C12.8078 9.52609 12.6328 9.39496 12.7028 9.44975C12.7256 9.46759 12.7476 9.48642 12.7694 9.50539C12.8514 9.57652 12.9249 9.65687 12.9918 9.74214C12.9653 9.7081 12.9388 9.67404 12.9123 9.63998C13.001 9.75614 13.0744 9.88143 13.1323 10.0156C13.1151 9.97444 13.0979 9.93324 13.0807 9.89206C13.1381 10.0301 13.1773 10.1734 13.1984 10.3214C13.1927 10.2771 13.187 10.2329 13.1813 10.1886C13.1912 10.265 13.1963 10.3414 13.1968 10.4184C13.1986 10.6904 13.4181 10.9195 13.6931 10.9213C13.9626 10.9231 14.1984 10.6976 14.1966 10.4256C14.1936 9.98213 14.0622 9.53035 13.8007 9.1692C13.5183 8.77926 13.1443 8.50162 12.6901 8.34061C11.8518 8.04337 10.8293 8.34809 10.2905 9.05341C10.1318 9.26122 10.0159 9.46671 9.92465 9.71319C9.8475 9.92151 9.814 10.1509 9.80654 10.3718C9.79161 10.813 9.92697 11.2756 10.1765 11.6395C10.4493 12.0373 10.8224 12.3161 11.2708 12.4884C11.687 12.6484 12.1765 12.6512 12.6028 12.531C13.5361 12.268 14.1901 11.3896 14.1966 10.4257C14.1984 10.1537 13.9725 9.92457 13.7003 9.92278C13.428 9.92096 13.1986 10.1465 13.1968 10.4184Z" fill="white"/>
  <path d="M15.5786 15.2269C15.5753 14.3574 15.2577 13.5405 14.6986 12.8789C14.1842 12.2701 13.4244 11.8422 12.6391 11.7095C11.7796 11.5643 10.8934 11.7151 10.1448 12.1687C9.42185 12.6068 8.88802 13.2928 8.60993 14.0864C8.48361 14.4469 8.42526 14.8385 8.42383 15.2198C8.42282 15.4903 8.64725 15.7226 8.92013 15.7226C9.52739 15.7226 10.1347 15.7226 10.7419 15.7226C11.7956 15.7226 12.8493 15.7226 13.903 15.7226C14.2937 15.7226 14.6844 15.7226 15.0751 15.7226C15.3473 15.7226 15.5767 15.5002 15.5786 15.2269C15.5804 14.9564 15.3546 14.7241 15.0823 14.7241C14.475 14.7241 13.8678 14.7241 13.2605 14.7241C12.2068 14.7241 11.1531 14.7241 10.0994 14.7241C9.70868 14.7241 9.318 14.7241 8.9273 14.7241C9.09273 14.8917 9.25816 15.0593 9.4236 15.2269C9.42412 15.0879 9.43333 14.9496 9.45144 14.8118C9.44553 14.8545 9.4396 14.8972 9.43368 14.94C9.46059 14.7464 9.50503 14.5564 9.56697 14.371C9.58103 14.3289 9.59648 14.2873 9.61237 14.2459C9.62028 14.2252 9.62866 14.2047 9.63703 14.1842C9.57142 14.3448 9.61565 14.2363 9.63166 14.2008C9.67384 14.1074 9.72169 14.0166 9.77302 13.9279C9.82045 13.846 9.87251 13.7667 9.92729 13.6895C9.9399 13.6717 9.95289 13.6542 9.96589 13.6367C9.86721 13.7698 9.91879 13.6981 9.94156 13.6691C9.97298 13.6292 10.0058 13.5904 10.0391 13.552C10.1677 13.4041 10.3118 13.27 10.4659 13.1491C10.4319 13.1756 10.3978 13.2021 10.3636 13.2285C10.5781 13.0628 10.8119 12.9256 11.0614 12.8197C11.0202 12.8369 10.979 12.8541 10.9377 12.8713C11.1941 12.7646 11.4622 12.6928 11.7375 12.6567C11.6932 12.6624 11.6489 12.6681 11.6045 12.6738C11.8735 12.6406 12.1446 12.6416 12.4133 12.6768C12.3705 12.6709 12.3277 12.665 12.2849 12.6591C12.4788 12.6859 12.669 12.7303 12.8546 12.7922C12.8967 12.8062 12.9384 12.8217 12.9799 12.8375C13.0006 12.8455 13.0211 12.8538 13.0416 12.8622C12.8808 12.7966 12.9895 12.8408 13.025 12.8568C13.1185 12.8989 13.2094 12.9467 13.2982 12.998C13.3803 13.0453 13.4596 13.0973 13.5369 13.1521C13.5547 13.1647 13.5723 13.1776 13.5898 13.1906C13.4566 13.092 13.5284 13.1436 13.5574 13.1663C13.5973 13.1977 13.6362 13.2304 13.6746 13.2637C13.8227 13.3922 13.957 13.5361 14.0781 13.69C14.0515 13.656 14.025 13.6219 13.9985 13.5879C14.1644 13.802 14.3017 14.0356 14.4078 14.2848C14.3906 14.2436 14.3734 14.2024 14.3562 14.1612C14.463 14.4172 14.5349 14.685 14.571 14.96C14.5653 14.9158 14.5596 14.8715 14.5539 14.8272C14.57 14.9576 14.5783 15.0884 14.5787 15.2198C14.5798 15.4917 14.8007 15.7208 15.075 15.7227C15.3452 15.7244 15.5796 15.4989 15.5786 15.2269Z" fill="white"/>
  <path d="M18.5001 14.5695C18.4996 14.6005 18.4975 14.6308 18.4937 14.6615C18.4996 14.6188 18.5055 14.576 18.5114 14.5333C18.5055 14.5706 18.4971 14.6066 18.4861 14.6426C18.4693 14.6897 18.4778 14.6711 18.5117 14.5867C18.5031 14.6069 18.4925 14.6262 18.4819 14.6454C18.4747 14.6581 18.4671 14.6704 18.459 14.6825C18.4112 14.7573 18.541 14.5825 18.4837 14.6501C18.4556 14.6833 18.4226 14.712 18.3886 14.739C18.4227 14.7125 18.4568 14.686 18.4909 14.6595C18.4434 14.6945 18.3935 14.7229 18.3391 14.7459C18.3804 14.7287 18.4216 14.7115 18.4629 14.6943C18.4135 14.7132 18.3639 14.7264 18.3118 14.7347C18.3561 14.729 18.4004 14.7233 18.4447 14.7176C18.3313 14.7316 18.2133 14.7241 18.0994 14.7241C17.8537 14.7241 17.608 14.7241 17.3623 14.7241C16.5222 14.7241 15.6822 14.7241 14.8421 14.7241C13.7633 14.7241 12.6844 14.7241 11.6056 14.7241C10.5593 14.7241 9.51297 14.7241 8.46668 14.7241C7.7243 14.7241 6.9819 14.7241 6.23952 14.7241C6.01835 14.7241 5.78532 14.7449 5.56495 14.7176C5.60773 14.7235 5.65053 14.7295 5.69331 14.7354C5.65601 14.7294 5.61997 14.7211 5.58386 14.7101C5.53668 14.6933 5.55533 14.7018 5.6398 14.7356C5.61957 14.727 5.60026 14.7165 5.58106 14.7059C5.5684 14.6987 5.556 14.6911 5.54387 14.683C5.46907 14.6353 5.64406 14.7649 5.57639 14.7077C5.54316 14.6796 5.51434 14.6467 5.48741 14.6127C5.51394 14.6467 5.54046 14.6808 5.56698 14.7148C5.53191 14.6674 5.50347 14.6176 5.48048 14.5633C5.49769 14.6045 5.5149 14.6456 5.53211 14.6868C5.51322 14.6376 5.49994 14.588 5.49163 14.5359C5.49734 14.5802 5.50306 14.6244 5.50877 14.6687C5.48826 14.5032 5.50231 14.3293 5.50231 14.1632C5.50231 13.7896 5.50231 13.4161 5.50231 13.0425C5.50231 11.9824 5.50231 10.9224 5.50231 9.86228C5.50231 9.04312 5.50231 8.22394 5.50231 7.40477C5.50231 7.29135 5.49478 7.17397 5.50877 7.06111C5.50286 7.10384 5.49693 7.14658 5.49101 7.18931C5.49696 7.15207 5.50529 7.11607 5.51635 7.08001C5.53314 7.03289 5.52463 7.05152 5.4908 7.13588C5.49934 7.11568 5.50994 7.09641 5.52048 7.07721C5.52771 7.06457 5.53534 7.05219 5.54339 7.04008C5.59124 6.96537 5.46147 7.14014 5.51875 7.07255C5.54687 7.03936 5.57979 7.01059 5.61384 6.98369C5.57974 7.01018 5.54566 7.03666 5.51155 7.06315C5.55905 7.02815 5.60893 6.99973 5.6633 6.97676C5.62206 6.99395 5.58082 7.01114 5.53959 7.02833C5.5889 7.00946 5.63855 6.9962 5.69069 6.9879C5.64638 6.9936 5.60206 6.99931 5.55775 7.00502C5.67115 6.99101 5.78913 6.99856 5.90305 6.99856C6.14875 6.99856 6.39444 6.99856 6.64013 6.99856C7.48021 6.99856 8.32028 6.99856 9.16034 6.99856C10.2392 6.99856 11.318 6.99856 12.3969 6.99856C13.4432 6.99856 14.4895 6.99856 15.5358 6.99856C16.2781 6.99856 17.0205 6.99856 17.7629 6.99856C17.9841 6.99856 18.2171 6.97778 18.4375 7.00502C18.3947 6.99911 18.3519 6.99319 18.3091 6.98728C18.3464 6.99322 18.3825 7.00154 18.4186 7.01259C18.4657 7.02938 18.4471 7.02086 18.3626 6.98706C18.3829 6.99562 18.4021 7.00618 18.4214 7.01671C18.434 7.02394 18.4464 7.03156 18.4586 7.03959C18.5333 7.08738 18.3584 6.95778 18.426 7.01498C18.4593 7.04307 18.4881 7.07595 18.515 7.10996C18.4885 7.07592 18.462 7.04186 18.4355 7.0078C18.4705 7.05523 18.499 7.10505 18.5219 7.15936C18.5048 7.11816 18.4875 7.07698 18.4703 7.0358C18.4892 7.08503 18.5025 7.13463 18.5108 7.18671C18.5051 7.14245 18.4994 7.09818 18.4937 7.05392C18.5142 7.21941 18.5001 7.39333 18.5001 7.55946C18.5001 7.93301 18.5001 8.30656 18.5001 8.68011C18.5001 9.74019 18.5001 10.8003 18.5001 11.8603C18.5001 12.6795 18.5001 13.4987 18.5001 14.3179C18.5001 14.4017 18.5001 14.4856 18.5001 14.5695C18.5001 14.8415 18.7228 15.0706 18.9964 15.0724C19.2673 15.0742 19.4999 14.8487 19.4999 14.5767C19.4999 14.0469 19.4999 13.517 19.4999 12.9872C19.4999 11.9242 19.4999 10.8612 19.4999 9.79818C19.4999 8.99187 19.4999 8.18557 19.4999 7.37929C19.4999 7.31037 19.4999 7.24147 19.4999 7.17257C19.4999 6.8382 19.3631 6.489 19.0955 6.27765C18.8715 6.10071 18.619 6 18.3301 6C18.2813 6 18.2324 6 18.1836 6C17.6117 6 17.0398 6 16.4678 6C15.4971 6 14.5263 6 13.5555 6C12.4572 6 11.3589 6 10.2605 6C9.30602 6 8.35152 6 7.39701 6C6.85766 6 6.31831 6 5.77895 6C5.74079 6 5.70262 6 5.66444 6C5.2506 6 4.88659 6.21477 4.66597 6.55926C4.48944 6.8349 4.5025 7.1439 4.5025 7.45229C4.5025 8.29626 4.5025 9.14023 4.5025 9.9842C4.5025 11.0375 4.5025 12.0908 4.5025 13.144C4.5025 13.5023 4.5025 13.8606 4.5025 14.219C4.5025 14.4564 4.48056 14.721 4.56659 14.9452C4.74117 15.4002 5.15286 15.7226 5.65274 15.7226C5.68548 15.7226 5.71821 15.7226 5.75095 15.7226C5.94243 15.7226 6.1339 15.7226 6.32539 15.7226C7.09366 15.7226 7.86193 15.7226 8.6302 15.7226C9.68609 15.7226 10.742 15.7226 11.7979 15.7226C12.8701 15.7226 13.9422 15.7226 15.0144 15.7226C15.8315 15.7226 16.6486 15.7226 17.4658 15.7226C17.6939 15.7226 17.922 15.7226 18.1501 15.7226C18.2042 15.7226 18.2583 15.7226 18.3124 15.7226C18.5229 15.7226 18.717 15.6744 18.9051 15.5793C19.2731 15.3936 19.4928 14.9784 19.4999 14.5767C19.5047 14.3048 19.2737 14.0756 19.0036 14.0738C18.7291 14.072 18.5049 14.2977 18.5001 14.5695Z" fill="white"/>
  <path d="M9.55611 18.5403C10.2593 18.5403 10.9624 18.5403 11.6656 18.5403C12.5521 18.5403 13.4387 18.5403 14.3253 18.5403C14.3632 18.5403 14.4011 18.5403 14.439 18.5403C14.7113 18.5403 14.9407 18.3179 14.9425 18.0447C14.9443 17.7741 14.7185 17.5418 14.4462 17.5418C13.7431 17.5418 13.0399 17.5418 12.3368 17.5418C11.4502 17.5418 10.5636 17.5418 9.67706 17.5418C9.63914 17.5418 9.60124 17.5418 9.56333 17.5418C9.29106 17.5418 9.06164 17.7642 9.05983 18.0375C9.05803 18.308 9.28383 18.5403 9.55611 18.5403Z" fill="white"/>
  <path d="M12.5011 18.0447C12.5011 17.2177 12.5011 16.3907 12.5011 15.5637C12.5011 15.4514 12.5011 15.3392 12.5011 15.227C12.5011 14.955 12.2785 14.7259 12.0048 14.7241C11.7339 14.7223 11.5013 14.9478 11.5013 15.2198C11.5013 16.0468 11.5013 16.8738 11.5013 17.7008C11.5013 17.813 11.5013 17.9252 11.5013 18.0375C11.5013 18.3094 11.724 18.5385 11.9976 18.5404C12.2685 18.5421 12.5011 18.3166 12.5011 18.0447Z" fill="white"/>
</svg>